G04 #@! TF.GenerationSoftware,KiCad,Pcbnew,(5.1.8)-1*
G04 #@! TF.CreationDate,2021-02-06T21:19:27+01:00*
G04 #@! TF.ProjectId,DMX2PMX,444d5832-504d-4582-9e6b-696361645f70,rev?*
G04 #@! TF.SameCoordinates,PX21e9a40PY3c8eee0*
G04 #@! TF.FileFunction,Copper,L2,Bot*
G04 #@! TF.FilePolarity,Positive*
%FSLAX46Y46*%
G04 Gerber Fmt 4.6, Leading zero omitted, Abs format (unit mm)*
G04 Created by KiCad (PCBNEW (5.1.8)-1) date 2021-02-06 21:19:27*
%MOMM*%
%LPD*%
G01*
G04 APERTURE LIST*
G04 #@! TA.AperFunction,NonConductor*
%ADD10C,0.300000*%
G04 #@! TD*
G04 #@! TA.AperFunction,ComponentPad*
%ADD11C,5.700000*%
G04 #@! TD*
G04 #@! TA.AperFunction,SMDPad,CuDef*
%ADD12R,1.950000X0.600000*%
G04 #@! TD*
G04 #@! TA.AperFunction,ComponentPad*
%ADD13C,1.600000*%
G04 #@! TD*
G04 #@! TA.AperFunction,ComponentPad*
%ADD14R,1.600000X1.600000*%
G04 #@! TD*
G04 #@! TA.AperFunction,ComponentPad*
%ADD15O,1.600000X1.600000*%
G04 #@! TD*
G04 #@! TA.AperFunction,ComponentPad*
%ADD16C,1.500000*%
G04 #@! TD*
G04 #@! TA.AperFunction,ComponentPad*
%ADD17R,2.000000X2.000000*%
G04 #@! TD*
G04 #@! TA.AperFunction,ComponentPad*
%ADD18C,2.000000*%
G04 #@! TD*
G04 #@! TA.AperFunction,ComponentPad*
%ADD19O,2.540000X2.032000*%
G04 #@! TD*
G04 #@! TA.AperFunction,ComponentPad*
%ADD20R,2.200000X2.200000*%
G04 #@! TD*
G04 #@! TA.AperFunction,ComponentPad*
%ADD21O,2.200000X2.200000*%
G04 #@! TD*
G04 #@! TA.AperFunction,ComponentPad*
%ADD22R,1.800000X1.800000*%
G04 #@! TD*
G04 #@! TA.AperFunction,ComponentPad*
%ADD23C,1.800000*%
G04 #@! TD*
G04 #@! TA.AperFunction,ComponentPad*
%ADD24R,1.700000X1.700000*%
G04 #@! TD*
G04 #@! TA.AperFunction,ComponentPad*
%ADD25O,1.700000X1.700000*%
G04 #@! TD*
G04 #@! TA.AperFunction,ComponentPad*
%ADD26R,1.600000X2.400000*%
G04 #@! TD*
G04 #@! TA.AperFunction,ComponentPad*
%ADD27O,1.600000X2.400000*%
G04 #@! TD*
G04 #@! TA.AperFunction,ComponentPad*
%ADD28R,2.400000X1.600000*%
G04 #@! TD*
G04 #@! TA.AperFunction,ComponentPad*
%ADD29O,2.400000X1.600000*%
G04 #@! TD*
G04 #@! TA.AperFunction,ComponentPad*
%ADD30O,2.080000X3.600000*%
G04 #@! TD*
G04 #@! TA.AperFunction,ComponentPad*
%ADD31R,2.080000X3.600000*%
G04 #@! TD*
G04 #@! TA.AperFunction,ViaPad*
%ADD32C,1.600000*%
G04 #@! TD*
G04 #@! TA.AperFunction,Conductor*
%ADD33C,0.600000*%
G04 #@! TD*
G04 #@! TA.AperFunction,Conductor*
%ADD34C,0.254000*%
G04 #@! TD*
G04 #@! TA.AperFunction,Conductor*
%ADD35C,0.100000*%
G04 #@! TD*
G04 APERTURE END LIST*
D10*
X23335000Y-17057857D02*
X23335000Y-20057857D01*
X22620714Y-20057857D01*
X22192142Y-19915000D01*
X21906428Y-19629285D01*
X21763571Y-19343571D01*
X21620714Y-18772142D01*
X21620714Y-18343571D01*
X21763571Y-17772142D01*
X21906428Y-17486428D01*
X22192142Y-17200714D01*
X22620714Y-17057857D01*
X23335000Y-17057857D01*
X20335000Y-17057857D02*
X20335000Y-20057857D01*
X19335000Y-17915000D01*
X18335000Y-20057857D01*
X18335000Y-17057857D01*
X17192142Y-20057857D02*
X15192142Y-17057857D01*
X15192142Y-20057857D02*
X17192142Y-17057857D01*
X14192142Y-19772142D02*
X14049285Y-19915000D01*
X13763571Y-20057857D01*
X13049285Y-20057857D01*
X12763571Y-19915000D01*
X12620714Y-19772142D01*
X12477857Y-19486428D01*
X12477857Y-19200714D01*
X12620714Y-18772142D01*
X14335000Y-17057857D01*
X12477857Y-17057857D01*
X11192142Y-17057857D02*
X11192142Y-20057857D01*
X10049285Y-20057857D01*
X9763571Y-19915000D01*
X9620714Y-19772142D01*
X9477857Y-19486428D01*
X9477857Y-19057857D01*
X9620714Y-18772142D01*
X9763571Y-18629285D01*
X10049285Y-18486428D01*
X11192142Y-18486428D01*
X8192142Y-17057857D02*
X8192142Y-20057857D01*
X7192142Y-17915000D01*
X6192142Y-20057857D01*
X6192142Y-17057857D01*
X5049285Y-20057857D02*
X3049285Y-17057857D01*
X3049285Y-20057857D02*
X5049285Y-17057857D01*
D11*
X48260000Y-52705000D03*
X48260000Y-22225000D03*
D12*
X74040000Y-33655000D03*
X74040000Y-32385000D03*
X74040000Y-31115000D03*
X74040000Y-29845000D03*
X74040000Y-28575000D03*
X74040000Y-27305000D03*
X74040000Y-26035000D03*
X74040000Y-24765000D03*
X74040000Y-23495000D03*
X74040000Y-22225000D03*
X83440000Y-22225000D03*
X83440000Y-23495000D03*
X83440000Y-24765000D03*
X83440000Y-26035000D03*
X83440000Y-27305000D03*
X83440000Y-28575000D03*
X83440000Y-29845000D03*
X83440000Y-31115000D03*
X83440000Y-32385000D03*
X83440000Y-33655000D03*
D13*
X60960000Y-29845000D03*
X58460000Y-29845000D03*
X60960000Y-25019000D03*
X58460000Y-25019000D03*
D14*
X67310000Y-13970000D03*
D15*
X87630000Y-6350000D03*
X69850000Y-13970000D03*
X85090000Y-6350000D03*
X72390000Y-13970000D03*
X82550000Y-6350000D03*
X74930000Y-13970000D03*
X80010000Y-6350000D03*
X77470000Y-13970000D03*
X77470000Y-6350000D03*
X80010000Y-13970000D03*
X74930000Y-6350000D03*
X82550000Y-13970000D03*
X72390000Y-6350000D03*
X85090000Y-13970000D03*
X69850000Y-6350000D03*
X87630000Y-13970000D03*
X67310000Y-6350000D03*
D16*
X65405000Y-29845000D03*
X65405000Y-24965000D03*
D17*
X87630000Y-31115000D03*
D18*
X87630000Y-33655000D03*
X87630000Y-36195000D03*
X90170000Y-31115000D03*
X90170000Y-33655000D03*
X90170000Y-36195000D03*
D13*
X41275000Y-32385000D03*
X41275000Y-34885000D03*
D19*
X46355000Y-36195000D03*
X46355000Y-33655000D03*
X46355000Y-38735000D03*
D13*
X89535000Y-43180000D03*
D15*
X89535000Y-55880000D03*
D13*
X17780000Y-40640000D03*
X17780000Y-43140000D03*
D14*
X67945000Y-46990000D03*
D13*
X67945000Y-49490000D03*
X72390000Y-38775000D03*
X72390000Y-41275000D03*
D14*
X67945000Y-53340000D03*
D13*
X67945000Y-55840000D03*
D14*
X67945000Y-43180000D03*
D13*
X67945000Y-40680000D03*
X41275000Y-40005000D03*
X41275000Y-37505000D03*
D20*
X22860000Y-55880000D03*
D21*
X10160000Y-55880000D03*
D22*
X59690000Y-38100000D03*
D23*
X59690000Y-40640000D03*
D24*
X3810000Y-30480000D03*
D25*
X6350000Y-30480000D03*
X8890000Y-30480000D03*
D24*
X83820000Y-70485000D03*
D25*
X81280000Y-70485000D03*
D24*
X71120000Y-70485000D03*
D25*
X68580000Y-70485000D03*
D13*
X16510000Y-49530000D03*
D15*
X3810000Y-49530000D03*
D13*
X46990000Y-46355000D03*
D15*
X59690000Y-46355000D03*
D26*
X3810000Y-44450000D03*
D27*
X11430000Y-36830000D03*
X6350000Y-44450000D03*
X8890000Y-36830000D03*
X8890000Y-44450000D03*
X6350000Y-36830000D03*
X11430000Y-44450000D03*
X3810000Y-36830000D03*
D18*
X33020000Y-29845000D03*
X30480000Y-29845000D03*
X25400000Y-29845000D03*
X20320000Y-29845000D03*
D28*
X74930000Y-45720000D03*
D29*
X82550000Y-63500000D03*
X74930000Y-48260000D03*
X82550000Y-60960000D03*
X74930000Y-50800000D03*
X82550000Y-58420000D03*
X74930000Y-53340000D03*
X82550000Y-55880000D03*
X74930000Y-55880000D03*
X82550000Y-53340000D03*
X74930000Y-58420000D03*
X82550000Y-50800000D03*
X74930000Y-60960000D03*
X82550000Y-48260000D03*
X74930000Y-63500000D03*
X82550000Y-45720000D03*
D14*
X67945000Y-62230000D03*
D13*
X67945000Y-59730000D03*
X86360000Y-48220000D03*
X86360000Y-45720000D03*
D30*
X19050000Y-60960000D03*
D31*
X13970000Y-60960000D03*
D15*
X52070000Y-29845000D03*
D13*
X52070000Y-42545000D03*
D29*
X31750000Y-38100000D03*
X24130000Y-45720000D03*
X31750000Y-40640000D03*
X24130000Y-43180000D03*
X31750000Y-43180000D03*
X24130000Y-40640000D03*
X31750000Y-45720000D03*
D28*
X24130000Y-38100000D03*
D32*
X83185000Y-38735000D03*
X74930000Y-38735000D03*
X74930000Y-36195000D03*
X83185000Y-36195000D03*
X38100000Y-34925000D03*
X38100000Y-29845000D03*
D33*
X74040000Y-29845000D02*
X68580000Y-29845000D01*
X68580000Y-29845000D02*
X64135000Y-29845000D01*
X64770000Y-29845000D02*
X64135000Y-29845000D01*
X64135000Y-29845000D02*
X61595000Y-29845000D01*
X61595000Y-24965000D02*
X64970000Y-24965000D01*
X68580000Y-28575000D02*
X74040000Y-28575000D01*
X68580000Y-28575000D02*
X64970000Y-24965000D01*
X45085000Y-32385000D02*
X46355000Y-33655000D01*
X41275000Y-32385000D02*
X45085000Y-32385000D01*
X82550000Y-45720000D02*
X86360000Y-45720000D01*
X89535000Y-55880000D02*
X89535000Y-46990000D01*
X89535000Y-46990000D02*
X88265000Y-45720000D01*
X88265000Y-45720000D02*
X86360000Y-45720000D01*
X83185000Y-38735000D02*
X81280000Y-38735000D01*
X41275000Y-32385000D02*
X33020000Y-32385000D01*
X81865000Y-33655000D02*
X81280000Y-34240000D01*
X83440000Y-33655000D02*
X81865000Y-33655000D01*
X81280000Y-34240000D02*
X81280000Y-42545000D01*
X82550000Y-43815000D02*
X82550000Y-45720000D01*
X81280000Y-42545000D02*
X82550000Y-43815000D01*
X72390000Y-36195000D02*
X72390000Y-38775000D01*
X72430000Y-38735000D02*
X72390000Y-38775000D01*
X74930000Y-38735000D02*
X72430000Y-38735000D01*
X33020000Y-31750000D02*
X33020000Y-29845000D01*
X31750000Y-38100000D02*
X33020000Y-36830000D01*
X33020000Y-36830000D02*
X33020000Y-31750000D01*
X50165000Y-33655000D02*
X52070000Y-35560000D01*
X52070000Y-42545000D02*
X52070000Y-35560000D01*
X46355000Y-33655000D02*
X50165000Y-33655000D01*
X71755000Y-35560000D02*
X72390000Y-36195000D01*
X59690000Y-38100000D02*
X59690000Y-35560000D01*
X52070000Y-35560000D02*
X59690000Y-35560000D01*
X59690000Y-35560000D02*
X71755000Y-35560000D01*
X22330000Y-40640000D02*
X24130000Y-40640000D01*
X3810000Y-37230000D02*
X7220000Y-40640000D01*
X3810000Y-36830000D02*
X3810000Y-37230000D01*
X20320000Y-31750000D02*
X20320000Y-40640000D01*
X7220000Y-40640000D02*
X17780000Y-40640000D01*
X20320000Y-40640000D02*
X22330000Y-40640000D01*
X20320000Y-40640000D02*
X17780000Y-40640000D01*
X20320000Y-31750000D02*
X20320000Y-29845000D01*
X74930000Y-45720000D02*
X73025000Y-45720000D01*
X71755000Y-46990000D02*
X68580000Y-46990000D01*
X73025000Y-45720000D02*
X71755000Y-46990000D01*
X74930000Y-50800000D02*
X73025000Y-50800000D01*
X71715000Y-49490000D02*
X68580000Y-49490000D01*
X73025000Y-50800000D02*
X71715000Y-49490000D01*
X74930000Y-53340000D02*
X68580000Y-53340000D01*
X68620000Y-55880000D02*
X68580000Y-55840000D01*
X74930000Y-55880000D02*
X68620000Y-55880000D01*
X76200000Y-43180000D02*
X68580000Y-43180000D01*
X77470000Y-44450000D02*
X76200000Y-43180000D01*
X77470000Y-47625000D02*
X77470000Y-44450000D01*
X74930000Y-48260000D02*
X76835000Y-48260000D01*
X76835000Y-48260000D02*
X77470000Y-47625000D01*
X83440000Y-31115000D02*
X87630000Y-31115000D01*
X81280000Y-31115000D02*
X83440000Y-31115000D01*
X80010000Y-32385000D02*
X81280000Y-31115000D01*
X80010000Y-57150000D02*
X80010000Y-32385000D01*
X82550000Y-58420000D02*
X81280000Y-58420000D01*
X81280000Y-58420000D02*
X80010000Y-57150000D01*
X85015000Y-32385000D02*
X86285000Y-33655000D01*
X83440000Y-32385000D02*
X85015000Y-32385000D01*
X86285000Y-33655000D02*
X87630000Y-33655000D01*
X87630000Y-41275000D02*
X89535000Y-43180000D01*
X87630000Y-36195000D02*
X87630000Y-38735000D01*
X87630000Y-36195000D02*
X85090000Y-36195000D01*
X74930000Y-36195000D02*
X74040000Y-35305000D01*
X74040000Y-33655000D02*
X74040000Y-35305000D01*
X87630000Y-41275000D02*
X87630000Y-38735000D01*
X85090000Y-36195000D02*
X83185000Y-36195000D01*
X91440000Y-33655000D02*
X90170000Y-33655000D01*
X85090000Y-29845000D02*
X86360000Y-28575000D01*
X83440000Y-29845000D02*
X85090000Y-29845000D01*
X86360000Y-28575000D02*
X91440000Y-28575000D01*
X91440000Y-28575000D02*
X92710000Y-29845000D01*
X92710000Y-29845000D02*
X92710000Y-32385000D01*
X92710000Y-32385000D02*
X91440000Y-33655000D01*
X59690000Y-46355000D02*
X59690000Y-40640000D01*
X6350000Y-35030000D02*
X3810000Y-32490000D01*
X6350000Y-36830000D02*
X6350000Y-35030000D01*
X3810000Y-32490000D02*
X3810000Y-30480000D01*
X8890000Y-36830000D02*
X8890000Y-30480000D01*
X84350000Y-50800000D02*
X82550000Y-50800000D01*
X85725000Y-52175000D02*
X84350000Y-50800000D01*
X85725000Y-70030000D02*
X85725000Y-52175000D01*
X83820000Y-70485000D02*
X85270000Y-70485000D01*
X85270000Y-70485000D02*
X85725000Y-70030000D01*
X76730000Y-60960000D02*
X78105000Y-62335000D01*
X74930000Y-60960000D02*
X76730000Y-60960000D01*
X78105000Y-62335000D02*
X78105000Y-69215000D01*
X76835000Y-70485000D02*
X71120000Y-70485000D01*
X78105000Y-69215000D02*
X76835000Y-70485000D01*
X19050000Y-49530000D02*
X16510000Y-49530000D01*
X19050000Y-46460000D02*
X19050000Y-49530000D01*
X24130000Y-43180000D02*
X22330000Y-43180000D01*
X22330000Y-43180000D02*
X19050000Y-46460000D01*
X3810000Y-49530000D02*
X3810000Y-44450000D01*
X80010000Y-16510000D02*
X80010000Y-13970000D01*
X85725000Y-23495000D02*
X87630000Y-21590000D01*
X87630000Y-21590000D02*
X87630000Y-20320000D01*
X83440000Y-23495000D02*
X85725000Y-23495000D01*
X87630000Y-20320000D02*
X86360000Y-19050000D01*
X86360000Y-19050000D02*
X82550000Y-19050000D01*
X82550000Y-19050000D02*
X80010000Y-16510000D01*
X82550000Y-16510000D02*
X82550000Y-13970000D01*
X83440000Y-24765000D02*
X86995000Y-24765000D01*
X86995000Y-24765000D02*
X88900000Y-22860000D01*
X88900000Y-22860000D02*
X88900000Y-19050000D01*
X88900000Y-19050000D02*
X87630000Y-17780000D01*
X87630000Y-17780000D02*
X83820000Y-17780000D01*
X83820000Y-17780000D02*
X82550000Y-16510000D01*
X85090000Y-15240000D02*
X85090000Y-13970000D01*
X88265000Y-26035000D02*
X90170000Y-24130000D01*
X83440000Y-26035000D02*
X88265000Y-26035000D01*
X90170000Y-24130000D02*
X90170000Y-17780000D01*
X90170000Y-17780000D02*
X88900000Y-16510000D01*
X88900000Y-16510000D02*
X86360000Y-16510000D01*
X86360000Y-16510000D02*
X85090000Y-15240000D01*
X83440000Y-27305000D02*
X89535000Y-27305000D01*
X89535000Y-27305000D02*
X91440000Y-25400000D01*
X91440000Y-16510000D02*
X88900000Y-13970000D01*
X88900000Y-13970000D02*
X87630000Y-13970000D01*
X91440000Y-25400000D02*
X91440000Y-16510000D01*
X73025000Y-27305000D02*
X74040000Y-27305000D01*
X69215000Y-27305000D02*
X73025000Y-27305000D01*
X67310000Y-25400000D02*
X69215000Y-27305000D01*
X67310000Y-13970000D02*
X67310000Y-25400000D01*
X70485000Y-26035000D02*
X74040000Y-26035000D01*
X68580000Y-24130000D02*
X70485000Y-26035000D01*
X68580000Y-17780000D02*
X68580000Y-24130000D01*
X69850000Y-13970000D02*
X69850000Y-16510000D01*
X69850000Y-16510000D02*
X68580000Y-17780000D01*
X72390000Y-16510000D02*
X72390000Y-13970000D01*
X69850000Y-19050000D02*
X72390000Y-16510000D01*
X69850000Y-22860000D02*
X69850000Y-19050000D01*
X74040000Y-24765000D02*
X71755000Y-24765000D01*
X71755000Y-24765000D02*
X69850000Y-22860000D01*
X74930000Y-16510000D02*
X74930000Y-13970000D01*
X71120000Y-20320000D02*
X74930000Y-16510000D01*
X71120000Y-22150000D02*
X71120000Y-20320000D01*
X72465000Y-23495000D02*
X71120000Y-22150000D01*
X74040000Y-23495000D02*
X72465000Y-23495000D01*
X77470000Y-15101370D02*
X77470000Y-13970000D01*
X77470000Y-16510000D02*
X77470000Y-15101370D01*
X83185000Y-22225000D02*
X77470000Y-16510000D01*
X83440000Y-22225000D02*
X83185000Y-22225000D01*
X80645000Y-28575000D02*
X83440000Y-28575000D01*
X78740000Y-30480000D02*
X80645000Y-28575000D01*
X78740000Y-58950000D02*
X78740000Y-30480000D01*
X82550000Y-60960000D02*
X80750000Y-60960000D01*
X80750000Y-60960000D02*
X78740000Y-58950000D01*
X74930000Y-58420000D02*
X72390000Y-58420000D01*
X71080000Y-59730000D02*
X68580000Y-59730000D01*
X72390000Y-58420000D02*
X71080000Y-59730000D01*
X19050000Y-60960000D02*
X19050000Y-60200000D01*
X46355000Y-38735000D02*
X45085000Y-40005000D01*
X45085000Y-40005000D02*
X41275000Y-40005000D01*
X20320000Y-55880000D02*
X22860000Y-55880000D01*
X19050000Y-60960000D02*
X19050000Y-57150000D01*
X19050000Y-57150000D02*
X20320000Y-55880000D01*
X41275000Y-45720000D02*
X41275000Y-40005000D01*
X41275000Y-46355000D02*
X41275000Y-45720000D01*
X41275000Y-48260000D02*
X41275000Y-45720000D01*
X40005000Y-49530000D02*
X41275000Y-48260000D01*
X38100000Y-49530000D02*
X40005000Y-49530000D01*
X31750000Y-55880000D02*
X38100000Y-49530000D01*
X23370000Y-55880000D02*
X31750000Y-55880000D01*
X38100000Y-40005000D02*
X38100000Y-34925000D01*
X38100000Y-41910000D02*
X38100000Y-40005000D01*
X31750000Y-43180000D02*
X36830000Y-43180000D01*
X36830000Y-43180000D02*
X38100000Y-41910000D01*
X57150000Y-32385000D02*
X74040000Y-32385000D01*
X54610000Y-29845000D02*
X57150000Y-32385000D01*
X38100000Y-29845000D02*
X54610000Y-29845000D01*
D34*
X26543000Y-28665442D02*
X26471475Y-28593917D01*
X26355807Y-28709585D01*
X26260044Y-28445186D01*
X25970429Y-28304296D01*
X25658892Y-28222616D01*
X25337405Y-28203282D01*
X25018325Y-28247039D01*
X24713912Y-28352205D01*
X24539956Y-28445186D01*
X24444192Y-28709587D01*
X25400000Y-29665395D01*
X25414143Y-29651253D01*
X25593748Y-29830858D01*
X25579605Y-29845000D01*
X25593748Y-29859143D01*
X25414143Y-30038748D01*
X25400000Y-30024605D01*
X24444192Y-30980413D01*
X24539956Y-31244814D01*
X24829571Y-31385704D01*
X25141108Y-31467384D01*
X25462595Y-31486718D01*
X25781675Y-31442961D01*
X26086088Y-31337795D01*
X26260044Y-31244814D01*
X26355807Y-30980415D01*
X26471475Y-31096083D01*
X26543000Y-31024558D01*
X26543000Y-50673000D01*
X17382311Y-50673000D01*
X17424759Y-50644637D01*
X17604396Y-50465000D01*
X19004068Y-50465000D01*
X19050000Y-50469524D01*
X19095932Y-50465000D01*
X19233292Y-50451471D01*
X19409540Y-50398007D01*
X19571972Y-50311186D01*
X19714344Y-50194344D01*
X19831186Y-50051972D01*
X19918007Y-49889540D01*
X19971471Y-49713292D01*
X19989524Y-49530000D01*
X19985000Y-49484068D01*
X19985000Y-46847289D01*
X22675364Y-44156926D01*
X22710392Y-44199608D01*
X22928899Y-44378932D01*
X23061858Y-44450000D01*
X22928899Y-44521068D01*
X22710392Y-44700392D01*
X22531068Y-44918899D01*
X22397818Y-45168192D01*
X22315764Y-45438691D01*
X22288057Y-45720000D01*
X22315764Y-46001309D01*
X22397818Y-46271808D01*
X22531068Y-46521101D01*
X22710392Y-46739608D01*
X22928899Y-46918932D01*
X23178192Y-47052182D01*
X23448691Y-47134236D01*
X23659508Y-47155000D01*
X24600492Y-47155000D01*
X24811309Y-47134236D01*
X25081808Y-47052182D01*
X25331101Y-46918932D01*
X25549608Y-46739608D01*
X25728932Y-46521101D01*
X25862182Y-46271808D01*
X25944236Y-46001309D01*
X25971943Y-45720000D01*
X25944236Y-45438691D01*
X25862182Y-45168192D01*
X25728932Y-44918899D01*
X25549608Y-44700392D01*
X25331101Y-44521068D01*
X25198142Y-44450000D01*
X25331101Y-44378932D01*
X25549608Y-44199608D01*
X25728932Y-43981101D01*
X25862182Y-43731808D01*
X25944236Y-43461309D01*
X25971943Y-43180000D01*
X25944236Y-42898691D01*
X25862182Y-42628192D01*
X25728932Y-42378899D01*
X25549608Y-42160392D01*
X25331101Y-41981068D01*
X25198142Y-41910000D01*
X25331101Y-41838932D01*
X25549608Y-41659608D01*
X25728932Y-41441101D01*
X25862182Y-41191808D01*
X25944236Y-40921309D01*
X25971943Y-40640000D01*
X25944236Y-40358691D01*
X25862182Y-40088192D01*
X25728932Y-39838899D01*
X25549608Y-39620392D01*
X25436518Y-39527581D01*
X25454482Y-39525812D01*
X25574180Y-39489502D01*
X25684494Y-39430537D01*
X25781185Y-39351185D01*
X25860537Y-39254494D01*
X25919502Y-39144180D01*
X25955812Y-39024482D01*
X25968072Y-38900000D01*
X25968072Y-37300000D01*
X25955812Y-37175518D01*
X25919502Y-37055820D01*
X25860537Y-36945506D01*
X25781185Y-36848815D01*
X25684494Y-36769463D01*
X25574180Y-36710498D01*
X25454482Y-36674188D01*
X25330000Y-36661928D01*
X22930000Y-36661928D01*
X22805518Y-36674188D01*
X22685820Y-36710498D01*
X22575506Y-36769463D01*
X22478815Y-36848815D01*
X22399463Y-36945506D01*
X22340498Y-37055820D01*
X22304188Y-37175518D01*
X22291928Y-37300000D01*
X22291928Y-38900000D01*
X22304188Y-39024482D01*
X22340498Y-39144180D01*
X22399463Y-39254494D01*
X22478815Y-39351185D01*
X22575506Y-39430537D01*
X22685820Y-39489502D01*
X22805518Y-39525812D01*
X22823482Y-39527581D01*
X22710392Y-39620392D01*
X22640956Y-39705000D01*
X21255000Y-39705000D01*
X21255000Y-31186651D01*
X21362252Y-31114987D01*
X21589987Y-30887252D01*
X21768918Y-30619463D01*
X21892168Y-30321912D01*
X21955000Y-30006033D01*
X21955000Y-29907595D01*
X23758282Y-29907595D01*
X23802039Y-30226675D01*
X23907205Y-30531088D01*
X24000186Y-30705044D01*
X24264587Y-30800808D01*
X25220395Y-29845000D01*
X24264587Y-28889192D01*
X24000186Y-28984956D01*
X23859296Y-29274571D01*
X23777616Y-29586108D01*
X23758282Y-29907595D01*
X21955000Y-29907595D01*
X21955000Y-29683967D01*
X21892168Y-29368088D01*
X21768918Y-29070537D01*
X21589987Y-28802748D01*
X21362252Y-28575013D01*
X21094463Y-28396082D01*
X20796912Y-28272832D01*
X20481033Y-28210000D01*
X20158967Y-28210000D01*
X19843088Y-28272832D01*
X19545537Y-28396082D01*
X19277748Y-28575013D01*
X19050013Y-28802748D01*
X18871082Y-29070537D01*
X18747832Y-29368088D01*
X18685000Y-29683967D01*
X18685000Y-30006033D01*
X18747832Y-30321912D01*
X18871082Y-30619463D01*
X19050013Y-30887252D01*
X19277748Y-31114987D01*
X19385000Y-31186651D01*
X19385000Y-31704069D01*
X19385001Y-39705000D01*
X18874396Y-39705000D01*
X18694759Y-39525363D01*
X18459727Y-39368320D01*
X18198574Y-39260147D01*
X17921335Y-39205000D01*
X17638665Y-39205000D01*
X17361426Y-39260147D01*
X17100273Y-39368320D01*
X16865241Y-39525363D01*
X16685604Y-39705000D01*
X7607290Y-39705000D01*
X6554127Y-38651838D01*
X6631309Y-38644236D01*
X6901808Y-38562182D01*
X7151101Y-38428932D01*
X7369608Y-38249608D01*
X7548932Y-38031101D01*
X7620000Y-37898142D01*
X7691068Y-38031101D01*
X7870393Y-38249608D01*
X8088900Y-38428932D01*
X8338193Y-38562182D01*
X8608692Y-38644236D01*
X8890000Y-38671943D01*
X9171309Y-38644236D01*
X9441808Y-38562182D01*
X9691101Y-38428932D01*
X9909608Y-38249608D01*
X10088932Y-38031101D01*
X10157265Y-37903259D01*
X10307399Y-38132839D01*
X10505105Y-38334500D01*
X10738354Y-38493715D01*
X10998182Y-38604367D01*
X11080961Y-38621904D01*
X11303000Y-38499915D01*
X11303000Y-36957000D01*
X11557000Y-36957000D01*
X11557000Y-38499915D01*
X11779039Y-38621904D01*
X11861818Y-38604367D01*
X12121646Y-38493715D01*
X12354895Y-38334500D01*
X12552601Y-38132839D01*
X12707166Y-37896483D01*
X12812650Y-37634514D01*
X12865000Y-37357000D01*
X12865000Y-36957000D01*
X11557000Y-36957000D01*
X11303000Y-36957000D01*
X11283000Y-36957000D01*
X11283000Y-36703000D01*
X11303000Y-36703000D01*
X11303000Y-35160085D01*
X11557000Y-35160085D01*
X11557000Y-36703000D01*
X12865000Y-36703000D01*
X12865000Y-36303000D01*
X12812650Y-36025486D01*
X12707166Y-35763517D01*
X12552601Y-35527161D01*
X12354895Y-35325500D01*
X12121646Y-35166285D01*
X11861818Y-35055633D01*
X11779039Y-35038096D01*
X11557000Y-35160085D01*
X11303000Y-35160085D01*
X11080961Y-35038096D01*
X10998182Y-35055633D01*
X10738354Y-35166285D01*
X10505105Y-35325500D01*
X10307399Y-35527161D01*
X10157265Y-35756741D01*
X10088932Y-35628899D01*
X9909607Y-35410392D01*
X9825000Y-35340957D01*
X9825000Y-31641247D01*
X9836632Y-31633475D01*
X10043475Y-31426632D01*
X10205990Y-31183411D01*
X10317932Y-30913158D01*
X10375000Y-30626260D01*
X10375000Y-30333740D01*
X10317932Y-30046842D01*
X10205990Y-29776589D01*
X10043475Y-29533368D01*
X9836632Y-29326525D01*
X9593411Y-29164010D01*
X9323158Y-29052068D01*
X9036260Y-28995000D01*
X8743740Y-28995000D01*
X8456842Y-29052068D01*
X8186589Y-29164010D01*
X7943368Y-29326525D01*
X7736525Y-29533368D01*
X7614805Y-29715534D01*
X7545178Y-29598645D01*
X7350269Y-29382412D01*
X7116920Y-29208359D01*
X6854099Y-29083175D01*
X6706890Y-29038524D01*
X6477000Y-29159845D01*
X6477000Y-30353000D01*
X6497000Y-30353000D01*
X6497000Y-30607000D01*
X6477000Y-30607000D01*
X6477000Y-31800155D01*
X6706890Y-31921476D01*
X6854099Y-31876825D01*
X7116920Y-31751641D01*
X7350269Y-31577588D01*
X7545178Y-31361355D01*
X7614805Y-31244466D01*
X7736525Y-31426632D01*
X7943368Y-31633475D01*
X7955001Y-31641248D01*
X7955000Y-35340956D01*
X7870392Y-35410393D01*
X7691068Y-35628900D01*
X7620000Y-35761858D01*
X7548932Y-35628899D01*
X7369607Y-35410392D01*
X7285000Y-35340957D01*
X7285000Y-35075924D01*
X7289523Y-35029999D01*
X7285000Y-34984074D01*
X7285000Y-34984068D01*
X7271471Y-34846708D01*
X7218007Y-34670460D01*
X7131186Y-34508028D01*
X7014344Y-34365656D01*
X6978664Y-34336374D01*
X4745000Y-32102711D01*
X4745000Y-31959701D01*
X4784482Y-31955812D01*
X4904180Y-31919502D01*
X5014494Y-31860537D01*
X5111185Y-31781185D01*
X5190537Y-31684494D01*
X5249502Y-31574180D01*
X5273966Y-31493534D01*
X5349731Y-31577588D01*
X5583080Y-31751641D01*
X5845901Y-31876825D01*
X5993110Y-31921476D01*
X6223000Y-31800155D01*
X6223000Y-30607000D01*
X6203000Y-30607000D01*
X6203000Y-30353000D01*
X6223000Y-30353000D01*
X6223000Y-29159845D01*
X5993110Y-29038524D01*
X5845901Y-29083175D01*
X5583080Y-29208359D01*
X5349731Y-29382412D01*
X5273966Y-29466466D01*
X5249502Y-29385820D01*
X5190537Y-29275506D01*
X5111185Y-29178815D01*
X5014494Y-29099463D01*
X4904180Y-29040498D01*
X4784482Y-29004188D01*
X4660000Y-28991928D01*
X2960000Y-28991928D01*
X2835518Y-29004188D01*
X2715820Y-29040498D01*
X2605506Y-29099463D01*
X2508815Y-29178815D01*
X2429463Y-29275506D01*
X2370498Y-29385820D01*
X2334188Y-29505518D01*
X2321928Y-29630000D01*
X2321928Y-31330000D01*
X2334188Y-31454482D01*
X2370498Y-31574180D01*
X2429463Y-31684494D01*
X2508815Y-31781185D01*
X2605506Y-31860537D01*
X2715820Y-31919502D01*
X2835518Y-31955812D01*
X2875000Y-31959701D01*
X2875000Y-32444068D01*
X2870476Y-32490000D01*
X2875000Y-32535931D01*
X2888529Y-32673291D01*
X2941993Y-32849539D01*
X3028814Y-33011971D01*
X3145656Y-33154344D01*
X3181341Y-33183630D01*
X5373074Y-35375364D01*
X5330392Y-35410393D01*
X5151068Y-35628900D01*
X5080000Y-35761858D01*
X5008932Y-35628899D01*
X4829607Y-35410392D01*
X4611100Y-35231068D01*
X4361807Y-35097818D01*
X4091308Y-35015764D01*
X3810000Y-34988057D01*
X3528691Y-35015764D01*
X3258192Y-35097818D01*
X3008899Y-35231068D01*
X2790392Y-35410393D01*
X2611068Y-35628900D01*
X2477818Y-35878193D01*
X2395764Y-36148692D01*
X2375000Y-36359509D01*
X2375000Y-37300492D01*
X2395764Y-37511309D01*
X2477818Y-37781808D01*
X2611068Y-38031101D01*
X2790393Y-38249608D01*
X3008900Y-38428932D01*
X3258193Y-38562182D01*
X3528692Y-38644236D01*
X3810000Y-38671943D01*
X3918925Y-38661215D01*
X6526374Y-41268664D01*
X6555656Y-41304344D01*
X6698028Y-41421186D01*
X6860460Y-41508007D01*
X6983243Y-41545253D01*
X7036707Y-41561471D01*
X7219999Y-41579524D01*
X7265931Y-41575000D01*
X16685604Y-41575000D01*
X16865241Y-41754637D01*
X17065869Y-41888692D01*
X17038486Y-41903329D01*
X16966903Y-42147298D01*
X17780000Y-42960395D01*
X18593097Y-42147298D01*
X18521514Y-41903329D01*
X18492659Y-41889676D01*
X18694759Y-41754637D01*
X18874396Y-41575000D01*
X20274068Y-41575000D01*
X20320000Y-41579524D01*
X20365932Y-41575000D01*
X22640956Y-41575000D01*
X22710392Y-41659608D01*
X22928899Y-41838932D01*
X23061858Y-41910000D01*
X22928899Y-41981068D01*
X22710392Y-42160392D01*
X22640956Y-42245000D01*
X22375924Y-42245000D01*
X22329999Y-42240477D01*
X22284074Y-42245000D01*
X22284068Y-42245000D01*
X22165110Y-42256717D01*
X22146707Y-42258529D01*
X22093243Y-42274747D01*
X21970460Y-42311993D01*
X21808028Y-42398814D01*
X21665656Y-42515656D01*
X21636374Y-42551336D01*
X18421341Y-45766370D01*
X18385656Y-45795656D01*
X18268814Y-45938029D01*
X18181993Y-46100461D01*
X18144407Y-46224367D01*
X18128529Y-46276709D01*
X18110476Y-46460000D01*
X18115000Y-46505932D01*
X18115001Y-48595000D01*
X17604396Y-48595000D01*
X17424759Y-48415363D01*
X17189727Y-48258320D01*
X16928574Y-48150147D01*
X16651335Y-48095000D01*
X16368665Y-48095000D01*
X16091426Y-48150147D01*
X15830273Y-48258320D01*
X15595241Y-48415363D01*
X15395363Y-48615241D01*
X15238320Y-48850273D01*
X15130147Y-49111426D01*
X15075000Y-49388665D01*
X15075000Y-49671335D01*
X15130147Y-49948574D01*
X15238320Y-50209727D01*
X15395363Y-50444759D01*
X15595241Y-50644637D01*
X15637689Y-50673000D01*
X4682311Y-50673000D01*
X4724759Y-50644637D01*
X4924637Y-50444759D01*
X5081680Y-50209727D01*
X5189853Y-49948574D01*
X5245000Y-49671335D01*
X5245000Y-49388665D01*
X5189853Y-49111426D01*
X5081680Y-48850273D01*
X4924637Y-48615241D01*
X4745000Y-48435604D01*
X4745000Y-46272621D01*
X4854180Y-46239502D01*
X4964494Y-46180537D01*
X5061185Y-46101185D01*
X5140537Y-46004494D01*
X5199502Y-45894180D01*
X5235812Y-45774482D01*
X5236981Y-45762613D01*
X5425105Y-45954500D01*
X5658354Y-46113715D01*
X5918182Y-46224367D01*
X6000961Y-46241904D01*
X6223000Y-46119915D01*
X6223000Y-44577000D01*
X6477000Y-44577000D01*
X6477000Y-46119915D01*
X6699039Y-46241904D01*
X6781818Y-46224367D01*
X7041646Y-46113715D01*
X7274895Y-45954500D01*
X7472601Y-45752839D01*
X7620000Y-45527441D01*
X7767399Y-45752839D01*
X7965105Y-45954500D01*
X8198354Y-46113715D01*
X8458182Y-46224367D01*
X8540961Y-46241904D01*
X8763000Y-46119915D01*
X8763000Y-44577000D01*
X9017000Y-44577000D01*
X9017000Y-46119915D01*
X9239039Y-46241904D01*
X9321818Y-46224367D01*
X9581646Y-46113715D01*
X9814895Y-45954500D01*
X10012601Y-45752839D01*
X10160000Y-45527441D01*
X10307399Y-45752839D01*
X10505105Y-45954500D01*
X10738354Y-46113715D01*
X10998182Y-46224367D01*
X11080961Y-46241904D01*
X11303000Y-46119915D01*
X11303000Y-44577000D01*
X11557000Y-44577000D01*
X11557000Y-46119915D01*
X11779039Y-46241904D01*
X11861818Y-46224367D01*
X12121646Y-46113715D01*
X12354895Y-45954500D01*
X12552601Y-45752839D01*
X12707166Y-45516483D01*
X12812650Y-45254514D01*
X12865000Y-44977000D01*
X12865000Y-44577000D01*
X11557000Y-44577000D01*
X11303000Y-44577000D01*
X9017000Y-44577000D01*
X8763000Y-44577000D01*
X6477000Y-44577000D01*
X6223000Y-44577000D01*
X6203000Y-44577000D01*
X6203000Y-44323000D01*
X6223000Y-44323000D01*
X6223000Y-42780085D01*
X6477000Y-42780085D01*
X6477000Y-44323000D01*
X8763000Y-44323000D01*
X8763000Y-42780085D01*
X9017000Y-42780085D01*
X9017000Y-44323000D01*
X11303000Y-44323000D01*
X11303000Y-42780085D01*
X11557000Y-42780085D01*
X11557000Y-44323000D01*
X12865000Y-44323000D01*
X12865000Y-44132702D01*
X16966903Y-44132702D01*
X17038486Y-44376671D01*
X17293996Y-44497571D01*
X17568184Y-44566300D01*
X17850512Y-44580217D01*
X18130130Y-44538787D01*
X18396292Y-44443603D01*
X18521514Y-44376671D01*
X18593097Y-44132702D01*
X17780000Y-43319605D01*
X16966903Y-44132702D01*
X12865000Y-44132702D01*
X12865000Y-43923000D01*
X12812650Y-43645486D01*
X12707166Y-43383517D01*
X12594030Y-43210512D01*
X16339783Y-43210512D01*
X16381213Y-43490130D01*
X16476397Y-43756292D01*
X16543329Y-43881514D01*
X16787298Y-43953097D01*
X17600395Y-43140000D01*
X17959605Y-43140000D01*
X18772702Y-43953097D01*
X19016671Y-43881514D01*
X19137571Y-43626004D01*
X19206300Y-43351816D01*
X19220217Y-43069488D01*
X19178787Y-42789870D01*
X19083603Y-42523708D01*
X19016671Y-42398486D01*
X18772702Y-42326903D01*
X17959605Y-43140000D01*
X17600395Y-43140000D01*
X16787298Y-42326903D01*
X16543329Y-42398486D01*
X16422429Y-42653996D01*
X16353700Y-42928184D01*
X16339783Y-43210512D01*
X12594030Y-43210512D01*
X12552601Y-43147161D01*
X12354895Y-42945500D01*
X12121646Y-42786285D01*
X11861818Y-42675633D01*
X11779039Y-42658096D01*
X11557000Y-42780085D01*
X11303000Y-42780085D01*
X11080961Y-42658096D01*
X10998182Y-42675633D01*
X10738354Y-42786285D01*
X10505105Y-42945500D01*
X10307399Y-43147161D01*
X10160000Y-43372559D01*
X10012601Y-43147161D01*
X9814895Y-42945500D01*
X9581646Y-42786285D01*
X9321818Y-42675633D01*
X9239039Y-42658096D01*
X9017000Y-42780085D01*
X8763000Y-42780085D01*
X8540961Y-42658096D01*
X8458182Y-42675633D01*
X8198354Y-42786285D01*
X7965105Y-42945500D01*
X7767399Y-43147161D01*
X7620000Y-43372559D01*
X7472601Y-43147161D01*
X7274895Y-42945500D01*
X7041646Y-42786285D01*
X6781818Y-42675633D01*
X6699039Y-42658096D01*
X6477000Y-42780085D01*
X6223000Y-42780085D01*
X6000961Y-42658096D01*
X5918182Y-42675633D01*
X5658354Y-42786285D01*
X5425105Y-42945500D01*
X5236981Y-43137387D01*
X5235812Y-43125518D01*
X5199502Y-43005820D01*
X5140537Y-42895506D01*
X5061185Y-42798815D01*
X4964494Y-42719463D01*
X4854180Y-42660498D01*
X4734482Y-42624188D01*
X4610000Y-42611928D01*
X3010000Y-42611928D01*
X2885518Y-42624188D01*
X2765820Y-42660498D01*
X2655506Y-42719463D01*
X2558815Y-42798815D01*
X2479463Y-42895506D01*
X2420498Y-43005820D01*
X2384188Y-43125518D01*
X2371928Y-43250000D01*
X2371928Y-45650000D01*
X2384188Y-45774482D01*
X2420498Y-45894180D01*
X2479463Y-46004494D01*
X2558815Y-46101185D01*
X2655506Y-46180537D01*
X2765820Y-46239502D01*
X2875001Y-46272622D01*
X2875000Y-48435604D01*
X2695363Y-48615241D01*
X2538320Y-48850273D01*
X2430147Y-49111426D01*
X2375000Y-49388665D01*
X2375000Y-49671335D01*
X2430147Y-49948574D01*
X2538320Y-50209727D01*
X2695363Y-50444759D01*
X2895241Y-50644637D01*
X2937689Y-50673000D01*
X710000Y-50673000D01*
X710000Y-15215000D01*
X1835714Y-15215000D01*
X1835714Y-21285000D01*
X24834285Y-21285000D01*
X24834285Y-15215000D01*
X1835714Y-15215000D01*
X710000Y-15215000D01*
X710000Y-710000D01*
X26543000Y-710000D01*
X26543000Y-28665442D01*
G04 #@! TA.AperFunction,Conductor*
D35*
G36*
X26543000Y-28665442D02*
G01*
X26471475Y-28593917D01*
X26355807Y-28709585D01*
X26260044Y-28445186D01*
X25970429Y-28304296D01*
X25658892Y-28222616D01*
X25337405Y-28203282D01*
X25018325Y-28247039D01*
X24713912Y-28352205D01*
X24539956Y-28445186D01*
X24444192Y-28709587D01*
X25400000Y-29665395D01*
X25414143Y-29651253D01*
X25593748Y-29830858D01*
X25579605Y-29845000D01*
X25593748Y-29859143D01*
X25414143Y-30038748D01*
X25400000Y-30024605D01*
X24444192Y-30980413D01*
X24539956Y-31244814D01*
X24829571Y-31385704D01*
X25141108Y-31467384D01*
X25462595Y-31486718D01*
X25781675Y-31442961D01*
X26086088Y-31337795D01*
X26260044Y-31244814D01*
X26355807Y-30980415D01*
X26471475Y-31096083D01*
X26543000Y-31024558D01*
X26543000Y-50673000D01*
X17382311Y-50673000D01*
X17424759Y-50644637D01*
X17604396Y-50465000D01*
X19004068Y-50465000D01*
X19050000Y-50469524D01*
X19095932Y-50465000D01*
X19233292Y-50451471D01*
X19409540Y-50398007D01*
X19571972Y-50311186D01*
X19714344Y-50194344D01*
X19831186Y-50051972D01*
X19918007Y-49889540D01*
X19971471Y-49713292D01*
X19989524Y-49530000D01*
X19985000Y-49484068D01*
X19985000Y-46847289D01*
X22675364Y-44156926D01*
X22710392Y-44199608D01*
X22928899Y-44378932D01*
X23061858Y-44450000D01*
X22928899Y-44521068D01*
X22710392Y-44700392D01*
X22531068Y-44918899D01*
X22397818Y-45168192D01*
X22315764Y-45438691D01*
X22288057Y-45720000D01*
X22315764Y-46001309D01*
X22397818Y-46271808D01*
X22531068Y-46521101D01*
X22710392Y-46739608D01*
X22928899Y-46918932D01*
X23178192Y-47052182D01*
X23448691Y-47134236D01*
X23659508Y-47155000D01*
X24600492Y-47155000D01*
X24811309Y-47134236D01*
X25081808Y-47052182D01*
X25331101Y-46918932D01*
X25549608Y-46739608D01*
X25728932Y-46521101D01*
X25862182Y-46271808D01*
X25944236Y-46001309D01*
X25971943Y-45720000D01*
X25944236Y-45438691D01*
X25862182Y-45168192D01*
X25728932Y-44918899D01*
X25549608Y-44700392D01*
X25331101Y-44521068D01*
X25198142Y-44450000D01*
X25331101Y-44378932D01*
X25549608Y-44199608D01*
X25728932Y-43981101D01*
X25862182Y-43731808D01*
X25944236Y-43461309D01*
X25971943Y-43180000D01*
X25944236Y-42898691D01*
X25862182Y-42628192D01*
X25728932Y-42378899D01*
X25549608Y-42160392D01*
X25331101Y-41981068D01*
X25198142Y-41910000D01*
X25331101Y-41838932D01*
X25549608Y-41659608D01*
X25728932Y-41441101D01*
X25862182Y-41191808D01*
X25944236Y-40921309D01*
X25971943Y-40640000D01*
X25944236Y-40358691D01*
X25862182Y-40088192D01*
X25728932Y-39838899D01*
X25549608Y-39620392D01*
X25436518Y-39527581D01*
X25454482Y-39525812D01*
X25574180Y-39489502D01*
X25684494Y-39430537D01*
X25781185Y-39351185D01*
X25860537Y-39254494D01*
X25919502Y-39144180D01*
X25955812Y-39024482D01*
X25968072Y-38900000D01*
X25968072Y-37300000D01*
X25955812Y-37175518D01*
X25919502Y-37055820D01*
X25860537Y-36945506D01*
X25781185Y-36848815D01*
X25684494Y-36769463D01*
X25574180Y-36710498D01*
X25454482Y-36674188D01*
X25330000Y-36661928D01*
X22930000Y-36661928D01*
X22805518Y-36674188D01*
X22685820Y-36710498D01*
X22575506Y-36769463D01*
X22478815Y-36848815D01*
X22399463Y-36945506D01*
X22340498Y-37055820D01*
X22304188Y-37175518D01*
X22291928Y-37300000D01*
X22291928Y-38900000D01*
X22304188Y-39024482D01*
X22340498Y-39144180D01*
X22399463Y-39254494D01*
X22478815Y-39351185D01*
X22575506Y-39430537D01*
X22685820Y-39489502D01*
X22805518Y-39525812D01*
X22823482Y-39527581D01*
X22710392Y-39620392D01*
X22640956Y-39705000D01*
X21255000Y-39705000D01*
X21255000Y-31186651D01*
X21362252Y-31114987D01*
X21589987Y-30887252D01*
X21768918Y-30619463D01*
X21892168Y-30321912D01*
X21955000Y-30006033D01*
X21955000Y-29907595D01*
X23758282Y-29907595D01*
X23802039Y-30226675D01*
X23907205Y-30531088D01*
X24000186Y-30705044D01*
X24264587Y-30800808D01*
X25220395Y-29845000D01*
X24264587Y-28889192D01*
X24000186Y-28984956D01*
X23859296Y-29274571D01*
X23777616Y-29586108D01*
X23758282Y-29907595D01*
X21955000Y-29907595D01*
X21955000Y-29683967D01*
X21892168Y-29368088D01*
X21768918Y-29070537D01*
X21589987Y-28802748D01*
X21362252Y-28575013D01*
X21094463Y-28396082D01*
X20796912Y-28272832D01*
X20481033Y-28210000D01*
X20158967Y-28210000D01*
X19843088Y-28272832D01*
X19545537Y-28396082D01*
X19277748Y-28575013D01*
X19050013Y-28802748D01*
X18871082Y-29070537D01*
X18747832Y-29368088D01*
X18685000Y-29683967D01*
X18685000Y-30006033D01*
X18747832Y-30321912D01*
X18871082Y-30619463D01*
X19050013Y-30887252D01*
X19277748Y-31114987D01*
X19385000Y-31186651D01*
X19385000Y-31704069D01*
X19385001Y-39705000D01*
X18874396Y-39705000D01*
X18694759Y-39525363D01*
X18459727Y-39368320D01*
X18198574Y-39260147D01*
X17921335Y-39205000D01*
X17638665Y-39205000D01*
X17361426Y-39260147D01*
X17100273Y-39368320D01*
X16865241Y-39525363D01*
X16685604Y-39705000D01*
X7607290Y-39705000D01*
X6554127Y-38651838D01*
X6631309Y-38644236D01*
X6901808Y-38562182D01*
X7151101Y-38428932D01*
X7369608Y-38249608D01*
X7548932Y-38031101D01*
X7620000Y-37898142D01*
X7691068Y-38031101D01*
X7870393Y-38249608D01*
X8088900Y-38428932D01*
X8338193Y-38562182D01*
X8608692Y-38644236D01*
X8890000Y-38671943D01*
X9171309Y-38644236D01*
X9441808Y-38562182D01*
X9691101Y-38428932D01*
X9909608Y-38249608D01*
X10088932Y-38031101D01*
X10157265Y-37903259D01*
X10307399Y-38132839D01*
X10505105Y-38334500D01*
X10738354Y-38493715D01*
X10998182Y-38604367D01*
X11080961Y-38621904D01*
X11303000Y-38499915D01*
X11303000Y-36957000D01*
X11557000Y-36957000D01*
X11557000Y-38499915D01*
X11779039Y-38621904D01*
X11861818Y-38604367D01*
X12121646Y-38493715D01*
X12354895Y-38334500D01*
X12552601Y-38132839D01*
X12707166Y-37896483D01*
X12812650Y-37634514D01*
X12865000Y-37357000D01*
X12865000Y-36957000D01*
X11557000Y-36957000D01*
X11303000Y-36957000D01*
X11283000Y-36957000D01*
X11283000Y-36703000D01*
X11303000Y-36703000D01*
X11303000Y-35160085D01*
X11557000Y-35160085D01*
X11557000Y-36703000D01*
X12865000Y-36703000D01*
X12865000Y-36303000D01*
X12812650Y-36025486D01*
X12707166Y-35763517D01*
X12552601Y-35527161D01*
X12354895Y-35325500D01*
X12121646Y-35166285D01*
X11861818Y-35055633D01*
X11779039Y-35038096D01*
X11557000Y-35160085D01*
X11303000Y-35160085D01*
X11080961Y-35038096D01*
X10998182Y-35055633D01*
X10738354Y-35166285D01*
X10505105Y-35325500D01*
X10307399Y-35527161D01*
X10157265Y-35756741D01*
X10088932Y-35628899D01*
X9909607Y-35410392D01*
X9825000Y-35340957D01*
X9825000Y-31641247D01*
X9836632Y-31633475D01*
X10043475Y-31426632D01*
X10205990Y-31183411D01*
X10317932Y-30913158D01*
X10375000Y-30626260D01*
X10375000Y-30333740D01*
X10317932Y-30046842D01*
X10205990Y-29776589D01*
X10043475Y-29533368D01*
X9836632Y-29326525D01*
X9593411Y-29164010D01*
X9323158Y-29052068D01*
X9036260Y-28995000D01*
X8743740Y-28995000D01*
X8456842Y-29052068D01*
X8186589Y-29164010D01*
X7943368Y-29326525D01*
X7736525Y-29533368D01*
X7614805Y-29715534D01*
X7545178Y-29598645D01*
X7350269Y-29382412D01*
X7116920Y-29208359D01*
X6854099Y-29083175D01*
X6706890Y-29038524D01*
X6477000Y-29159845D01*
X6477000Y-30353000D01*
X6497000Y-30353000D01*
X6497000Y-30607000D01*
X6477000Y-30607000D01*
X6477000Y-31800155D01*
X6706890Y-31921476D01*
X6854099Y-31876825D01*
X7116920Y-31751641D01*
X7350269Y-31577588D01*
X7545178Y-31361355D01*
X7614805Y-31244466D01*
X7736525Y-31426632D01*
X7943368Y-31633475D01*
X7955001Y-31641248D01*
X7955000Y-35340956D01*
X7870392Y-35410393D01*
X7691068Y-35628900D01*
X7620000Y-35761858D01*
X7548932Y-35628899D01*
X7369607Y-35410392D01*
X7285000Y-35340957D01*
X7285000Y-35075924D01*
X7289523Y-35029999D01*
X7285000Y-34984074D01*
X7285000Y-34984068D01*
X7271471Y-34846708D01*
X7218007Y-34670460D01*
X7131186Y-34508028D01*
X7014344Y-34365656D01*
X6978664Y-34336374D01*
X4745000Y-32102711D01*
X4745000Y-31959701D01*
X4784482Y-31955812D01*
X4904180Y-31919502D01*
X5014494Y-31860537D01*
X5111185Y-31781185D01*
X5190537Y-31684494D01*
X5249502Y-31574180D01*
X5273966Y-31493534D01*
X5349731Y-31577588D01*
X5583080Y-31751641D01*
X5845901Y-31876825D01*
X5993110Y-31921476D01*
X6223000Y-31800155D01*
X6223000Y-30607000D01*
X6203000Y-30607000D01*
X6203000Y-30353000D01*
X6223000Y-30353000D01*
X6223000Y-29159845D01*
X5993110Y-29038524D01*
X5845901Y-29083175D01*
X5583080Y-29208359D01*
X5349731Y-29382412D01*
X5273966Y-29466466D01*
X5249502Y-29385820D01*
X5190537Y-29275506D01*
X5111185Y-29178815D01*
X5014494Y-29099463D01*
X4904180Y-29040498D01*
X4784482Y-29004188D01*
X4660000Y-28991928D01*
X2960000Y-28991928D01*
X2835518Y-29004188D01*
X2715820Y-29040498D01*
X2605506Y-29099463D01*
X2508815Y-29178815D01*
X2429463Y-29275506D01*
X2370498Y-29385820D01*
X2334188Y-29505518D01*
X2321928Y-29630000D01*
X2321928Y-31330000D01*
X2334188Y-31454482D01*
X2370498Y-31574180D01*
X2429463Y-31684494D01*
X2508815Y-31781185D01*
X2605506Y-31860537D01*
X2715820Y-31919502D01*
X2835518Y-31955812D01*
X2875000Y-31959701D01*
X2875000Y-32444068D01*
X2870476Y-32490000D01*
X2875000Y-32535931D01*
X2888529Y-32673291D01*
X2941993Y-32849539D01*
X3028814Y-33011971D01*
X3145656Y-33154344D01*
X3181341Y-33183630D01*
X5373074Y-35375364D01*
X5330392Y-35410393D01*
X5151068Y-35628900D01*
X5080000Y-35761858D01*
X5008932Y-35628899D01*
X4829607Y-35410392D01*
X4611100Y-35231068D01*
X4361807Y-35097818D01*
X4091308Y-35015764D01*
X3810000Y-34988057D01*
X3528691Y-35015764D01*
X3258192Y-35097818D01*
X3008899Y-35231068D01*
X2790392Y-35410393D01*
X2611068Y-35628900D01*
X2477818Y-35878193D01*
X2395764Y-36148692D01*
X2375000Y-36359509D01*
X2375000Y-37300492D01*
X2395764Y-37511309D01*
X2477818Y-37781808D01*
X2611068Y-38031101D01*
X2790393Y-38249608D01*
X3008900Y-38428932D01*
X3258193Y-38562182D01*
X3528692Y-38644236D01*
X3810000Y-38671943D01*
X3918925Y-38661215D01*
X6526374Y-41268664D01*
X6555656Y-41304344D01*
X6698028Y-41421186D01*
X6860460Y-41508007D01*
X6983243Y-41545253D01*
X7036707Y-41561471D01*
X7219999Y-41579524D01*
X7265931Y-41575000D01*
X16685604Y-41575000D01*
X16865241Y-41754637D01*
X17065869Y-41888692D01*
X17038486Y-41903329D01*
X16966903Y-42147298D01*
X17780000Y-42960395D01*
X18593097Y-42147298D01*
X18521514Y-41903329D01*
X18492659Y-41889676D01*
X18694759Y-41754637D01*
X18874396Y-41575000D01*
X20274068Y-41575000D01*
X20320000Y-41579524D01*
X20365932Y-41575000D01*
X22640956Y-41575000D01*
X22710392Y-41659608D01*
X22928899Y-41838932D01*
X23061858Y-41910000D01*
X22928899Y-41981068D01*
X22710392Y-42160392D01*
X22640956Y-42245000D01*
X22375924Y-42245000D01*
X22329999Y-42240477D01*
X22284074Y-42245000D01*
X22284068Y-42245000D01*
X22165110Y-42256717D01*
X22146707Y-42258529D01*
X22093243Y-42274747D01*
X21970460Y-42311993D01*
X21808028Y-42398814D01*
X21665656Y-42515656D01*
X21636374Y-42551336D01*
X18421341Y-45766370D01*
X18385656Y-45795656D01*
X18268814Y-45938029D01*
X18181993Y-46100461D01*
X18144407Y-46224367D01*
X18128529Y-46276709D01*
X18110476Y-46460000D01*
X18115000Y-46505932D01*
X18115001Y-48595000D01*
X17604396Y-48595000D01*
X17424759Y-48415363D01*
X17189727Y-48258320D01*
X16928574Y-48150147D01*
X16651335Y-48095000D01*
X16368665Y-48095000D01*
X16091426Y-48150147D01*
X15830273Y-48258320D01*
X15595241Y-48415363D01*
X15395363Y-48615241D01*
X15238320Y-48850273D01*
X15130147Y-49111426D01*
X15075000Y-49388665D01*
X15075000Y-49671335D01*
X15130147Y-49948574D01*
X15238320Y-50209727D01*
X15395363Y-50444759D01*
X15595241Y-50644637D01*
X15637689Y-50673000D01*
X4682311Y-50673000D01*
X4724759Y-50644637D01*
X4924637Y-50444759D01*
X5081680Y-50209727D01*
X5189853Y-49948574D01*
X5245000Y-49671335D01*
X5245000Y-49388665D01*
X5189853Y-49111426D01*
X5081680Y-48850273D01*
X4924637Y-48615241D01*
X4745000Y-48435604D01*
X4745000Y-46272621D01*
X4854180Y-46239502D01*
X4964494Y-46180537D01*
X5061185Y-46101185D01*
X5140537Y-46004494D01*
X5199502Y-45894180D01*
X5235812Y-45774482D01*
X5236981Y-45762613D01*
X5425105Y-45954500D01*
X5658354Y-46113715D01*
X5918182Y-46224367D01*
X6000961Y-46241904D01*
X6223000Y-46119915D01*
X6223000Y-44577000D01*
X6477000Y-44577000D01*
X6477000Y-46119915D01*
X6699039Y-46241904D01*
X6781818Y-46224367D01*
X7041646Y-46113715D01*
X7274895Y-45954500D01*
X7472601Y-45752839D01*
X7620000Y-45527441D01*
X7767399Y-45752839D01*
X7965105Y-45954500D01*
X8198354Y-46113715D01*
X8458182Y-46224367D01*
X8540961Y-46241904D01*
X8763000Y-46119915D01*
X8763000Y-44577000D01*
X9017000Y-44577000D01*
X9017000Y-46119915D01*
X9239039Y-46241904D01*
X9321818Y-46224367D01*
X9581646Y-46113715D01*
X9814895Y-45954500D01*
X10012601Y-45752839D01*
X10160000Y-45527441D01*
X10307399Y-45752839D01*
X10505105Y-45954500D01*
X10738354Y-46113715D01*
X10998182Y-46224367D01*
X11080961Y-46241904D01*
X11303000Y-46119915D01*
X11303000Y-44577000D01*
X11557000Y-44577000D01*
X11557000Y-46119915D01*
X11779039Y-46241904D01*
X11861818Y-46224367D01*
X12121646Y-46113715D01*
X12354895Y-45954500D01*
X12552601Y-45752839D01*
X12707166Y-45516483D01*
X12812650Y-45254514D01*
X12865000Y-44977000D01*
X12865000Y-44577000D01*
X11557000Y-44577000D01*
X11303000Y-44577000D01*
X9017000Y-44577000D01*
X8763000Y-44577000D01*
X6477000Y-44577000D01*
X6223000Y-44577000D01*
X6203000Y-44577000D01*
X6203000Y-44323000D01*
X6223000Y-44323000D01*
X6223000Y-42780085D01*
X6477000Y-42780085D01*
X6477000Y-44323000D01*
X8763000Y-44323000D01*
X8763000Y-42780085D01*
X9017000Y-42780085D01*
X9017000Y-44323000D01*
X11303000Y-44323000D01*
X11303000Y-42780085D01*
X11557000Y-42780085D01*
X11557000Y-44323000D01*
X12865000Y-44323000D01*
X12865000Y-44132702D01*
X16966903Y-44132702D01*
X17038486Y-44376671D01*
X17293996Y-44497571D01*
X17568184Y-44566300D01*
X17850512Y-44580217D01*
X18130130Y-44538787D01*
X18396292Y-44443603D01*
X18521514Y-44376671D01*
X18593097Y-44132702D01*
X17780000Y-43319605D01*
X16966903Y-44132702D01*
X12865000Y-44132702D01*
X12865000Y-43923000D01*
X12812650Y-43645486D01*
X12707166Y-43383517D01*
X12594030Y-43210512D01*
X16339783Y-43210512D01*
X16381213Y-43490130D01*
X16476397Y-43756292D01*
X16543329Y-43881514D01*
X16787298Y-43953097D01*
X17600395Y-43140000D01*
X17959605Y-43140000D01*
X18772702Y-43953097D01*
X19016671Y-43881514D01*
X19137571Y-43626004D01*
X19206300Y-43351816D01*
X19220217Y-43069488D01*
X19178787Y-42789870D01*
X19083603Y-42523708D01*
X19016671Y-42398486D01*
X18772702Y-42326903D01*
X17959605Y-43140000D01*
X17600395Y-43140000D01*
X16787298Y-42326903D01*
X16543329Y-42398486D01*
X16422429Y-42653996D01*
X16353700Y-42928184D01*
X16339783Y-43210512D01*
X12594030Y-43210512D01*
X12552601Y-43147161D01*
X12354895Y-42945500D01*
X12121646Y-42786285D01*
X11861818Y-42675633D01*
X11779039Y-42658096D01*
X11557000Y-42780085D01*
X11303000Y-42780085D01*
X11080961Y-42658096D01*
X10998182Y-42675633D01*
X10738354Y-42786285D01*
X10505105Y-42945500D01*
X10307399Y-43147161D01*
X10160000Y-43372559D01*
X10012601Y-43147161D01*
X9814895Y-42945500D01*
X9581646Y-42786285D01*
X9321818Y-42675633D01*
X9239039Y-42658096D01*
X9017000Y-42780085D01*
X8763000Y-42780085D01*
X8540961Y-42658096D01*
X8458182Y-42675633D01*
X8198354Y-42786285D01*
X7965105Y-42945500D01*
X7767399Y-43147161D01*
X7620000Y-43372559D01*
X7472601Y-43147161D01*
X7274895Y-42945500D01*
X7041646Y-42786285D01*
X6781818Y-42675633D01*
X6699039Y-42658096D01*
X6477000Y-42780085D01*
X6223000Y-42780085D01*
X6000961Y-42658096D01*
X5918182Y-42675633D01*
X5658354Y-42786285D01*
X5425105Y-42945500D01*
X5236981Y-43137387D01*
X5235812Y-43125518D01*
X5199502Y-43005820D01*
X5140537Y-42895506D01*
X5061185Y-42798815D01*
X4964494Y-42719463D01*
X4854180Y-42660498D01*
X4734482Y-42624188D01*
X4610000Y-42611928D01*
X3010000Y-42611928D01*
X2885518Y-42624188D01*
X2765820Y-42660498D01*
X2655506Y-42719463D01*
X2558815Y-42798815D01*
X2479463Y-42895506D01*
X2420498Y-43005820D01*
X2384188Y-43125518D01*
X2371928Y-43250000D01*
X2371928Y-45650000D01*
X2384188Y-45774482D01*
X2420498Y-45894180D01*
X2479463Y-46004494D01*
X2558815Y-46101185D01*
X2655506Y-46180537D01*
X2765820Y-46239502D01*
X2875001Y-46272622D01*
X2875000Y-48435604D01*
X2695363Y-48615241D01*
X2538320Y-48850273D01*
X2430147Y-49111426D01*
X2375000Y-49388665D01*
X2375000Y-49671335D01*
X2430147Y-49948574D01*
X2538320Y-50209727D01*
X2695363Y-50444759D01*
X2895241Y-50644637D01*
X2937689Y-50673000D01*
X710000Y-50673000D01*
X710000Y-15215000D01*
X1835714Y-15215000D01*
X1835714Y-21285000D01*
X24834285Y-21285000D01*
X24834285Y-15215000D01*
X1835714Y-15215000D01*
X710000Y-15215000D01*
X710000Y-710000D01*
X26543000Y-710000D01*
X26543000Y-28665442D01*
G37*
G04 #@! TD.AperFunction*
D34*
X34850001Y-18380113D02*
X34846565Y-18415000D01*
X34860273Y-18554184D01*
X34900872Y-18688020D01*
X34966800Y-18811363D01*
X35055525Y-18919475D01*
X35163637Y-19008200D01*
X35286980Y-19074128D01*
X35420816Y-19114727D01*
X35525123Y-19125000D01*
X35560000Y-19128435D01*
X35594877Y-19125000D01*
X46637319Y-19125000D01*
X46609234Y-19136633D01*
X46038442Y-19518024D01*
X45553024Y-20003442D01*
X45171633Y-20574234D01*
X44908927Y-21208463D01*
X44775000Y-21881758D01*
X44775000Y-22568242D01*
X44908927Y-23241537D01*
X45171633Y-23875766D01*
X45553024Y-24446558D01*
X46038442Y-24931976D01*
X46609234Y-25313367D01*
X47243463Y-25576073D01*
X47916758Y-25710000D01*
X48603242Y-25710000D01*
X49276537Y-25576073D01*
X49910766Y-25313367D01*
X50245788Y-25089512D01*
X57019783Y-25089512D01*
X57061213Y-25369130D01*
X57156397Y-25635292D01*
X57223329Y-25760514D01*
X57467298Y-25832097D01*
X58280395Y-25019000D01*
X57467298Y-24205903D01*
X57223329Y-24277486D01*
X57102429Y-24532996D01*
X57033700Y-24807184D01*
X57019783Y-25089512D01*
X50245788Y-25089512D01*
X50481558Y-24931976D01*
X50966976Y-24446558D01*
X51247784Y-24026298D01*
X57646903Y-24026298D01*
X58460000Y-24839395D01*
X59273097Y-24026298D01*
X59201514Y-23782329D01*
X58946004Y-23661429D01*
X58671816Y-23592700D01*
X58389488Y-23578783D01*
X58109870Y-23620213D01*
X57843708Y-23715397D01*
X57718486Y-23782329D01*
X57646903Y-24026298D01*
X51247784Y-24026298D01*
X51348367Y-23875766D01*
X51611073Y-23241537D01*
X51745000Y-22568242D01*
X51745000Y-21881758D01*
X51611073Y-21208463D01*
X51348367Y-20574234D01*
X50966976Y-20003442D01*
X50481558Y-19518024D01*
X49910766Y-19136633D01*
X49882681Y-19125000D01*
X60925123Y-19125000D01*
X60960000Y-19128435D01*
X60994877Y-19125000D01*
X61099184Y-19114727D01*
X61233020Y-19074128D01*
X61356363Y-19008200D01*
X61464475Y-18919475D01*
X61553200Y-18811363D01*
X61619128Y-18688020D01*
X61659727Y-18554184D01*
X61673435Y-18415000D01*
X61670000Y-18380123D01*
X61670000Y-6699040D01*
X65918091Y-6699040D01*
X66012930Y-6963881D01*
X66157615Y-7205131D01*
X66346586Y-7413519D01*
X66572580Y-7581037D01*
X66826913Y-7701246D01*
X66960961Y-7741904D01*
X67183000Y-7619915D01*
X67183000Y-6477000D01*
X67437000Y-6477000D01*
X67437000Y-7619915D01*
X67659039Y-7741904D01*
X67793087Y-7701246D01*
X68047420Y-7581037D01*
X68273414Y-7413519D01*
X68462385Y-7205131D01*
X68580000Y-7009018D01*
X68697615Y-7205131D01*
X68886586Y-7413519D01*
X69112580Y-7581037D01*
X69366913Y-7701246D01*
X69500961Y-7741904D01*
X69723000Y-7619915D01*
X69723000Y-6477000D01*
X69977000Y-6477000D01*
X69977000Y-7619915D01*
X70199039Y-7741904D01*
X70333087Y-7701246D01*
X70587420Y-7581037D01*
X70813414Y-7413519D01*
X71002385Y-7205131D01*
X71120000Y-7009018D01*
X71237615Y-7205131D01*
X71426586Y-7413519D01*
X71652580Y-7581037D01*
X71906913Y-7701246D01*
X72040961Y-7741904D01*
X72263000Y-7619915D01*
X72263000Y-6477000D01*
X72517000Y-6477000D01*
X72517000Y-7619915D01*
X72739039Y-7741904D01*
X72873087Y-7701246D01*
X73127420Y-7581037D01*
X73353414Y-7413519D01*
X73542385Y-7205131D01*
X73660000Y-7009018D01*
X73777615Y-7205131D01*
X73966586Y-7413519D01*
X74192580Y-7581037D01*
X74446913Y-7701246D01*
X74580961Y-7741904D01*
X74803000Y-7619915D01*
X74803000Y-6477000D01*
X75057000Y-6477000D01*
X75057000Y-7619915D01*
X75279039Y-7741904D01*
X75413087Y-7701246D01*
X75667420Y-7581037D01*
X75893414Y-7413519D01*
X76082385Y-7205131D01*
X76200000Y-7009018D01*
X76317615Y-7205131D01*
X76506586Y-7413519D01*
X76732580Y-7581037D01*
X76986913Y-7701246D01*
X77120961Y-7741904D01*
X77343000Y-7619915D01*
X77343000Y-6477000D01*
X77597000Y-6477000D01*
X77597000Y-7619915D01*
X77819039Y-7741904D01*
X77953087Y-7701246D01*
X78207420Y-7581037D01*
X78433414Y-7413519D01*
X78622385Y-7205131D01*
X78740000Y-7009018D01*
X78857615Y-7205131D01*
X79046586Y-7413519D01*
X79272580Y-7581037D01*
X79526913Y-7701246D01*
X79660961Y-7741904D01*
X79883000Y-7619915D01*
X79883000Y-6477000D01*
X80137000Y-6477000D01*
X80137000Y-7619915D01*
X80359039Y-7741904D01*
X80493087Y-7701246D01*
X80747420Y-7581037D01*
X80973414Y-7413519D01*
X81162385Y-7205131D01*
X81280000Y-7009018D01*
X81397615Y-7205131D01*
X81586586Y-7413519D01*
X81812580Y-7581037D01*
X82066913Y-7701246D01*
X82200961Y-7741904D01*
X82423000Y-7619915D01*
X82423000Y-6477000D01*
X82677000Y-6477000D01*
X82677000Y-7619915D01*
X82899039Y-7741904D01*
X83033087Y-7701246D01*
X83287420Y-7581037D01*
X83513414Y-7413519D01*
X83702385Y-7205131D01*
X83820000Y-7009018D01*
X83937615Y-7205131D01*
X84126586Y-7413519D01*
X84352580Y-7581037D01*
X84606913Y-7701246D01*
X84740961Y-7741904D01*
X84963000Y-7619915D01*
X84963000Y-6477000D01*
X85217000Y-6477000D01*
X85217000Y-7619915D01*
X85439039Y-7741904D01*
X85573087Y-7701246D01*
X85827420Y-7581037D01*
X86053414Y-7413519D01*
X86242385Y-7205131D01*
X86360000Y-7009018D01*
X86477615Y-7205131D01*
X86666586Y-7413519D01*
X86892580Y-7581037D01*
X87146913Y-7701246D01*
X87280961Y-7741904D01*
X87503000Y-7619915D01*
X87503000Y-6477000D01*
X87757000Y-6477000D01*
X87757000Y-7619915D01*
X87979039Y-7741904D01*
X88113087Y-7701246D01*
X88367420Y-7581037D01*
X88593414Y-7413519D01*
X88782385Y-7205131D01*
X88927070Y-6963881D01*
X89021909Y-6699040D01*
X88900624Y-6477000D01*
X87757000Y-6477000D01*
X87503000Y-6477000D01*
X85217000Y-6477000D01*
X84963000Y-6477000D01*
X82677000Y-6477000D01*
X82423000Y-6477000D01*
X80137000Y-6477000D01*
X79883000Y-6477000D01*
X77597000Y-6477000D01*
X77343000Y-6477000D01*
X75057000Y-6477000D01*
X74803000Y-6477000D01*
X72517000Y-6477000D01*
X72263000Y-6477000D01*
X69977000Y-6477000D01*
X69723000Y-6477000D01*
X67437000Y-6477000D01*
X67183000Y-6477000D01*
X66039376Y-6477000D01*
X65918091Y-6699040D01*
X61670000Y-6699040D01*
X61670000Y-6000960D01*
X65918091Y-6000960D01*
X66039376Y-6223000D01*
X67183000Y-6223000D01*
X67183000Y-5080085D01*
X67437000Y-5080085D01*
X67437000Y-6223000D01*
X69723000Y-6223000D01*
X69723000Y-5080085D01*
X69977000Y-5080085D01*
X69977000Y-6223000D01*
X72263000Y-6223000D01*
X72263000Y-5080085D01*
X72517000Y-5080085D01*
X72517000Y-6223000D01*
X74803000Y-6223000D01*
X74803000Y-5080085D01*
X75057000Y-5080085D01*
X75057000Y-6223000D01*
X77343000Y-6223000D01*
X77343000Y-5080085D01*
X77597000Y-5080085D01*
X77597000Y-6223000D01*
X79883000Y-6223000D01*
X79883000Y-5080085D01*
X80137000Y-5080085D01*
X80137000Y-6223000D01*
X82423000Y-6223000D01*
X82423000Y-5080085D01*
X82677000Y-5080085D01*
X82677000Y-6223000D01*
X84963000Y-6223000D01*
X84963000Y-5080085D01*
X85217000Y-5080085D01*
X85217000Y-6223000D01*
X87503000Y-6223000D01*
X87503000Y-5080085D01*
X87757000Y-5080085D01*
X87757000Y-6223000D01*
X88900624Y-6223000D01*
X89021909Y-6000960D01*
X88927070Y-5736119D01*
X88782385Y-5494869D01*
X88593414Y-5286481D01*
X88367420Y-5118963D01*
X88113087Y-4998754D01*
X87979039Y-4958096D01*
X87757000Y-5080085D01*
X87503000Y-5080085D01*
X87280961Y-4958096D01*
X87146913Y-4998754D01*
X86892580Y-5118963D01*
X86666586Y-5286481D01*
X86477615Y-5494869D01*
X86360000Y-5690982D01*
X86242385Y-5494869D01*
X86053414Y-5286481D01*
X85827420Y-5118963D01*
X85573087Y-4998754D01*
X85439039Y-4958096D01*
X85217000Y-5080085D01*
X84963000Y-5080085D01*
X84740961Y-4958096D01*
X84606913Y-4998754D01*
X84352580Y-5118963D01*
X84126586Y-5286481D01*
X83937615Y-5494869D01*
X83820000Y-5690982D01*
X83702385Y-5494869D01*
X83513414Y-5286481D01*
X83287420Y-5118963D01*
X83033087Y-4998754D01*
X82899039Y-4958096D01*
X82677000Y-5080085D01*
X82423000Y-5080085D01*
X82200961Y-4958096D01*
X82066913Y-4998754D01*
X81812580Y-5118963D01*
X81586586Y-5286481D01*
X81397615Y-5494869D01*
X81280000Y-5690982D01*
X81162385Y-5494869D01*
X80973414Y-5286481D01*
X80747420Y-5118963D01*
X80493087Y-4998754D01*
X80359039Y-4958096D01*
X80137000Y-5080085D01*
X79883000Y-5080085D01*
X79660961Y-4958096D01*
X79526913Y-4998754D01*
X79272580Y-5118963D01*
X79046586Y-5286481D01*
X78857615Y-5494869D01*
X78740000Y-5690982D01*
X78622385Y-5494869D01*
X78433414Y-5286481D01*
X78207420Y-5118963D01*
X77953087Y-4998754D01*
X77819039Y-4958096D01*
X77597000Y-5080085D01*
X77343000Y-5080085D01*
X77120961Y-4958096D01*
X76986913Y-4998754D01*
X76732580Y-5118963D01*
X76506586Y-5286481D01*
X76317615Y-5494869D01*
X76200000Y-5690982D01*
X76082385Y-5494869D01*
X75893414Y-5286481D01*
X75667420Y-5118963D01*
X75413087Y-4998754D01*
X75279039Y-4958096D01*
X75057000Y-5080085D01*
X74803000Y-5080085D01*
X74580961Y-4958096D01*
X74446913Y-4998754D01*
X74192580Y-5118963D01*
X73966586Y-5286481D01*
X73777615Y-5494869D01*
X73660000Y-5690982D01*
X73542385Y-5494869D01*
X73353414Y-5286481D01*
X73127420Y-5118963D01*
X72873087Y-4998754D01*
X72739039Y-4958096D01*
X72517000Y-5080085D01*
X72263000Y-5080085D01*
X72040961Y-4958096D01*
X71906913Y-4998754D01*
X71652580Y-5118963D01*
X71426586Y-5286481D01*
X71237615Y-5494869D01*
X71120000Y-5690982D01*
X71002385Y-5494869D01*
X70813414Y-5286481D01*
X70587420Y-5118963D01*
X70333087Y-4998754D01*
X70199039Y-4958096D01*
X69977000Y-5080085D01*
X69723000Y-5080085D01*
X69500961Y-4958096D01*
X69366913Y-4998754D01*
X69112580Y-5118963D01*
X68886586Y-5286481D01*
X68697615Y-5494869D01*
X68580000Y-5690982D01*
X68462385Y-5494869D01*
X68273414Y-5286481D01*
X68047420Y-5118963D01*
X67793087Y-4998754D01*
X67659039Y-4958096D01*
X67437000Y-5080085D01*
X67183000Y-5080085D01*
X66960961Y-4958096D01*
X66826913Y-4998754D01*
X66572580Y-5118963D01*
X66346586Y-5286481D01*
X66157615Y-5494869D01*
X66012930Y-5736119D01*
X65918091Y-6000960D01*
X61670000Y-6000960D01*
X61670000Y-710000D01*
X94540000Y-710000D01*
X94540001Y-74220000D01*
X61670000Y-74220000D01*
X61670000Y-70841891D01*
X67138519Y-70841891D01*
X67235843Y-71116252D01*
X67384822Y-71366355D01*
X67579731Y-71582588D01*
X67813080Y-71756641D01*
X68075901Y-71881825D01*
X68223110Y-71926476D01*
X68453000Y-71805155D01*
X68453000Y-70612000D01*
X67259186Y-70612000D01*
X67138519Y-70841891D01*
X61670000Y-70841891D01*
X61670000Y-70128109D01*
X67138519Y-70128109D01*
X67259186Y-70358000D01*
X68453000Y-70358000D01*
X68453000Y-69164845D01*
X68223110Y-69043524D01*
X68075901Y-69088175D01*
X67813080Y-69213359D01*
X67579731Y-69387412D01*
X67384822Y-69603645D01*
X67235843Y-69853748D01*
X67138519Y-70128109D01*
X61670000Y-70128109D01*
X61670000Y-63030000D01*
X66506928Y-63030000D01*
X66519188Y-63154482D01*
X66555498Y-63274180D01*
X66614463Y-63384494D01*
X66693815Y-63481185D01*
X66790506Y-63560537D01*
X66900820Y-63619502D01*
X67020518Y-63655812D01*
X67145000Y-63668072D01*
X67659250Y-63665000D01*
X67818000Y-63506250D01*
X67818000Y-62357000D01*
X68072000Y-62357000D01*
X68072000Y-63506250D01*
X68230750Y-63665000D01*
X68745000Y-63668072D01*
X68869482Y-63655812D01*
X68989180Y-63619502D01*
X69099494Y-63560537D01*
X69196185Y-63481185D01*
X69275537Y-63384494D01*
X69334502Y-63274180D01*
X69370812Y-63154482D01*
X69383072Y-63030000D01*
X69380000Y-62515750D01*
X69221250Y-62357000D01*
X68072000Y-62357000D01*
X67818000Y-62357000D01*
X66668750Y-62357000D01*
X66510000Y-62515750D01*
X66506928Y-63030000D01*
X61670000Y-63030000D01*
X61670000Y-56549877D01*
X61673435Y-56515000D01*
X61659727Y-56375816D01*
X61619128Y-56241980D01*
X61553200Y-56118637D01*
X61464475Y-56010525D01*
X61356363Y-55921800D01*
X61233020Y-55855872D01*
X61099184Y-55815273D01*
X60994877Y-55805000D01*
X60960000Y-55801565D01*
X60925123Y-55805000D01*
X49882681Y-55805000D01*
X49910766Y-55793367D01*
X50481558Y-55411976D01*
X50966976Y-54926558D01*
X51348367Y-54355766D01*
X51611073Y-53721537D01*
X51745000Y-53048242D01*
X51745000Y-52361758D01*
X51611073Y-51688463D01*
X51348367Y-51054234D01*
X50966976Y-50483442D01*
X50481558Y-49998024D01*
X49910766Y-49616633D01*
X49276537Y-49353927D01*
X48603242Y-49220000D01*
X47916758Y-49220000D01*
X47243463Y-49353927D01*
X46609234Y-49616633D01*
X46038442Y-49998024D01*
X45553024Y-50483442D01*
X45171633Y-51054234D01*
X44908927Y-51688463D01*
X44775000Y-52361758D01*
X44775000Y-53048242D01*
X44908927Y-53721537D01*
X45171633Y-54355766D01*
X45553024Y-54926558D01*
X46038442Y-55411976D01*
X46609234Y-55793367D01*
X46637319Y-55805000D01*
X35594877Y-55805000D01*
X35560000Y-55801565D01*
X35525123Y-55805000D01*
X35420816Y-55815273D01*
X35286980Y-55855872D01*
X35163637Y-55921800D01*
X35055525Y-56010525D01*
X34966800Y-56118637D01*
X34900872Y-56241980D01*
X34860273Y-56375816D01*
X34846565Y-56515000D01*
X34850001Y-56549887D01*
X34850000Y-74220000D01*
X710000Y-74220000D01*
X710000Y-63279268D01*
X7055000Y-63279268D01*
X7055000Y-63640732D01*
X7125518Y-63995250D01*
X7263844Y-64329199D01*
X7464662Y-64629744D01*
X7720256Y-64885338D01*
X8020801Y-65086156D01*
X8354750Y-65224482D01*
X8709268Y-65295000D01*
X9070732Y-65295000D01*
X9425250Y-65224482D01*
X9759199Y-65086156D01*
X10059744Y-64885338D01*
X10315338Y-64629744D01*
X10516156Y-64329199D01*
X10654482Y-63995250D01*
X10725000Y-63640732D01*
X10725000Y-63279268D01*
X10654482Y-62924750D01*
X10586241Y-62760000D01*
X12291928Y-62760000D01*
X12304188Y-62884482D01*
X12340498Y-63004180D01*
X12399463Y-63114494D01*
X12478815Y-63211185D01*
X12575506Y-63290537D01*
X12685820Y-63349502D01*
X12805518Y-63385812D01*
X12930000Y-63398072D01*
X13684250Y-63395000D01*
X13843000Y-63236250D01*
X13843000Y-61087000D01*
X14097000Y-61087000D01*
X14097000Y-63236250D01*
X14255750Y-63395000D01*
X15010000Y-63398072D01*
X15134482Y-63385812D01*
X15254180Y-63349502D01*
X15364494Y-63290537D01*
X15461185Y-63211185D01*
X15540537Y-63114494D01*
X15599502Y-63004180D01*
X15635812Y-62884482D01*
X15648072Y-62760000D01*
X15645000Y-61245750D01*
X15486250Y-61087000D01*
X14097000Y-61087000D01*
X13843000Y-61087000D01*
X12453750Y-61087000D01*
X12295000Y-61245750D01*
X12291928Y-62760000D01*
X10586241Y-62760000D01*
X10516156Y-62590801D01*
X10315338Y-62290256D01*
X10059744Y-62034662D01*
X9759199Y-61833844D01*
X9425250Y-61695518D01*
X9070732Y-61625000D01*
X8709268Y-61625000D01*
X8354750Y-61695518D01*
X8020801Y-61833844D01*
X7720256Y-62034662D01*
X7464662Y-62290256D01*
X7263844Y-62590801D01*
X7125518Y-62924750D01*
X7055000Y-63279268D01*
X710000Y-63279268D01*
X710000Y-59160000D01*
X12291928Y-59160000D01*
X12295000Y-60674250D01*
X12453750Y-60833000D01*
X13843000Y-60833000D01*
X13843000Y-58683750D01*
X14097000Y-58683750D01*
X14097000Y-60833000D01*
X15486250Y-60833000D01*
X15645000Y-60674250D01*
X15646129Y-60117719D01*
X17375000Y-60117719D01*
X17375000Y-61802282D01*
X17399236Y-62048357D01*
X17495016Y-62364096D01*
X17650551Y-62655082D01*
X17859867Y-62910134D01*
X18114919Y-63119450D01*
X18405905Y-63274985D01*
X18721644Y-63370764D01*
X19050000Y-63403104D01*
X19378357Y-63370764D01*
X19679976Y-63279268D01*
X22295000Y-63279268D01*
X22295000Y-63640732D01*
X22365518Y-63995250D01*
X22503844Y-64329199D01*
X22704662Y-64629744D01*
X22960256Y-64885338D01*
X23260801Y-65086156D01*
X23594750Y-65224482D01*
X23949268Y-65295000D01*
X24310732Y-65295000D01*
X24665250Y-65224482D01*
X24999199Y-65086156D01*
X25299744Y-64885338D01*
X25555338Y-64629744D01*
X25756156Y-64329199D01*
X25894482Y-63995250D01*
X25965000Y-63640732D01*
X25965000Y-63279268D01*
X25894482Y-62924750D01*
X25756156Y-62590801D01*
X25555338Y-62290256D01*
X25299744Y-62034662D01*
X24999199Y-61833844D01*
X24665250Y-61695518D01*
X24310732Y-61625000D01*
X23949268Y-61625000D01*
X23594750Y-61695518D01*
X23260801Y-61833844D01*
X22960256Y-62034662D01*
X22704662Y-62290256D01*
X22503844Y-62590801D01*
X22365518Y-62924750D01*
X22295000Y-63279268D01*
X19679976Y-63279268D01*
X19694096Y-63274985D01*
X19985082Y-63119450D01*
X20240134Y-62910134D01*
X20449450Y-62655082D01*
X20604985Y-62364096D01*
X20700764Y-62048357D01*
X20725000Y-61802282D01*
X20725000Y-60117718D01*
X20700764Y-59871643D01*
X20604985Y-59555904D01*
X20449450Y-59264918D01*
X20240134Y-59009866D01*
X19985081Y-58800550D01*
X19985000Y-58800507D01*
X19985000Y-57537289D01*
X20707290Y-56815000D01*
X21121928Y-56815000D01*
X21121928Y-56980000D01*
X21134188Y-57104482D01*
X21170498Y-57224180D01*
X21229463Y-57334494D01*
X21308815Y-57431185D01*
X21405506Y-57510537D01*
X21515820Y-57569502D01*
X21635518Y-57605812D01*
X21760000Y-57618072D01*
X23960000Y-57618072D01*
X24084482Y-57605812D01*
X24204180Y-57569502D01*
X24314494Y-57510537D01*
X24411185Y-57431185D01*
X24490537Y-57334494D01*
X24549502Y-57224180D01*
X24585812Y-57104482D01*
X24598072Y-56980000D01*
X24598072Y-56815000D01*
X31704068Y-56815000D01*
X31750000Y-56819524D01*
X31795932Y-56815000D01*
X31933292Y-56801471D01*
X32109540Y-56748007D01*
X32271972Y-56661186D01*
X32414344Y-56544344D01*
X32443630Y-56508659D01*
X38487290Y-50465000D01*
X39959068Y-50465000D01*
X40005000Y-50469524D01*
X40050932Y-50465000D01*
X40188292Y-50451471D01*
X40364540Y-50398007D01*
X40526972Y-50311186D01*
X40669344Y-50194344D01*
X40698630Y-50158659D01*
X41903667Y-48953623D01*
X41939344Y-48924344D01*
X42056186Y-48781972D01*
X42143007Y-48619540D01*
X42196471Y-48443292D01*
X42210000Y-48305932D01*
X42210000Y-48305931D01*
X42214524Y-48260001D01*
X42210000Y-48214069D01*
X42210000Y-47347702D01*
X46176903Y-47347702D01*
X46248486Y-47591671D01*
X46503996Y-47712571D01*
X46778184Y-47781300D01*
X47060512Y-47795217D01*
X47340130Y-47753787D01*
X47606292Y-47658603D01*
X47731514Y-47591671D01*
X47803097Y-47347702D01*
X46990000Y-46534605D01*
X46176903Y-47347702D01*
X42210000Y-47347702D01*
X42210000Y-46425512D01*
X45549783Y-46425512D01*
X45591213Y-46705130D01*
X45686397Y-46971292D01*
X45753329Y-47096514D01*
X45997298Y-47168097D01*
X46810395Y-46355000D01*
X47169605Y-46355000D01*
X47982702Y-47168097D01*
X48226671Y-47096514D01*
X48347571Y-46841004D01*
X48416300Y-46566816D01*
X48430217Y-46284488D01*
X48388787Y-46004870D01*
X48293603Y-45738708D01*
X48226671Y-45613486D01*
X47982702Y-45541903D01*
X47169605Y-46355000D01*
X46810395Y-46355000D01*
X45997298Y-45541903D01*
X45753329Y-45613486D01*
X45632429Y-45868996D01*
X45563700Y-46143184D01*
X45549783Y-46425512D01*
X42210000Y-46425512D01*
X42210000Y-45362298D01*
X46176903Y-45362298D01*
X46990000Y-46175395D01*
X47803097Y-45362298D01*
X47731514Y-45118329D01*
X47476004Y-44997429D01*
X47201816Y-44928700D01*
X46919488Y-44914783D01*
X46639870Y-44956213D01*
X46373708Y-45051397D01*
X46248486Y-45118329D01*
X46176903Y-45362298D01*
X42210000Y-45362298D01*
X42210000Y-41099396D01*
X42369396Y-40940000D01*
X45039068Y-40940000D01*
X45085000Y-40944524D01*
X45130932Y-40940000D01*
X45268292Y-40926471D01*
X45444540Y-40873007D01*
X45606972Y-40786186D01*
X45749344Y-40669344D01*
X45778630Y-40633659D01*
X46026289Y-40386000D01*
X46690104Y-40386000D01*
X46932653Y-40362111D01*
X47243867Y-40267705D01*
X47530684Y-40114398D01*
X47782082Y-39908082D01*
X47988398Y-39656684D01*
X48141705Y-39369867D01*
X48236111Y-39058653D01*
X48267988Y-38735000D01*
X48236111Y-38411347D01*
X48141705Y-38100133D01*
X47988398Y-37813316D01*
X47782082Y-37561918D01*
X47664775Y-37465647D01*
X47866236Y-37272631D01*
X48052314Y-37006650D01*
X48182926Y-36709478D01*
X48214975Y-36577944D01*
X48095836Y-36322000D01*
X46482000Y-36322000D01*
X46482000Y-36342000D01*
X46228000Y-36342000D01*
X46228000Y-36322000D01*
X44614164Y-36322000D01*
X44495025Y-36577944D01*
X44527074Y-36709478D01*
X44657686Y-37006650D01*
X44843764Y-37272631D01*
X45045225Y-37465647D01*
X44927918Y-37561918D01*
X44721602Y-37813316D01*
X44568295Y-38100133D01*
X44473889Y-38411347D01*
X44442012Y-38735000D01*
X44473889Y-39058653D01*
X44477331Y-39070000D01*
X42369396Y-39070000D01*
X42189759Y-38890363D01*
X41989131Y-38756308D01*
X42016514Y-38741671D01*
X42088097Y-38497702D01*
X41275000Y-37684605D01*
X40461903Y-38497702D01*
X40533486Y-38741671D01*
X40562341Y-38755324D01*
X40360241Y-38890363D01*
X40160363Y-39090241D01*
X40003320Y-39325273D01*
X39895147Y-39586426D01*
X39840000Y-39863665D01*
X39840000Y-40146335D01*
X39895147Y-40423574D01*
X40003320Y-40684727D01*
X40160363Y-40919759D01*
X40340001Y-41099397D01*
X40340000Y-45674068D01*
X40340000Y-46400931D01*
X40340001Y-46400938D01*
X40340000Y-47872710D01*
X39617711Y-48595000D01*
X38145931Y-48595000D01*
X38099999Y-48590476D01*
X37916707Y-48608529D01*
X37863243Y-48624747D01*
X37740460Y-48661993D01*
X37578028Y-48748814D01*
X37435656Y-48865656D01*
X37406376Y-48901334D01*
X31362711Y-54945000D01*
X24598072Y-54945000D01*
X24598072Y-54780000D01*
X24585812Y-54655518D01*
X24549502Y-54535820D01*
X24490537Y-54425506D01*
X24411185Y-54328815D01*
X24314494Y-54249463D01*
X24204180Y-54190498D01*
X24084482Y-54154188D01*
X23960000Y-54141928D01*
X21760000Y-54141928D01*
X21635518Y-54154188D01*
X21515820Y-54190498D01*
X21405506Y-54249463D01*
X21308815Y-54328815D01*
X21229463Y-54425506D01*
X21170498Y-54535820D01*
X21134188Y-54655518D01*
X21121928Y-54780000D01*
X21121928Y-54945000D01*
X20365931Y-54945000D01*
X20319999Y-54940476D01*
X20136707Y-54958529D01*
X20083243Y-54974747D01*
X19960460Y-55011993D01*
X19798028Y-55098814D01*
X19655656Y-55215656D01*
X19626376Y-55251334D01*
X18421336Y-56456375D01*
X18385657Y-56485656D01*
X18268815Y-56628028D01*
X18183298Y-56788020D01*
X18181994Y-56790460D01*
X18128529Y-56966709D01*
X18110476Y-57150000D01*
X18115001Y-57195942D01*
X18115001Y-58800506D01*
X18114918Y-58800550D01*
X17859866Y-59009866D01*
X17650550Y-59264919D01*
X17495015Y-59555905D01*
X17399236Y-59871644D01*
X17375000Y-60117719D01*
X15646129Y-60117719D01*
X15648072Y-59160000D01*
X15635812Y-59035518D01*
X15599502Y-58915820D01*
X15540537Y-58805506D01*
X15461185Y-58708815D01*
X15364494Y-58629463D01*
X15254180Y-58570498D01*
X15134482Y-58534188D01*
X15010000Y-58521928D01*
X14255750Y-58525000D01*
X14097000Y-58683750D01*
X13843000Y-58683750D01*
X13684250Y-58525000D01*
X12930000Y-58521928D01*
X12805518Y-58534188D01*
X12685820Y-58570498D01*
X12575506Y-58629463D01*
X12478815Y-58708815D01*
X12399463Y-58805506D01*
X12340498Y-58915820D01*
X12304188Y-59035518D01*
X12291928Y-59160000D01*
X710000Y-59160000D01*
X710000Y-56276122D01*
X8470825Y-56276122D01*
X8535425Y-56489094D01*
X8685469Y-56794329D01*
X8892178Y-57064427D01*
X9147609Y-57289008D01*
X9441946Y-57459442D01*
X9763877Y-57569179D01*
X10033000Y-57451600D01*
X10033000Y-56007000D01*
X10287000Y-56007000D01*
X10287000Y-57451600D01*
X10556123Y-57569179D01*
X10878054Y-57459442D01*
X11172391Y-57289008D01*
X11427822Y-57064427D01*
X11634531Y-56794329D01*
X11784575Y-56489094D01*
X11849175Y-56276122D01*
X11731125Y-56007000D01*
X10287000Y-56007000D01*
X10033000Y-56007000D01*
X8588875Y-56007000D01*
X8470825Y-56276122D01*
X710000Y-56276122D01*
X710000Y-55483878D01*
X8470825Y-55483878D01*
X8588875Y-55753000D01*
X10033000Y-55753000D01*
X10033000Y-54308400D01*
X10287000Y-54308400D01*
X10287000Y-55753000D01*
X11731125Y-55753000D01*
X11849175Y-55483878D01*
X11784575Y-55270906D01*
X11634531Y-54965671D01*
X11427822Y-54695573D01*
X11172391Y-54470992D01*
X10878054Y-54300558D01*
X10556123Y-54190821D01*
X10287000Y-54308400D01*
X10033000Y-54308400D01*
X9763877Y-54190821D01*
X9441946Y-54300558D01*
X9147609Y-54470992D01*
X8892178Y-54695573D01*
X8685469Y-54965671D01*
X8535425Y-55270906D01*
X8470825Y-55483878D01*
X710000Y-55483878D01*
X710000Y-53467000D01*
X29210000Y-53467000D01*
X29234776Y-53464560D01*
X29258601Y-53457333D01*
X29280557Y-53445597D01*
X29299803Y-53429803D01*
X29315597Y-53410557D01*
X29327333Y-53388601D01*
X29334560Y-53364776D01*
X29337000Y-53340000D01*
X29337000Y-46069039D01*
X29958096Y-46069039D01*
X29975633Y-46151818D01*
X30086285Y-46411646D01*
X30245500Y-46644895D01*
X30447161Y-46842601D01*
X30683517Y-46997166D01*
X30945486Y-47102650D01*
X31223000Y-47155000D01*
X31623000Y-47155000D01*
X31623000Y-45847000D01*
X31877000Y-45847000D01*
X31877000Y-47155000D01*
X32277000Y-47155000D01*
X32554514Y-47102650D01*
X32816483Y-46997166D01*
X33052839Y-46842601D01*
X33254500Y-46644895D01*
X33413715Y-46411646D01*
X33524367Y-46151818D01*
X33541904Y-46069039D01*
X33419915Y-45847000D01*
X31877000Y-45847000D01*
X31623000Y-45847000D01*
X30080085Y-45847000D01*
X29958096Y-46069039D01*
X29337000Y-46069039D01*
X29337000Y-38100000D01*
X29908057Y-38100000D01*
X29935764Y-38381309D01*
X30017818Y-38651808D01*
X30151068Y-38901101D01*
X30330392Y-39119608D01*
X30548899Y-39298932D01*
X30681858Y-39370000D01*
X30548899Y-39441068D01*
X30330392Y-39620392D01*
X30151068Y-39838899D01*
X30017818Y-40088192D01*
X29935764Y-40358691D01*
X29908057Y-40640000D01*
X29935764Y-40921309D01*
X30017818Y-41191808D01*
X30151068Y-41441101D01*
X30330392Y-41659608D01*
X30548899Y-41838932D01*
X30681858Y-41910000D01*
X30548899Y-41981068D01*
X30330392Y-42160392D01*
X30151068Y-42378899D01*
X30017818Y-42628192D01*
X29935764Y-42898691D01*
X29908057Y-43180000D01*
X29935764Y-43461309D01*
X30017818Y-43731808D01*
X30151068Y-43981101D01*
X30330392Y-44199608D01*
X30548899Y-44378932D01*
X30676741Y-44447265D01*
X30447161Y-44597399D01*
X30245500Y-44795105D01*
X30086285Y-45028354D01*
X29975633Y-45288182D01*
X29958096Y-45370961D01*
X30080085Y-45593000D01*
X31623000Y-45593000D01*
X31623000Y-45573000D01*
X31877000Y-45573000D01*
X31877000Y-45593000D01*
X33419915Y-45593000D01*
X33541904Y-45370961D01*
X33524367Y-45288182D01*
X33413715Y-45028354D01*
X33254500Y-44795105D01*
X33052839Y-44597399D01*
X32823259Y-44447265D01*
X32951101Y-44378932D01*
X33169608Y-44199608D01*
X33239044Y-44115000D01*
X36784068Y-44115000D01*
X36830000Y-44119524D01*
X36875932Y-44115000D01*
X37013292Y-44101471D01*
X37189540Y-44048007D01*
X37351972Y-43961186D01*
X37494344Y-43844344D01*
X37523630Y-43808659D01*
X38728665Y-42603625D01*
X38764344Y-42574344D01*
X38881186Y-42431972D01*
X38968007Y-42269540D01*
X39011420Y-42126426D01*
X39021471Y-42093293D01*
X39039524Y-41910001D01*
X39035000Y-41864069D01*
X39035000Y-37575512D01*
X39834783Y-37575512D01*
X39876213Y-37855130D01*
X39971397Y-38121292D01*
X40038329Y-38246514D01*
X40282298Y-38318097D01*
X41095395Y-37505000D01*
X41454605Y-37505000D01*
X42267702Y-38318097D01*
X42511671Y-38246514D01*
X42632571Y-37991004D01*
X42701300Y-37716816D01*
X42715217Y-37434488D01*
X42673787Y-37154870D01*
X42578603Y-36888708D01*
X42511671Y-36763486D01*
X42267702Y-36691903D01*
X41454605Y-37505000D01*
X41095395Y-37505000D01*
X40282298Y-36691903D01*
X40038329Y-36763486D01*
X39917429Y-37018996D01*
X39848700Y-37293184D01*
X39834783Y-37575512D01*
X39035000Y-37575512D01*
X39035000Y-36019396D01*
X39176694Y-35877702D01*
X40461903Y-35877702D01*
X40533486Y-36121671D01*
X40683353Y-36192584D01*
X40658708Y-36201397D01*
X40533486Y-36268329D01*
X40461903Y-36512298D01*
X41275000Y-37325395D01*
X42088097Y-36512298D01*
X42016514Y-36268329D01*
X41866647Y-36197416D01*
X41891292Y-36188603D01*
X42016514Y-36121671D01*
X42088097Y-35877702D01*
X41275000Y-35064605D01*
X40461903Y-35877702D01*
X39176694Y-35877702D01*
X39214637Y-35839759D01*
X39371680Y-35604727D01*
X39479853Y-35343574D01*
X39535000Y-35066335D01*
X39535000Y-34955512D01*
X39834783Y-34955512D01*
X39876213Y-35235130D01*
X39971397Y-35501292D01*
X40038329Y-35626514D01*
X40282298Y-35698097D01*
X41095395Y-34885000D01*
X41454605Y-34885000D01*
X42267702Y-35698097D01*
X42511671Y-35626514D01*
X42632571Y-35371004D01*
X42701300Y-35096816D01*
X42715217Y-34814488D01*
X42673787Y-34534870D01*
X42578603Y-34268708D01*
X42511671Y-34143486D01*
X42267702Y-34071903D01*
X41454605Y-34885000D01*
X41095395Y-34885000D01*
X40282298Y-34071903D01*
X40038329Y-34143486D01*
X39917429Y-34398996D01*
X39848700Y-34673184D01*
X39834783Y-34955512D01*
X39535000Y-34955512D01*
X39535000Y-34783665D01*
X39479853Y-34506426D01*
X39371680Y-34245273D01*
X39214637Y-34010241D01*
X39014759Y-33810363D01*
X38779727Y-33653320D01*
X38518574Y-33545147D01*
X38241335Y-33490000D01*
X37958665Y-33490000D01*
X37681426Y-33545147D01*
X37420273Y-33653320D01*
X37185241Y-33810363D01*
X36985363Y-34010241D01*
X36828320Y-34245273D01*
X36720147Y-34506426D01*
X36665000Y-34783665D01*
X36665000Y-35066335D01*
X36720147Y-35343574D01*
X36828320Y-35604727D01*
X36985363Y-35839759D01*
X37165001Y-36019397D01*
X37165000Y-40050931D01*
X37165001Y-40050941D01*
X37165000Y-41522710D01*
X36442711Y-42245000D01*
X33239044Y-42245000D01*
X33169608Y-42160392D01*
X32951101Y-41981068D01*
X32818142Y-41910000D01*
X32951101Y-41838932D01*
X33169608Y-41659608D01*
X33348932Y-41441101D01*
X33482182Y-41191808D01*
X33564236Y-40921309D01*
X33591943Y-40640000D01*
X33564236Y-40358691D01*
X33482182Y-40088192D01*
X33348932Y-39838899D01*
X33169608Y-39620392D01*
X32951101Y-39441068D01*
X32818142Y-39370000D01*
X32951101Y-39298932D01*
X33169608Y-39119608D01*
X33348932Y-38901101D01*
X33482182Y-38651808D01*
X33564236Y-38381309D01*
X33591943Y-38100000D01*
X33564236Y-37818691D01*
X33515212Y-37657078D01*
X33648665Y-37523625D01*
X33684344Y-37494344D01*
X33801186Y-37351972D01*
X33888007Y-37189540D01*
X33926390Y-37063007D01*
X33941471Y-37013293D01*
X33959524Y-36830001D01*
X33955000Y-36784068D01*
X33955000Y-33320000D01*
X40180604Y-33320000D01*
X40360241Y-33499637D01*
X40560869Y-33633692D01*
X40533486Y-33648329D01*
X40461903Y-33892298D01*
X41275000Y-34705395D01*
X42088097Y-33892298D01*
X42016514Y-33648329D01*
X41987659Y-33634676D01*
X42189759Y-33499637D01*
X42369396Y-33320000D01*
X44477331Y-33320000D01*
X44473889Y-33331347D01*
X44442012Y-33655000D01*
X44473889Y-33978653D01*
X44568295Y-34289867D01*
X44721602Y-34576684D01*
X44927918Y-34828082D01*
X45045225Y-34924353D01*
X44843764Y-35117369D01*
X44657686Y-35383350D01*
X44527074Y-35680522D01*
X44495025Y-35812056D01*
X44614164Y-36068000D01*
X46228000Y-36068000D01*
X46228000Y-36048000D01*
X46482000Y-36048000D01*
X46482000Y-36068000D01*
X48095836Y-36068000D01*
X48214975Y-35812056D01*
X48182926Y-35680522D01*
X48052314Y-35383350D01*
X47866236Y-35117369D01*
X47664775Y-34924353D01*
X47782082Y-34828082D01*
X47977470Y-34590000D01*
X49777711Y-34590000D01*
X51135001Y-35947290D01*
X51135000Y-41450604D01*
X50955363Y-41630241D01*
X50798320Y-41865273D01*
X50690147Y-42126426D01*
X50635000Y-42403665D01*
X50635000Y-42686335D01*
X50690147Y-42963574D01*
X50798320Y-43224727D01*
X50955363Y-43459759D01*
X51155241Y-43659637D01*
X51390273Y-43816680D01*
X51651426Y-43924853D01*
X51928665Y-43980000D01*
X52211335Y-43980000D01*
X52488574Y-43924853D01*
X52749727Y-43816680D01*
X52984759Y-43659637D01*
X53184637Y-43459759D01*
X53341680Y-43224727D01*
X53449853Y-42963574D01*
X53505000Y-42686335D01*
X53505000Y-42403665D01*
X53449853Y-42126426D01*
X53341680Y-41865273D01*
X53184637Y-41630241D01*
X53005000Y-41450604D01*
X53005000Y-36495000D01*
X58755001Y-36495000D01*
X58755001Y-36565375D01*
X58665518Y-36574188D01*
X58545820Y-36610498D01*
X58435506Y-36669463D01*
X58338815Y-36748815D01*
X58259463Y-36845506D01*
X58200498Y-36955820D01*
X58164188Y-37075518D01*
X58151928Y-37200000D01*
X58151928Y-39000000D01*
X58164188Y-39124482D01*
X58200498Y-39244180D01*
X58259463Y-39354494D01*
X58338815Y-39451185D01*
X58435506Y-39530537D01*
X58545820Y-39589502D01*
X58564127Y-39595056D01*
X58497688Y-39661495D01*
X58329701Y-39912905D01*
X58213989Y-40192257D01*
X58155000Y-40488816D01*
X58155000Y-40791184D01*
X58213989Y-41087743D01*
X58329701Y-41367095D01*
X58497688Y-41618505D01*
X58711495Y-41832312D01*
X58755001Y-41861382D01*
X58755000Y-45260604D01*
X58575363Y-45440241D01*
X58418320Y-45675273D01*
X58310147Y-45936426D01*
X58255000Y-46213665D01*
X58255000Y-46496335D01*
X58310147Y-46773574D01*
X58418320Y-47034727D01*
X58575363Y-47269759D01*
X58775241Y-47469637D01*
X59010273Y-47626680D01*
X59271426Y-47734853D01*
X59548665Y-47790000D01*
X59831335Y-47790000D01*
X60108574Y-47734853D01*
X60369727Y-47626680D01*
X60604759Y-47469637D01*
X60804637Y-47269759D01*
X60961680Y-47034727D01*
X61069853Y-46773574D01*
X61125000Y-46496335D01*
X61125000Y-46213665D01*
X61069853Y-45936426D01*
X60961680Y-45675273D01*
X60804637Y-45440241D01*
X60625000Y-45260604D01*
X60625000Y-41861381D01*
X60668505Y-41832312D01*
X60882312Y-41618505D01*
X61050299Y-41367095D01*
X61166011Y-41087743D01*
X61225000Y-40791184D01*
X61225000Y-40750512D01*
X66504783Y-40750512D01*
X66546213Y-41030130D01*
X66641397Y-41296292D01*
X66708329Y-41421514D01*
X66952298Y-41493097D01*
X67765395Y-40680000D01*
X68124605Y-40680000D01*
X68937702Y-41493097D01*
X69181671Y-41421514D01*
X69302571Y-41166004D01*
X69371300Y-40891816D01*
X69385217Y-40609488D01*
X69343787Y-40329870D01*
X69248603Y-40063708D01*
X69181671Y-39938486D01*
X68937702Y-39866903D01*
X68124605Y-40680000D01*
X67765395Y-40680000D01*
X66952298Y-39866903D01*
X66708329Y-39938486D01*
X66587429Y-40193996D01*
X66518700Y-40468184D01*
X66504783Y-40750512D01*
X61225000Y-40750512D01*
X61225000Y-40488816D01*
X61166011Y-40192257D01*
X61050299Y-39912905D01*
X60899554Y-39687298D01*
X67131903Y-39687298D01*
X67945000Y-40500395D01*
X68758097Y-39687298D01*
X68686514Y-39443329D01*
X68431004Y-39322429D01*
X68156816Y-39253700D01*
X67874488Y-39239783D01*
X67594870Y-39281213D01*
X67328708Y-39376397D01*
X67203486Y-39443329D01*
X67131903Y-39687298D01*
X60899554Y-39687298D01*
X60882312Y-39661495D01*
X60815873Y-39595056D01*
X60834180Y-39589502D01*
X60944494Y-39530537D01*
X61041185Y-39451185D01*
X61120537Y-39354494D01*
X61179502Y-39244180D01*
X61215812Y-39124482D01*
X61228072Y-39000000D01*
X61228072Y-37200000D01*
X61215812Y-37075518D01*
X61179502Y-36955820D01*
X61120537Y-36845506D01*
X61041185Y-36748815D01*
X60944494Y-36669463D01*
X60834180Y-36610498D01*
X60714482Y-36574188D01*
X60625000Y-36565375D01*
X60625000Y-36495000D01*
X71367711Y-36495000D01*
X71455000Y-36582289D01*
X71455001Y-37680603D01*
X71275363Y-37860241D01*
X71118320Y-38095273D01*
X71010147Y-38356426D01*
X70955000Y-38633665D01*
X70955000Y-38916335D01*
X71010147Y-39193574D01*
X71118320Y-39454727D01*
X71275363Y-39689759D01*
X71475241Y-39889637D01*
X71675869Y-40023692D01*
X71648486Y-40038329D01*
X71576903Y-40282298D01*
X72390000Y-41095395D01*
X73203097Y-40282298D01*
X73131514Y-40038329D01*
X73102659Y-40024676D01*
X73304759Y-39889637D01*
X73504637Y-39689759D01*
X73517840Y-39670000D01*
X73835604Y-39670000D01*
X74015241Y-39849637D01*
X74250273Y-40006680D01*
X74511426Y-40114853D01*
X74788665Y-40170000D01*
X75071335Y-40170000D01*
X75348574Y-40114853D01*
X75609727Y-40006680D01*
X75844759Y-39849637D01*
X76044637Y-39649759D01*
X76201680Y-39414727D01*
X76309853Y-39153574D01*
X76365000Y-38876335D01*
X76365000Y-38593665D01*
X76309853Y-38316426D01*
X76201680Y-38055273D01*
X76044637Y-37820241D01*
X75844759Y-37620363D01*
X75612241Y-37465000D01*
X75844759Y-37309637D01*
X76044637Y-37109759D01*
X76201680Y-36874727D01*
X76309853Y-36613574D01*
X76365000Y-36336335D01*
X76365000Y-36053665D01*
X76309853Y-35776426D01*
X76201680Y-35515273D01*
X76044637Y-35280241D01*
X75844759Y-35080363D01*
X75609727Y-34923320D01*
X75348574Y-34815147D01*
X75071335Y-34760000D01*
X74975000Y-34760000D01*
X74975000Y-34593072D01*
X75015000Y-34593072D01*
X75139482Y-34580812D01*
X75259180Y-34544502D01*
X75369494Y-34485537D01*
X75466185Y-34406185D01*
X75545537Y-34309494D01*
X75604502Y-34199180D01*
X75640812Y-34079482D01*
X75653072Y-33955000D01*
X75653072Y-33355000D01*
X75640812Y-33230518D01*
X75604502Y-33110820D01*
X75555957Y-33020000D01*
X75604502Y-32929180D01*
X75640812Y-32809482D01*
X75653072Y-32685000D01*
X75653072Y-32085000D01*
X75640812Y-31960518D01*
X75604502Y-31840820D01*
X75555957Y-31750000D01*
X75604502Y-31659180D01*
X75640812Y-31539482D01*
X75653072Y-31415000D01*
X75653072Y-30815000D01*
X75640812Y-30690518D01*
X75604502Y-30570820D01*
X75555957Y-30480000D01*
X75604502Y-30389180D01*
X75640812Y-30269482D01*
X75653072Y-30145000D01*
X75653072Y-29545000D01*
X75640812Y-29420518D01*
X75604502Y-29300820D01*
X75555957Y-29210000D01*
X75604502Y-29119180D01*
X75640812Y-28999482D01*
X75653072Y-28875000D01*
X75653072Y-28275000D01*
X75640812Y-28150518D01*
X75604502Y-28030820D01*
X75555957Y-27940000D01*
X75604502Y-27849180D01*
X75640812Y-27729482D01*
X75653072Y-27605000D01*
X75653072Y-27005000D01*
X75640812Y-26880518D01*
X75604502Y-26760820D01*
X75555957Y-26670000D01*
X75604502Y-26579180D01*
X75640812Y-26459482D01*
X75653072Y-26335000D01*
X75653072Y-25735000D01*
X75640812Y-25610518D01*
X75604502Y-25490820D01*
X75555957Y-25400000D01*
X75604502Y-25309180D01*
X75640812Y-25189482D01*
X75653072Y-25065000D01*
X75653072Y-24465000D01*
X75640812Y-24340518D01*
X75604502Y-24220820D01*
X75555957Y-24130000D01*
X75604502Y-24039180D01*
X75640812Y-23919482D01*
X75653072Y-23795000D01*
X75653072Y-23195000D01*
X75640812Y-23070518D01*
X75604502Y-22950820D01*
X75555957Y-22860000D01*
X75604502Y-22769180D01*
X75640812Y-22649482D01*
X75653072Y-22525000D01*
X75650000Y-22510750D01*
X75491250Y-22352000D01*
X74167000Y-22352000D01*
X74167000Y-22372000D01*
X73913000Y-22372000D01*
X73913000Y-22352000D01*
X73893000Y-22352000D01*
X73893000Y-22098000D01*
X73913000Y-22098000D01*
X73913000Y-21448750D01*
X74167000Y-21448750D01*
X74167000Y-22098000D01*
X75491250Y-22098000D01*
X75650000Y-21939250D01*
X75653072Y-21925000D01*
X75640812Y-21800518D01*
X75604502Y-21680820D01*
X75545537Y-21570506D01*
X75466185Y-21473815D01*
X75369494Y-21394463D01*
X75259180Y-21335498D01*
X75139482Y-21299188D01*
X75015000Y-21286928D01*
X74325750Y-21290000D01*
X74167000Y-21448750D01*
X73913000Y-21448750D01*
X73754250Y-21290000D01*
X73065000Y-21286928D01*
X72940518Y-21299188D01*
X72820820Y-21335498D01*
X72710506Y-21394463D01*
X72613815Y-21473815D01*
X72534463Y-21570506D01*
X72475498Y-21680820D01*
X72439188Y-21800518D01*
X72426928Y-21925000D01*
X72430000Y-21939250D01*
X72588748Y-22097998D01*
X72430000Y-22097998D01*
X72430000Y-22137710D01*
X72055000Y-21762711D01*
X72055000Y-20707289D01*
X75558660Y-17203629D01*
X75594344Y-17174344D01*
X75711186Y-17031972D01*
X75775316Y-16911993D01*
X75798007Y-16869541D01*
X75851472Y-16693292D01*
X75869524Y-16510000D01*
X75865000Y-16464065D01*
X75865000Y-15064396D01*
X76044637Y-14884759D01*
X76200000Y-14652241D01*
X76355363Y-14884759D01*
X76535000Y-15064396D01*
X76535000Y-15147301D01*
X76535001Y-15147311D01*
X76535000Y-16464067D01*
X76530476Y-16510000D01*
X76535000Y-16555931D01*
X76548529Y-16693291D01*
X76601993Y-16869539D01*
X76688814Y-17031971D01*
X76805656Y-17174344D01*
X76841341Y-17203630D01*
X81826928Y-22189218D01*
X81826928Y-22525000D01*
X81839188Y-22649482D01*
X81875498Y-22769180D01*
X81924043Y-22860000D01*
X81875498Y-22950820D01*
X81839188Y-23070518D01*
X81826928Y-23195000D01*
X81826928Y-23795000D01*
X81839188Y-23919482D01*
X81875498Y-24039180D01*
X81924043Y-24130000D01*
X81875498Y-24220820D01*
X81839188Y-24340518D01*
X81826928Y-24465000D01*
X81826928Y-25065000D01*
X81839188Y-25189482D01*
X81875498Y-25309180D01*
X81924043Y-25400000D01*
X81875498Y-25490820D01*
X81839188Y-25610518D01*
X81826928Y-25735000D01*
X81826928Y-26335000D01*
X81839188Y-26459482D01*
X81875498Y-26579180D01*
X81924043Y-26670000D01*
X81875498Y-26760820D01*
X81839188Y-26880518D01*
X81826928Y-27005000D01*
X81826928Y-27605000D01*
X81830375Y-27640000D01*
X80690932Y-27640000D01*
X80645000Y-27635476D01*
X80599068Y-27640000D01*
X80461708Y-27653529D01*
X80285460Y-27706993D01*
X80123028Y-27793814D01*
X79980656Y-27910656D01*
X79951370Y-27946341D01*
X78111336Y-29786375D01*
X78075657Y-29815656D01*
X77958815Y-29958028D01*
X77880850Y-30103892D01*
X77871994Y-30120460D01*
X77818529Y-30296709D01*
X77800476Y-30480000D01*
X77805001Y-30525942D01*
X77805001Y-43462711D01*
X76893630Y-42551341D01*
X76864344Y-42515656D01*
X76721972Y-42398814D01*
X76559540Y-42311993D01*
X76383292Y-42258529D01*
X76245932Y-42245000D01*
X76200000Y-42240476D01*
X76154068Y-42245000D01*
X73458347Y-42245000D01*
X73498977Y-42204370D01*
X73382704Y-42088097D01*
X73626671Y-42016514D01*
X73747571Y-41761004D01*
X73816300Y-41486816D01*
X73830217Y-41204488D01*
X73788787Y-40924870D01*
X73693603Y-40658708D01*
X73626671Y-40533486D01*
X73382702Y-40461903D01*
X72569605Y-41275000D01*
X72583748Y-41289143D01*
X72404143Y-41468748D01*
X72390000Y-41454605D01*
X72375858Y-41468748D01*
X72196253Y-41289143D01*
X72210395Y-41275000D01*
X71397298Y-40461903D01*
X71153329Y-40533486D01*
X71032429Y-40788996D01*
X70963700Y-41063184D01*
X70949783Y-41345512D01*
X70991213Y-41625130D01*
X71086397Y-41891292D01*
X71153329Y-42016514D01*
X71397296Y-42088097D01*
X71281023Y-42204370D01*
X71321653Y-42245000D01*
X69367621Y-42245000D01*
X69334502Y-42135820D01*
X69275537Y-42025506D01*
X69196185Y-41928815D01*
X69099494Y-41849463D01*
X68989180Y-41790498D01*
X68869482Y-41754188D01*
X68745000Y-41741928D01*
X68737785Y-41741928D01*
X68758097Y-41672702D01*
X67945000Y-40859605D01*
X67131903Y-41672702D01*
X67152215Y-41741928D01*
X67145000Y-41741928D01*
X67020518Y-41754188D01*
X66900820Y-41790498D01*
X66790506Y-41849463D01*
X66693815Y-41928815D01*
X66614463Y-42025506D01*
X66555498Y-42135820D01*
X66519188Y-42255518D01*
X66506928Y-42380000D01*
X66506928Y-43980000D01*
X66519188Y-44104482D01*
X66555498Y-44224180D01*
X66614463Y-44334494D01*
X66693815Y-44431185D01*
X66790506Y-44510537D01*
X66900820Y-44569502D01*
X67020518Y-44605812D01*
X67145000Y-44618072D01*
X68745000Y-44618072D01*
X68869482Y-44605812D01*
X68989180Y-44569502D01*
X69099494Y-44510537D01*
X69196185Y-44431185D01*
X69275537Y-44334494D01*
X69334502Y-44224180D01*
X69367621Y-44115000D01*
X75812711Y-44115000D01*
X75979639Y-44281928D01*
X73730000Y-44281928D01*
X73605518Y-44294188D01*
X73485820Y-44330498D01*
X73375506Y-44389463D01*
X73278815Y-44468815D01*
X73199463Y-44565506D01*
X73140498Y-44675820D01*
X73107379Y-44785000D01*
X73070931Y-44785000D01*
X73024999Y-44780476D01*
X72841707Y-44798529D01*
X72819581Y-44805241D01*
X72665460Y-44851993D01*
X72503028Y-44938814D01*
X72360656Y-45055656D01*
X72331374Y-45091336D01*
X71367711Y-46055000D01*
X69367621Y-46055000D01*
X69334502Y-45945820D01*
X69275537Y-45835506D01*
X69196185Y-45738815D01*
X69099494Y-45659463D01*
X68989180Y-45600498D01*
X68869482Y-45564188D01*
X68745000Y-45551928D01*
X67145000Y-45551928D01*
X67020518Y-45564188D01*
X66900820Y-45600498D01*
X66790506Y-45659463D01*
X66693815Y-45738815D01*
X66614463Y-45835506D01*
X66555498Y-45945820D01*
X66519188Y-46065518D01*
X66506928Y-46190000D01*
X66506928Y-47790000D01*
X66519188Y-47914482D01*
X66555498Y-48034180D01*
X66614463Y-48144494D01*
X66693815Y-48241185D01*
X66790506Y-48320537D01*
X66900820Y-48379502D01*
X66996943Y-48408661D01*
X66830363Y-48575241D01*
X66673320Y-48810273D01*
X66565147Y-49071426D01*
X66510000Y-49348665D01*
X66510000Y-49631335D01*
X66565147Y-49908574D01*
X66673320Y-50169727D01*
X66830363Y-50404759D01*
X67030241Y-50604637D01*
X67265273Y-50761680D01*
X67526426Y-50869853D01*
X67803665Y-50925000D01*
X68086335Y-50925000D01*
X68363574Y-50869853D01*
X68624727Y-50761680D01*
X68859759Y-50604637D01*
X69039396Y-50425000D01*
X71327711Y-50425000D01*
X72331370Y-51428659D01*
X72360656Y-51464344D01*
X72503028Y-51581186D01*
X72665460Y-51668007D01*
X72732895Y-51688463D01*
X72841708Y-51721472D01*
X73025000Y-51739524D01*
X73070935Y-51735000D01*
X73440956Y-51735000D01*
X73510392Y-51819608D01*
X73728899Y-51998932D01*
X73861858Y-52070000D01*
X73728899Y-52141068D01*
X73510392Y-52320392D01*
X73440956Y-52405000D01*
X69367621Y-52405000D01*
X69334502Y-52295820D01*
X69275537Y-52185506D01*
X69196185Y-52088815D01*
X69099494Y-52009463D01*
X68989180Y-51950498D01*
X68869482Y-51914188D01*
X68745000Y-51901928D01*
X67145000Y-51901928D01*
X67020518Y-51914188D01*
X66900820Y-51950498D01*
X66790506Y-52009463D01*
X66693815Y-52088815D01*
X66614463Y-52185506D01*
X66555498Y-52295820D01*
X66519188Y-52415518D01*
X66506928Y-52540000D01*
X66506928Y-54140000D01*
X66519188Y-54264482D01*
X66555498Y-54384180D01*
X66614463Y-54494494D01*
X66693815Y-54591185D01*
X66790506Y-54670537D01*
X66900820Y-54729502D01*
X66996943Y-54758661D01*
X66830363Y-54925241D01*
X66673320Y-55160273D01*
X66565147Y-55421426D01*
X66510000Y-55698665D01*
X66510000Y-55981335D01*
X66565147Y-56258574D01*
X66673320Y-56519727D01*
X66830363Y-56754759D01*
X67030241Y-56954637D01*
X67265273Y-57111680D01*
X67526426Y-57219853D01*
X67803665Y-57275000D01*
X68086335Y-57275000D01*
X68363574Y-57219853D01*
X68624727Y-57111680D01*
X68859759Y-56954637D01*
X68999396Y-56815000D01*
X73440956Y-56815000D01*
X73510392Y-56899608D01*
X73728899Y-57078932D01*
X73861858Y-57150000D01*
X73728899Y-57221068D01*
X73510392Y-57400392D01*
X73440956Y-57485000D01*
X72435935Y-57485000D01*
X72390000Y-57480476D01*
X72206708Y-57498528D01*
X72102828Y-57530041D01*
X72030460Y-57551993D01*
X71868028Y-57638814D01*
X71725656Y-57755656D01*
X71696370Y-57791341D01*
X70692711Y-58795000D01*
X69039396Y-58795000D01*
X68859759Y-58615363D01*
X68624727Y-58458320D01*
X68363574Y-58350147D01*
X68086335Y-58295000D01*
X67803665Y-58295000D01*
X67526426Y-58350147D01*
X67265273Y-58458320D01*
X67030241Y-58615363D01*
X66830363Y-58815241D01*
X66673320Y-59050273D01*
X66565147Y-59311426D01*
X66510000Y-59588665D01*
X66510000Y-59871335D01*
X66565147Y-60148574D01*
X66673320Y-60409727D01*
X66830363Y-60644759D01*
X66996943Y-60811339D01*
X66900820Y-60840498D01*
X66790506Y-60899463D01*
X66693815Y-60978815D01*
X66614463Y-61075506D01*
X66555498Y-61185820D01*
X66519188Y-61305518D01*
X66506928Y-61430000D01*
X66510000Y-61944250D01*
X66668750Y-62103000D01*
X67818000Y-62103000D01*
X67818000Y-62083000D01*
X68072000Y-62083000D01*
X68072000Y-62103000D01*
X69221250Y-62103000D01*
X69380000Y-61944250D01*
X69383072Y-61430000D01*
X69370812Y-61305518D01*
X69334502Y-61185820D01*
X69275537Y-61075506D01*
X69196185Y-60978815D01*
X69099494Y-60899463D01*
X68989180Y-60840498D01*
X68893057Y-60811339D01*
X69039396Y-60665000D01*
X71034068Y-60665000D01*
X71080000Y-60669524D01*
X71125932Y-60665000D01*
X71263292Y-60651471D01*
X71439540Y-60598007D01*
X71601972Y-60511186D01*
X71744344Y-60394344D01*
X71773630Y-60358659D01*
X72777289Y-59355000D01*
X73440956Y-59355000D01*
X73510392Y-59439608D01*
X73728899Y-59618932D01*
X73861858Y-59690000D01*
X73728899Y-59761068D01*
X73510392Y-59940392D01*
X73331068Y-60158899D01*
X73197818Y-60408192D01*
X73115764Y-60678691D01*
X73088057Y-60960000D01*
X73115764Y-61241309D01*
X73197818Y-61511808D01*
X73331068Y-61761101D01*
X73510392Y-61979608D01*
X73728899Y-62158932D01*
X73861858Y-62230000D01*
X73728899Y-62301068D01*
X73510392Y-62480392D01*
X73331068Y-62698899D01*
X73197818Y-62948192D01*
X73115764Y-63218691D01*
X73088057Y-63500000D01*
X73115764Y-63781309D01*
X73197818Y-64051808D01*
X73331068Y-64301101D01*
X73510392Y-64519608D01*
X73728899Y-64698932D01*
X73978192Y-64832182D01*
X74248691Y-64914236D01*
X74459508Y-64935000D01*
X75400492Y-64935000D01*
X75611309Y-64914236D01*
X75881808Y-64832182D01*
X76131101Y-64698932D01*
X76349608Y-64519608D01*
X76528932Y-64301101D01*
X76662182Y-64051808D01*
X76744236Y-63781309D01*
X76771943Y-63500000D01*
X76744236Y-63218691D01*
X76662182Y-62948192D01*
X76528932Y-62698899D01*
X76349608Y-62480392D01*
X76131101Y-62301068D01*
X75998142Y-62230000D01*
X76131101Y-62158932D01*
X76349608Y-61979608D01*
X76384637Y-61936926D01*
X77170000Y-62722289D01*
X77170001Y-68827709D01*
X76447711Y-69550000D01*
X72599701Y-69550000D01*
X72595812Y-69510518D01*
X72559502Y-69390820D01*
X72500537Y-69280506D01*
X72421185Y-69183815D01*
X72324494Y-69104463D01*
X72214180Y-69045498D01*
X72094482Y-69009188D01*
X71970000Y-68996928D01*
X70270000Y-68996928D01*
X70145518Y-69009188D01*
X70025820Y-69045498D01*
X69915506Y-69104463D01*
X69818815Y-69183815D01*
X69739463Y-69280506D01*
X69680498Y-69390820D01*
X69656034Y-69471466D01*
X69580269Y-69387412D01*
X69346920Y-69213359D01*
X69084099Y-69088175D01*
X68936890Y-69043524D01*
X68707000Y-69164845D01*
X68707000Y-70358000D01*
X68727000Y-70358000D01*
X68727000Y-70612000D01*
X68707000Y-70612000D01*
X68707000Y-71805155D01*
X68936890Y-71926476D01*
X69084099Y-71881825D01*
X69346920Y-71756641D01*
X69580269Y-71582588D01*
X69656034Y-71498534D01*
X69680498Y-71579180D01*
X69739463Y-71689494D01*
X69818815Y-71786185D01*
X69915506Y-71865537D01*
X70025820Y-71924502D01*
X70145518Y-71960812D01*
X70270000Y-71973072D01*
X71970000Y-71973072D01*
X72094482Y-71960812D01*
X72214180Y-71924502D01*
X72324494Y-71865537D01*
X72421185Y-71786185D01*
X72500537Y-71689494D01*
X72559502Y-71579180D01*
X72595812Y-71459482D01*
X72599701Y-71420000D01*
X76789068Y-71420000D01*
X76835000Y-71424524D01*
X76880932Y-71420000D01*
X77018292Y-71406471D01*
X77194540Y-71353007D01*
X77356972Y-71266186D01*
X77499344Y-71149344D01*
X77528630Y-71113659D01*
X77800398Y-70841891D01*
X79838519Y-70841891D01*
X79935843Y-71116252D01*
X80084822Y-71366355D01*
X80279731Y-71582588D01*
X80513080Y-71756641D01*
X80775901Y-71881825D01*
X80923110Y-71926476D01*
X81153000Y-71805155D01*
X81153000Y-70612000D01*
X79959186Y-70612000D01*
X79838519Y-70841891D01*
X77800398Y-70841891D01*
X78514180Y-70128109D01*
X79838519Y-70128109D01*
X79959186Y-70358000D01*
X81153000Y-70358000D01*
X81153000Y-69164845D01*
X80923110Y-69043524D01*
X80775901Y-69088175D01*
X80513080Y-69213359D01*
X80279731Y-69387412D01*
X80084822Y-69603645D01*
X79935843Y-69853748D01*
X79838519Y-70128109D01*
X78514180Y-70128109D01*
X78733664Y-69908626D01*
X78769344Y-69879344D01*
X78886186Y-69736972D01*
X78973007Y-69574540D01*
X79026471Y-69398292D01*
X79040000Y-69260932D01*
X79044524Y-69215001D01*
X79040000Y-69169069D01*
X79040000Y-62380935D01*
X79044524Y-62335000D01*
X79026472Y-62151708D01*
X78973007Y-61975459D01*
X78932419Y-61899524D01*
X78886186Y-61813028D01*
X78769344Y-61670656D01*
X78733660Y-61641371D01*
X77423630Y-60331341D01*
X77394344Y-60295656D01*
X77251972Y-60178814D01*
X77089540Y-60091993D01*
X76913292Y-60038529D01*
X76775932Y-60025000D01*
X76730000Y-60020476D01*
X76684068Y-60025000D01*
X76419044Y-60025000D01*
X76349608Y-59940392D01*
X76131101Y-59761068D01*
X75998142Y-59690000D01*
X76131101Y-59618932D01*
X76349608Y-59439608D01*
X76528932Y-59221101D01*
X76662182Y-58971808D01*
X76744236Y-58701309D01*
X76771943Y-58420000D01*
X76744236Y-58138691D01*
X76662182Y-57868192D01*
X76528932Y-57618899D01*
X76349608Y-57400392D01*
X76131101Y-57221068D01*
X75998142Y-57150000D01*
X76131101Y-57078932D01*
X76349608Y-56899608D01*
X76528932Y-56681101D01*
X76662182Y-56431808D01*
X76744236Y-56161309D01*
X76771943Y-55880000D01*
X76744236Y-55598691D01*
X76662182Y-55328192D01*
X76528932Y-55078899D01*
X76349608Y-54860392D01*
X76131101Y-54681068D01*
X75998142Y-54610000D01*
X76131101Y-54538932D01*
X76349608Y-54359608D01*
X76528932Y-54141101D01*
X76662182Y-53891808D01*
X76744236Y-53621309D01*
X76771943Y-53340000D01*
X76744236Y-53058691D01*
X76662182Y-52788192D01*
X76528932Y-52538899D01*
X76349608Y-52320392D01*
X76131101Y-52141068D01*
X75998142Y-52070000D01*
X76131101Y-51998932D01*
X76349608Y-51819608D01*
X76528932Y-51601101D01*
X76662182Y-51351808D01*
X76744236Y-51081309D01*
X76771943Y-50800000D01*
X76744236Y-50518691D01*
X76662182Y-50248192D01*
X76528932Y-49998899D01*
X76349608Y-49780392D01*
X76131101Y-49601068D01*
X75998142Y-49530000D01*
X76131101Y-49458932D01*
X76349608Y-49279608D01*
X76419044Y-49195000D01*
X76789068Y-49195000D01*
X76835000Y-49199524D01*
X76880932Y-49195000D01*
X77018292Y-49181471D01*
X77194540Y-49128007D01*
X77356972Y-49041186D01*
X77499344Y-48924344D01*
X77528630Y-48888659D01*
X77805000Y-48612289D01*
X77805000Y-58904068D01*
X77800476Y-58950000D01*
X77808899Y-59035518D01*
X77818529Y-59133291D01*
X77871993Y-59309539D01*
X77958814Y-59471971D01*
X78075656Y-59614344D01*
X78111341Y-59643630D01*
X80056374Y-61588664D01*
X80085656Y-61624344D01*
X80228028Y-61741186D01*
X80390460Y-61828007D01*
X80513243Y-61865253D01*
X80566707Y-61881471D01*
X80749999Y-61899524D01*
X80795931Y-61895000D01*
X81060956Y-61895000D01*
X81130392Y-61979608D01*
X81348899Y-62158932D01*
X81481858Y-62230000D01*
X81348899Y-62301068D01*
X81130392Y-62480392D01*
X80951068Y-62698899D01*
X80817818Y-62948192D01*
X80735764Y-63218691D01*
X80708057Y-63500000D01*
X80735764Y-63781309D01*
X80817818Y-64051808D01*
X80951068Y-64301101D01*
X81130392Y-64519608D01*
X81348899Y-64698932D01*
X81598192Y-64832182D01*
X81868691Y-64914236D01*
X82079508Y-64935000D01*
X83020492Y-64935000D01*
X83231309Y-64914236D01*
X83501808Y-64832182D01*
X83751101Y-64698932D01*
X83969608Y-64519608D01*
X84148932Y-64301101D01*
X84282182Y-64051808D01*
X84364236Y-63781309D01*
X84391943Y-63500000D01*
X84364236Y-63218691D01*
X84282182Y-62948192D01*
X84148932Y-62698899D01*
X83969608Y-62480392D01*
X83751101Y-62301068D01*
X83618142Y-62230000D01*
X83751101Y-62158932D01*
X83969608Y-61979608D01*
X84148932Y-61761101D01*
X84282182Y-61511808D01*
X84364236Y-61241309D01*
X84391943Y-60960000D01*
X84364236Y-60678691D01*
X84282182Y-60408192D01*
X84148932Y-60158899D01*
X83969608Y-59940392D01*
X83751101Y-59761068D01*
X83618142Y-59690000D01*
X83751101Y-59618932D01*
X83969608Y-59439608D01*
X84148932Y-59221101D01*
X84282182Y-58971808D01*
X84364236Y-58701309D01*
X84391943Y-58420000D01*
X84364236Y-58138691D01*
X84282182Y-57868192D01*
X84148932Y-57618899D01*
X83969608Y-57400392D01*
X83751101Y-57221068D01*
X83618142Y-57150000D01*
X83751101Y-57078932D01*
X83969608Y-56899608D01*
X84148932Y-56681101D01*
X84282182Y-56431808D01*
X84364236Y-56161309D01*
X84391943Y-55880000D01*
X84364236Y-55598691D01*
X84282182Y-55328192D01*
X84148932Y-55078899D01*
X83969608Y-54860392D01*
X83751101Y-54681068D01*
X83618142Y-54610000D01*
X83751101Y-54538932D01*
X83969608Y-54359608D01*
X84148932Y-54141101D01*
X84282182Y-53891808D01*
X84364236Y-53621309D01*
X84391943Y-53340000D01*
X84364236Y-53058691D01*
X84282182Y-52788192D01*
X84148932Y-52538899D01*
X83969608Y-52320392D01*
X83751101Y-52141068D01*
X83618142Y-52070000D01*
X83751101Y-51998932D01*
X83969608Y-51819608D01*
X84004637Y-51776926D01*
X84790001Y-52562290D01*
X84790000Y-69008747D01*
X84670000Y-68996928D01*
X82970000Y-68996928D01*
X82845518Y-69009188D01*
X82725820Y-69045498D01*
X82615506Y-69104463D01*
X82518815Y-69183815D01*
X82439463Y-69280506D01*
X82380498Y-69390820D01*
X82356034Y-69471466D01*
X82280269Y-69387412D01*
X82046920Y-69213359D01*
X81784099Y-69088175D01*
X81636890Y-69043524D01*
X81407000Y-69164845D01*
X81407000Y-70358000D01*
X81427000Y-70358000D01*
X81427000Y-70612000D01*
X81407000Y-70612000D01*
X81407000Y-71805155D01*
X81636890Y-71926476D01*
X81784099Y-71881825D01*
X82046920Y-71756641D01*
X82280269Y-71582588D01*
X82356034Y-71498534D01*
X82380498Y-71579180D01*
X82439463Y-71689494D01*
X82518815Y-71786185D01*
X82615506Y-71865537D01*
X82725820Y-71924502D01*
X82845518Y-71960812D01*
X82970000Y-71973072D01*
X84670000Y-71973072D01*
X84794482Y-71960812D01*
X84914180Y-71924502D01*
X85024494Y-71865537D01*
X85121185Y-71786185D01*
X85200537Y-71689494D01*
X85259502Y-71579180D01*
X85295812Y-71459482D01*
X85299542Y-71421614D01*
X85315932Y-71420000D01*
X85453292Y-71406471D01*
X85629540Y-71353007D01*
X85791972Y-71266186D01*
X85934344Y-71149344D01*
X85963630Y-71113659D01*
X86353660Y-70723629D01*
X86389344Y-70694344D01*
X86506186Y-70551972D01*
X86593007Y-70389540D01*
X86646471Y-70213292D01*
X86660000Y-70075932D01*
X86660000Y-70075931D01*
X86664524Y-70030001D01*
X86660000Y-69984069D01*
X86660000Y-52220935D01*
X86664524Y-52175000D01*
X86646472Y-51991708D01*
X86593007Y-51815459D01*
X86552419Y-51739524D01*
X86506186Y-51653028D01*
X86389344Y-51510656D01*
X86353659Y-51481370D01*
X85043630Y-50171341D01*
X85014344Y-50135656D01*
X84871972Y-50018814D01*
X84709540Y-49931993D01*
X84533292Y-49878529D01*
X84395932Y-49865000D01*
X84350000Y-49860476D01*
X84304068Y-49865000D01*
X84039044Y-49865000D01*
X83969608Y-49780392D01*
X83751101Y-49601068D01*
X83623259Y-49532735D01*
X83852839Y-49382601D01*
X84026136Y-49212702D01*
X85546903Y-49212702D01*
X85618486Y-49456671D01*
X85873996Y-49577571D01*
X86148184Y-49646300D01*
X86430512Y-49660217D01*
X86710130Y-49618787D01*
X86976292Y-49523603D01*
X87101514Y-49456671D01*
X87173097Y-49212702D01*
X86360000Y-48399605D01*
X85546903Y-49212702D01*
X84026136Y-49212702D01*
X84054500Y-49184895D01*
X84213715Y-48951646D01*
X84324367Y-48691818D01*
X84341904Y-48609039D01*
X84219915Y-48387000D01*
X82677000Y-48387000D01*
X82677000Y-48407000D01*
X82423000Y-48407000D01*
X82423000Y-48387000D01*
X82403000Y-48387000D01*
X82403000Y-48290512D01*
X84919783Y-48290512D01*
X84961213Y-48570130D01*
X85056397Y-48836292D01*
X85123329Y-48961514D01*
X85367298Y-49033097D01*
X86180395Y-48220000D01*
X86539605Y-48220000D01*
X87352702Y-49033097D01*
X87596671Y-48961514D01*
X87717571Y-48706004D01*
X87786300Y-48431816D01*
X87800217Y-48149488D01*
X87758787Y-47869870D01*
X87663603Y-47603708D01*
X87596671Y-47478486D01*
X87352702Y-47406903D01*
X86539605Y-48220000D01*
X86180395Y-48220000D01*
X85367298Y-47406903D01*
X85123329Y-47478486D01*
X85002429Y-47733996D01*
X84933700Y-48008184D01*
X84919783Y-48290512D01*
X82403000Y-48290512D01*
X82403000Y-48133000D01*
X82423000Y-48133000D01*
X82423000Y-48113000D01*
X82677000Y-48113000D01*
X82677000Y-48133000D01*
X84219915Y-48133000D01*
X84341904Y-47910961D01*
X84324367Y-47828182D01*
X84213715Y-47568354D01*
X84054500Y-47335105D01*
X83852839Y-47137399D01*
X83623259Y-46987265D01*
X83751101Y-46918932D01*
X83969608Y-46739608D01*
X84039044Y-46655000D01*
X85265604Y-46655000D01*
X85445241Y-46834637D01*
X85645869Y-46968692D01*
X85618486Y-46983329D01*
X85546903Y-47227298D01*
X86360000Y-48040395D01*
X87173097Y-47227298D01*
X87101514Y-46983329D01*
X87072659Y-46969676D01*
X87274759Y-46834637D01*
X87454396Y-46655000D01*
X87877711Y-46655000D01*
X88600001Y-47377291D01*
X88600000Y-54785604D01*
X88420363Y-54965241D01*
X88263320Y-55200273D01*
X88155147Y-55461426D01*
X88100000Y-55738665D01*
X88100000Y-56021335D01*
X88155147Y-56298574D01*
X88263320Y-56559727D01*
X88420363Y-56794759D01*
X88620241Y-56994637D01*
X88855273Y-57151680D01*
X89116426Y-57259853D01*
X89393665Y-57315000D01*
X89676335Y-57315000D01*
X89953574Y-57259853D01*
X90214727Y-57151680D01*
X90449759Y-56994637D01*
X90649637Y-56794759D01*
X90806680Y-56559727D01*
X90914853Y-56298574D01*
X90970000Y-56021335D01*
X90970000Y-55738665D01*
X90914853Y-55461426D01*
X90806680Y-55200273D01*
X90649637Y-54965241D01*
X90470000Y-54785604D01*
X90470000Y-47035931D01*
X90474524Y-46989999D01*
X90456471Y-46806707D01*
X90440253Y-46753243D01*
X90403007Y-46630460D01*
X90316186Y-46468028D01*
X90199344Y-46325656D01*
X90163664Y-46296374D01*
X88958630Y-45091341D01*
X88929344Y-45055656D01*
X88786972Y-44938814D01*
X88624540Y-44851993D01*
X88448292Y-44798529D01*
X88310932Y-44785000D01*
X88265000Y-44780476D01*
X88219068Y-44785000D01*
X87454396Y-44785000D01*
X87274759Y-44605363D01*
X87039727Y-44448320D01*
X86778574Y-44340147D01*
X86501335Y-44285000D01*
X86218665Y-44285000D01*
X85941426Y-44340147D01*
X85680273Y-44448320D01*
X85445241Y-44605363D01*
X85265604Y-44785000D01*
X84039044Y-44785000D01*
X83969608Y-44700392D01*
X83751101Y-44521068D01*
X83501808Y-44387818D01*
X83485000Y-44382719D01*
X83485000Y-43860931D01*
X83489524Y-43814999D01*
X83471471Y-43631707D01*
X83449286Y-43558574D01*
X83418007Y-43455460D01*
X83331186Y-43293028D01*
X83214344Y-43150656D01*
X83178665Y-43121375D01*
X82215000Y-42157711D01*
X82215000Y-39794396D01*
X82270241Y-39849637D01*
X82505273Y-40006680D01*
X82766426Y-40114853D01*
X83043665Y-40170000D01*
X83326335Y-40170000D01*
X83603574Y-40114853D01*
X83864727Y-40006680D01*
X84099759Y-39849637D01*
X84299637Y-39649759D01*
X84456680Y-39414727D01*
X84564853Y-39153574D01*
X84620000Y-38876335D01*
X84620000Y-38593665D01*
X84564853Y-38316426D01*
X84456680Y-38055273D01*
X84299637Y-37820241D01*
X84099759Y-37620363D01*
X83867241Y-37465000D01*
X84099759Y-37309637D01*
X84279396Y-37130000D01*
X86288349Y-37130000D01*
X86360013Y-37237252D01*
X86587748Y-37464987D01*
X86695001Y-37536651D01*
X86695001Y-38689068D01*
X86695000Y-41229068D01*
X86690476Y-41275000D01*
X86695000Y-41320931D01*
X86708529Y-41458291D01*
X86761993Y-41634539D01*
X86848814Y-41796971D01*
X86965656Y-41939344D01*
X87001341Y-41968630D01*
X88100000Y-43067289D01*
X88100000Y-43321335D01*
X88155147Y-43598574D01*
X88263320Y-43859727D01*
X88420363Y-44094759D01*
X88620241Y-44294637D01*
X88855273Y-44451680D01*
X89116426Y-44559853D01*
X89393665Y-44615000D01*
X89676335Y-44615000D01*
X89953574Y-44559853D01*
X90214727Y-44451680D01*
X90449759Y-44294637D01*
X90649637Y-44094759D01*
X90806680Y-43859727D01*
X90914853Y-43598574D01*
X90970000Y-43321335D01*
X90970000Y-43038665D01*
X90914853Y-42761426D01*
X90806680Y-42500273D01*
X90649637Y-42265241D01*
X90449759Y-42065363D01*
X90214727Y-41908320D01*
X89953574Y-41800147D01*
X89676335Y-41745000D01*
X89422289Y-41745000D01*
X88565000Y-40887711D01*
X88565000Y-37536651D01*
X88672252Y-37464987D01*
X88806826Y-37330413D01*
X89214192Y-37330413D01*
X89309956Y-37594814D01*
X89599571Y-37735704D01*
X89911108Y-37817384D01*
X90232595Y-37836718D01*
X90551675Y-37792961D01*
X90856088Y-37687795D01*
X91030044Y-37594814D01*
X91125808Y-37330413D01*
X90170000Y-36374605D01*
X89214192Y-37330413D01*
X88806826Y-37330413D01*
X88899987Y-37237252D01*
X88972720Y-37128400D01*
X89034587Y-37150808D01*
X89990395Y-36195000D01*
X90349605Y-36195000D01*
X91305413Y-37150808D01*
X91569814Y-37055044D01*
X91710704Y-36765429D01*
X91792384Y-36453892D01*
X91811718Y-36132405D01*
X91767961Y-35813325D01*
X91662795Y-35508912D01*
X91569814Y-35334956D01*
X91305413Y-35239192D01*
X90349605Y-36195000D01*
X89990395Y-36195000D01*
X89034587Y-35239192D01*
X88972720Y-35261600D01*
X88899987Y-35152748D01*
X88672252Y-34925013D01*
X88672233Y-34925000D01*
X88672252Y-34924987D01*
X88899987Y-34697252D01*
X88900000Y-34697233D01*
X88900013Y-34697252D01*
X89127748Y-34924987D01*
X89236600Y-34997720D01*
X89214192Y-35059587D01*
X90170000Y-36015395D01*
X91125808Y-35059587D01*
X91103400Y-34997720D01*
X91212252Y-34924987D01*
X91439987Y-34697252D01*
X91513462Y-34587288D01*
X91623292Y-34576471D01*
X91799540Y-34523007D01*
X91961972Y-34436186D01*
X92104344Y-34319344D01*
X92133630Y-34283659D01*
X93338664Y-33078626D01*
X93374344Y-33049344D01*
X93491186Y-32906972D01*
X93578007Y-32744540D01*
X93616390Y-32618007D01*
X93631471Y-32568293D01*
X93649524Y-32385001D01*
X93645000Y-32339068D01*
X93645000Y-29890931D01*
X93649524Y-29844999D01*
X93631471Y-29661707D01*
X93596068Y-29545000D01*
X93578007Y-29485460D01*
X93491186Y-29323028D01*
X93374344Y-29180656D01*
X93338665Y-29151375D01*
X92133630Y-27946341D01*
X92104344Y-27910656D01*
X91961972Y-27793814D01*
X91799540Y-27706993D01*
X91623292Y-27653529D01*
X91485932Y-27640000D01*
X91440000Y-27635476D01*
X91394068Y-27640000D01*
X90522289Y-27640000D01*
X92068660Y-26093629D01*
X92104344Y-26064344D01*
X92221186Y-25921972D01*
X92308007Y-25759540D01*
X92361471Y-25583292D01*
X92375000Y-25445932D01*
X92375000Y-25445931D01*
X92379524Y-25400000D01*
X92375000Y-25354068D01*
X92375000Y-16555924D01*
X92379523Y-16509999D01*
X92375000Y-16464074D01*
X92375000Y-16464068D01*
X92361471Y-16326708D01*
X92308007Y-16150460D01*
X92221186Y-15988028D01*
X92104344Y-15845656D01*
X92068664Y-15816374D01*
X89593630Y-13341341D01*
X89564344Y-13305656D01*
X89421972Y-13188814D01*
X89259540Y-13101993D01*
X89083292Y-13048529D01*
X88945932Y-13035000D01*
X88900000Y-13030476D01*
X88854068Y-13035000D01*
X88724396Y-13035000D01*
X88544759Y-12855363D01*
X88309727Y-12698320D01*
X88048574Y-12590147D01*
X87771335Y-12535000D01*
X87488665Y-12535000D01*
X87211426Y-12590147D01*
X86950273Y-12698320D01*
X86715241Y-12855363D01*
X86515363Y-13055241D01*
X86360000Y-13287759D01*
X86204637Y-13055241D01*
X86004759Y-12855363D01*
X85769727Y-12698320D01*
X85508574Y-12590147D01*
X85231335Y-12535000D01*
X84948665Y-12535000D01*
X84671426Y-12590147D01*
X84410273Y-12698320D01*
X84175241Y-12855363D01*
X83975363Y-13055241D01*
X83820000Y-13287759D01*
X83664637Y-13055241D01*
X83464759Y-12855363D01*
X83229727Y-12698320D01*
X82968574Y-12590147D01*
X82691335Y-12535000D01*
X82408665Y-12535000D01*
X82131426Y-12590147D01*
X81870273Y-12698320D01*
X81635241Y-12855363D01*
X81435363Y-13055241D01*
X81280000Y-13287759D01*
X81124637Y-13055241D01*
X80924759Y-12855363D01*
X80689727Y-12698320D01*
X80428574Y-12590147D01*
X80151335Y-12535000D01*
X79868665Y-12535000D01*
X79591426Y-12590147D01*
X79330273Y-12698320D01*
X79095241Y-12855363D01*
X78895363Y-13055241D01*
X78740000Y-13287759D01*
X78584637Y-13055241D01*
X78384759Y-12855363D01*
X78149727Y-12698320D01*
X77888574Y-12590147D01*
X77611335Y-12535000D01*
X77328665Y-12535000D01*
X77051426Y-12590147D01*
X76790273Y-12698320D01*
X76555241Y-12855363D01*
X76355363Y-13055241D01*
X76200000Y-13287759D01*
X76044637Y-13055241D01*
X75844759Y-12855363D01*
X75609727Y-12698320D01*
X75348574Y-12590147D01*
X75071335Y-12535000D01*
X74788665Y-12535000D01*
X74511426Y-12590147D01*
X74250273Y-12698320D01*
X74015241Y-12855363D01*
X73815363Y-13055241D01*
X73660000Y-13287759D01*
X73504637Y-13055241D01*
X73304759Y-12855363D01*
X73069727Y-12698320D01*
X72808574Y-12590147D01*
X72531335Y-12535000D01*
X72248665Y-12535000D01*
X71971426Y-12590147D01*
X71710273Y-12698320D01*
X71475241Y-12855363D01*
X71275363Y-13055241D01*
X71120000Y-13287759D01*
X70964637Y-13055241D01*
X70764759Y-12855363D01*
X70529727Y-12698320D01*
X70268574Y-12590147D01*
X69991335Y-12535000D01*
X69708665Y-12535000D01*
X69431426Y-12590147D01*
X69170273Y-12698320D01*
X68935241Y-12855363D01*
X68736643Y-13053961D01*
X68735812Y-13045518D01*
X68699502Y-12925820D01*
X68640537Y-12815506D01*
X68561185Y-12718815D01*
X68464494Y-12639463D01*
X68354180Y-12580498D01*
X68234482Y-12544188D01*
X68110000Y-12531928D01*
X66510000Y-12531928D01*
X66385518Y-12544188D01*
X66265820Y-12580498D01*
X66155506Y-12639463D01*
X66058815Y-12718815D01*
X65979463Y-12815506D01*
X65920498Y-12925820D01*
X65884188Y-13045518D01*
X65871928Y-13170000D01*
X65871928Y-14770000D01*
X65884188Y-14894482D01*
X65920498Y-15014180D01*
X65979463Y-15124494D01*
X66058815Y-15221185D01*
X66155506Y-15300537D01*
X66265820Y-15359502D01*
X66375000Y-15392621D01*
X66375001Y-23976316D01*
X66287886Y-23889201D01*
X66061043Y-23737629D01*
X65808989Y-23633225D01*
X65541411Y-23580000D01*
X65268589Y-23580000D01*
X65001011Y-23633225D01*
X64748957Y-23737629D01*
X64522114Y-23889201D01*
X64381315Y-24030000D01*
X62000396Y-24030000D01*
X61874759Y-23904363D01*
X61639727Y-23747320D01*
X61378574Y-23639147D01*
X61101335Y-23584000D01*
X60818665Y-23584000D01*
X60541426Y-23639147D01*
X60280273Y-23747320D01*
X60045241Y-23904363D01*
X59845363Y-24104241D01*
X59711308Y-24304869D01*
X59696671Y-24277486D01*
X59452702Y-24205903D01*
X58639605Y-25019000D01*
X59452702Y-25832097D01*
X59696671Y-25760514D01*
X59710324Y-25731659D01*
X59845363Y-25933759D01*
X60045241Y-26133637D01*
X60280273Y-26290680D01*
X60541426Y-26398853D01*
X60818665Y-26454000D01*
X61101335Y-26454000D01*
X61378574Y-26398853D01*
X61639727Y-26290680D01*
X61874759Y-26133637D01*
X62074637Y-25933759D01*
X62097194Y-25900000D01*
X64381315Y-25900000D01*
X64522114Y-26040799D01*
X64748957Y-26192371D01*
X64964266Y-26281555D01*
X67592711Y-28910000D01*
X66428685Y-28910000D01*
X66287886Y-28769201D01*
X66061043Y-28617629D01*
X65808989Y-28513225D01*
X65541411Y-28460000D01*
X65268589Y-28460000D01*
X65001011Y-28513225D01*
X64748957Y-28617629D01*
X64522114Y-28769201D01*
X64381315Y-28910000D01*
X62054396Y-28910000D01*
X61874759Y-28730363D01*
X61639727Y-28573320D01*
X61378574Y-28465147D01*
X61101335Y-28410000D01*
X60818665Y-28410000D01*
X60541426Y-28465147D01*
X60280273Y-28573320D01*
X60045241Y-28730363D01*
X59845363Y-28930241D01*
X59711308Y-29130869D01*
X59696671Y-29103486D01*
X59452702Y-29031903D01*
X58639605Y-29845000D01*
X59452702Y-30658097D01*
X59696671Y-30586514D01*
X59710324Y-30557659D01*
X59845363Y-30759759D01*
X60045241Y-30959637D01*
X60280273Y-31116680D01*
X60541426Y-31224853D01*
X60818665Y-31280000D01*
X61101335Y-31280000D01*
X61378574Y-31224853D01*
X61639727Y-31116680D01*
X61874759Y-30959637D01*
X62054396Y-30780000D01*
X64381315Y-30780000D01*
X64522114Y-30920799D01*
X64748957Y-31072371D01*
X65001011Y-31176775D01*
X65268589Y-31230000D01*
X65541411Y-31230000D01*
X65808989Y-31176775D01*
X66061043Y-31072371D01*
X66287886Y-30920799D01*
X66428685Y-30780000D01*
X72430375Y-30780000D01*
X72426928Y-30815000D01*
X72426928Y-31415000D01*
X72430375Y-31450000D01*
X57537290Y-31450000D01*
X56924992Y-30837702D01*
X57646903Y-30837702D01*
X57718486Y-31081671D01*
X57973996Y-31202571D01*
X58248184Y-31271300D01*
X58530512Y-31285217D01*
X58810130Y-31243787D01*
X59076292Y-31148603D01*
X59201514Y-31081671D01*
X59273097Y-30837702D01*
X58460000Y-30024605D01*
X57646903Y-30837702D01*
X56924992Y-30837702D01*
X56002802Y-29915512D01*
X57019783Y-29915512D01*
X57061213Y-30195130D01*
X57156397Y-30461292D01*
X57223329Y-30586514D01*
X57467298Y-30658097D01*
X58280395Y-29845000D01*
X57467298Y-29031903D01*
X57223329Y-29103486D01*
X57102429Y-29358996D01*
X57033700Y-29633184D01*
X57019783Y-29915512D01*
X56002802Y-29915512D01*
X55303630Y-29216341D01*
X55274344Y-29180656D01*
X55131972Y-29063814D01*
X54969540Y-28976993D01*
X54793292Y-28923529D01*
X54655932Y-28910000D01*
X54610000Y-28905476D01*
X54564068Y-28910000D01*
X53164396Y-28910000D01*
X53106694Y-28852298D01*
X57646903Y-28852298D01*
X58460000Y-29665395D01*
X59273097Y-28852298D01*
X59201514Y-28608329D01*
X58946004Y-28487429D01*
X58671816Y-28418700D01*
X58389488Y-28404783D01*
X58109870Y-28446213D01*
X57843708Y-28541397D01*
X57718486Y-28608329D01*
X57646903Y-28852298D01*
X53106694Y-28852298D01*
X52984759Y-28730363D01*
X52749727Y-28573320D01*
X52488574Y-28465147D01*
X52211335Y-28410000D01*
X51928665Y-28410000D01*
X51651426Y-28465147D01*
X51390273Y-28573320D01*
X51155241Y-28730363D01*
X50975604Y-28910000D01*
X39194396Y-28910000D01*
X39014759Y-28730363D01*
X38779727Y-28573320D01*
X38518574Y-28465147D01*
X38241335Y-28410000D01*
X37958665Y-28410000D01*
X37681426Y-28465147D01*
X37420273Y-28573320D01*
X37185241Y-28730363D01*
X36985363Y-28930241D01*
X36828320Y-29165273D01*
X36720147Y-29426426D01*
X36665000Y-29703665D01*
X36665000Y-29986335D01*
X36720147Y-30263574D01*
X36828320Y-30524727D01*
X36985363Y-30759759D01*
X37185241Y-30959637D01*
X37420273Y-31116680D01*
X37681426Y-31224853D01*
X37958665Y-31280000D01*
X38241335Y-31280000D01*
X38518574Y-31224853D01*
X38779727Y-31116680D01*
X39014759Y-30959637D01*
X39194396Y-30780000D01*
X50975604Y-30780000D01*
X51155241Y-30959637D01*
X51390273Y-31116680D01*
X51651426Y-31224853D01*
X51928665Y-31280000D01*
X52211335Y-31280000D01*
X52488574Y-31224853D01*
X52749727Y-31116680D01*
X52984759Y-30959637D01*
X53164396Y-30780000D01*
X54222711Y-30780000D01*
X56456374Y-33013664D01*
X56485656Y-33049344D01*
X56628028Y-33166186D01*
X56790460Y-33253007D01*
X56913243Y-33290253D01*
X56966707Y-33306471D01*
X56985110Y-33308283D01*
X57104068Y-33320000D01*
X57104074Y-33320000D01*
X57149999Y-33324523D01*
X57195924Y-33320000D01*
X72430375Y-33320000D01*
X72426928Y-33355000D01*
X72426928Y-33955000D01*
X72439188Y-34079482D01*
X72475498Y-34199180D01*
X72534463Y-34309494D01*
X72613815Y-34406185D01*
X72710506Y-34485537D01*
X72820820Y-34544502D01*
X72940518Y-34580812D01*
X73065000Y-34593072D01*
X73105001Y-34593072D01*
X73105001Y-35259058D01*
X73100476Y-35305000D01*
X73118529Y-35488291D01*
X73160459Y-35626514D01*
X73171994Y-35664540D01*
X73258815Y-35826972D01*
X73375657Y-35969344D01*
X73411336Y-35998625D01*
X73495000Y-36082289D01*
X73495000Y-36336335D01*
X73550147Y-36613574D01*
X73658320Y-36874727D01*
X73815363Y-37109759D01*
X74015241Y-37309637D01*
X74247759Y-37465000D01*
X74015241Y-37620363D01*
X73835604Y-37800000D01*
X73444396Y-37800000D01*
X73325000Y-37680604D01*
X73325000Y-36240935D01*
X73329524Y-36195000D01*
X73311472Y-36011708D01*
X73258007Y-35835459D01*
X73226453Y-35776426D01*
X73171186Y-35673028D01*
X73054344Y-35530656D01*
X73018660Y-35501371D01*
X72448630Y-34931341D01*
X72419344Y-34895656D01*
X72276972Y-34778814D01*
X72114540Y-34691993D01*
X71938292Y-34638529D01*
X71800932Y-34625000D01*
X71755000Y-34620476D01*
X71709068Y-34625000D01*
X59735932Y-34625000D01*
X59690000Y-34620476D01*
X59644068Y-34625000D01*
X52457289Y-34625000D01*
X50858630Y-33026341D01*
X50829344Y-32990656D01*
X50686972Y-32873814D01*
X50524540Y-32786993D01*
X50348292Y-32733529D01*
X50210932Y-32720000D01*
X50165000Y-32715476D01*
X50119068Y-32720000D01*
X47977470Y-32720000D01*
X47782082Y-32481918D01*
X47530684Y-32275602D01*
X47243867Y-32122295D01*
X46932653Y-32027889D01*
X46690104Y-32004000D01*
X46026289Y-32004000D01*
X45778630Y-31756341D01*
X45749344Y-31720656D01*
X45606972Y-31603814D01*
X45444540Y-31516993D01*
X45268292Y-31463529D01*
X45130932Y-31450000D01*
X45085000Y-31445476D01*
X45039068Y-31450000D01*
X42369396Y-31450000D01*
X42189759Y-31270363D01*
X41954727Y-31113320D01*
X41693574Y-31005147D01*
X41416335Y-30950000D01*
X41133665Y-30950000D01*
X40856426Y-31005147D01*
X40595273Y-31113320D01*
X40360241Y-31270363D01*
X40180604Y-31450000D01*
X33955000Y-31450000D01*
X33955000Y-31186651D01*
X34062252Y-31114987D01*
X34289987Y-30887252D01*
X34468918Y-30619463D01*
X34592168Y-30321912D01*
X34655000Y-30006033D01*
X34655000Y-29683967D01*
X34592168Y-29368088D01*
X34468918Y-29070537D01*
X34289987Y-28802748D01*
X34062252Y-28575013D01*
X33794463Y-28396082D01*
X33496912Y-28272832D01*
X33181033Y-28210000D01*
X32858967Y-28210000D01*
X32543088Y-28272832D01*
X32245537Y-28396082D01*
X31977748Y-28575013D01*
X31750013Y-28802748D01*
X31677280Y-28911600D01*
X31615413Y-28889192D01*
X30659605Y-29845000D01*
X31615413Y-30800808D01*
X31677280Y-30778400D01*
X31750013Y-30887252D01*
X31977748Y-31114987D01*
X32085000Y-31186651D01*
X32085000Y-31795931D01*
X32085001Y-31795941D01*
X32085001Y-32339059D01*
X32080476Y-32385000D01*
X32085001Y-32430941D01*
X32085000Y-36442710D01*
X31862710Y-36665000D01*
X31279508Y-36665000D01*
X31068691Y-36685764D01*
X30798192Y-36767818D01*
X30548899Y-36901068D01*
X30330392Y-37080392D01*
X30151068Y-37298899D01*
X30017818Y-37548192D01*
X29935764Y-37818691D01*
X29908057Y-38100000D01*
X29337000Y-38100000D01*
X29337000Y-31024558D01*
X29408525Y-31096083D01*
X29524193Y-30980415D01*
X29619956Y-31244814D01*
X29909571Y-31385704D01*
X30221108Y-31467384D01*
X30542595Y-31486718D01*
X30861675Y-31442961D01*
X31166088Y-31337795D01*
X31340044Y-31244814D01*
X31435808Y-30980413D01*
X30480000Y-30024605D01*
X30465858Y-30038748D01*
X30286253Y-29859143D01*
X30300395Y-29845000D01*
X30286253Y-29830858D01*
X30465858Y-29651253D01*
X30480000Y-29665395D01*
X31435808Y-28709587D01*
X31340044Y-28445186D01*
X31050429Y-28304296D01*
X30738892Y-28222616D01*
X30417405Y-28203282D01*
X30098325Y-28247039D01*
X29793912Y-28352205D01*
X29619956Y-28445186D01*
X29524193Y-28709585D01*
X29408525Y-28593917D01*
X29337000Y-28665442D01*
X29337000Y-26011702D01*
X57646903Y-26011702D01*
X57718486Y-26255671D01*
X57973996Y-26376571D01*
X58248184Y-26445300D01*
X58530512Y-26459217D01*
X58810130Y-26417787D01*
X59076292Y-26322603D01*
X59201514Y-26255671D01*
X59273097Y-26011702D01*
X58460000Y-25198605D01*
X57646903Y-26011702D01*
X29337000Y-26011702D01*
X29337000Y-710000D01*
X34850000Y-710000D01*
X34850001Y-18380113D01*
G04 #@! TA.AperFunction,Conductor*
D35*
G36*
X34850001Y-18380113D02*
G01*
X34846565Y-18415000D01*
X34860273Y-18554184D01*
X34900872Y-18688020D01*
X34966800Y-18811363D01*
X35055525Y-18919475D01*
X35163637Y-19008200D01*
X35286980Y-19074128D01*
X35420816Y-19114727D01*
X35525123Y-19125000D01*
X35560000Y-19128435D01*
X35594877Y-19125000D01*
X46637319Y-19125000D01*
X46609234Y-19136633D01*
X46038442Y-19518024D01*
X45553024Y-20003442D01*
X45171633Y-20574234D01*
X44908927Y-21208463D01*
X44775000Y-21881758D01*
X44775000Y-22568242D01*
X44908927Y-23241537D01*
X45171633Y-23875766D01*
X45553024Y-24446558D01*
X46038442Y-24931976D01*
X46609234Y-25313367D01*
X47243463Y-25576073D01*
X47916758Y-25710000D01*
X48603242Y-25710000D01*
X49276537Y-25576073D01*
X49910766Y-25313367D01*
X50245788Y-25089512D01*
X57019783Y-25089512D01*
X57061213Y-25369130D01*
X57156397Y-25635292D01*
X57223329Y-25760514D01*
X57467298Y-25832097D01*
X58280395Y-25019000D01*
X57467298Y-24205903D01*
X57223329Y-24277486D01*
X57102429Y-24532996D01*
X57033700Y-24807184D01*
X57019783Y-25089512D01*
X50245788Y-25089512D01*
X50481558Y-24931976D01*
X50966976Y-24446558D01*
X51247784Y-24026298D01*
X57646903Y-24026298D01*
X58460000Y-24839395D01*
X59273097Y-24026298D01*
X59201514Y-23782329D01*
X58946004Y-23661429D01*
X58671816Y-23592700D01*
X58389488Y-23578783D01*
X58109870Y-23620213D01*
X57843708Y-23715397D01*
X57718486Y-23782329D01*
X57646903Y-24026298D01*
X51247784Y-24026298D01*
X51348367Y-23875766D01*
X51611073Y-23241537D01*
X51745000Y-22568242D01*
X51745000Y-21881758D01*
X51611073Y-21208463D01*
X51348367Y-20574234D01*
X50966976Y-20003442D01*
X50481558Y-19518024D01*
X49910766Y-19136633D01*
X49882681Y-19125000D01*
X60925123Y-19125000D01*
X60960000Y-19128435D01*
X60994877Y-19125000D01*
X61099184Y-19114727D01*
X61233020Y-19074128D01*
X61356363Y-19008200D01*
X61464475Y-18919475D01*
X61553200Y-18811363D01*
X61619128Y-18688020D01*
X61659727Y-18554184D01*
X61673435Y-18415000D01*
X61670000Y-18380123D01*
X61670000Y-6699040D01*
X65918091Y-6699040D01*
X66012930Y-6963881D01*
X66157615Y-7205131D01*
X66346586Y-7413519D01*
X66572580Y-7581037D01*
X66826913Y-7701246D01*
X66960961Y-7741904D01*
X67183000Y-7619915D01*
X67183000Y-6477000D01*
X67437000Y-6477000D01*
X67437000Y-7619915D01*
X67659039Y-7741904D01*
X67793087Y-7701246D01*
X68047420Y-7581037D01*
X68273414Y-7413519D01*
X68462385Y-7205131D01*
X68580000Y-7009018D01*
X68697615Y-7205131D01*
X68886586Y-7413519D01*
X69112580Y-7581037D01*
X69366913Y-7701246D01*
X69500961Y-7741904D01*
X69723000Y-7619915D01*
X69723000Y-6477000D01*
X69977000Y-6477000D01*
X69977000Y-7619915D01*
X70199039Y-7741904D01*
X70333087Y-7701246D01*
X70587420Y-7581037D01*
X70813414Y-7413519D01*
X71002385Y-7205131D01*
X71120000Y-7009018D01*
X71237615Y-7205131D01*
X71426586Y-7413519D01*
X71652580Y-7581037D01*
X71906913Y-7701246D01*
X72040961Y-7741904D01*
X72263000Y-7619915D01*
X72263000Y-6477000D01*
X72517000Y-6477000D01*
X72517000Y-7619915D01*
X72739039Y-7741904D01*
X72873087Y-7701246D01*
X73127420Y-7581037D01*
X73353414Y-7413519D01*
X73542385Y-7205131D01*
X73660000Y-7009018D01*
X73777615Y-7205131D01*
X73966586Y-7413519D01*
X74192580Y-7581037D01*
X74446913Y-7701246D01*
X74580961Y-7741904D01*
X74803000Y-7619915D01*
X74803000Y-6477000D01*
X75057000Y-6477000D01*
X75057000Y-7619915D01*
X75279039Y-7741904D01*
X75413087Y-7701246D01*
X75667420Y-7581037D01*
X75893414Y-7413519D01*
X76082385Y-7205131D01*
X76200000Y-7009018D01*
X76317615Y-7205131D01*
X76506586Y-7413519D01*
X76732580Y-7581037D01*
X76986913Y-7701246D01*
X77120961Y-7741904D01*
X77343000Y-7619915D01*
X77343000Y-6477000D01*
X77597000Y-6477000D01*
X77597000Y-7619915D01*
X77819039Y-7741904D01*
X77953087Y-7701246D01*
X78207420Y-7581037D01*
X78433414Y-7413519D01*
X78622385Y-7205131D01*
X78740000Y-7009018D01*
X78857615Y-7205131D01*
X79046586Y-7413519D01*
X79272580Y-7581037D01*
X79526913Y-7701246D01*
X79660961Y-7741904D01*
X79883000Y-7619915D01*
X79883000Y-6477000D01*
X80137000Y-6477000D01*
X80137000Y-7619915D01*
X80359039Y-7741904D01*
X80493087Y-7701246D01*
X80747420Y-7581037D01*
X80973414Y-7413519D01*
X81162385Y-7205131D01*
X81280000Y-7009018D01*
X81397615Y-7205131D01*
X81586586Y-7413519D01*
X81812580Y-7581037D01*
X82066913Y-7701246D01*
X82200961Y-7741904D01*
X82423000Y-7619915D01*
X82423000Y-6477000D01*
X82677000Y-6477000D01*
X82677000Y-7619915D01*
X82899039Y-7741904D01*
X83033087Y-7701246D01*
X83287420Y-7581037D01*
X83513414Y-7413519D01*
X83702385Y-7205131D01*
X83820000Y-7009018D01*
X83937615Y-7205131D01*
X84126586Y-7413519D01*
X84352580Y-7581037D01*
X84606913Y-7701246D01*
X84740961Y-7741904D01*
X84963000Y-7619915D01*
X84963000Y-6477000D01*
X85217000Y-6477000D01*
X85217000Y-7619915D01*
X85439039Y-7741904D01*
X85573087Y-7701246D01*
X85827420Y-7581037D01*
X86053414Y-7413519D01*
X86242385Y-7205131D01*
X86360000Y-7009018D01*
X86477615Y-7205131D01*
X86666586Y-7413519D01*
X86892580Y-7581037D01*
X87146913Y-7701246D01*
X87280961Y-7741904D01*
X87503000Y-7619915D01*
X87503000Y-6477000D01*
X87757000Y-6477000D01*
X87757000Y-7619915D01*
X87979039Y-7741904D01*
X88113087Y-7701246D01*
X88367420Y-7581037D01*
X88593414Y-7413519D01*
X88782385Y-7205131D01*
X88927070Y-6963881D01*
X89021909Y-6699040D01*
X88900624Y-6477000D01*
X87757000Y-6477000D01*
X87503000Y-6477000D01*
X85217000Y-6477000D01*
X84963000Y-6477000D01*
X82677000Y-6477000D01*
X82423000Y-6477000D01*
X80137000Y-6477000D01*
X79883000Y-6477000D01*
X77597000Y-6477000D01*
X77343000Y-6477000D01*
X75057000Y-6477000D01*
X74803000Y-6477000D01*
X72517000Y-6477000D01*
X72263000Y-6477000D01*
X69977000Y-6477000D01*
X69723000Y-6477000D01*
X67437000Y-6477000D01*
X67183000Y-6477000D01*
X66039376Y-6477000D01*
X65918091Y-6699040D01*
X61670000Y-6699040D01*
X61670000Y-6000960D01*
X65918091Y-6000960D01*
X66039376Y-6223000D01*
X67183000Y-6223000D01*
X67183000Y-5080085D01*
X67437000Y-5080085D01*
X67437000Y-6223000D01*
X69723000Y-6223000D01*
X69723000Y-5080085D01*
X69977000Y-5080085D01*
X69977000Y-6223000D01*
X72263000Y-6223000D01*
X72263000Y-5080085D01*
X72517000Y-5080085D01*
X72517000Y-6223000D01*
X74803000Y-6223000D01*
X74803000Y-5080085D01*
X75057000Y-5080085D01*
X75057000Y-6223000D01*
X77343000Y-6223000D01*
X77343000Y-5080085D01*
X77597000Y-5080085D01*
X77597000Y-6223000D01*
X79883000Y-6223000D01*
X79883000Y-5080085D01*
X80137000Y-5080085D01*
X80137000Y-6223000D01*
X82423000Y-6223000D01*
X82423000Y-5080085D01*
X82677000Y-5080085D01*
X82677000Y-6223000D01*
X84963000Y-6223000D01*
X84963000Y-5080085D01*
X85217000Y-5080085D01*
X85217000Y-6223000D01*
X87503000Y-6223000D01*
X87503000Y-5080085D01*
X87757000Y-5080085D01*
X87757000Y-6223000D01*
X88900624Y-6223000D01*
X89021909Y-6000960D01*
X88927070Y-5736119D01*
X88782385Y-5494869D01*
X88593414Y-5286481D01*
X88367420Y-5118963D01*
X88113087Y-4998754D01*
X87979039Y-4958096D01*
X87757000Y-5080085D01*
X87503000Y-5080085D01*
X87280961Y-4958096D01*
X87146913Y-4998754D01*
X86892580Y-5118963D01*
X86666586Y-5286481D01*
X86477615Y-5494869D01*
X86360000Y-5690982D01*
X86242385Y-5494869D01*
X86053414Y-5286481D01*
X85827420Y-5118963D01*
X85573087Y-4998754D01*
X85439039Y-4958096D01*
X85217000Y-5080085D01*
X84963000Y-5080085D01*
X84740961Y-4958096D01*
X84606913Y-4998754D01*
X84352580Y-5118963D01*
X84126586Y-5286481D01*
X83937615Y-5494869D01*
X83820000Y-5690982D01*
X83702385Y-5494869D01*
X83513414Y-5286481D01*
X83287420Y-5118963D01*
X83033087Y-4998754D01*
X82899039Y-4958096D01*
X82677000Y-5080085D01*
X82423000Y-5080085D01*
X82200961Y-4958096D01*
X82066913Y-4998754D01*
X81812580Y-5118963D01*
X81586586Y-5286481D01*
X81397615Y-5494869D01*
X81280000Y-5690982D01*
X81162385Y-5494869D01*
X80973414Y-5286481D01*
X80747420Y-5118963D01*
X80493087Y-4998754D01*
X80359039Y-4958096D01*
X80137000Y-5080085D01*
X79883000Y-5080085D01*
X79660961Y-4958096D01*
X79526913Y-4998754D01*
X79272580Y-5118963D01*
X79046586Y-5286481D01*
X78857615Y-5494869D01*
X78740000Y-5690982D01*
X78622385Y-5494869D01*
X78433414Y-5286481D01*
X78207420Y-5118963D01*
X77953087Y-4998754D01*
X77819039Y-4958096D01*
X77597000Y-5080085D01*
X77343000Y-5080085D01*
X77120961Y-4958096D01*
X76986913Y-4998754D01*
X76732580Y-5118963D01*
X76506586Y-5286481D01*
X76317615Y-5494869D01*
X76200000Y-5690982D01*
X76082385Y-5494869D01*
X75893414Y-5286481D01*
X75667420Y-5118963D01*
X75413087Y-4998754D01*
X75279039Y-4958096D01*
X75057000Y-5080085D01*
X74803000Y-5080085D01*
X74580961Y-4958096D01*
X74446913Y-4998754D01*
X74192580Y-5118963D01*
X73966586Y-5286481D01*
X73777615Y-5494869D01*
X73660000Y-5690982D01*
X73542385Y-5494869D01*
X73353414Y-5286481D01*
X73127420Y-5118963D01*
X72873087Y-4998754D01*
X72739039Y-4958096D01*
X72517000Y-5080085D01*
X72263000Y-5080085D01*
X72040961Y-4958096D01*
X71906913Y-4998754D01*
X71652580Y-5118963D01*
X71426586Y-5286481D01*
X71237615Y-5494869D01*
X71120000Y-5690982D01*
X71002385Y-5494869D01*
X70813414Y-5286481D01*
X70587420Y-5118963D01*
X70333087Y-4998754D01*
X70199039Y-4958096D01*
X69977000Y-5080085D01*
X69723000Y-5080085D01*
X69500961Y-4958096D01*
X69366913Y-4998754D01*
X69112580Y-5118963D01*
X68886586Y-5286481D01*
X68697615Y-5494869D01*
X68580000Y-5690982D01*
X68462385Y-5494869D01*
X68273414Y-5286481D01*
X68047420Y-5118963D01*
X67793087Y-4998754D01*
X67659039Y-4958096D01*
X67437000Y-5080085D01*
X67183000Y-5080085D01*
X66960961Y-4958096D01*
X66826913Y-4998754D01*
X66572580Y-5118963D01*
X66346586Y-5286481D01*
X66157615Y-5494869D01*
X66012930Y-5736119D01*
X65918091Y-6000960D01*
X61670000Y-6000960D01*
X61670000Y-710000D01*
X94540000Y-710000D01*
X94540001Y-74220000D01*
X61670000Y-74220000D01*
X61670000Y-70841891D01*
X67138519Y-70841891D01*
X67235843Y-71116252D01*
X67384822Y-71366355D01*
X67579731Y-71582588D01*
X67813080Y-71756641D01*
X68075901Y-71881825D01*
X68223110Y-71926476D01*
X68453000Y-71805155D01*
X68453000Y-70612000D01*
X67259186Y-70612000D01*
X67138519Y-70841891D01*
X61670000Y-70841891D01*
X61670000Y-70128109D01*
X67138519Y-70128109D01*
X67259186Y-70358000D01*
X68453000Y-70358000D01*
X68453000Y-69164845D01*
X68223110Y-69043524D01*
X68075901Y-69088175D01*
X67813080Y-69213359D01*
X67579731Y-69387412D01*
X67384822Y-69603645D01*
X67235843Y-69853748D01*
X67138519Y-70128109D01*
X61670000Y-70128109D01*
X61670000Y-63030000D01*
X66506928Y-63030000D01*
X66519188Y-63154482D01*
X66555498Y-63274180D01*
X66614463Y-63384494D01*
X66693815Y-63481185D01*
X66790506Y-63560537D01*
X66900820Y-63619502D01*
X67020518Y-63655812D01*
X67145000Y-63668072D01*
X67659250Y-63665000D01*
X67818000Y-63506250D01*
X67818000Y-62357000D01*
X68072000Y-62357000D01*
X68072000Y-63506250D01*
X68230750Y-63665000D01*
X68745000Y-63668072D01*
X68869482Y-63655812D01*
X68989180Y-63619502D01*
X69099494Y-63560537D01*
X69196185Y-63481185D01*
X69275537Y-63384494D01*
X69334502Y-63274180D01*
X69370812Y-63154482D01*
X69383072Y-63030000D01*
X69380000Y-62515750D01*
X69221250Y-62357000D01*
X68072000Y-62357000D01*
X67818000Y-62357000D01*
X66668750Y-62357000D01*
X66510000Y-62515750D01*
X66506928Y-63030000D01*
X61670000Y-63030000D01*
X61670000Y-56549877D01*
X61673435Y-56515000D01*
X61659727Y-56375816D01*
X61619128Y-56241980D01*
X61553200Y-56118637D01*
X61464475Y-56010525D01*
X61356363Y-55921800D01*
X61233020Y-55855872D01*
X61099184Y-55815273D01*
X60994877Y-55805000D01*
X60960000Y-55801565D01*
X60925123Y-55805000D01*
X49882681Y-55805000D01*
X49910766Y-55793367D01*
X50481558Y-55411976D01*
X50966976Y-54926558D01*
X51348367Y-54355766D01*
X51611073Y-53721537D01*
X51745000Y-53048242D01*
X51745000Y-52361758D01*
X51611073Y-51688463D01*
X51348367Y-51054234D01*
X50966976Y-50483442D01*
X50481558Y-49998024D01*
X49910766Y-49616633D01*
X49276537Y-49353927D01*
X48603242Y-49220000D01*
X47916758Y-49220000D01*
X47243463Y-49353927D01*
X46609234Y-49616633D01*
X46038442Y-49998024D01*
X45553024Y-50483442D01*
X45171633Y-51054234D01*
X44908927Y-51688463D01*
X44775000Y-52361758D01*
X44775000Y-53048242D01*
X44908927Y-53721537D01*
X45171633Y-54355766D01*
X45553024Y-54926558D01*
X46038442Y-55411976D01*
X46609234Y-55793367D01*
X46637319Y-55805000D01*
X35594877Y-55805000D01*
X35560000Y-55801565D01*
X35525123Y-55805000D01*
X35420816Y-55815273D01*
X35286980Y-55855872D01*
X35163637Y-55921800D01*
X35055525Y-56010525D01*
X34966800Y-56118637D01*
X34900872Y-56241980D01*
X34860273Y-56375816D01*
X34846565Y-56515000D01*
X34850001Y-56549887D01*
X34850000Y-74220000D01*
X710000Y-74220000D01*
X710000Y-63279268D01*
X7055000Y-63279268D01*
X7055000Y-63640732D01*
X7125518Y-63995250D01*
X7263844Y-64329199D01*
X7464662Y-64629744D01*
X7720256Y-64885338D01*
X8020801Y-65086156D01*
X8354750Y-65224482D01*
X8709268Y-65295000D01*
X9070732Y-65295000D01*
X9425250Y-65224482D01*
X9759199Y-65086156D01*
X10059744Y-64885338D01*
X10315338Y-64629744D01*
X10516156Y-64329199D01*
X10654482Y-63995250D01*
X10725000Y-63640732D01*
X10725000Y-63279268D01*
X10654482Y-62924750D01*
X10586241Y-62760000D01*
X12291928Y-62760000D01*
X12304188Y-62884482D01*
X12340498Y-63004180D01*
X12399463Y-63114494D01*
X12478815Y-63211185D01*
X12575506Y-63290537D01*
X12685820Y-63349502D01*
X12805518Y-63385812D01*
X12930000Y-63398072D01*
X13684250Y-63395000D01*
X13843000Y-63236250D01*
X13843000Y-61087000D01*
X14097000Y-61087000D01*
X14097000Y-63236250D01*
X14255750Y-63395000D01*
X15010000Y-63398072D01*
X15134482Y-63385812D01*
X15254180Y-63349502D01*
X15364494Y-63290537D01*
X15461185Y-63211185D01*
X15540537Y-63114494D01*
X15599502Y-63004180D01*
X15635812Y-62884482D01*
X15648072Y-62760000D01*
X15645000Y-61245750D01*
X15486250Y-61087000D01*
X14097000Y-61087000D01*
X13843000Y-61087000D01*
X12453750Y-61087000D01*
X12295000Y-61245750D01*
X12291928Y-62760000D01*
X10586241Y-62760000D01*
X10516156Y-62590801D01*
X10315338Y-62290256D01*
X10059744Y-62034662D01*
X9759199Y-61833844D01*
X9425250Y-61695518D01*
X9070732Y-61625000D01*
X8709268Y-61625000D01*
X8354750Y-61695518D01*
X8020801Y-61833844D01*
X7720256Y-62034662D01*
X7464662Y-62290256D01*
X7263844Y-62590801D01*
X7125518Y-62924750D01*
X7055000Y-63279268D01*
X710000Y-63279268D01*
X710000Y-59160000D01*
X12291928Y-59160000D01*
X12295000Y-60674250D01*
X12453750Y-60833000D01*
X13843000Y-60833000D01*
X13843000Y-58683750D01*
X14097000Y-58683750D01*
X14097000Y-60833000D01*
X15486250Y-60833000D01*
X15645000Y-60674250D01*
X15646129Y-60117719D01*
X17375000Y-60117719D01*
X17375000Y-61802282D01*
X17399236Y-62048357D01*
X17495016Y-62364096D01*
X17650551Y-62655082D01*
X17859867Y-62910134D01*
X18114919Y-63119450D01*
X18405905Y-63274985D01*
X18721644Y-63370764D01*
X19050000Y-63403104D01*
X19378357Y-63370764D01*
X19679976Y-63279268D01*
X22295000Y-63279268D01*
X22295000Y-63640732D01*
X22365518Y-63995250D01*
X22503844Y-64329199D01*
X22704662Y-64629744D01*
X22960256Y-64885338D01*
X23260801Y-65086156D01*
X23594750Y-65224482D01*
X23949268Y-65295000D01*
X24310732Y-65295000D01*
X24665250Y-65224482D01*
X24999199Y-65086156D01*
X25299744Y-64885338D01*
X25555338Y-64629744D01*
X25756156Y-64329199D01*
X25894482Y-63995250D01*
X25965000Y-63640732D01*
X25965000Y-63279268D01*
X25894482Y-62924750D01*
X25756156Y-62590801D01*
X25555338Y-62290256D01*
X25299744Y-62034662D01*
X24999199Y-61833844D01*
X24665250Y-61695518D01*
X24310732Y-61625000D01*
X23949268Y-61625000D01*
X23594750Y-61695518D01*
X23260801Y-61833844D01*
X22960256Y-62034662D01*
X22704662Y-62290256D01*
X22503844Y-62590801D01*
X22365518Y-62924750D01*
X22295000Y-63279268D01*
X19679976Y-63279268D01*
X19694096Y-63274985D01*
X19985082Y-63119450D01*
X20240134Y-62910134D01*
X20449450Y-62655082D01*
X20604985Y-62364096D01*
X20700764Y-62048357D01*
X20725000Y-61802282D01*
X20725000Y-60117718D01*
X20700764Y-59871643D01*
X20604985Y-59555904D01*
X20449450Y-59264918D01*
X20240134Y-59009866D01*
X19985081Y-58800550D01*
X19985000Y-58800507D01*
X19985000Y-57537289D01*
X20707290Y-56815000D01*
X21121928Y-56815000D01*
X21121928Y-56980000D01*
X21134188Y-57104482D01*
X21170498Y-57224180D01*
X21229463Y-57334494D01*
X21308815Y-57431185D01*
X21405506Y-57510537D01*
X21515820Y-57569502D01*
X21635518Y-57605812D01*
X21760000Y-57618072D01*
X23960000Y-57618072D01*
X24084482Y-57605812D01*
X24204180Y-57569502D01*
X24314494Y-57510537D01*
X24411185Y-57431185D01*
X24490537Y-57334494D01*
X24549502Y-57224180D01*
X24585812Y-57104482D01*
X24598072Y-56980000D01*
X24598072Y-56815000D01*
X31704068Y-56815000D01*
X31750000Y-56819524D01*
X31795932Y-56815000D01*
X31933292Y-56801471D01*
X32109540Y-56748007D01*
X32271972Y-56661186D01*
X32414344Y-56544344D01*
X32443630Y-56508659D01*
X38487290Y-50465000D01*
X39959068Y-50465000D01*
X40005000Y-50469524D01*
X40050932Y-50465000D01*
X40188292Y-50451471D01*
X40364540Y-50398007D01*
X40526972Y-50311186D01*
X40669344Y-50194344D01*
X40698630Y-50158659D01*
X41903667Y-48953623D01*
X41939344Y-48924344D01*
X42056186Y-48781972D01*
X42143007Y-48619540D01*
X42196471Y-48443292D01*
X42210000Y-48305932D01*
X42210000Y-48305931D01*
X42214524Y-48260001D01*
X42210000Y-48214069D01*
X42210000Y-47347702D01*
X46176903Y-47347702D01*
X46248486Y-47591671D01*
X46503996Y-47712571D01*
X46778184Y-47781300D01*
X47060512Y-47795217D01*
X47340130Y-47753787D01*
X47606292Y-47658603D01*
X47731514Y-47591671D01*
X47803097Y-47347702D01*
X46990000Y-46534605D01*
X46176903Y-47347702D01*
X42210000Y-47347702D01*
X42210000Y-46425512D01*
X45549783Y-46425512D01*
X45591213Y-46705130D01*
X45686397Y-46971292D01*
X45753329Y-47096514D01*
X45997298Y-47168097D01*
X46810395Y-46355000D01*
X47169605Y-46355000D01*
X47982702Y-47168097D01*
X48226671Y-47096514D01*
X48347571Y-46841004D01*
X48416300Y-46566816D01*
X48430217Y-46284488D01*
X48388787Y-46004870D01*
X48293603Y-45738708D01*
X48226671Y-45613486D01*
X47982702Y-45541903D01*
X47169605Y-46355000D01*
X46810395Y-46355000D01*
X45997298Y-45541903D01*
X45753329Y-45613486D01*
X45632429Y-45868996D01*
X45563700Y-46143184D01*
X45549783Y-46425512D01*
X42210000Y-46425512D01*
X42210000Y-45362298D01*
X46176903Y-45362298D01*
X46990000Y-46175395D01*
X47803097Y-45362298D01*
X47731514Y-45118329D01*
X47476004Y-44997429D01*
X47201816Y-44928700D01*
X46919488Y-44914783D01*
X46639870Y-44956213D01*
X46373708Y-45051397D01*
X46248486Y-45118329D01*
X46176903Y-45362298D01*
X42210000Y-45362298D01*
X42210000Y-41099396D01*
X42369396Y-40940000D01*
X45039068Y-40940000D01*
X45085000Y-40944524D01*
X45130932Y-40940000D01*
X45268292Y-40926471D01*
X45444540Y-40873007D01*
X45606972Y-40786186D01*
X45749344Y-40669344D01*
X45778630Y-40633659D01*
X46026289Y-40386000D01*
X46690104Y-40386000D01*
X46932653Y-40362111D01*
X47243867Y-40267705D01*
X47530684Y-40114398D01*
X47782082Y-39908082D01*
X47988398Y-39656684D01*
X48141705Y-39369867D01*
X48236111Y-39058653D01*
X48267988Y-38735000D01*
X48236111Y-38411347D01*
X48141705Y-38100133D01*
X47988398Y-37813316D01*
X47782082Y-37561918D01*
X47664775Y-37465647D01*
X47866236Y-37272631D01*
X48052314Y-37006650D01*
X48182926Y-36709478D01*
X48214975Y-36577944D01*
X48095836Y-36322000D01*
X46482000Y-36322000D01*
X46482000Y-36342000D01*
X46228000Y-36342000D01*
X46228000Y-36322000D01*
X44614164Y-36322000D01*
X44495025Y-36577944D01*
X44527074Y-36709478D01*
X44657686Y-37006650D01*
X44843764Y-37272631D01*
X45045225Y-37465647D01*
X44927918Y-37561918D01*
X44721602Y-37813316D01*
X44568295Y-38100133D01*
X44473889Y-38411347D01*
X44442012Y-38735000D01*
X44473889Y-39058653D01*
X44477331Y-39070000D01*
X42369396Y-39070000D01*
X42189759Y-38890363D01*
X41989131Y-38756308D01*
X42016514Y-38741671D01*
X42088097Y-38497702D01*
X41275000Y-37684605D01*
X40461903Y-38497702D01*
X40533486Y-38741671D01*
X40562341Y-38755324D01*
X40360241Y-38890363D01*
X40160363Y-39090241D01*
X40003320Y-39325273D01*
X39895147Y-39586426D01*
X39840000Y-39863665D01*
X39840000Y-40146335D01*
X39895147Y-40423574D01*
X40003320Y-40684727D01*
X40160363Y-40919759D01*
X40340001Y-41099397D01*
X40340000Y-45674068D01*
X40340000Y-46400931D01*
X40340001Y-46400938D01*
X40340000Y-47872710D01*
X39617711Y-48595000D01*
X38145931Y-48595000D01*
X38099999Y-48590476D01*
X37916707Y-48608529D01*
X37863243Y-48624747D01*
X37740460Y-48661993D01*
X37578028Y-48748814D01*
X37435656Y-48865656D01*
X37406376Y-48901334D01*
X31362711Y-54945000D01*
X24598072Y-54945000D01*
X24598072Y-54780000D01*
X24585812Y-54655518D01*
X24549502Y-54535820D01*
X24490537Y-54425506D01*
X24411185Y-54328815D01*
X24314494Y-54249463D01*
X24204180Y-54190498D01*
X24084482Y-54154188D01*
X23960000Y-54141928D01*
X21760000Y-54141928D01*
X21635518Y-54154188D01*
X21515820Y-54190498D01*
X21405506Y-54249463D01*
X21308815Y-54328815D01*
X21229463Y-54425506D01*
X21170498Y-54535820D01*
X21134188Y-54655518D01*
X21121928Y-54780000D01*
X21121928Y-54945000D01*
X20365931Y-54945000D01*
X20319999Y-54940476D01*
X20136707Y-54958529D01*
X20083243Y-54974747D01*
X19960460Y-55011993D01*
X19798028Y-55098814D01*
X19655656Y-55215656D01*
X19626376Y-55251334D01*
X18421336Y-56456375D01*
X18385657Y-56485656D01*
X18268815Y-56628028D01*
X18183298Y-56788020D01*
X18181994Y-56790460D01*
X18128529Y-56966709D01*
X18110476Y-57150000D01*
X18115001Y-57195942D01*
X18115001Y-58800506D01*
X18114918Y-58800550D01*
X17859866Y-59009866D01*
X17650550Y-59264919D01*
X17495015Y-59555905D01*
X17399236Y-59871644D01*
X17375000Y-60117719D01*
X15646129Y-60117719D01*
X15648072Y-59160000D01*
X15635812Y-59035518D01*
X15599502Y-58915820D01*
X15540537Y-58805506D01*
X15461185Y-58708815D01*
X15364494Y-58629463D01*
X15254180Y-58570498D01*
X15134482Y-58534188D01*
X15010000Y-58521928D01*
X14255750Y-58525000D01*
X14097000Y-58683750D01*
X13843000Y-58683750D01*
X13684250Y-58525000D01*
X12930000Y-58521928D01*
X12805518Y-58534188D01*
X12685820Y-58570498D01*
X12575506Y-58629463D01*
X12478815Y-58708815D01*
X12399463Y-58805506D01*
X12340498Y-58915820D01*
X12304188Y-59035518D01*
X12291928Y-59160000D01*
X710000Y-59160000D01*
X710000Y-56276122D01*
X8470825Y-56276122D01*
X8535425Y-56489094D01*
X8685469Y-56794329D01*
X8892178Y-57064427D01*
X9147609Y-57289008D01*
X9441946Y-57459442D01*
X9763877Y-57569179D01*
X10033000Y-57451600D01*
X10033000Y-56007000D01*
X10287000Y-56007000D01*
X10287000Y-57451600D01*
X10556123Y-57569179D01*
X10878054Y-57459442D01*
X11172391Y-57289008D01*
X11427822Y-57064427D01*
X11634531Y-56794329D01*
X11784575Y-56489094D01*
X11849175Y-56276122D01*
X11731125Y-56007000D01*
X10287000Y-56007000D01*
X10033000Y-56007000D01*
X8588875Y-56007000D01*
X8470825Y-56276122D01*
X710000Y-56276122D01*
X710000Y-55483878D01*
X8470825Y-55483878D01*
X8588875Y-55753000D01*
X10033000Y-55753000D01*
X10033000Y-54308400D01*
X10287000Y-54308400D01*
X10287000Y-55753000D01*
X11731125Y-55753000D01*
X11849175Y-55483878D01*
X11784575Y-55270906D01*
X11634531Y-54965671D01*
X11427822Y-54695573D01*
X11172391Y-54470992D01*
X10878054Y-54300558D01*
X10556123Y-54190821D01*
X10287000Y-54308400D01*
X10033000Y-54308400D01*
X9763877Y-54190821D01*
X9441946Y-54300558D01*
X9147609Y-54470992D01*
X8892178Y-54695573D01*
X8685469Y-54965671D01*
X8535425Y-55270906D01*
X8470825Y-55483878D01*
X710000Y-55483878D01*
X710000Y-53467000D01*
X29210000Y-53467000D01*
X29234776Y-53464560D01*
X29258601Y-53457333D01*
X29280557Y-53445597D01*
X29299803Y-53429803D01*
X29315597Y-53410557D01*
X29327333Y-53388601D01*
X29334560Y-53364776D01*
X29337000Y-53340000D01*
X29337000Y-46069039D01*
X29958096Y-46069039D01*
X29975633Y-46151818D01*
X30086285Y-46411646D01*
X30245500Y-46644895D01*
X30447161Y-46842601D01*
X30683517Y-46997166D01*
X30945486Y-47102650D01*
X31223000Y-47155000D01*
X31623000Y-47155000D01*
X31623000Y-45847000D01*
X31877000Y-45847000D01*
X31877000Y-47155000D01*
X32277000Y-47155000D01*
X32554514Y-47102650D01*
X32816483Y-46997166D01*
X33052839Y-46842601D01*
X33254500Y-46644895D01*
X33413715Y-46411646D01*
X33524367Y-46151818D01*
X33541904Y-46069039D01*
X33419915Y-45847000D01*
X31877000Y-45847000D01*
X31623000Y-45847000D01*
X30080085Y-45847000D01*
X29958096Y-46069039D01*
X29337000Y-46069039D01*
X29337000Y-38100000D01*
X29908057Y-38100000D01*
X29935764Y-38381309D01*
X30017818Y-38651808D01*
X30151068Y-38901101D01*
X30330392Y-39119608D01*
X30548899Y-39298932D01*
X30681858Y-39370000D01*
X30548899Y-39441068D01*
X30330392Y-39620392D01*
X30151068Y-39838899D01*
X30017818Y-40088192D01*
X29935764Y-40358691D01*
X29908057Y-40640000D01*
X29935764Y-40921309D01*
X30017818Y-41191808D01*
X30151068Y-41441101D01*
X30330392Y-41659608D01*
X30548899Y-41838932D01*
X30681858Y-41910000D01*
X30548899Y-41981068D01*
X30330392Y-42160392D01*
X30151068Y-42378899D01*
X30017818Y-42628192D01*
X29935764Y-42898691D01*
X29908057Y-43180000D01*
X29935764Y-43461309D01*
X30017818Y-43731808D01*
X30151068Y-43981101D01*
X30330392Y-44199608D01*
X30548899Y-44378932D01*
X30676741Y-44447265D01*
X30447161Y-44597399D01*
X30245500Y-44795105D01*
X30086285Y-45028354D01*
X29975633Y-45288182D01*
X29958096Y-45370961D01*
X30080085Y-45593000D01*
X31623000Y-45593000D01*
X31623000Y-45573000D01*
X31877000Y-45573000D01*
X31877000Y-45593000D01*
X33419915Y-45593000D01*
X33541904Y-45370961D01*
X33524367Y-45288182D01*
X33413715Y-45028354D01*
X33254500Y-44795105D01*
X33052839Y-44597399D01*
X32823259Y-44447265D01*
X32951101Y-44378932D01*
X33169608Y-44199608D01*
X33239044Y-44115000D01*
X36784068Y-44115000D01*
X36830000Y-44119524D01*
X36875932Y-44115000D01*
X37013292Y-44101471D01*
X37189540Y-44048007D01*
X37351972Y-43961186D01*
X37494344Y-43844344D01*
X37523630Y-43808659D01*
X38728665Y-42603625D01*
X38764344Y-42574344D01*
X38881186Y-42431972D01*
X38968007Y-42269540D01*
X39011420Y-42126426D01*
X39021471Y-42093293D01*
X39039524Y-41910001D01*
X39035000Y-41864069D01*
X39035000Y-37575512D01*
X39834783Y-37575512D01*
X39876213Y-37855130D01*
X39971397Y-38121292D01*
X40038329Y-38246514D01*
X40282298Y-38318097D01*
X41095395Y-37505000D01*
X41454605Y-37505000D01*
X42267702Y-38318097D01*
X42511671Y-38246514D01*
X42632571Y-37991004D01*
X42701300Y-37716816D01*
X42715217Y-37434488D01*
X42673787Y-37154870D01*
X42578603Y-36888708D01*
X42511671Y-36763486D01*
X42267702Y-36691903D01*
X41454605Y-37505000D01*
X41095395Y-37505000D01*
X40282298Y-36691903D01*
X40038329Y-36763486D01*
X39917429Y-37018996D01*
X39848700Y-37293184D01*
X39834783Y-37575512D01*
X39035000Y-37575512D01*
X39035000Y-36019396D01*
X39176694Y-35877702D01*
X40461903Y-35877702D01*
X40533486Y-36121671D01*
X40683353Y-36192584D01*
X40658708Y-36201397D01*
X40533486Y-36268329D01*
X40461903Y-36512298D01*
X41275000Y-37325395D01*
X42088097Y-36512298D01*
X42016514Y-36268329D01*
X41866647Y-36197416D01*
X41891292Y-36188603D01*
X42016514Y-36121671D01*
X42088097Y-35877702D01*
X41275000Y-35064605D01*
X40461903Y-35877702D01*
X39176694Y-35877702D01*
X39214637Y-35839759D01*
X39371680Y-35604727D01*
X39479853Y-35343574D01*
X39535000Y-35066335D01*
X39535000Y-34955512D01*
X39834783Y-34955512D01*
X39876213Y-35235130D01*
X39971397Y-35501292D01*
X40038329Y-35626514D01*
X40282298Y-35698097D01*
X41095395Y-34885000D01*
X41454605Y-34885000D01*
X42267702Y-35698097D01*
X42511671Y-35626514D01*
X42632571Y-35371004D01*
X42701300Y-35096816D01*
X42715217Y-34814488D01*
X42673787Y-34534870D01*
X42578603Y-34268708D01*
X42511671Y-34143486D01*
X42267702Y-34071903D01*
X41454605Y-34885000D01*
X41095395Y-34885000D01*
X40282298Y-34071903D01*
X40038329Y-34143486D01*
X39917429Y-34398996D01*
X39848700Y-34673184D01*
X39834783Y-34955512D01*
X39535000Y-34955512D01*
X39535000Y-34783665D01*
X39479853Y-34506426D01*
X39371680Y-34245273D01*
X39214637Y-34010241D01*
X39014759Y-33810363D01*
X38779727Y-33653320D01*
X38518574Y-33545147D01*
X38241335Y-33490000D01*
X37958665Y-33490000D01*
X37681426Y-33545147D01*
X37420273Y-33653320D01*
X37185241Y-33810363D01*
X36985363Y-34010241D01*
X36828320Y-34245273D01*
X36720147Y-34506426D01*
X36665000Y-34783665D01*
X36665000Y-35066335D01*
X36720147Y-35343574D01*
X36828320Y-35604727D01*
X36985363Y-35839759D01*
X37165001Y-36019397D01*
X37165000Y-40050931D01*
X37165001Y-40050941D01*
X37165000Y-41522710D01*
X36442711Y-42245000D01*
X33239044Y-42245000D01*
X33169608Y-42160392D01*
X32951101Y-41981068D01*
X32818142Y-41910000D01*
X32951101Y-41838932D01*
X33169608Y-41659608D01*
X33348932Y-41441101D01*
X33482182Y-41191808D01*
X33564236Y-40921309D01*
X33591943Y-40640000D01*
X33564236Y-40358691D01*
X33482182Y-40088192D01*
X33348932Y-39838899D01*
X33169608Y-39620392D01*
X32951101Y-39441068D01*
X32818142Y-39370000D01*
X32951101Y-39298932D01*
X33169608Y-39119608D01*
X33348932Y-38901101D01*
X33482182Y-38651808D01*
X33564236Y-38381309D01*
X33591943Y-38100000D01*
X33564236Y-37818691D01*
X33515212Y-37657078D01*
X33648665Y-37523625D01*
X33684344Y-37494344D01*
X33801186Y-37351972D01*
X33888007Y-37189540D01*
X33926390Y-37063007D01*
X33941471Y-37013293D01*
X33959524Y-36830001D01*
X33955000Y-36784068D01*
X33955000Y-33320000D01*
X40180604Y-33320000D01*
X40360241Y-33499637D01*
X40560869Y-33633692D01*
X40533486Y-33648329D01*
X40461903Y-33892298D01*
X41275000Y-34705395D01*
X42088097Y-33892298D01*
X42016514Y-33648329D01*
X41987659Y-33634676D01*
X42189759Y-33499637D01*
X42369396Y-33320000D01*
X44477331Y-33320000D01*
X44473889Y-33331347D01*
X44442012Y-33655000D01*
X44473889Y-33978653D01*
X44568295Y-34289867D01*
X44721602Y-34576684D01*
X44927918Y-34828082D01*
X45045225Y-34924353D01*
X44843764Y-35117369D01*
X44657686Y-35383350D01*
X44527074Y-35680522D01*
X44495025Y-35812056D01*
X44614164Y-36068000D01*
X46228000Y-36068000D01*
X46228000Y-36048000D01*
X46482000Y-36048000D01*
X46482000Y-36068000D01*
X48095836Y-36068000D01*
X48214975Y-35812056D01*
X48182926Y-35680522D01*
X48052314Y-35383350D01*
X47866236Y-35117369D01*
X47664775Y-34924353D01*
X47782082Y-34828082D01*
X47977470Y-34590000D01*
X49777711Y-34590000D01*
X51135001Y-35947290D01*
X51135000Y-41450604D01*
X50955363Y-41630241D01*
X50798320Y-41865273D01*
X50690147Y-42126426D01*
X50635000Y-42403665D01*
X50635000Y-42686335D01*
X50690147Y-42963574D01*
X50798320Y-43224727D01*
X50955363Y-43459759D01*
X51155241Y-43659637D01*
X51390273Y-43816680D01*
X51651426Y-43924853D01*
X51928665Y-43980000D01*
X52211335Y-43980000D01*
X52488574Y-43924853D01*
X52749727Y-43816680D01*
X52984759Y-43659637D01*
X53184637Y-43459759D01*
X53341680Y-43224727D01*
X53449853Y-42963574D01*
X53505000Y-42686335D01*
X53505000Y-42403665D01*
X53449853Y-42126426D01*
X53341680Y-41865273D01*
X53184637Y-41630241D01*
X53005000Y-41450604D01*
X53005000Y-36495000D01*
X58755001Y-36495000D01*
X58755001Y-36565375D01*
X58665518Y-36574188D01*
X58545820Y-36610498D01*
X58435506Y-36669463D01*
X58338815Y-36748815D01*
X58259463Y-36845506D01*
X58200498Y-36955820D01*
X58164188Y-37075518D01*
X58151928Y-37200000D01*
X58151928Y-39000000D01*
X58164188Y-39124482D01*
X58200498Y-39244180D01*
X58259463Y-39354494D01*
X58338815Y-39451185D01*
X58435506Y-39530537D01*
X58545820Y-39589502D01*
X58564127Y-39595056D01*
X58497688Y-39661495D01*
X58329701Y-39912905D01*
X58213989Y-40192257D01*
X58155000Y-40488816D01*
X58155000Y-40791184D01*
X58213989Y-41087743D01*
X58329701Y-41367095D01*
X58497688Y-41618505D01*
X58711495Y-41832312D01*
X58755001Y-41861382D01*
X58755000Y-45260604D01*
X58575363Y-45440241D01*
X58418320Y-45675273D01*
X58310147Y-45936426D01*
X58255000Y-46213665D01*
X58255000Y-46496335D01*
X58310147Y-46773574D01*
X58418320Y-47034727D01*
X58575363Y-47269759D01*
X58775241Y-47469637D01*
X59010273Y-47626680D01*
X59271426Y-47734853D01*
X59548665Y-47790000D01*
X59831335Y-47790000D01*
X60108574Y-47734853D01*
X60369727Y-47626680D01*
X60604759Y-47469637D01*
X60804637Y-47269759D01*
X60961680Y-47034727D01*
X61069853Y-46773574D01*
X61125000Y-46496335D01*
X61125000Y-46213665D01*
X61069853Y-45936426D01*
X60961680Y-45675273D01*
X60804637Y-45440241D01*
X60625000Y-45260604D01*
X60625000Y-41861381D01*
X60668505Y-41832312D01*
X60882312Y-41618505D01*
X61050299Y-41367095D01*
X61166011Y-41087743D01*
X61225000Y-40791184D01*
X61225000Y-40750512D01*
X66504783Y-40750512D01*
X66546213Y-41030130D01*
X66641397Y-41296292D01*
X66708329Y-41421514D01*
X66952298Y-41493097D01*
X67765395Y-40680000D01*
X68124605Y-40680000D01*
X68937702Y-41493097D01*
X69181671Y-41421514D01*
X69302571Y-41166004D01*
X69371300Y-40891816D01*
X69385217Y-40609488D01*
X69343787Y-40329870D01*
X69248603Y-40063708D01*
X69181671Y-39938486D01*
X68937702Y-39866903D01*
X68124605Y-40680000D01*
X67765395Y-40680000D01*
X66952298Y-39866903D01*
X66708329Y-39938486D01*
X66587429Y-40193996D01*
X66518700Y-40468184D01*
X66504783Y-40750512D01*
X61225000Y-40750512D01*
X61225000Y-40488816D01*
X61166011Y-40192257D01*
X61050299Y-39912905D01*
X60899554Y-39687298D01*
X67131903Y-39687298D01*
X67945000Y-40500395D01*
X68758097Y-39687298D01*
X68686514Y-39443329D01*
X68431004Y-39322429D01*
X68156816Y-39253700D01*
X67874488Y-39239783D01*
X67594870Y-39281213D01*
X67328708Y-39376397D01*
X67203486Y-39443329D01*
X67131903Y-39687298D01*
X60899554Y-39687298D01*
X60882312Y-39661495D01*
X60815873Y-39595056D01*
X60834180Y-39589502D01*
X60944494Y-39530537D01*
X61041185Y-39451185D01*
X61120537Y-39354494D01*
X61179502Y-39244180D01*
X61215812Y-39124482D01*
X61228072Y-39000000D01*
X61228072Y-37200000D01*
X61215812Y-37075518D01*
X61179502Y-36955820D01*
X61120537Y-36845506D01*
X61041185Y-36748815D01*
X60944494Y-36669463D01*
X60834180Y-36610498D01*
X60714482Y-36574188D01*
X60625000Y-36565375D01*
X60625000Y-36495000D01*
X71367711Y-36495000D01*
X71455000Y-36582289D01*
X71455001Y-37680603D01*
X71275363Y-37860241D01*
X71118320Y-38095273D01*
X71010147Y-38356426D01*
X70955000Y-38633665D01*
X70955000Y-38916335D01*
X71010147Y-39193574D01*
X71118320Y-39454727D01*
X71275363Y-39689759D01*
X71475241Y-39889637D01*
X71675869Y-40023692D01*
X71648486Y-40038329D01*
X71576903Y-40282298D01*
X72390000Y-41095395D01*
X73203097Y-40282298D01*
X73131514Y-40038329D01*
X73102659Y-40024676D01*
X73304759Y-39889637D01*
X73504637Y-39689759D01*
X73517840Y-39670000D01*
X73835604Y-39670000D01*
X74015241Y-39849637D01*
X74250273Y-40006680D01*
X74511426Y-40114853D01*
X74788665Y-40170000D01*
X75071335Y-40170000D01*
X75348574Y-40114853D01*
X75609727Y-40006680D01*
X75844759Y-39849637D01*
X76044637Y-39649759D01*
X76201680Y-39414727D01*
X76309853Y-39153574D01*
X76365000Y-38876335D01*
X76365000Y-38593665D01*
X76309853Y-38316426D01*
X76201680Y-38055273D01*
X76044637Y-37820241D01*
X75844759Y-37620363D01*
X75612241Y-37465000D01*
X75844759Y-37309637D01*
X76044637Y-37109759D01*
X76201680Y-36874727D01*
X76309853Y-36613574D01*
X76365000Y-36336335D01*
X76365000Y-36053665D01*
X76309853Y-35776426D01*
X76201680Y-35515273D01*
X76044637Y-35280241D01*
X75844759Y-35080363D01*
X75609727Y-34923320D01*
X75348574Y-34815147D01*
X75071335Y-34760000D01*
X74975000Y-34760000D01*
X74975000Y-34593072D01*
X75015000Y-34593072D01*
X75139482Y-34580812D01*
X75259180Y-34544502D01*
X75369494Y-34485537D01*
X75466185Y-34406185D01*
X75545537Y-34309494D01*
X75604502Y-34199180D01*
X75640812Y-34079482D01*
X75653072Y-33955000D01*
X75653072Y-33355000D01*
X75640812Y-33230518D01*
X75604502Y-33110820D01*
X75555957Y-33020000D01*
X75604502Y-32929180D01*
X75640812Y-32809482D01*
X75653072Y-32685000D01*
X75653072Y-32085000D01*
X75640812Y-31960518D01*
X75604502Y-31840820D01*
X75555957Y-31750000D01*
X75604502Y-31659180D01*
X75640812Y-31539482D01*
X75653072Y-31415000D01*
X75653072Y-30815000D01*
X75640812Y-30690518D01*
X75604502Y-30570820D01*
X75555957Y-30480000D01*
X75604502Y-30389180D01*
X75640812Y-30269482D01*
X75653072Y-30145000D01*
X75653072Y-29545000D01*
X75640812Y-29420518D01*
X75604502Y-29300820D01*
X75555957Y-29210000D01*
X75604502Y-29119180D01*
X75640812Y-28999482D01*
X75653072Y-28875000D01*
X75653072Y-28275000D01*
X75640812Y-28150518D01*
X75604502Y-28030820D01*
X75555957Y-27940000D01*
X75604502Y-27849180D01*
X75640812Y-27729482D01*
X75653072Y-27605000D01*
X75653072Y-27005000D01*
X75640812Y-26880518D01*
X75604502Y-26760820D01*
X75555957Y-26670000D01*
X75604502Y-26579180D01*
X75640812Y-26459482D01*
X75653072Y-26335000D01*
X75653072Y-25735000D01*
X75640812Y-25610518D01*
X75604502Y-25490820D01*
X75555957Y-25400000D01*
X75604502Y-25309180D01*
X75640812Y-25189482D01*
X75653072Y-25065000D01*
X75653072Y-24465000D01*
X75640812Y-24340518D01*
X75604502Y-24220820D01*
X75555957Y-24130000D01*
X75604502Y-24039180D01*
X75640812Y-23919482D01*
X75653072Y-23795000D01*
X75653072Y-23195000D01*
X75640812Y-23070518D01*
X75604502Y-22950820D01*
X75555957Y-22860000D01*
X75604502Y-22769180D01*
X75640812Y-22649482D01*
X75653072Y-22525000D01*
X75650000Y-22510750D01*
X75491250Y-22352000D01*
X74167000Y-22352000D01*
X74167000Y-22372000D01*
X73913000Y-22372000D01*
X73913000Y-22352000D01*
X73893000Y-22352000D01*
X73893000Y-22098000D01*
X73913000Y-22098000D01*
X73913000Y-21448750D01*
X74167000Y-21448750D01*
X74167000Y-22098000D01*
X75491250Y-22098000D01*
X75650000Y-21939250D01*
X75653072Y-21925000D01*
X75640812Y-21800518D01*
X75604502Y-21680820D01*
X75545537Y-21570506D01*
X75466185Y-21473815D01*
X75369494Y-21394463D01*
X75259180Y-21335498D01*
X75139482Y-21299188D01*
X75015000Y-21286928D01*
X74325750Y-21290000D01*
X74167000Y-21448750D01*
X73913000Y-21448750D01*
X73754250Y-21290000D01*
X73065000Y-21286928D01*
X72940518Y-21299188D01*
X72820820Y-21335498D01*
X72710506Y-21394463D01*
X72613815Y-21473815D01*
X72534463Y-21570506D01*
X72475498Y-21680820D01*
X72439188Y-21800518D01*
X72426928Y-21925000D01*
X72430000Y-21939250D01*
X72588748Y-22097998D01*
X72430000Y-22097998D01*
X72430000Y-22137710D01*
X72055000Y-21762711D01*
X72055000Y-20707289D01*
X75558660Y-17203629D01*
X75594344Y-17174344D01*
X75711186Y-17031972D01*
X75775316Y-16911993D01*
X75798007Y-16869541D01*
X75851472Y-16693292D01*
X75869524Y-16510000D01*
X75865000Y-16464065D01*
X75865000Y-15064396D01*
X76044637Y-14884759D01*
X76200000Y-14652241D01*
X76355363Y-14884759D01*
X76535000Y-15064396D01*
X76535000Y-15147301D01*
X76535001Y-15147311D01*
X76535000Y-16464067D01*
X76530476Y-16510000D01*
X76535000Y-16555931D01*
X76548529Y-16693291D01*
X76601993Y-16869539D01*
X76688814Y-17031971D01*
X76805656Y-17174344D01*
X76841341Y-17203630D01*
X81826928Y-22189218D01*
X81826928Y-22525000D01*
X81839188Y-22649482D01*
X81875498Y-22769180D01*
X81924043Y-22860000D01*
X81875498Y-22950820D01*
X81839188Y-23070518D01*
X81826928Y-23195000D01*
X81826928Y-23795000D01*
X81839188Y-23919482D01*
X81875498Y-24039180D01*
X81924043Y-24130000D01*
X81875498Y-24220820D01*
X81839188Y-24340518D01*
X81826928Y-24465000D01*
X81826928Y-25065000D01*
X81839188Y-25189482D01*
X81875498Y-25309180D01*
X81924043Y-25400000D01*
X81875498Y-25490820D01*
X81839188Y-25610518D01*
X81826928Y-25735000D01*
X81826928Y-26335000D01*
X81839188Y-26459482D01*
X81875498Y-26579180D01*
X81924043Y-26670000D01*
X81875498Y-26760820D01*
X81839188Y-26880518D01*
X81826928Y-27005000D01*
X81826928Y-27605000D01*
X81830375Y-27640000D01*
X80690932Y-27640000D01*
X80645000Y-27635476D01*
X80599068Y-27640000D01*
X80461708Y-27653529D01*
X80285460Y-27706993D01*
X80123028Y-27793814D01*
X79980656Y-27910656D01*
X79951370Y-27946341D01*
X78111336Y-29786375D01*
X78075657Y-29815656D01*
X77958815Y-29958028D01*
X77880850Y-30103892D01*
X77871994Y-30120460D01*
X77818529Y-30296709D01*
X77800476Y-30480000D01*
X77805001Y-30525942D01*
X77805001Y-43462711D01*
X76893630Y-42551341D01*
X76864344Y-42515656D01*
X76721972Y-42398814D01*
X76559540Y-42311993D01*
X76383292Y-42258529D01*
X76245932Y-42245000D01*
X76200000Y-42240476D01*
X76154068Y-42245000D01*
X73458347Y-42245000D01*
X73498977Y-42204370D01*
X73382704Y-42088097D01*
X73626671Y-42016514D01*
X73747571Y-41761004D01*
X73816300Y-41486816D01*
X73830217Y-41204488D01*
X73788787Y-40924870D01*
X73693603Y-40658708D01*
X73626671Y-40533486D01*
X73382702Y-40461903D01*
X72569605Y-41275000D01*
X72583748Y-41289143D01*
X72404143Y-41468748D01*
X72390000Y-41454605D01*
X72375858Y-41468748D01*
X72196253Y-41289143D01*
X72210395Y-41275000D01*
X71397298Y-40461903D01*
X71153329Y-40533486D01*
X71032429Y-40788996D01*
X70963700Y-41063184D01*
X70949783Y-41345512D01*
X70991213Y-41625130D01*
X71086397Y-41891292D01*
X71153329Y-42016514D01*
X71397296Y-42088097D01*
X71281023Y-42204370D01*
X71321653Y-42245000D01*
X69367621Y-42245000D01*
X69334502Y-42135820D01*
X69275537Y-42025506D01*
X69196185Y-41928815D01*
X69099494Y-41849463D01*
X68989180Y-41790498D01*
X68869482Y-41754188D01*
X68745000Y-41741928D01*
X68737785Y-41741928D01*
X68758097Y-41672702D01*
X67945000Y-40859605D01*
X67131903Y-41672702D01*
X67152215Y-41741928D01*
X67145000Y-41741928D01*
X67020518Y-41754188D01*
X66900820Y-41790498D01*
X66790506Y-41849463D01*
X66693815Y-41928815D01*
X66614463Y-42025506D01*
X66555498Y-42135820D01*
X66519188Y-42255518D01*
X66506928Y-42380000D01*
X66506928Y-43980000D01*
X66519188Y-44104482D01*
X66555498Y-44224180D01*
X66614463Y-44334494D01*
X66693815Y-44431185D01*
X66790506Y-44510537D01*
X66900820Y-44569502D01*
X67020518Y-44605812D01*
X67145000Y-44618072D01*
X68745000Y-44618072D01*
X68869482Y-44605812D01*
X68989180Y-44569502D01*
X69099494Y-44510537D01*
X69196185Y-44431185D01*
X69275537Y-44334494D01*
X69334502Y-44224180D01*
X69367621Y-44115000D01*
X75812711Y-44115000D01*
X75979639Y-44281928D01*
X73730000Y-44281928D01*
X73605518Y-44294188D01*
X73485820Y-44330498D01*
X73375506Y-44389463D01*
X73278815Y-44468815D01*
X73199463Y-44565506D01*
X73140498Y-44675820D01*
X73107379Y-44785000D01*
X73070931Y-44785000D01*
X73024999Y-44780476D01*
X72841707Y-44798529D01*
X72819581Y-44805241D01*
X72665460Y-44851993D01*
X72503028Y-44938814D01*
X72360656Y-45055656D01*
X72331374Y-45091336D01*
X71367711Y-46055000D01*
X69367621Y-46055000D01*
X69334502Y-45945820D01*
X69275537Y-45835506D01*
X69196185Y-45738815D01*
X69099494Y-45659463D01*
X68989180Y-45600498D01*
X68869482Y-45564188D01*
X68745000Y-45551928D01*
X67145000Y-45551928D01*
X67020518Y-45564188D01*
X66900820Y-45600498D01*
X66790506Y-45659463D01*
X66693815Y-45738815D01*
X66614463Y-45835506D01*
X66555498Y-45945820D01*
X66519188Y-46065518D01*
X66506928Y-46190000D01*
X66506928Y-47790000D01*
X66519188Y-47914482D01*
X66555498Y-48034180D01*
X66614463Y-48144494D01*
X66693815Y-48241185D01*
X66790506Y-48320537D01*
X66900820Y-48379502D01*
X66996943Y-48408661D01*
X66830363Y-48575241D01*
X66673320Y-48810273D01*
X66565147Y-49071426D01*
X66510000Y-49348665D01*
X66510000Y-49631335D01*
X66565147Y-49908574D01*
X66673320Y-50169727D01*
X66830363Y-50404759D01*
X67030241Y-50604637D01*
X67265273Y-50761680D01*
X67526426Y-50869853D01*
X67803665Y-50925000D01*
X68086335Y-50925000D01*
X68363574Y-50869853D01*
X68624727Y-50761680D01*
X68859759Y-50604637D01*
X69039396Y-50425000D01*
X71327711Y-50425000D01*
X72331370Y-51428659D01*
X72360656Y-51464344D01*
X72503028Y-51581186D01*
X72665460Y-51668007D01*
X72732895Y-51688463D01*
X72841708Y-51721472D01*
X73025000Y-51739524D01*
X73070935Y-51735000D01*
X73440956Y-51735000D01*
X73510392Y-51819608D01*
X73728899Y-51998932D01*
X73861858Y-52070000D01*
X73728899Y-52141068D01*
X73510392Y-52320392D01*
X73440956Y-52405000D01*
X69367621Y-52405000D01*
X69334502Y-52295820D01*
X69275537Y-52185506D01*
X69196185Y-52088815D01*
X69099494Y-52009463D01*
X68989180Y-51950498D01*
X68869482Y-51914188D01*
X68745000Y-51901928D01*
X67145000Y-51901928D01*
X67020518Y-51914188D01*
X66900820Y-51950498D01*
X66790506Y-52009463D01*
X66693815Y-52088815D01*
X66614463Y-52185506D01*
X66555498Y-52295820D01*
X66519188Y-52415518D01*
X66506928Y-52540000D01*
X66506928Y-54140000D01*
X66519188Y-54264482D01*
X66555498Y-54384180D01*
X66614463Y-54494494D01*
X66693815Y-54591185D01*
X66790506Y-54670537D01*
X66900820Y-54729502D01*
X66996943Y-54758661D01*
X66830363Y-54925241D01*
X66673320Y-55160273D01*
X66565147Y-55421426D01*
X66510000Y-55698665D01*
X66510000Y-55981335D01*
X66565147Y-56258574D01*
X66673320Y-56519727D01*
X66830363Y-56754759D01*
X67030241Y-56954637D01*
X67265273Y-57111680D01*
X67526426Y-57219853D01*
X67803665Y-57275000D01*
X68086335Y-57275000D01*
X68363574Y-57219853D01*
X68624727Y-57111680D01*
X68859759Y-56954637D01*
X68999396Y-56815000D01*
X73440956Y-56815000D01*
X73510392Y-56899608D01*
X73728899Y-57078932D01*
X73861858Y-57150000D01*
X73728899Y-57221068D01*
X73510392Y-57400392D01*
X73440956Y-57485000D01*
X72435935Y-57485000D01*
X72390000Y-57480476D01*
X72206708Y-57498528D01*
X72102828Y-57530041D01*
X72030460Y-57551993D01*
X71868028Y-57638814D01*
X71725656Y-57755656D01*
X71696370Y-57791341D01*
X70692711Y-58795000D01*
X69039396Y-58795000D01*
X68859759Y-58615363D01*
X68624727Y-58458320D01*
X68363574Y-58350147D01*
X68086335Y-58295000D01*
X67803665Y-58295000D01*
X67526426Y-58350147D01*
X67265273Y-58458320D01*
X67030241Y-58615363D01*
X66830363Y-58815241D01*
X66673320Y-59050273D01*
X66565147Y-59311426D01*
X66510000Y-59588665D01*
X66510000Y-59871335D01*
X66565147Y-60148574D01*
X66673320Y-60409727D01*
X66830363Y-60644759D01*
X66996943Y-60811339D01*
X66900820Y-60840498D01*
X66790506Y-60899463D01*
X66693815Y-60978815D01*
X66614463Y-61075506D01*
X66555498Y-61185820D01*
X66519188Y-61305518D01*
X66506928Y-61430000D01*
X66510000Y-61944250D01*
X66668750Y-62103000D01*
X67818000Y-62103000D01*
X67818000Y-62083000D01*
X68072000Y-62083000D01*
X68072000Y-62103000D01*
X69221250Y-62103000D01*
X69380000Y-61944250D01*
X69383072Y-61430000D01*
X69370812Y-61305518D01*
X69334502Y-61185820D01*
X69275537Y-61075506D01*
X69196185Y-60978815D01*
X69099494Y-60899463D01*
X68989180Y-60840498D01*
X68893057Y-60811339D01*
X69039396Y-60665000D01*
X71034068Y-60665000D01*
X71080000Y-60669524D01*
X71125932Y-60665000D01*
X71263292Y-60651471D01*
X71439540Y-60598007D01*
X71601972Y-60511186D01*
X71744344Y-60394344D01*
X71773630Y-60358659D01*
X72777289Y-59355000D01*
X73440956Y-59355000D01*
X73510392Y-59439608D01*
X73728899Y-59618932D01*
X73861858Y-59690000D01*
X73728899Y-59761068D01*
X73510392Y-59940392D01*
X73331068Y-60158899D01*
X73197818Y-60408192D01*
X73115764Y-60678691D01*
X73088057Y-60960000D01*
X73115764Y-61241309D01*
X73197818Y-61511808D01*
X73331068Y-61761101D01*
X73510392Y-61979608D01*
X73728899Y-62158932D01*
X73861858Y-62230000D01*
X73728899Y-62301068D01*
X73510392Y-62480392D01*
X73331068Y-62698899D01*
X73197818Y-62948192D01*
X73115764Y-63218691D01*
X73088057Y-63500000D01*
X73115764Y-63781309D01*
X73197818Y-64051808D01*
X73331068Y-64301101D01*
X73510392Y-64519608D01*
X73728899Y-64698932D01*
X73978192Y-64832182D01*
X74248691Y-64914236D01*
X74459508Y-64935000D01*
X75400492Y-64935000D01*
X75611309Y-64914236D01*
X75881808Y-64832182D01*
X76131101Y-64698932D01*
X76349608Y-64519608D01*
X76528932Y-64301101D01*
X76662182Y-64051808D01*
X76744236Y-63781309D01*
X76771943Y-63500000D01*
X76744236Y-63218691D01*
X76662182Y-62948192D01*
X76528932Y-62698899D01*
X76349608Y-62480392D01*
X76131101Y-62301068D01*
X75998142Y-62230000D01*
X76131101Y-62158932D01*
X76349608Y-61979608D01*
X76384637Y-61936926D01*
X77170000Y-62722289D01*
X77170001Y-68827709D01*
X76447711Y-69550000D01*
X72599701Y-69550000D01*
X72595812Y-69510518D01*
X72559502Y-69390820D01*
X72500537Y-69280506D01*
X72421185Y-69183815D01*
X72324494Y-69104463D01*
X72214180Y-69045498D01*
X72094482Y-69009188D01*
X71970000Y-68996928D01*
X70270000Y-68996928D01*
X70145518Y-69009188D01*
X70025820Y-69045498D01*
X69915506Y-69104463D01*
X69818815Y-69183815D01*
X69739463Y-69280506D01*
X69680498Y-69390820D01*
X69656034Y-69471466D01*
X69580269Y-69387412D01*
X69346920Y-69213359D01*
X69084099Y-69088175D01*
X68936890Y-69043524D01*
X68707000Y-69164845D01*
X68707000Y-70358000D01*
X68727000Y-70358000D01*
X68727000Y-70612000D01*
X68707000Y-70612000D01*
X68707000Y-71805155D01*
X68936890Y-71926476D01*
X69084099Y-71881825D01*
X69346920Y-71756641D01*
X69580269Y-71582588D01*
X69656034Y-71498534D01*
X69680498Y-71579180D01*
X69739463Y-71689494D01*
X69818815Y-71786185D01*
X69915506Y-71865537D01*
X70025820Y-71924502D01*
X70145518Y-71960812D01*
X70270000Y-71973072D01*
X71970000Y-71973072D01*
X72094482Y-71960812D01*
X72214180Y-71924502D01*
X72324494Y-71865537D01*
X72421185Y-71786185D01*
X72500537Y-71689494D01*
X72559502Y-71579180D01*
X72595812Y-71459482D01*
X72599701Y-71420000D01*
X76789068Y-71420000D01*
X76835000Y-71424524D01*
X76880932Y-71420000D01*
X77018292Y-71406471D01*
X77194540Y-71353007D01*
X77356972Y-71266186D01*
X77499344Y-71149344D01*
X77528630Y-71113659D01*
X77800398Y-70841891D01*
X79838519Y-70841891D01*
X79935843Y-71116252D01*
X80084822Y-71366355D01*
X80279731Y-71582588D01*
X80513080Y-71756641D01*
X80775901Y-71881825D01*
X80923110Y-71926476D01*
X81153000Y-71805155D01*
X81153000Y-70612000D01*
X79959186Y-70612000D01*
X79838519Y-70841891D01*
X77800398Y-70841891D01*
X78514180Y-70128109D01*
X79838519Y-70128109D01*
X79959186Y-70358000D01*
X81153000Y-70358000D01*
X81153000Y-69164845D01*
X80923110Y-69043524D01*
X80775901Y-69088175D01*
X80513080Y-69213359D01*
X80279731Y-69387412D01*
X80084822Y-69603645D01*
X79935843Y-69853748D01*
X79838519Y-70128109D01*
X78514180Y-70128109D01*
X78733664Y-69908626D01*
X78769344Y-69879344D01*
X78886186Y-69736972D01*
X78973007Y-69574540D01*
X79026471Y-69398292D01*
X79040000Y-69260932D01*
X79044524Y-69215001D01*
X79040000Y-69169069D01*
X79040000Y-62380935D01*
X79044524Y-62335000D01*
X79026472Y-62151708D01*
X78973007Y-61975459D01*
X78932419Y-61899524D01*
X78886186Y-61813028D01*
X78769344Y-61670656D01*
X78733660Y-61641371D01*
X77423630Y-60331341D01*
X77394344Y-60295656D01*
X77251972Y-60178814D01*
X77089540Y-60091993D01*
X76913292Y-60038529D01*
X76775932Y-60025000D01*
X76730000Y-60020476D01*
X76684068Y-60025000D01*
X76419044Y-60025000D01*
X76349608Y-59940392D01*
X76131101Y-59761068D01*
X75998142Y-59690000D01*
X76131101Y-59618932D01*
X76349608Y-59439608D01*
X76528932Y-59221101D01*
X76662182Y-58971808D01*
X76744236Y-58701309D01*
X76771943Y-58420000D01*
X76744236Y-58138691D01*
X76662182Y-57868192D01*
X76528932Y-57618899D01*
X76349608Y-57400392D01*
X76131101Y-57221068D01*
X75998142Y-57150000D01*
X76131101Y-57078932D01*
X76349608Y-56899608D01*
X76528932Y-56681101D01*
X76662182Y-56431808D01*
X76744236Y-56161309D01*
X76771943Y-55880000D01*
X76744236Y-55598691D01*
X76662182Y-55328192D01*
X76528932Y-55078899D01*
X76349608Y-54860392D01*
X76131101Y-54681068D01*
X75998142Y-54610000D01*
X76131101Y-54538932D01*
X76349608Y-54359608D01*
X76528932Y-54141101D01*
X76662182Y-53891808D01*
X76744236Y-53621309D01*
X76771943Y-53340000D01*
X76744236Y-53058691D01*
X76662182Y-52788192D01*
X76528932Y-52538899D01*
X76349608Y-52320392D01*
X76131101Y-52141068D01*
X75998142Y-52070000D01*
X76131101Y-51998932D01*
X76349608Y-51819608D01*
X76528932Y-51601101D01*
X76662182Y-51351808D01*
X76744236Y-51081309D01*
X76771943Y-50800000D01*
X76744236Y-50518691D01*
X76662182Y-50248192D01*
X76528932Y-49998899D01*
X76349608Y-49780392D01*
X76131101Y-49601068D01*
X75998142Y-49530000D01*
X76131101Y-49458932D01*
X76349608Y-49279608D01*
X76419044Y-49195000D01*
X76789068Y-49195000D01*
X76835000Y-49199524D01*
X76880932Y-49195000D01*
X77018292Y-49181471D01*
X77194540Y-49128007D01*
X77356972Y-49041186D01*
X77499344Y-48924344D01*
X77528630Y-48888659D01*
X77805000Y-48612289D01*
X77805000Y-58904068D01*
X77800476Y-58950000D01*
X77808899Y-59035518D01*
X77818529Y-59133291D01*
X77871993Y-59309539D01*
X77958814Y-59471971D01*
X78075656Y-59614344D01*
X78111341Y-59643630D01*
X80056374Y-61588664D01*
X80085656Y-61624344D01*
X80228028Y-61741186D01*
X80390460Y-61828007D01*
X80513243Y-61865253D01*
X80566707Y-61881471D01*
X80749999Y-61899524D01*
X80795931Y-61895000D01*
X81060956Y-61895000D01*
X81130392Y-61979608D01*
X81348899Y-62158932D01*
X81481858Y-62230000D01*
X81348899Y-62301068D01*
X81130392Y-62480392D01*
X80951068Y-62698899D01*
X80817818Y-62948192D01*
X80735764Y-63218691D01*
X80708057Y-63500000D01*
X80735764Y-63781309D01*
X80817818Y-64051808D01*
X80951068Y-64301101D01*
X81130392Y-64519608D01*
X81348899Y-64698932D01*
X81598192Y-64832182D01*
X81868691Y-64914236D01*
X82079508Y-64935000D01*
X83020492Y-64935000D01*
X83231309Y-64914236D01*
X83501808Y-64832182D01*
X83751101Y-64698932D01*
X83969608Y-64519608D01*
X84148932Y-64301101D01*
X84282182Y-64051808D01*
X84364236Y-63781309D01*
X84391943Y-63500000D01*
X84364236Y-63218691D01*
X84282182Y-62948192D01*
X84148932Y-62698899D01*
X83969608Y-62480392D01*
X83751101Y-62301068D01*
X83618142Y-62230000D01*
X83751101Y-62158932D01*
X83969608Y-61979608D01*
X84148932Y-61761101D01*
X84282182Y-61511808D01*
X84364236Y-61241309D01*
X84391943Y-60960000D01*
X84364236Y-60678691D01*
X84282182Y-60408192D01*
X84148932Y-60158899D01*
X83969608Y-59940392D01*
X83751101Y-59761068D01*
X83618142Y-59690000D01*
X83751101Y-59618932D01*
X83969608Y-59439608D01*
X84148932Y-59221101D01*
X84282182Y-58971808D01*
X84364236Y-58701309D01*
X84391943Y-58420000D01*
X84364236Y-58138691D01*
X84282182Y-57868192D01*
X84148932Y-57618899D01*
X83969608Y-57400392D01*
X83751101Y-57221068D01*
X83618142Y-57150000D01*
X83751101Y-57078932D01*
X83969608Y-56899608D01*
X84148932Y-56681101D01*
X84282182Y-56431808D01*
X84364236Y-56161309D01*
X84391943Y-55880000D01*
X84364236Y-55598691D01*
X84282182Y-55328192D01*
X84148932Y-55078899D01*
X83969608Y-54860392D01*
X83751101Y-54681068D01*
X83618142Y-54610000D01*
X83751101Y-54538932D01*
X83969608Y-54359608D01*
X84148932Y-54141101D01*
X84282182Y-53891808D01*
X84364236Y-53621309D01*
X84391943Y-53340000D01*
X84364236Y-53058691D01*
X84282182Y-52788192D01*
X84148932Y-52538899D01*
X83969608Y-52320392D01*
X83751101Y-52141068D01*
X83618142Y-52070000D01*
X83751101Y-51998932D01*
X83969608Y-51819608D01*
X84004637Y-51776926D01*
X84790001Y-52562290D01*
X84790000Y-69008747D01*
X84670000Y-68996928D01*
X82970000Y-68996928D01*
X82845518Y-69009188D01*
X82725820Y-69045498D01*
X82615506Y-69104463D01*
X82518815Y-69183815D01*
X82439463Y-69280506D01*
X82380498Y-69390820D01*
X82356034Y-69471466D01*
X82280269Y-69387412D01*
X82046920Y-69213359D01*
X81784099Y-69088175D01*
X81636890Y-69043524D01*
X81407000Y-69164845D01*
X81407000Y-70358000D01*
X81427000Y-70358000D01*
X81427000Y-70612000D01*
X81407000Y-70612000D01*
X81407000Y-71805155D01*
X81636890Y-71926476D01*
X81784099Y-71881825D01*
X82046920Y-71756641D01*
X82280269Y-71582588D01*
X82356034Y-71498534D01*
X82380498Y-71579180D01*
X82439463Y-71689494D01*
X82518815Y-71786185D01*
X82615506Y-71865537D01*
X82725820Y-71924502D01*
X82845518Y-71960812D01*
X82970000Y-71973072D01*
X84670000Y-71973072D01*
X84794482Y-71960812D01*
X84914180Y-71924502D01*
X85024494Y-71865537D01*
X85121185Y-71786185D01*
X85200537Y-71689494D01*
X85259502Y-71579180D01*
X85295812Y-71459482D01*
X85299542Y-71421614D01*
X85315932Y-71420000D01*
X85453292Y-71406471D01*
X85629540Y-71353007D01*
X85791972Y-71266186D01*
X85934344Y-71149344D01*
X85963630Y-71113659D01*
X86353660Y-70723629D01*
X86389344Y-70694344D01*
X86506186Y-70551972D01*
X86593007Y-70389540D01*
X86646471Y-70213292D01*
X86660000Y-70075932D01*
X86660000Y-70075931D01*
X86664524Y-70030001D01*
X86660000Y-69984069D01*
X86660000Y-52220935D01*
X86664524Y-52175000D01*
X86646472Y-51991708D01*
X86593007Y-51815459D01*
X86552419Y-51739524D01*
X86506186Y-51653028D01*
X86389344Y-51510656D01*
X86353659Y-51481370D01*
X85043630Y-50171341D01*
X85014344Y-50135656D01*
X84871972Y-50018814D01*
X84709540Y-49931993D01*
X84533292Y-49878529D01*
X84395932Y-49865000D01*
X84350000Y-49860476D01*
X84304068Y-49865000D01*
X84039044Y-49865000D01*
X83969608Y-49780392D01*
X83751101Y-49601068D01*
X83623259Y-49532735D01*
X83852839Y-49382601D01*
X84026136Y-49212702D01*
X85546903Y-49212702D01*
X85618486Y-49456671D01*
X85873996Y-49577571D01*
X86148184Y-49646300D01*
X86430512Y-49660217D01*
X86710130Y-49618787D01*
X86976292Y-49523603D01*
X87101514Y-49456671D01*
X87173097Y-49212702D01*
X86360000Y-48399605D01*
X85546903Y-49212702D01*
X84026136Y-49212702D01*
X84054500Y-49184895D01*
X84213715Y-48951646D01*
X84324367Y-48691818D01*
X84341904Y-48609039D01*
X84219915Y-48387000D01*
X82677000Y-48387000D01*
X82677000Y-48407000D01*
X82423000Y-48407000D01*
X82423000Y-48387000D01*
X82403000Y-48387000D01*
X82403000Y-48290512D01*
X84919783Y-48290512D01*
X84961213Y-48570130D01*
X85056397Y-48836292D01*
X85123329Y-48961514D01*
X85367298Y-49033097D01*
X86180395Y-48220000D01*
X86539605Y-48220000D01*
X87352702Y-49033097D01*
X87596671Y-48961514D01*
X87717571Y-48706004D01*
X87786300Y-48431816D01*
X87800217Y-48149488D01*
X87758787Y-47869870D01*
X87663603Y-47603708D01*
X87596671Y-47478486D01*
X87352702Y-47406903D01*
X86539605Y-48220000D01*
X86180395Y-48220000D01*
X85367298Y-47406903D01*
X85123329Y-47478486D01*
X85002429Y-47733996D01*
X84933700Y-48008184D01*
X84919783Y-48290512D01*
X82403000Y-48290512D01*
X82403000Y-48133000D01*
X82423000Y-48133000D01*
X82423000Y-48113000D01*
X82677000Y-48113000D01*
X82677000Y-48133000D01*
X84219915Y-48133000D01*
X84341904Y-47910961D01*
X84324367Y-47828182D01*
X84213715Y-47568354D01*
X84054500Y-47335105D01*
X83852839Y-47137399D01*
X83623259Y-46987265D01*
X83751101Y-46918932D01*
X83969608Y-46739608D01*
X84039044Y-46655000D01*
X85265604Y-46655000D01*
X85445241Y-46834637D01*
X85645869Y-46968692D01*
X85618486Y-46983329D01*
X85546903Y-47227298D01*
X86360000Y-48040395D01*
X87173097Y-47227298D01*
X87101514Y-46983329D01*
X87072659Y-46969676D01*
X87274759Y-46834637D01*
X87454396Y-46655000D01*
X87877711Y-46655000D01*
X88600001Y-47377291D01*
X88600000Y-54785604D01*
X88420363Y-54965241D01*
X88263320Y-55200273D01*
X88155147Y-55461426D01*
X88100000Y-55738665D01*
X88100000Y-56021335D01*
X88155147Y-56298574D01*
X88263320Y-56559727D01*
X88420363Y-56794759D01*
X88620241Y-56994637D01*
X88855273Y-57151680D01*
X89116426Y-57259853D01*
X89393665Y-57315000D01*
X89676335Y-57315000D01*
X89953574Y-57259853D01*
X90214727Y-57151680D01*
X90449759Y-56994637D01*
X90649637Y-56794759D01*
X90806680Y-56559727D01*
X90914853Y-56298574D01*
X90970000Y-56021335D01*
X90970000Y-55738665D01*
X90914853Y-55461426D01*
X90806680Y-55200273D01*
X90649637Y-54965241D01*
X90470000Y-54785604D01*
X90470000Y-47035931D01*
X90474524Y-46989999D01*
X90456471Y-46806707D01*
X90440253Y-46753243D01*
X90403007Y-46630460D01*
X90316186Y-46468028D01*
X90199344Y-46325656D01*
X90163664Y-46296374D01*
X88958630Y-45091341D01*
X88929344Y-45055656D01*
X88786972Y-44938814D01*
X88624540Y-44851993D01*
X88448292Y-44798529D01*
X88310932Y-44785000D01*
X88265000Y-44780476D01*
X88219068Y-44785000D01*
X87454396Y-44785000D01*
X87274759Y-44605363D01*
X87039727Y-44448320D01*
X86778574Y-44340147D01*
X86501335Y-44285000D01*
X86218665Y-44285000D01*
X85941426Y-44340147D01*
X85680273Y-44448320D01*
X85445241Y-44605363D01*
X85265604Y-44785000D01*
X84039044Y-44785000D01*
X83969608Y-44700392D01*
X83751101Y-44521068D01*
X83501808Y-44387818D01*
X83485000Y-44382719D01*
X83485000Y-43860931D01*
X83489524Y-43814999D01*
X83471471Y-43631707D01*
X83449286Y-43558574D01*
X83418007Y-43455460D01*
X83331186Y-43293028D01*
X83214344Y-43150656D01*
X83178665Y-43121375D01*
X82215000Y-42157711D01*
X82215000Y-39794396D01*
X82270241Y-39849637D01*
X82505273Y-40006680D01*
X82766426Y-40114853D01*
X83043665Y-40170000D01*
X83326335Y-40170000D01*
X83603574Y-40114853D01*
X83864727Y-40006680D01*
X84099759Y-39849637D01*
X84299637Y-39649759D01*
X84456680Y-39414727D01*
X84564853Y-39153574D01*
X84620000Y-38876335D01*
X84620000Y-38593665D01*
X84564853Y-38316426D01*
X84456680Y-38055273D01*
X84299637Y-37820241D01*
X84099759Y-37620363D01*
X83867241Y-37465000D01*
X84099759Y-37309637D01*
X84279396Y-37130000D01*
X86288349Y-37130000D01*
X86360013Y-37237252D01*
X86587748Y-37464987D01*
X86695001Y-37536651D01*
X86695001Y-38689068D01*
X86695000Y-41229068D01*
X86690476Y-41275000D01*
X86695000Y-41320931D01*
X86708529Y-41458291D01*
X86761993Y-41634539D01*
X86848814Y-41796971D01*
X86965656Y-41939344D01*
X87001341Y-41968630D01*
X88100000Y-43067289D01*
X88100000Y-43321335D01*
X88155147Y-43598574D01*
X88263320Y-43859727D01*
X88420363Y-44094759D01*
X88620241Y-44294637D01*
X88855273Y-44451680D01*
X89116426Y-44559853D01*
X89393665Y-44615000D01*
X89676335Y-44615000D01*
X89953574Y-44559853D01*
X90214727Y-44451680D01*
X90449759Y-44294637D01*
X90649637Y-44094759D01*
X90806680Y-43859727D01*
X90914853Y-43598574D01*
X90970000Y-43321335D01*
X90970000Y-43038665D01*
X90914853Y-42761426D01*
X90806680Y-42500273D01*
X90649637Y-42265241D01*
X90449759Y-42065363D01*
X90214727Y-41908320D01*
X89953574Y-41800147D01*
X89676335Y-41745000D01*
X89422289Y-41745000D01*
X88565000Y-40887711D01*
X88565000Y-37536651D01*
X88672252Y-37464987D01*
X88806826Y-37330413D01*
X89214192Y-37330413D01*
X89309956Y-37594814D01*
X89599571Y-37735704D01*
X89911108Y-37817384D01*
X90232595Y-37836718D01*
X90551675Y-37792961D01*
X90856088Y-37687795D01*
X91030044Y-37594814D01*
X91125808Y-37330413D01*
X90170000Y-36374605D01*
X89214192Y-37330413D01*
X88806826Y-37330413D01*
X88899987Y-37237252D01*
X88972720Y-37128400D01*
X89034587Y-37150808D01*
X89990395Y-36195000D01*
X90349605Y-36195000D01*
X91305413Y-37150808D01*
X91569814Y-37055044D01*
X91710704Y-36765429D01*
X91792384Y-36453892D01*
X91811718Y-36132405D01*
X91767961Y-35813325D01*
X91662795Y-35508912D01*
X91569814Y-35334956D01*
X91305413Y-35239192D01*
X90349605Y-36195000D01*
X89990395Y-36195000D01*
X89034587Y-35239192D01*
X88972720Y-35261600D01*
X88899987Y-35152748D01*
X88672252Y-34925013D01*
X88672233Y-34925000D01*
X88672252Y-34924987D01*
X88899987Y-34697252D01*
X88900000Y-34697233D01*
X88900013Y-34697252D01*
X89127748Y-34924987D01*
X89236600Y-34997720D01*
X89214192Y-35059587D01*
X90170000Y-36015395D01*
X91125808Y-35059587D01*
X91103400Y-34997720D01*
X91212252Y-34924987D01*
X91439987Y-34697252D01*
X91513462Y-34587288D01*
X91623292Y-34576471D01*
X91799540Y-34523007D01*
X91961972Y-34436186D01*
X92104344Y-34319344D01*
X92133630Y-34283659D01*
X93338664Y-33078626D01*
X93374344Y-33049344D01*
X93491186Y-32906972D01*
X93578007Y-32744540D01*
X93616390Y-32618007D01*
X93631471Y-32568293D01*
X93649524Y-32385001D01*
X93645000Y-32339068D01*
X93645000Y-29890931D01*
X93649524Y-29844999D01*
X93631471Y-29661707D01*
X93596068Y-29545000D01*
X93578007Y-29485460D01*
X93491186Y-29323028D01*
X93374344Y-29180656D01*
X93338665Y-29151375D01*
X92133630Y-27946341D01*
X92104344Y-27910656D01*
X91961972Y-27793814D01*
X91799540Y-27706993D01*
X91623292Y-27653529D01*
X91485932Y-27640000D01*
X91440000Y-27635476D01*
X91394068Y-27640000D01*
X90522289Y-27640000D01*
X92068660Y-26093629D01*
X92104344Y-26064344D01*
X92221186Y-25921972D01*
X92308007Y-25759540D01*
X92361471Y-25583292D01*
X92375000Y-25445932D01*
X92375000Y-25445931D01*
X92379524Y-25400000D01*
X92375000Y-25354068D01*
X92375000Y-16555924D01*
X92379523Y-16509999D01*
X92375000Y-16464074D01*
X92375000Y-16464068D01*
X92361471Y-16326708D01*
X92308007Y-16150460D01*
X92221186Y-15988028D01*
X92104344Y-15845656D01*
X92068664Y-15816374D01*
X89593630Y-13341341D01*
X89564344Y-13305656D01*
X89421972Y-13188814D01*
X89259540Y-13101993D01*
X89083292Y-13048529D01*
X88945932Y-13035000D01*
X88900000Y-13030476D01*
X88854068Y-13035000D01*
X88724396Y-13035000D01*
X88544759Y-12855363D01*
X88309727Y-12698320D01*
X88048574Y-12590147D01*
X87771335Y-12535000D01*
X87488665Y-12535000D01*
X87211426Y-12590147D01*
X86950273Y-12698320D01*
X86715241Y-12855363D01*
X86515363Y-13055241D01*
X86360000Y-13287759D01*
X86204637Y-13055241D01*
X86004759Y-12855363D01*
X85769727Y-12698320D01*
X85508574Y-12590147D01*
X85231335Y-12535000D01*
X84948665Y-12535000D01*
X84671426Y-12590147D01*
X84410273Y-12698320D01*
X84175241Y-12855363D01*
X83975363Y-13055241D01*
X83820000Y-13287759D01*
X83664637Y-13055241D01*
X83464759Y-12855363D01*
X83229727Y-12698320D01*
X82968574Y-12590147D01*
X82691335Y-12535000D01*
X82408665Y-12535000D01*
X82131426Y-12590147D01*
X81870273Y-12698320D01*
X81635241Y-12855363D01*
X81435363Y-13055241D01*
X81280000Y-13287759D01*
X81124637Y-13055241D01*
X80924759Y-12855363D01*
X80689727Y-12698320D01*
X80428574Y-12590147D01*
X80151335Y-12535000D01*
X79868665Y-12535000D01*
X79591426Y-12590147D01*
X79330273Y-12698320D01*
X79095241Y-12855363D01*
X78895363Y-13055241D01*
X78740000Y-13287759D01*
X78584637Y-13055241D01*
X78384759Y-12855363D01*
X78149727Y-12698320D01*
X77888574Y-12590147D01*
X77611335Y-12535000D01*
X77328665Y-12535000D01*
X77051426Y-12590147D01*
X76790273Y-12698320D01*
X76555241Y-12855363D01*
X76355363Y-13055241D01*
X76200000Y-13287759D01*
X76044637Y-13055241D01*
X75844759Y-12855363D01*
X75609727Y-12698320D01*
X75348574Y-12590147D01*
X75071335Y-12535000D01*
X74788665Y-12535000D01*
X74511426Y-12590147D01*
X74250273Y-12698320D01*
X74015241Y-12855363D01*
X73815363Y-13055241D01*
X73660000Y-13287759D01*
X73504637Y-13055241D01*
X73304759Y-12855363D01*
X73069727Y-12698320D01*
X72808574Y-12590147D01*
X72531335Y-12535000D01*
X72248665Y-12535000D01*
X71971426Y-12590147D01*
X71710273Y-12698320D01*
X71475241Y-12855363D01*
X71275363Y-13055241D01*
X71120000Y-13287759D01*
X70964637Y-13055241D01*
X70764759Y-12855363D01*
X70529727Y-12698320D01*
X70268574Y-12590147D01*
X69991335Y-12535000D01*
X69708665Y-12535000D01*
X69431426Y-12590147D01*
X69170273Y-12698320D01*
X68935241Y-12855363D01*
X68736643Y-13053961D01*
X68735812Y-13045518D01*
X68699502Y-12925820D01*
X68640537Y-12815506D01*
X68561185Y-12718815D01*
X68464494Y-12639463D01*
X68354180Y-12580498D01*
X68234482Y-12544188D01*
X68110000Y-12531928D01*
X66510000Y-12531928D01*
X66385518Y-12544188D01*
X66265820Y-12580498D01*
X66155506Y-12639463D01*
X66058815Y-12718815D01*
X65979463Y-12815506D01*
X65920498Y-12925820D01*
X65884188Y-13045518D01*
X65871928Y-13170000D01*
X65871928Y-14770000D01*
X65884188Y-14894482D01*
X65920498Y-15014180D01*
X65979463Y-15124494D01*
X66058815Y-15221185D01*
X66155506Y-15300537D01*
X66265820Y-15359502D01*
X66375000Y-15392621D01*
X66375001Y-23976316D01*
X66287886Y-23889201D01*
X66061043Y-23737629D01*
X65808989Y-23633225D01*
X65541411Y-23580000D01*
X65268589Y-23580000D01*
X65001011Y-23633225D01*
X64748957Y-23737629D01*
X64522114Y-23889201D01*
X64381315Y-24030000D01*
X62000396Y-24030000D01*
X61874759Y-23904363D01*
X61639727Y-23747320D01*
X61378574Y-23639147D01*
X61101335Y-23584000D01*
X60818665Y-23584000D01*
X60541426Y-23639147D01*
X60280273Y-23747320D01*
X60045241Y-23904363D01*
X59845363Y-24104241D01*
X59711308Y-24304869D01*
X59696671Y-24277486D01*
X59452702Y-24205903D01*
X58639605Y-25019000D01*
X59452702Y-25832097D01*
X59696671Y-25760514D01*
X59710324Y-25731659D01*
X59845363Y-25933759D01*
X60045241Y-26133637D01*
X60280273Y-26290680D01*
X60541426Y-26398853D01*
X60818665Y-26454000D01*
X61101335Y-26454000D01*
X61378574Y-26398853D01*
X61639727Y-26290680D01*
X61874759Y-26133637D01*
X62074637Y-25933759D01*
X62097194Y-25900000D01*
X64381315Y-25900000D01*
X64522114Y-26040799D01*
X64748957Y-26192371D01*
X64964266Y-26281555D01*
X67592711Y-28910000D01*
X66428685Y-28910000D01*
X66287886Y-28769201D01*
X66061043Y-28617629D01*
X65808989Y-28513225D01*
X65541411Y-28460000D01*
X65268589Y-28460000D01*
X65001011Y-28513225D01*
X64748957Y-28617629D01*
X64522114Y-28769201D01*
X64381315Y-28910000D01*
X62054396Y-28910000D01*
X61874759Y-28730363D01*
X61639727Y-28573320D01*
X61378574Y-28465147D01*
X61101335Y-28410000D01*
X60818665Y-28410000D01*
X60541426Y-28465147D01*
X60280273Y-28573320D01*
X60045241Y-28730363D01*
X59845363Y-28930241D01*
X59711308Y-29130869D01*
X59696671Y-29103486D01*
X59452702Y-29031903D01*
X58639605Y-29845000D01*
X59452702Y-30658097D01*
X59696671Y-30586514D01*
X59710324Y-30557659D01*
X59845363Y-30759759D01*
X60045241Y-30959637D01*
X60280273Y-31116680D01*
X60541426Y-31224853D01*
X60818665Y-31280000D01*
X61101335Y-31280000D01*
X61378574Y-31224853D01*
X61639727Y-31116680D01*
X61874759Y-30959637D01*
X62054396Y-30780000D01*
X64381315Y-30780000D01*
X64522114Y-30920799D01*
X64748957Y-31072371D01*
X65001011Y-31176775D01*
X65268589Y-31230000D01*
X65541411Y-31230000D01*
X65808989Y-31176775D01*
X66061043Y-31072371D01*
X66287886Y-30920799D01*
X66428685Y-30780000D01*
X72430375Y-30780000D01*
X72426928Y-30815000D01*
X72426928Y-31415000D01*
X72430375Y-31450000D01*
X57537290Y-31450000D01*
X56924992Y-30837702D01*
X57646903Y-30837702D01*
X57718486Y-31081671D01*
X57973996Y-31202571D01*
X58248184Y-31271300D01*
X58530512Y-31285217D01*
X58810130Y-31243787D01*
X59076292Y-31148603D01*
X59201514Y-31081671D01*
X59273097Y-30837702D01*
X58460000Y-30024605D01*
X57646903Y-30837702D01*
X56924992Y-30837702D01*
X56002802Y-29915512D01*
X57019783Y-29915512D01*
X57061213Y-30195130D01*
X57156397Y-30461292D01*
X57223329Y-30586514D01*
X57467298Y-30658097D01*
X58280395Y-29845000D01*
X57467298Y-29031903D01*
X57223329Y-29103486D01*
X57102429Y-29358996D01*
X57033700Y-29633184D01*
X57019783Y-29915512D01*
X56002802Y-29915512D01*
X55303630Y-29216341D01*
X55274344Y-29180656D01*
X55131972Y-29063814D01*
X54969540Y-28976993D01*
X54793292Y-28923529D01*
X54655932Y-28910000D01*
X54610000Y-28905476D01*
X54564068Y-28910000D01*
X53164396Y-28910000D01*
X53106694Y-28852298D01*
X57646903Y-28852298D01*
X58460000Y-29665395D01*
X59273097Y-28852298D01*
X59201514Y-28608329D01*
X58946004Y-28487429D01*
X58671816Y-28418700D01*
X58389488Y-28404783D01*
X58109870Y-28446213D01*
X57843708Y-28541397D01*
X57718486Y-28608329D01*
X57646903Y-28852298D01*
X53106694Y-28852298D01*
X52984759Y-28730363D01*
X52749727Y-28573320D01*
X52488574Y-28465147D01*
X52211335Y-28410000D01*
X51928665Y-28410000D01*
X51651426Y-28465147D01*
X51390273Y-28573320D01*
X51155241Y-28730363D01*
X50975604Y-28910000D01*
X39194396Y-28910000D01*
X39014759Y-28730363D01*
X38779727Y-28573320D01*
X38518574Y-28465147D01*
X38241335Y-28410000D01*
X37958665Y-28410000D01*
X37681426Y-28465147D01*
X37420273Y-28573320D01*
X37185241Y-28730363D01*
X36985363Y-28930241D01*
X36828320Y-29165273D01*
X36720147Y-29426426D01*
X36665000Y-29703665D01*
X36665000Y-29986335D01*
X36720147Y-30263574D01*
X36828320Y-30524727D01*
X36985363Y-30759759D01*
X37185241Y-30959637D01*
X37420273Y-31116680D01*
X37681426Y-31224853D01*
X37958665Y-31280000D01*
X38241335Y-31280000D01*
X38518574Y-31224853D01*
X38779727Y-31116680D01*
X39014759Y-30959637D01*
X39194396Y-30780000D01*
X50975604Y-30780000D01*
X51155241Y-30959637D01*
X51390273Y-31116680D01*
X51651426Y-31224853D01*
X51928665Y-31280000D01*
X52211335Y-31280000D01*
X52488574Y-31224853D01*
X52749727Y-31116680D01*
X52984759Y-30959637D01*
X53164396Y-30780000D01*
X54222711Y-30780000D01*
X56456374Y-33013664D01*
X56485656Y-33049344D01*
X56628028Y-33166186D01*
X56790460Y-33253007D01*
X56913243Y-33290253D01*
X56966707Y-33306471D01*
X56985110Y-33308283D01*
X57104068Y-33320000D01*
X57104074Y-33320000D01*
X57149999Y-33324523D01*
X57195924Y-33320000D01*
X72430375Y-33320000D01*
X72426928Y-33355000D01*
X72426928Y-33955000D01*
X72439188Y-34079482D01*
X72475498Y-34199180D01*
X72534463Y-34309494D01*
X72613815Y-34406185D01*
X72710506Y-34485537D01*
X72820820Y-34544502D01*
X72940518Y-34580812D01*
X73065000Y-34593072D01*
X73105001Y-34593072D01*
X73105001Y-35259058D01*
X73100476Y-35305000D01*
X73118529Y-35488291D01*
X73160459Y-35626514D01*
X73171994Y-35664540D01*
X73258815Y-35826972D01*
X73375657Y-35969344D01*
X73411336Y-35998625D01*
X73495000Y-36082289D01*
X73495000Y-36336335D01*
X73550147Y-36613574D01*
X73658320Y-36874727D01*
X73815363Y-37109759D01*
X74015241Y-37309637D01*
X74247759Y-37465000D01*
X74015241Y-37620363D01*
X73835604Y-37800000D01*
X73444396Y-37800000D01*
X73325000Y-37680604D01*
X73325000Y-36240935D01*
X73329524Y-36195000D01*
X73311472Y-36011708D01*
X73258007Y-35835459D01*
X73226453Y-35776426D01*
X73171186Y-35673028D01*
X73054344Y-35530656D01*
X73018660Y-35501371D01*
X72448630Y-34931341D01*
X72419344Y-34895656D01*
X72276972Y-34778814D01*
X72114540Y-34691993D01*
X71938292Y-34638529D01*
X71800932Y-34625000D01*
X71755000Y-34620476D01*
X71709068Y-34625000D01*
X59735932Y-34625000D01*
X59690000Y-34620476D01*
X59644068Y-34625000D01*
X52457289Y-34625000D01*
X50858630Y-33026341D01*
X50829344Y-32990656D01*
X50686972Y-32873814D01*
X50524540Y-32786993D01*
X50348292Y-32733529D01*
X50210932Y-32720000D01*
X50165000Y-32715476D01*
X50119068Y-32720000D01*
X47977470Y-32720000D01*
X47782082Y-32481918D01*
X47530684Y-32275602D01*
X47243867Y-32122295D01*
X46932653Y-32027889D01*
X46690104Y-32004000D01*
X46026289Y-32004000D01*
X45778630Y-31756341D01*
X45749344Y-31720656D01*
X45606972Y-31603814D01*
X45444540Y-31516993D01*
X45268292Y-31463529D01*
X45130932Y-31450000D01*
X45085000Y-31445476D01*
X45039068Y-31450000D01*
X42369396Y-31450000D01*
X42189759Y-31270363D01*
X41954727Y-31113320D01*
X41693574Y-31005147D01*
X41416335Y-30950000D01*
X41133665Y-30950000D01*
X40856426Y-31005147D01*
X40595273Y-31113320D01*
X40360241Y-31270363D01*
X40180604Y-31450000D01*
X33955000Y-31450000D01*
X33955000Y-31186651D01*
X34062252Y-31114987D01*
X34289987Y-30887252D01*
X34468918Y-30619463D01*
X34592168Y-30321912D01*
X34655000Y-30006033D01*
X34655000Y-29683967D01*
X34592168Y-29368088D01*
X34468918Y-29070537D01*
X34289987Y-28802748D01*
X34062252Y-28575013D01*
X33794463Y-28396082D01*
X33496912Y-28272832D01*
X33181033Y-28210000D01*
X32858967Y-28210000D01*
X32543088Y-28272832D01*
X32245537Y-28396082D01*
X31977748Y-28575013D01*
X31750013Y-28802748D01*
X31677280Y-28911600D01*
X31615413Y-28889192D01*
X30659605Y-29845000D01*
X31615413Y-30800808D01*
X31677280Y-30778400D01*
X31750013Y-30887252D01*
X31977748Y-31114987D01*
X32085000Y-31186651D01*
X32085000Y-31795931D01*
X32085001Y-31795941D01*
X32085001Y-32339059D01*
X32080476Y-32385000D01*
X32085001Y-32430941D01*
X32085000Y-36442710D01*
X31862710Y-36665000D01*
X31279508Y-36665000D01*
X31068691Y-36685764D01*
X30798192Y-36767818D01*
X30548899Y-36901068D01*
X30330392Y-37080392D01*
X30151068Y-37298899D01*
X30017818Y-37548192D01*
X29935764Y-37818691D01*
X29908057Y-38100000D01*
X29337000Y-38100000D01*
X29337000Y-31024558D01*
X29408525Y-31096083D01*
X29524193Y-30980415D01*
X29619956Y-31244814D01*
X29909571Y-31385704D01*
X30221108Y-31467384D01*
X30542595Y-31486718D01*
X30861675Y-31442961D01*
X31166088Y-31337795D01*
X31340044Y-31244814D01*
X31435808Y-30980413D01*
X30480000Y-30024605D01*
X30465858Y-30038748D01*
X30286253Y-29859143D01*
X30300395Y-29845000D01*
X30286253Y-29830858D01*
X30465858Y-29651253D01*
X30480000Y-29665395D01*
X31435808Y-28709587D01*
X31340044Y-28445186D01*
X31050429Y-28304296D01*
X30738892Y-28222616D01*
X30417405Y-28203282D01*
X30098325Y-28247039D01*
X29793912Y-28352205D01*
X29619956Y-28445186D01*
X29524193Y-28709585D01*
X29408525Y-28593917D01*
X29337000Y-28665442D01*
X29337000Y-26011702D01*
X57646903Y-26011702D01*
X57718486Y-26255671D01*
X57973996Y-26376571D01*
X58248184Y-26445300D01*
X58530512Y-26459217D01*
X58810130Y-26417787D01*
X59076292Y-26322603D01*
X59201514Y-26255671D01*
X59273097Y-26011702D01*
X58460000Y-25198605D01*
X57646903Y-26011702D01*
X29337000Y-26011702D01*
X29337000Y-710000D01*
X34850000Y-710000D01*
X34850001Y-18380113D01*
G37*
G04 #@! TD.AperFunction*
M02*
