G04 #@! TF.GenerationSoftware,KiCad,Pcbnew,(5.1.8)-1*
G04 #@! TF.CreationDate,2021-02-06T21:19:27+01:00*
G04 #@! TF.ProjectId,DMX2PMX,444d5832-504d-4582-9e6b-696361645f70,rev?*
G04 #@! TF.SameCoordinates,PX21e9a40PY3c8eee0*
G04 #@! TF.FileFunction,Legend,Top*
G04 #@! TF.FilePolarity,Positive*
%FSLAX46Y46*%
G04 Gerber Fmt 4.6, Leading zero omitted, Abs format (unit mm)*
G04 Created by KiCad (PCBNEW (5.1.8)-1) date 2021-02-06 21:19:27*
%MOMM*%
%LPD*%
G01*
G04 APERTURE LIST*
%ADD10C,0.150000*%
%ADD11C,0.300000*%
%ADD12C,0.120000*%
G04 APERTURE END LIST*
D10*
X88644571Y-1833619D02*
X89216000Y-1833619D01*
X88930285Y-1833619D02*
X88930285Y-2833619D01*
X89025523Y-2690761D01*
X89120761Y-2595523D01*
X89216000Y-2547904D01*
X86739809Y-2738380D02*
X86692190Y-2786000D01*
X86596952Y-2833619D01*
X86358857Y-2833619D01*
X86263619Y-2786000D01*
X86216000Y-2738380D01*
X86168380Y-2643142D01*
X86168380Y-2547904D01*
X86216000Y-2405047D01*
X86787428Y-1833619D01*
X86168380Y-1833619D01*
X83787428Y-2500285D02*
X83787428Y-1833619D01*
X84025523Y-2881238D02*
X84263619Y-2166952D01*
X83644571Y-2166952D01*
X81596952Y-2405047D02*
X81692190Y-2452666D01*
X81739809Y-2500285D01*
X81787428Y-2595523D01*
X81787428Y-2643142D01*
X81739809Y-2738380D01*
X81692190Y-2786000D01*
X81596952Y-2833619D01*
X81406476Y-2833619D01*
X81311238Y-2786000D01*
X81263619Y-2738380D01*
X81216000Y-2643142D01*
X81216000Y-2595523D01*
X81263619Y-2500285D01*
X81311238Y-2452666D01*
X81406476Y-2405047D01*
X81596952Y-2405047D01*
X81692190Y-2357428D01*
X81739809Y-2309809D01*
X81787428Y-2214571D01*
X81787428Y-2024095D01*
X81739809Y-1928857D01*
X81692190Y-1881238D01*
X81596952Y-1833619D01*
X81406476Y-1833619D01*
X81311238Y-1881238D01*
X81263619Y-1928857D01*
X81216000Y-2024095D01*
X81216000Y-2214571D01*
X81263619Y-2309809D01*
X81311238Y-2357428D01*
X81406476Y-2405047D01*
X78739809Y-1833619D02*
X79311238Y-1833619D01*
X79025523Y-1833619D02*
X79025523Y-2833619D01*
X79120761Y-2690761D01*
X79216000Y-2595523D01*
X79311238Y-2547904D01*
X77882666Y-2833619D02*
X78073142Y-2833619D01*
X78168380Y-2786000D01*
X78216000Y-2738380D01*
X78311238Y-2595523D01*
X78358857Y-2405047D01*
X78358857Y-2024095D01*
X78311238Y-1928857D01*
X78263619Y-1881238D01*
X78168380Y-1833619D01*
X77977904Y-1833619D01*
X77882666Y-1881238D01*
X77835047Y-1928857D01*
X77787428Y-2024095D01*
X77787428Y-2262190D01*
X77835047Y-2357428D01*
X77882666Y-2405047D01*
X77977904Y-2452666D01*
X78168380Y-2452666D01*
X78263619Y-2405047D01*
X78311238Y-2357428D01*
X78358857Y-2262190D01*
X76692190Y-2833619D02*
X76073142Y-2833619D01*
X76406476Y-2452666D01*
X76263619Y-2452666D01*
X76168380Y-2405047D01*
X76120761Y-2357428D01*
X76073142Y-2262190D01*
X76073142Y-2024095D01*
X76120761Y-1928857D01*
X76168380Y-1881238D01*
X76263619Y-1833619D01*
X76549333Y-1833619D01*
X76644571Y-1881238D01*
X76692190Y-1928857D01*
X75692190Y-2738380D02*
X75644571Y-2786000D01*
X75549333Y-2833619D01*
X75311238Y-2833619D01*
X75216000Y-2786000D01*
X75168380Y-2738380D01*
X75120761Y-2643142D01*
X75120761Y-2547904D01*
X75168380Y-2405047D01*
X75739809Y-1833619D01*
X75120761Y-1833619D01*
X73501714Y-2833619D02*
X73692190Y-2833619D01*
X73787428Y-2786000D01*
X73835047Y-2738380D01*
X73930285Y-2595523D01*
X73977904Y-2405047D01*
X73977904Y-2024095D01*
X73930285Y-1928857D01*
X73882666Y-1881238D01*
X73787428Y-1833619D01*
X73596952Y-1833619D01*
X73501714Y-1881238D01*
X73454095Y-1928857D01*
X73406476Y-2024095D01*
X73406476Y-2262190D01*
X73454095Y-2357428D01*
X73501714Y-2405047D01*
X73596952Y-2452666D01*
X73787428Y-2452666D01*
X73882666Y-2405047D01*
X73930285Y-2357428D01*
X73977904Y-2262190D01*
X72549333Y-2500285D02*
X72549333Y-1833619D01*
X72787428Y-2881238D02*
X73025523Y-2166952D01*
X72406476Y-2166952D01*
X70739809Y-1833619D02*
X71311238Y-1833619D01*
X71025523Y-1833619D02*
X71025523Y-2833619D01*
X71120761Y-2690761D01*
X71216000Y-2595523D01*
X71311238Y-2547904D01*
X70358857Y-2738380D02*
X70311238Y-2786000D01*
X70216000Y-2833619D01*
X69977904Y-2833619D01*
X69882666Y-2786000D01*
X69835047Y-2738380D01*
X69787428Y-2643142D01*
X69787428Y-2547904D01*
X69835047Y-2405047D01*
X70406476Y-1833619D01*
X69787428Y-1833619D01*
X69216000Y-2405047D02*
X69311238Y-2452666D01*
X69358857Y-2500285D01*
X69406476Y-2595523D01*
X69406476Y-2643142D01*
X69358857Y-2738380D01*
X69311238Y-2786000D01*
X69216000Y-2833619D01*
X69025523Y-2833619D01*
X68930285Y-2786000D01*
X68882666Y-2738380D01*
X68835047Y-2643142D01*
X68835047Y-2595523D01*
X68882666Y-2500285D01*
X68930285Y-2452666D01*
X69025523Y-2405047D01*
X69216000Y-2405047D01*
X69311238Y-2357428D01*
X69358857Y-2309809D01*
X69406476Y-2214571D01*
X69406476Y-2024095D01*
X69358857Y-1928857D01*
X69311238Y-1881238D01*
X69216000Y-1833619D01*
X69025523Y-1833619D01*
X68930285Y-1881238D01*
X68882666Y-1928857D01*
X68835047Y-2024095D01*
X68835047Y-2214571D01*
X68882666Y-2309809D01*
X68930285Y-2357428D01*
X69025523Y-2405047D01*
X67692190Y-2738380D02*
X67644571Y-2786000D01*
X67549333Y-2833619D01*
X67311238Y-2833619D01*
X67216000Y-2786000D01*
X67168380Y-2738380D01*
X67120761Y-2643142D01*
X67120761Y-2547904D01*
X67168380Y-2405047D01*
X67739809Y-1833619D01*
X67120761Y-1833619D01*
X66216000Y-2833619D02*
X66692190Y-2833619D01*
X66739809Y-2357428D01*
X66692190Y-2405047D01*
X66596952Y-2452666D01*
X66358857Y-2452666D01*
X66263619Y-2405047D01*
X66216000Y-2357428D01*
X66168380Y-2262190D01*
X66168380Y-2024095D01*
X66216000Y-1928857D01*
X66263619Y-1881238D01*
X66358857Y-1833619D01*
X66596952Y-1833619D01*
X66692190Y-1881238D01*
X66739809Y-1928857D01*
X65311238Y-2833619D02*
X65501714Y-2833619D01*
X65596952Y-2786000D01*
X65644571Y-2738380D01*
X65739809Y-2595523D01*
X65787428Y-2405047D01*
X65787428Y-2024095D01*
X65739809Y-1928857D01*
X65692190Y-1881238D01*
X65596952Y-1833619D01*
X65406476Y-1833619D01*
X65311238Y-1881238D01*
X65263619Y-1928857D01*
X65216000Y-2024095D01*
X65216000Y-2262190D01*
X65263619Y-2357428D01*
X65311238Y-2405047D01*
X65406476Y-2452666D01*
X65596952Y-2452666D01*
X65692190Y-2405047D01*
X65739809Y-2357428D01*
X65787428Y-2262190D01*
X9424609Y-33050171D02*
X8662704Y-33050171D01*
X6138895Y-33621600D02*
X6234133Y-33669219D01*
X6376990Y-33669219D01*
X6519847Y-33621600D01*
X6615085Y-33526361D01*
X6662704Y-33431123D01*
X6710323Y-33240647D01*
X6710323Y-33097790D01*
X6662704Y-32907314D01*
X6615085Y-32812076D01*
X6519847Y-32716838D01*
X6376990Y-32669219D01*
X6281752Y-32669219D01*
X6138895Y-32716838D01*
X6091276Y-32764457D01*
X6091276Y-33097790D01*
X6281752Y-33097790D01*
X4138895Y-33050171D02*
X3376990Y-33050171D01*
X3757942Y-32669219D02*
X3757942Y-33431123D01*
X7761123Y-26928819D02*
X7761123Y-27928819D01*
X7523028Y-27928819D01*
X7380171Y-27881200D01*
X7284933Y-27785961D01*
X7237314Y-27690723D01*
X7189695Y-27500247D01*
X7189695Y-27357390D01*
X7237314Y-27166914D01*
X7284933Y-27071676D01*
X7380171Y-26976438D01*
X7523028Y-26928819D01*
X7761123Y-26928819D01*
X6761123Y-26928819D02*
X6761123Y-27928819D01*
X6427790Y-27214533D01*
X6094457Y-27928819D01*
X6094457Y-26928819D01*
X5713504Y-27928819D02*
X5046838Y-26928819D01*
X5046838Y-27928819D02*
X5713504Y-26928819D01*
X68088095Y-68041828D02*
X68850000Y-68041828D01*
X70850000Y-68041828D02*
X71611904Y-68041828D01*
X71230952Y-68422780D02*
X71230952Y-67660876D01*
X80635695Y-68143428D02*
X81397600Y-68143428D01*
X83397600Y-68143428D02*
X84159504Y-68143428D01*
X83778552Y-68524380D02*
X83778552Y-67762476D01*
X68216685Y-73401180D02*
X68216685Y-72401180D01*
X68597638Y-72401180D01*
X68692876Y-72448800D01*
X68740495Y-72496419D01*
X68788114Y-72591657D01*
X68788114Y-72734514D01*
X68740495Y-72829752D01*
X68692876Y-72877371D01*
X68597638Y-72924990D01*
X68216685Y-72924990D01*
X69216685Y-73401180D02*
X69216685Y-72401180D01*
X69550019Y-73115466D01*
X69883352Y-72401180D01*
X69883352Y-73401180D01*
X70264304Y-72401180D02*
X70930971Y-73401180D01*
X70930971Y-72401180D02*
X70264304Y-73401180D01*
X71264304Y-72496419D02*
X71311923Y-72448800D01*
X71407161Y-72401180D01*
X71645257Y-72401180D01*
X71740495Y-72448800D01*
X71788114Y-72496419D01*
X71835733Y-72591657D01*
X71835733Y-72686895D01*
X71788114Y-72829752D01*
X71216685Y-73401180D01*
X71835733Y-73401180D01*
X81170685Y-73451980D02*
X81170685Y-72451980D01*
X81551638Y-72451980D01*
X81646876Y-72499600D01*
X81694495Y-72547219D01*
X81742114Y-72642457D01*
X81742114Y-72785314D01*
X81694495Y-72880552D01*
X81646876Y-72928171D01*
X81551638Y-72975790D01*
X81170685Y-72975790D01*
X82170685Y-73451980D02*
X82170685Y-72451980D01*
X82504019Y-73166266D01*
X82837352Y-72451980D01*
X82837352Y-73451980D01*
X83218304Y-72451980D02*
X83884971Y-73451980D01*
X83884971Y-72451980D02*
X83218304Y-73451980D01*
X84789733Y-73451980D02*
X84218304Y-73451980D01*
X84504019Y-73451980D02*
X84504019Y-72451980D01*
X84408780Y-72594838D01*
X84313542Y-72690076D01*
X84218304Y-72737695D01*
X30237180Y-67001733D02*
X30237180Y-66335066D01*
X31237180Y-66763638D01*
X30856228Y-65954114D02*
X30856228Y-65192209D01*
X31237180Y-64192209D02*
X31237180Y-64763638D01*
X31237180Y-64477923D02*
X30237180Y-64477923D01*
X30380038Y-64573161D01*
X30475276Y-64668400D01*
X30522895Y-64763638D01*
X30237180Y-63287447D02*
X30237180Y-63763638D01*
X30713371Y-63811257D01*
X30665752Y-63763638D01*
X30618133Y-63668400D01*
X30618133Y-63430304D01*
X30665752Y-63335066D01*
X30713371Y-63287447D01*
X30808609Y-63239828D01*
X31046704Y-63239828D01*
X31141942Y-63287447D01*
X31189561Y-63335066D01*
X31237180Y-63430304D01*
X31237180Y-63668400D01*
X31189561Y-63763638D01*
X31141942Y-63811257D01*
X30237180Y-62954114D02*
X31237180Y-62620780D01*
X30237180Y-62287447D01*
X13639847Y-72461428D02*
X14401752Y-72461428D01*
X18516647Y-72664628D02*
X19278552Y-72664628D01*
X18897600Y-73045580D02*
X18897600Y-72283676D01*
X18269904Y-9249919D02*
X18269904Y-10249919D01*
X18269904Y-9773728D02*
X17698476Y-9773728D01*
X17698476Y-9249919D02*
X17698476Y-10249919D01*
X17317523Y-10249919D02*
X17079428Y-9249919D01*
X16888952Y-9964204D01*
X16698476Y-9249919D01*
X16460380Y-10249919D01*
X14746095Y-9249919D02*
X15079428Y-9726109D01*
X15317523Y-9249919D02*
X15317523Y-10249919D01*
X14936571Y-10249919D01*
X14841333Y-10202300D01*
X14793714Y-10154680D01*
X14746095Y-10059442D01*
X14746095Y-9916585D01*
X14793714Y-9821347D01*
X14841333Y-9773728D01*
X14936571Y-9726109D01*
X15317523Y-9726109D01*
X14317523Y-9773728D02*
X13984190Y-9773728D01*
X13841333Y-9249919D02*
X14317523Y-9249919D01*
X14317523Y-10249919D01*
X13841333Y-10249919D01*
X13555619Y-10249919D02*
X13222285Y-9249919D01*
X12888952Y-10249919D01*
X12555619Y-9345157D02*
X12508000Y-9297538D01*
X12555619Y-9249919D01*
X12603238Y-9297538D01*
X12555619Y-9345157D01*
X12555619Y-9249919D01*
X12555619Y-9868966D02*
X12508000Y-9821347D01*
X12555619Y-9773728D01*
X12603238Y-9821347D01*
X12555619Y-9868966D01*
X12555619Y-9773728D01*
X11555619Y-9249919D02*
X12127047Y-9249919D01*
X11841333Y-9249919D02*
X11841333Y-10249919D01*
X11936571Y-10107061D01*
X12031809Y-10011823D01*
X12127047Y-9964204D01*
X11127047Y-9345157D02*
X11079428Y-9297538D01*
X11127047Y-9249919D01*
X11174666Y-9297538D01*
X11127047Y-9345157D01*
X11127047Y-9249919D01*
X10888952Y-9154680D02*
X10127047Y-9154680D01*
X10127047Y-9154680D02*
X9365142Y-9154680D01*
X18317523Y-7647538D02*
X18174666Y-7599919D01*
X17936571Y-7599919D01*
X17841333Y-7647538D01*
X17793714Y-7695157D01*
X17746095Y-7790395D01*
X17746095Y-7885633D01*
X17793714Y-7980871D01*
X17841333Y-8028490D01*
X17936571Y-8076109D01*
X18127047Y-8123728D01*
X18222285Y-8171347D01*
X18269904Y-8218966D01*
X18317523Y-8314204D01*
X18317523Y-8409442D01*
X18269904Y-8504680D01*
X18222285Y-8552300D01*
X18127047Y-8599919D01*
X17888952Y-8599919D01*
X17746095Y-8552300D01*
X17412761Y-8599919D02*
X17174666Y-7599919D01*
X16984190Y-8314204D01*
X16793714Y-7599919D01*
X16555619Y-8599919D01*
X14841333Y-7599919D02*
X15174666Y-8076109D01*
X15412761Y-7599919D02*
X15412761Y-8599919D01*
X15031809Y-8599919D01*
X14936571Y-8552300D01*
X14888952Y-8504680D01*
X14841333Y-8409442D01*
X14841333Y-8266585D01*
X14888952Y-8171347D01*
X14936571Y-8123728D01*
X15031809Y-8076109D01*
X15412761Y-8076109D01*
X14412761Y-8123728D02*
X14079428Y-8123728D01*
X13936571Y-7599919D02*
X14412761Y-7599919D01*
X14412761Y-8599919D01*
X13936571Y-8599919D01*
X13650857Y-8599919D02*
X13317523Y-7599919D01*
X12984190Y-8599919D01*
X12650857Y-7695157D02*
X12603238Y-7647538D01*
X12650857Y-7599919D01*
X12698476Y-7647538D01*
X12650857Y-7695157D01*
X12650857Y-7599919D01*
X12650857Y-8218966D02*
X12603238Y-8171347D01*
X12650857Y-8123728D01*
X12698476Y-8171347D01*
X12650857Y-8218966D01*
X12650857Y-8123728D01*
X12412761Y-7504680D02*
X11650857Y-7504680D01*
X11650857Y-7504680D02*
X10888952Y-7504680D01*
X10888952Y-7504680D02*
X10127047Y-7504680D01*
X10127047Y-7504680D02*
X9365142Y-7504680D01*
D11*
X23335000Y-17057857D02*
X23335000Y-20057857D01*
X22620714Y-20057857D01*
X22192142Y-19915000D01*
X21906428Y-19629285D01*
X21763571Y-19343571D01*
X21620714Y-18772142D01*
X21620714Y-18343571D01*
X21763571Y-17772142D01*
X21906428Y-17486428D01*
X22192142Y-17200714D01*
X22620714Y-17057857D01*
X23335000Y-17057857D01*
X20335000Y-17057857D02*
X20335000Y-20057857D01*
X19335000Y-17915000D01*
X18335000Y-20057857D01*
X18335000Y-17057857D01*
X17192142Y-20057857D02*
X15192142Y-17057857D01*
X15192142Y-20057857D02*
X17192142Y-17057857D01*
X14192142Y-19772142D02*
X14049285Y-19915000D01*
X13763571Y-20057857D01*
X13049285Y-20057857D01*
X12763571Y-19915000D01*
X12620714Y-19772142D01*
X12477857Y-19486428D01*
X12477857Y-19200714D01*
X12620714Y-18772142D01*
X14335000Y-17057857D01*
X12477857Y-17057857D01*
X11192142Y-17057857D02*
X11192142Y-20057857D01*
X10049285Y-20057857D01*
X9763571Y-19915000D01*
X9620714Y-19772142D01*
X9477857Y-19486428D01*
X9477857Y-19057857D01*
X9620714Y-18772142D01*
X9763571Y-18629285D01*
X10049285Y-18486428D01*
X11192142Y-18486428D01*
X8192142Y-17057857D02*
X8192142Y-20057857D01*
X7192142Y-17915000D01*
X6192142Y-20057857D01*
X6192142Y-17057857D01*
X5049285Y-20057857D02*
X3049285Y-17057857D01*
X3049285Y-20057857D02*
X5049285Y-17057857D01*
D12*
X60297000Y-30706000D02*
X59123000Y-30706000D01*
X60297000Y-28984000D02*
X59123000Y-28984000D01*
X60297000Y-25880000D02*
X59123000Y-25880000D01*
X60297000Y-24158000D02*
X59123000Y-24158000D01*
X64630000Y-15370000D02*
X65900000Y-15370000D01*
X64630000Y-15370000D02*
X64630000Y-12830000D01*
X64830000Y-15170000D02*
X64830000Y-5150000D01*
X64830000Y-5150000D02*
X90110000Y-5150000D01*
X90110000Y-5150000D02*
X90110000Y-15170000D01*
X90110000Y-15170000D02*
X64830000Y-15170000D01*
X66675000Y-12190000D02*
X67945000Y-12190000D01*
X67945000Y-12190000D02*
X67945000Y-8130000D01*
X67945000Y-8130000D02*
X66675000Y-8130000D01*
X66675000Y-8130000D02*
X66675000Y-12190000D01*
X66675000Y-10160000D02*
X67945000Y-10160000D01*
X69215000Y-12190000D02*
X70485000Y-12190000D01*
X70485000Y-12190000D02*
X70485000Y-8130000D01*
X70485000Y-8130000D02*
X69215000Y-8130000D01*
X69215000Y-8130000D02*
X69215000Y-12190000D01*
X69215000Y-10160000D02*
X70485000Y-10160000D01*
X71755000Y-12190000D02*
X73025000Y-12190000D01*
X73025000Y-12190000D02*
X73025000Y-8130000D01*
X73025000Y-8130000D02*
X71755000Y-8130000D01*
X71755000Y-8130000D02*
X71755000Y-12190000D01*
X71755000Y-10160000D02*
X73025000Y-10160000D01*
X74295000Y-12190000D02*
X75565000Y-12190000D01*
X75565000Y-12190000D02*
X75565000Y-8130000D01*
X75565000Y-8130000D02*
X74295000Y-8130000D01*
X74295000Y-8130000D02*
X74295000Y-12190000D01*
X74295000Y-10160000D02*
X75565000Y-10160000D01*
X76835000Y-12190000D02*
X78105000Y-12190000D01*
X78105000Y-12190000D02*
X78105000Y-8130000D01*
X78105000Y-8130000D02*
X76835000Y-8130000D01*
X76835000Y-8130000D02*
X76835000Y-12190000D01*
X76835000Y-10160000D02*
X78105000Y-10160000D01*
X79375000Y-12190000D02*
X80645000Y-12190000D01*
X80645000Y-12190000D02*
X80645000Y-8130000D01*
X80645000Y-8130000D02*
X79375000Y-8130000D01*
X79375000Y-8130000D02*
X79375000Y-12190000D01*
X79375000Y-10160000D02*
X80645000Y-10160000D01*
X81915000Y-12190000D02*
X83185000Y-12190000D01*
X83185000Y-12190000D02*
X83185000Y-8130000D01*
X83185000Y-8130000D02*
X81915000Y-8130000D01*
X81915000Y-8130000D02*
X81915000Y-12190000D01*
X81915000Y-10160000D02*
X83185000Y-10160000D01*
X84455000Y-12190000D02*
X85725000Y-12190000D01*
X85725000Y-12190000D02*
X85725000Y-8130000D01*
X85725000Y-8130000D02*
X84455000Y-8130000D01*
X84455000Y-8130000D02*
X84455000Y-12190000D01*
X84455000Y-10160000D02*
X85725000Y-10160000D01*
X86995000Y-12190000D02*
X88265000Y-12190000D01*
X88265000Y-12190000D02*
X88265000Y-8130000D01*
X88265000Y-8130000D02*
X86995000Y-8130000D01*
X86995000Y-8130000D02*
X86995000Y-12190000D01*
X86995000Y-10160000D02*
X88265000Y-10160000D01*
X62880000Y-30530000D02*
X62880000Y-24280000D01*
X67930000Y-30530000D02*
X67930000Y-24280000D01*
X67930000Y-30530000D02*
G75*
G02*
X62880000Y-30530000I-2525000J0D01*
G01*
X67930000Y-24280000D02*
G75*
G03*
X62880000Y-24280000I-2525000J0D01*
G01*
X87460000Y-29695000D02*
X91590000Y-29695000D01*
X91590000Y-29695000D02*
X91590000Y-37615000D01*
X91590000Y-37615000D02*
X86210000Y-37615000D01*
X86210000Y-37615000D02*
X86210000Y-30945000D01*
X87360000Y-29445000D02*
X85960000Y-29445000D01*
X85960000Y-29445000D02*
X85960000Y-30845000D01*
X42136000Y-33048000D02*
X42136000Y-34222000D01*
X40414000Y-33048000D02*
X40414000Y-34222000D01*
D10*
X44704000Y-31369000D02*
X48133000Y-31369000D01*
X44704000Y-41021000D02*
X48133000Y-41021000D01*
X43561000Y-30861000D02*
X43561000Y-41529000D01*
X44577000Y-34417000D02*
X43307000Y-34417000D01*
X44577000Y-37973000D02*
X43307000Y-37973000D01*
X44704000Y-41529000D02*
X44704000Y-30861000D01*
X48133000Y-30861000D02*
X48133000Y-41529000D01*
X43307000Y-41529000D02*
X48133000Y-41529000D01*
X43307000Y-30861000D02*
X48133000Y-30861000D01*
X43307000Y-30861000D02*
X43307000Y-41529000D01*
D12*
X91195000Y-44970000D02*
X87875000Y-44970000D01*
X87875000Y-44970000D02*
X87875000Y-54090000D01*
X87875000Y-54090000D02*
X91195000Y-54090000D01*
X91195000Y-54090000D02*
X91195000Y-44970000D01*
X89535000Y-44160000D02*
X89535000Y-44970000D01*
X89535000Y-54900000D02*
X89535000Y-54090000D01*
X18641000Y-41303000D02*
X18641000Y-42477000D01*
X16919000Y-41303000D02*
X16919000Y-42477000D01*
X70495000Y-48240000D02*
X65395000Y-48240000D01*
X70495000Y-48280000D02*
X65395000Y-48280000D01*
X70494000Y-48320000D02*
X65396000Y-48320000D01*
X70493000Y-48360000D02*
X65397000Y-48360000D01*
X70491000Y-48400000D02*
X65399000Y-48400000D01*
X70488000Y-48440000D02*
X65402000Y-48440000D01*
X70484000Y-48480000D02*
X65406000Y-48480000D01*
X70480000Y-48520000D02*
X68925000Y-48520000D01*
X66965000Y-48520000D02*
X65410000Y-48520000D01*
X70476000Y-48560000D02*
X68925000Y-48560000D01*
X66965000Y-48560000D02*
X65414000Y-48560000D01*
X70470000Y-48600000D02*
X68925000Y-48600000D01*
X66965000Y-48600000D02*
X65420000Y-48600000D01*
X70464000Y-48640000D02*
X68925000Y-48640000D01*
X66965000Y-48640000D02*
X65426000Y-48640000D01*
X70458000Y-48680000D02*
X68925000Y-48680000D01*
X66965000Y-48680000D02*
X65432000Y-48680000D01*
X70451000Y-48720000D02*
X68925000Y-48720000D01*
X66965000Y-48720000D02*
X65439000Y-48720000D01*
X70443000Y-48760000D02*
X68925000Y-48760000D01*
X66965000Y-48760000D02*
X65447000Y-48760000D01*
X70434000Y-48800000D02*
X68925000Y-48800000D01*
X66965000Y-48800000D02*
X65456000Y-48800000D01*
X70425000Y-48840000D02*
X68925000Y-48840000D01*
X66965000Y-48840000D02*
X65465000Y-48840000D01*
X70415000Y-48880000D02*
X68925000Y-48880000D01*
X66965000Y-48880000D02*
X65475000Y-48880000D01*
X70405000Y-48920000D02*
X68925000Y-48920000D01*
X66965000Y-48920000D02*
X65485000Y-48920000D01*
X70393000Y-48961000D02*
X68925000Y-48961000D01*
X66965000Y-48961000D02*
X65497000Y-48961000D01*
X70381000Y-49001000D02*
X68925000Y-49001000D01*
X66965000Y-49001000D02*
X65509000Y-49001000D01*
X70369000Y-49041000D02*
X68925000Y-49041000D01*
X66965000Y-49041000D02*
X65521000Y-49041000D01*
X70355000Y-49081000D02*
X68925000Y-49081000D01*
X66965000Y-49081000D02*
X65535000Y-49081000D01*
X70341000Y-49121000D02*
X68925000Y-49121000D01*
X66965000Y-49121000D02*
X65549000Y-49121000D01*
X70327000Y-49161000D02*
X68925000Y-49161000D01*
X66965000Y-49161000D02*
X65563000Y-49161000D01*
X70311000Y-49201000D02*
X68925000Y-49201000D01*
X66965000Y-49201000D02*
X65579000Y-49201000D01*
X70295000Y-49241000D02*
X68925000Y-49241000D01*
X66965000Y-49241000D02*
X65595000Y-49241000D01*
X70278000Y-49281000D02*
X68925000Y-49281000D01*
X66965000Y-49281000D02*
X65612000Y-49281000D01*
X70260000Y-49321000D02*
X68925000Y-49321000D01*
X66965000Y-49321000D02*
X65630000Y-49321000D01*
X70241000Y-49361000D02*
X68925000Y-49361000D01*
X66965000Y-49361000D02*
X65649000Y-49361000D01*
X70221000Y-49401000D02*
X68925000Y-49401000D01*
X66965000Y-49401000D02*
X65669000Y-49401000D01*
X70201000Y-49441000D02*
X68925000Y-49441000D01*
X66965000Y-49441000D02*
X65689000Y-49441000D01*
X70179000Y-49481000D02*
X68925000Y-49481000D01*
X66965000Y-49481000D02*
X65711000Y-49481000D01*
X70157000Y-49521000D02*
X68925000Y-49521000D01*
X66965000Y-49521000D02*
X65733000Y-49521000D01*
X70134000Y-49561000D02*
X68925000Y-49561000D01*
X66965000Y-49561000D02*
X65756000Y-49561000D01*
X70110000Y-49601000D02*
X68925000Y-49601000D01*
X66965000Y-49601000D02*
X65780000Y-49601000D01*
X70085000Y-49641000D02*
X68925000Y-49641000D01*
X66965000Y-49641000D02*
X65805000Y-49641000D01*
X70058000Y-49681000D02*
X68925000Y-49681000D01*
X66965000Y-49681000D02*
X65832000Y-49681000D01*
X70031000Y-49721000D02*
X68925000Y-49721000D01*
X66965000Y-49721000D02*
X65859000Y-49721000D01*
X70003000Y-49761000D02*
X68925000Y-49761000D01*
X66965000Y-49761000D02*
X65887000Y-49761000D01*
X69973000Y-49801000D02*
X68925000Y-49801000D01*
X66965000Y-49801000D02*
X65917000Y-49801000D01*
X69942000Y-49841000D02*
X68925000Y-49841000D01*
X66965000Y-49841000D02*
X65948000Y-49841000D01*
X69910000Y-49881000D02*
X68925000Y-49881000D01*
X66965000Y-49881000D02*
X65980000Y-49881000D01*
X69877000Y-49921000D02*
X68925000Y-49921000D01*
X66965000Y-49921000D02*
X66013000Y-49921000D01*
X69842000Y-49961000D02*
X68925000Y-49961000D01*
X66965000Y-49961000D02*
X66048000Y-49961000D01*
X69806000Y-50001000D02*
X68925000Y-50001000D01*
X66965000Y-50001000D02*
X66084000Y-50001000D01*
X69768000Y-50041000D02*
X68925000Y-50041000D01*
X66965000Y-50041000D02*
X66122000Y-50041000D01*
X69728000Y-50081000D02*
X68925000Y-50081000D01*
X66965000Y-50081000D02*
X66162000Y-50081000D01*
X69687000Y-50121000D02*
X68925000Y-50121000D01*
X66965000Y-50121000D02*
X66203000Y-50121000D01*
X69644000Y-50161000D02*
X68925000Y-50161000D01*
X66965000Y-50161000D02*
X66246000Y-50161000D01*
X69599000Y-50201000D02*
X68925000Y-50201000D01*
X66965000Y-50201000D02*
X66291000Y-50201000D01*
X69551000Y-50241000D02*
X68925000Y-50241000D01*
X66965000Y-50241000D02*
X66339000Y-50241000D01*
X69501000Y-50281000D02*
X68925000Y-50281000D01*
X66965000Y-50281000D02*
X66389000Y-50281000D01*
X69449000Y-50321000D02*
X68925000Y-50321000D01*
X66965000Y-50321000D02*
X66441000Y-50321000D01*
X69393000Y-50361000D02*
X68925000Y-50361000D01*
X66965000Y-50361000D02*
X66497000Y-50361000D01*
X69335000Y-50401000D02*
X68925000Y-50401000D01*
X66965000Y-50401000D02*
X66555000Y-50401000D01*
X69272000Y-50441000D02*
X68925000Y-50441000D01*
X66965000Y-50441000D02*
X66618000Y-50441000D01*
X69206000Y-50481000D02*
X66684000Y-50481000D01*
X69134000Y-50521000D02*
X66756000Y-50521000D01*
X69057000Y-50561000D02*
X66833000Y-50561000D01*
X68973000Y-50601000D02*
X66917000Y-50601000D01*
X68879000Y-50641000D02*
X67011000Y-50641000D01*
X68774000Y-50681000D02*
X67116000Y-50681000D01*
X68652000Y-50721000D02*
X67238000Y-50721000D01*
X68504000Y-50761000D02*
X67386000Y-50761000D01*
X68299000Y-50801000D02*
X67591000Y-50801000D01*
X67945000Y-44790000D02*
X67945000Y-45990000D01*
X68595000Y-45390000D02*
X67295000Y-45390000D01*
X69124723Y-50545722D02*
G75*
G03*
X69125000Y-45934420I-1179723J2305722D01*
G01*
X66765277Y-50545722D02*
G75*
G02*
X66765000Y-45934420I1179723J2305722D01*
G01*
X66765277Y-50545722D02*
G75*
G03*
X69125000Y-50545580I1179723J2305722D01*
G01*
X73251000Y-39438000D02*
X73251000Y-40612000D01*
X71529000Y-39438000D02*
X71529000Y-40612000D01*
X70495000Y-54590000D02*
X65395000Y-54590000D01*
X70495000Y-54630000D02*
X65395000Y-54630000D01*
X70494000Y-54670000D02*
X65396000Y-54670000D01*
X70493000Y-54710000D02*
X65397000Y-54710000D01*
X70491000Y-54750000D02*
X65399000Y-54750000D01*
X70488000Y-54790000D02*
X65402000Y-54790000D01*
X70484000Y-54830000D02*
X65406000Y-54830000D01*
X70480000Y-54870000D02*
X68925000Y-54870000D01*
X66965000Y-54870000D02*
X65410000Y-54870000D01*
X70476000Y-54910000D02*
X68925000Y-54910000D01*
X66965000Y-54910000D02*
X65414000Y-54910000D01*
X70470000Y-54950000D02*
X68925000Y-54950000D01*
X66965000Y-54950000D02*
X65420000Y-54950000D01*
X70464000Y-54990000D02*
X68925000Y-54990000D01*
X66965000Y-54990000D02*
X65426000Y-54990000D01*
X70458000Y-55030000D02*
X68925000Y-55030000D01*
X66965000Y-55030000D02*
X65432000Y-55030000D01*
X70451000Y-55070000D02*
X68925000Y-55070000D01*
X66965000Y-55070000D02*
X65439000Y-55070000D01*
X70443000Y-55110000D02*
X68925000Y-55110000D01*
X66965000Y-55110000D02*
X65447000Y-55110000D01*
X70434000Y-55150000D02*
X68925000Y-55150000D01*
X66965000Y-55150000D02*
X65456000Y-55150000D01*
X70425000Y-55190000D02*
X68925000Y-55190000D01*
X66965000Y-55190000D02*
X65465000Y-55190000D01*
X70415000Y-55230000D02*
X68925000Y-55230000D01*
X66965000Y-55230000D02*
X65475000Y-55230000D01*
X70405000Y-55270000D02*
X68925000Y-55270000D01*
X66965000Y-55270000D02*
X65485000Y-55270000D01*
X70393000Y-55311000D02*
X68925000Y-55311000D01*
X66965000Y-55311000D02*
X65497000Y-55311000D01*
X70381000Y-55351000D02*
X68925000Y-55351000D01*
X66965000Y-55351000D02*
X65509000Y-55351000D01*
X70369000Y-55391000D02*
X68925000Y-55391000D01*
X66965000Y-55391000D02*
X65521000Y-55391000D01*
X70355000Y-55431000D02*
X68925000Y-55431000D01*
X66965000Y-55431000D02*
X65535000Y-55431000D01*
X70341000Y-55471000D02*
X68925000Y-55471000D01*
X66965000Y-55471000D02*
X65549000Y-55471000D01*
X70327000Y-55511000D02*
X68925000Y-55511000D01*
X66965000Y-55511000D02*
X65563000Y-55511000D01*
X70311000Y-55551000D02*
X68925000Y-55551000D01*
X66965000Y-55551000D02*
X65579000Y-55551000D01*
X70295000Y-55591000D02*
X68925000Y-55591000D01*
X66965000Y-55591000D02*
X65595000Y-55591000D01*
X70278000Y-55631000D02*
X68925000Y-55631000D01*
X66965000Y-55631000D02*
X65612000Y-55631000D01*
X70260000Y-55671000D02*
X68925000Y-55671000D01*
X66965000Y-55671000D02*
X65630000Y-55671000D01*
X70241000Y-55711000D02*
X68925000Y-55711000D01*
X66965000Y-55711000D02*
X65649000Y-55711000D01*
X70221000Y-55751000D02*
X68925000Y-55751000D01*
X66965000Y-55751000D02*
X65669000Y-55751000D01*
X70201000Y-55791000D02*
X68925000Y-55791000D01*
X66965000Y-55791000D02*
X65689000Y-55791000D01*
X70179000Y-55831000D02*
X68925000Y-55831000D01*
X66965000Y-55831000D02*
X65711000Y-55831000D01*
X70157000Y-55871000D02*
X68925000Y-55871000D01*
X66965000Y-55871000D02*
X65733000Y-55871000D01*
X70134000Y-55911000D02*
X68925000Y-55911000D01*
X66965000Y-55911000D02*
X65756000Y-55911000D01*
X70110000Y-55951000D02*
X68925000Y-55951000D01*
X66965000Y-55951000D02*
X65780000Y-55951000D01*
X70085000Y-55991000D02*
X68925000Y-55991000D01*
X66965000Y-55991000D02*
X65805000Y-55991000D01*
X70058000Y-56031000D02*
X68925000Y-56031000D01*
X66965000Y-56031000D02*
X65832000Y-56031000D01*
X70031000Y-56071000D02*
X68925000Y-56071000D01*
X66965000Y-56071000D02*
X65859000Y-56071000D01*
X70003000Y-56111000D02*
X68925000Y-56111000D01*
X66965000Y-56111000D02*
X65887000Y-56111000D01*
X69973000Y-56151000D02*
X68925000Y-56151000D01*
X66965000Y-56151000D02*
X65917000Y-56151000D01*
X69942000Y-56191000D02*
X68925000Y-56191000D01*
X66965000Y-56191000D02*
X65948000Y-56191000D01*
X69910000Y-56231000D02*
X68925000Y-56231000D01*
X66965000Y-56231000D02*
X65980000Y-56231000D01*
X69877000Y-56271000D02*
X68925000Y-56271000D01*
X66965000Y-56271000D02*
X66013000Y-56271000D01*
X69842000Y-56311000D02*
X68925000Y-56311000D01*
X66965000Y-56311000D02*
X66048000Y-56311000D01*
X69806000Y-56351000D02*
X68925000Y-56351000D01*
X66965000Y-56351000D02*
X66084000Y-56351000D01*
X69768000Y-56391000D02*
X68925000Y-56391000D01*
X66965000Y-56391000D02*
X66122000Y-56391000D01*
X69728000Y-56431000D02*
X68925000Y-56431000D01*
X66965000Y-56431000D02*
X66162000Y-56431000D01*
X69687000Y-56471000D02*
X68925000Y-56471000D01*
X66965000Y-56471000D02*
X66203000Y-56471000D01*
X69644000Y-56511000D02*
X68925000Y-56511000D01*
X66965000Y-56511000D02*
X66246000Y-56511000D01*
X69599000Y-56551000D02*
X68925000Y-56551000D01*
X66965000Y-56551000D02*
X66291000Y-56551000D01*
X69551000Y-56591000D02*
X68925000Y-56591000D01*
X66965000Y-56591000D02*
X66339000Y-56591000D01*
X69501000Y-56631000D02*
X68925000Y-56631000D01*
X66965000Y-56631000D02*
X66389000Y-56631000D01*
X69449000Y-56671000D02*
X68925000Y-56671000D01*
X66965000Y-56671000D02*
X66441000Y-56671000D01*
X69393000Y-56711000D02*
X68925000Y-56711000D01*
X66965000Y-56711000D02*
X66497000Y-56711000D01*
X69335000Y-56751000D02*
X68925000Y-56751000D01*
X66965000Y-56751000D02*
X66555000Y-56751000D01*
X69272000Y-56791000D02*
X68925000Y-56791000D01*
X66965000Y-56791000D02*
X66618000Y-56791000D01*
X69206000Y-56831000D02*
X66684000Y-56831000D01*
X69134000Y-56871000D02*
X66756000Y-56871000D01*
X69057000Y-56911000D02*
X66833000Y-56911000D01*
X68973000Y-56951000D02*
X66917000Y-56951000D01*
X68879000Y-56991000D02*
X67011000Y-56991000D01*
X68774000Y-57031000D02*
X67116000Y-57031000D01*
X68652000Y-57071000D02*
X67238000Y-57071000D01*
X68504000Y-57111000D02*
X67386000Y-57111000D01*
X68299000Y-57151000D02*
X67591000Y-57151000D01*
X67945000Y-51140000D02*
X67945000Y-52340000D01*
X68595000Y-51740000D02*
X67295000Y-51740000D01*
X69124723Y-56895722D02*
G75*
G03*
X69125000Y-52284420I-1179723J2305722D01*
G01*
X66765277Y-56895722D02*
G75*
G02*
X66765000Y-52284420I1179723J2305722D01*
G01*
X66765277Y-56895722D02*
G75*
G03*
X69125000Y-56895580I1179723J2305722D01*
G01*
X65395000Y-41930000D02*
X70495000Y-41930000D01*
X65395000Y-41890000D02*
X70495000Y-41890000D01*
X65396000Y-41850000D02*
X70494000Y-41850000D01*
X65397000Y-41810000D02*
X70493000Y-41810000D01*
X65399000Y-41770000D02*
X70491000Y-41770000D01*
X65402000Y-41730000D02*
X70488000Y-41730000D01*
X65406000Y-41690000D02*
X70484000Y-41690000D01*
X65410000Y-41650000D02*
X66965000Y-41650000D01*
X68925000Y-41650000D02*
X70480000Y-41650000D01*
X65414000Y-41610000D02*
X66965000Y-41610000D01*
X68925000Y-41610000D02*
X70476000Y-41610000D01*
X65420000Y-41570000D02*
X66965000Y-41570000D01*
X68925000Y-41570000D02*
X70470000Y-41570000D01*
X65426000Y-41530000D02*
X66965000Y-41530000D01*
X68925000Y-41530000D02*
X70464000Y-41530000D01*
X65432000Y-41490000D02*
X66965000Y-41490000D01*
X68925000Y-41490000D02*
X70458000Y-41490000D01*
X65439000Y-41450000D02*
X66965000Y-41450000D01*
X68925000Y-41450000D02*
X70451000Y-41450000D01*
X65447000Y-41410000D02*
X66965000Y-41410000D01*
X68925000Y-41410000D02*
X70443000Y-41410000D01*
X65456000Y-41370000D02*
X66965000Y-41370000D01*
X68925000Y-41370000D02*
X70434000Y-41370000D01*
X65465000Y-41330000D02*
X66965000Y-41330000D01*
X68925000Y-41330000D02*
X70425000Y-41330000D01*
X65475000Y-41290000D02*
X66965000Y-41290000D01*
X68925000Y-41290000D02*
X70415000Y-41290000D01*
X65485000Y-41250000D02*
X66965000Y-41250000D01*
X68925000Y-41250000D02*
X70405000Y-41250000D01*
X65497000Y-41209000D02*
X66965000Y-41209000D01*
X68925000Y-41209000D02*
X70393000Y-41209000D01*
X65509000Y-41169000D02*
X66965000Y-41169000D01*
X68925000Y-41169000D02*
X70381000Y-41169000D01*
X65521000Y-41129000D02*
X66965000Y-41129000D01*
X68925000Y-41129000D02*
X70369000Y-41129000D01*
X65535000Y-41089000D02*
X66965000Y-41089000D01*
X68925000Y-41089000D02*
X70355000Y-41089000D01*
X65549000Y-41049000D02*
X66965000Y-41049000D01*
X68925000Y-41049000D02*
X70341000Y-41049000D01*
X65563000Y-41009000D02*
X66965000Y-41009000D01*
X68925000Y-41009000D02*
X70327000Y-41009000D01*
X65579000Y-40969000D02*
X66965000Y-40969000D01*
X68925000Y-40969000D02*
X70311000Y-40969000D01*
X65595000Y-40929000D02*
X66965000Y-40929000D01*
X68925000Y-40929000D02*
X70295000Y-40929000D01*
X65612000Y-40889000D02*
X66965000Y-40889000D01*
X68925000Y-40889000D02*
X70278000Y-40889000D01*
X65630000Y-40849000D02*
X66965000Y-40849000D01*
X68925000Y-40849000D02*
X70260000Y-40849000D01*
X65649000Y-40809000D02*
X66965000Y-40809000D01*
X68925000Y-40809000D02*
X70241000Y-40809000D01*
X65669000Y-40769000D02*
X66965000Y-40769000D01*
X68925000Y-40769000D02*
X70221000Y-40769000D01*
X65689000Y-40729000D02*
X66965000Y-40729000D01*
X68925000Y-40729000D02*
X70201000Y-40729000D01*
X65711000Y-40689000D02*
X66965000Y-40689000D01*
X68925000Y-40689000D02*
X70179000Y-40689000D01*
X65733000Y-40649000D02*
X66965000Y-40649000D01*
X68925000Y-40649000D02*
X70157000Y-40649000D01*
X65756000Y-40609000D02*
X66965000Y-40609000D01*
X68925000Y-40609000D02*
X70134000Y-40609000D01*
X65780000Y-40569000D02*
X66965000Y-40569000D01*
X68925000Y-40569000D02*
X70110000Y-40569000D01*
X65805000Y-40529000D02*
X66965000Y-40529000D01*
X68925000Y-40529000D02*
X70085000Y-40529000D01*
X65832000Y-40489000D02*
X66965000Y-40489000D01*
X68925000Y-40489000D02*
X70058000Y-40489000D01*
X65859000Y-40449000D02*
X66965000Y-40449000D01*
X68925000Y-40449000D02*
X70031000Y-40449000D01*
X65887000Y-40409000D02*
X66965000Y-40409000D01*
X68925000Y-40409000D02*
X70003000Y-40409000D01*
X65917000Y-40369000D02*
X66965000Y-40369000D01*
X68925000Y-40369000D02*
X69973000Y-40369000D01*
X65948000Y-40329000D02*
X66965000Y-40329000D01*
X68925000Y-40329000D02*
X69942000Y-40329000D01*
X65980000Y-40289000D02*
X66965000Y-40289000D01*
X68925000Y-40289000D02*
X69910000Y-40289000D01*
X66013000Y-40249000D02*
X66965000Y-40249000D01*
X68925000Y-40249000D02*
X69877000Y-40249000D01*
X66048000Y-40209000D02*
X66965000Y-40209000D01*
X68925000Y-40209000D02*
X69842000Y-40209000D01*
X66084000Y-40169000D02*
X66965000Y-40169000D01*
X68925000Y-40169000D02*
X69806000Y-40169000D01*
X66122000Y-40129000D02*
X66965000Y-40129000D01*
X68925000Y-40129000D02*
X69768000Y-40129000D01*
X66162000Y-40089000D02*
X66965000Y-40089000D01*
X68925000Y-40089000D02*
X69728000Y-40089000D01*
X66203000Y-40049000D02*
X66965000Y-40049000D01*
X68925000Y-40049000D02*
X69687000Y-40049000D01*
X66246000Y-40009000D02*
X66965000Y-40009000D01*
X68925000Y-40009000D02*
X69644000Y-40009000D01*
X66291000Y-39969000D02*
X66965000Y-39969000D01*
X68925000Y-39969000D02*
X69599000Y-39969000D01*
X66339000Y-39929000D02*
X66965000Y-39929000D01*
X68925000Y-39929000D02*
X69551000Y-39929000D01*
X66389000Y-39889000D02*
X66965000Y-39889000D01*
X68925000Y-39889000D02*
X69501000Y-39889000D01*
X66441000Y-39849000D02*
X66965000Y-39849000D01*
X68925000Y-39849000D02*
X69449000Y-39849000D01*
X66497000Y-39809000D02*
X66965000Y-39809000D01*
X68925000Y-39809000D02*
X69393000Y-39809000D01*
X66555000Y-39769000D02*
X66965000Y-39769000D01*
X68925000Y-39769000D02*
X69335000Y-39769000D01*
X66618000Y-39729000D02*
X66965000Y-39729000D01*
X68925000Y-39729000D02*
X69272000Y-39729000D01*
X66684000Y-39689000D02*
X69206000Y-39689000D01*
X66756000Y-39649000D02*
X69134000Y-39649000D01*
X66833000Y-39609000D02*
X69057000Y-39609000D01*
X66917000Y-39569000D02*
X68973000Y-39569000D01*
X67011000Y-39529000D02*
X68879000Y-39529000D01*
X67116000Y-39489000D02*
X68774000Y-39489000D01*
X67238000Y-39449000D02*
X68652000Y-39449000D01*
X67386000Y-39409000D02*
X68504000Y-39409000D01*
X67591000Y-39369000D02*
X68299000Y-39369000D01*
X67945000Y-45380000D02*
X67945000Y-44180000D01*
X67295000Y-44780000D02*
X68595000Y-44780000D01*
X66765277Y-39624278D02*
G75*
G03*
X66765000Y-44235580I1179723J-2305722D01*
G01*
X69124723Y-39624278D02*
G75*
G02*
X69125000Y-44235580I-1179723J-2305722D01*
G01*
X69124723Y-39624278D02*
G75*
G03*
X66765000Y-39624420I-1179723J-2305722D01*
G01*
X40414000Y-39342000D02*
X40414000Y-38168000D01*
X42136000Y-39342000D02*
X42136000Y-38168000D01*
X19170000Y-57290000D02*
X19170000Y-54470000D01*
X19170000Y-54470000D02*
X13850000Y-54470000D01*
X13850000Y-54470000D02*
X13850000Y-57290000D01*
X13850000Y-57290000D02*
X19170000Y-57290000D01*
X21580000Y-55880000D02*
X19170000Y-55880000D01*
X11440000Y-55880000D02*
X13850000Y-55880000D01*
X18330000Y-57290000D02*
X18330000Y-54470000D01*
X62190000Y-39370000D02*
G75*
G03*
X62190000Y-39370000I-2500000J0D01*
G01*
X61235000Y-36810000D02*
X58145000Y-36810000D01*
X59689538Y-42360000D02*
G75*
G03*
X61234830Y-36810000I462J2990000D01*
G01*
X59690462Y-42360000D02*
G75*
G02*
X58145170Y-36810000I-462J2990000D01*
G01*
X5080000Y-31810000D02*
X10220000Y-31810000D01*
X10220000Y-31810000D02*
X10220000Y-29150000D01*
X10220000Y-29150000D02*
X5080000Y-29150000D01*
X5080000Y-29150000D02*
X5080000Y-31810000D01*
X3810000Y-31810000D02*
X2480000Y-31810000D01*
X2480000Y-31810000D02*
X2480000Y-30480000D01*
X82550000Y-69155000D02*
X79950000Y-69155000D01*
X79950000Y-69155000D02*
X79950000Y-71815000D01*
X79950000Y-71815000D02*
X82550000Y-71815000D01*
X82550000Y-71815000D02*
X82550000Y-69155000D01*
X83820000Y-69155000D02*
X85150000Y-69155000D01*
X85150000Y-69155000D02*
X85150000Y-70485000D01*
X69850000Y-69155000D02*
X67250000Y-69155000D01*
X67250000Y-69155000D02*
X67250000Y-71815000D01*
X67250000Y-71815000D02*
X69850000Y-71815000D01*
X69850000Y-71815000D02*
X69850000Y-69155000D01*
X71120000Y-69155000D02*
X72450000Y-69155000D01*
X72450000Y-69155000D02*
X72450000Y-70485000D01*
X14720000Y-51190000D02*
X14720000Y-47870000D01*
X14720000Y-47870000D02*
X5600000Y-47870000D01*
X5600000Y-47870000D02*
X5600000Y-51190000D01*
X5600000Y-51190000D02*
X14720000Y-51190000D01*
X15530000Y-49530000D02*
X14720000Y-49530000D01*
X4790000Y-49530000D02*
X5600000Y-49530000D01*
X48780000Y-44695000D02*
X48780000Y-48015000D01*
X48780000Y-48015000D02*
X57900000Y-48015000D01*
X57900000Y-48015000D02*
X57900000Y-44695000D01*
X57900000Y-44695000D02*
X48780000Y-44695000D01*
X47970000Y-46355000D02*
X48780000Y-46355000D01*
X58710000Y-46355000D02*
X57900000Y-46355000D01*
X2480000Y-41640000D02*
X2480000Y-42890000D01*
X2480000Y-42890000D02*
X12760000Y-42890000D01*
X12760000Y-42890000D02*
X12760000Y-38390000D01*
X12760000Y-38390000D02*
X2480000Y-38390000D01*
X2480000Y-38390000D02*
X2480000Y-39640000D01*
X2420000Y-45890000D02*
X12820000Y-45890000D01*
X12820000Y-45890000D02*
X12820000Y-35390000D01*
X12820000Y-35390000D02*
X2420000Y-35390000D01*
X2420000Y-35390000D02*
X2420000Y-45890000D01*
X2480000Y-39640000D02*
G75*
G02*
X2480000Y-41640000I0J-1000000D01*
G01*
D11*
X35560000Y-32385000D02*
X15240000Y-32385000D01*
X15240000Y-32385000D02*
X15240000Y-24765000D01*
X15240000Y-24765000D02*
X35560000Y-24765000D01*
X35560000Y-24765000D02*
X35560000Y-32385000D01*
D12*
X77740000Y-44390000D02*
X76490000Y-44390000D01*
X76490000Y-44390000D02*
X76490000Y-64830000D01*
X76490000Y-64830000D02*
X80990000Y-64830000D01*
X80990000Y-64830000D02*
X80990000Y-44390000D01*
X80990000Y-44390000D02*
X79740000Y-44390000D01*
X73490000Y-44330000D02*
X73490000Y-64890000D01*
X73490000Y-64890000D02*
X83990000Y-64890000D01*
X83990000Y-64890000D02*
X83990000Y-44330000D01*
X83990000Y-44330000D02*
X73490000Y-44330000D01*
X79740000Y-44390000D02*
G75*
G02*
X77740000Y-44390000I-1000000J0D01*
G01*
X65395000Y-60980000D02*
X70495000Y-60980000D01*
X65395000Y-60940000D02*
X70495000Y-60940000D01*
X65396000Y-60900000D02*
X70494000Y-60900000D01*
X65397000Y-60860000D02*
X70493000Y-60860000D01*
X65399000Y-60820000D02*
X70491000Y-60820000D01*
X65402000Y-60780000D02*
X70488000Y-60780000D01*
X65406000Y-60740000D02*
X70484000Y-60740000D01*
X65410000Y-60700000D02*
X66965000Y-60700000D01*
X68925000Y-60700000D02*
X70480000Y-60700000D01*
X65414000Y-60660000D02*
X66965000Y-60660000D01*
X68925000Y-60660000D02*
X70476000Y-60660000D01*
X65420000Y-60620000D02*
X66965000Y-60620000D01*
X68925000Y-60620000D02*
X70470000Y-60620000D01*
X65426000Y-60580000D02*
X66965000Y-60580000D01*
X68925000Y-60580000D02*
X70464000Y-60580000D01*
X65432000Y-60540000D02*
X66965000Y-60540000D01*
X68925000Y-60540000D02*
X70458000Y-60540000D01*
X65439000Y-60500000D02*
X66965000Y-60500000D01*
X68925000Y-60500000D02*
X70451000Y-60500000D01*
X65447000Y-60460000D02*
X66965000Y-60460000D01*
X68925000Y-60460000D02*
X70443000Y-60460000D01*
X65456000Y-60420000D02*
X66965000Y-60420000D01*
X68925000Y-60420000D02*
X70434000Y-60420000D01*
X65465000Y-60380000D02*
X66965000Y-60380000D01*
X68925000Y-60380000D02*
X70425000Y-60380000D01*
X65475000Y-60340000D02*
X66965000Y-60340000D01*
X68925000Y-60340000D02*
X70415000Y-60340000D01*
X65485000Y-60300000D02*
X66965000Y-60300000D01*
X68925000Y-60300000D02*
X70405000Y-60300000D01*
X65497000Y-60259000D02*
X66965000Y-60259000D01*
X68925000Y-60259000D02*
X70393000Y-60259000D01*
X65509000Y-60219000D02*
X66965000Y-60219000D01*
X68925000Y-60219000D02*
X70381000Y-60219000D01*
X65521000Y-60179000D02*
X66965000Y-60179000D01*
X68925000Y-60179000D02*
X70369000Y-60179000D01*
X65535000Y-60139000D02*
X66965000Y-60139000D01*
X68925000Y-60139000D02*
X70355000Y-60139000D01*
X65549000Y-60099000D02*
X66965000Y-60099000D01*
X68925000Y-60099000D02*
X70341000Y-60099000D01*
X65563000Y-60059000D02*
X66965000Y-60059000D01*
X68925000Y-60059000D02*
X70327000Y-60059000D01*
X65579000Y-60019000D02*
X66965000Y-60019000D01*
X68925000Y-60019000D02*
X70311000Y-60019000D01*
X65595000Y-59979000D02*
X66965000Y-59979000D01*
X68925000Y-59979000D02*
X70295000Y-59979000D01*
X65612000Y-59939000D02*
X66965000Y-59939000D01*
X68925000Y-59939000D02*
X70278000Y-59939000D01*
X65630000Y-59899000D02*
X66965000Y-59899000D01*
X68925000Y-59899000D02*
X70260000Y-59899000D01*
X65649000Y-59859000D02*
X66965000Y-59859000D01*
X68925000Y-59859000D02*
X70241000Y-59859000D01*
X65669000Y-59819000D02*
X66965000Y-59819000D01*
X68925000Y-59819000D02*
X70221000Y-59819000D01*
X65689000Y-59779000D02*
X66965000Y-59779000D01*
X68925000Y-59779000D02*
X70201000Y-59779000D01*
X65711000Y-59739000D02*
X66965000Y-59739000D01*
X68925000Y-59739000D02*
X70179000Y-59739000D01*
X65733000Y-59699000D02*
X66965000Y-59699000D01*
X68925000Y-59699000D02*
X70157000Y-59699000D01*
X65756000Y-59659000D02*
X66965000Y-59659000D01*
X68925000Y-59659000D02*
X70134000Y-59659000D01*
X65780000Y-59619000D02*
X66965000Y-59619000D01*
X68925000Y-59619000D02*
X70110000Y-59619000D01*
X65805000Y-59579000D02*
X66965000Y-59579000D01*
X68925000Y-59579000D02*
X70085000Y-59579000D01*
X65832000Y-59539000D02*
X66965000Y-59539000D01*
X68925000Y-59539000D02*
X70058000Y-59539000D01*
X65859000Y-59499000D02*
X66965000Y-59499000D01*
X68925000Y-59499000D02*
X70031000Y-59499000D01*
X65887000Y-59459000D02*
X66965000Y-59459000D01*
X68925000Y-59459000D02*
X70003000Y-59459000D01*
X65917000Y-59419000D02*
X66965000Y-59419000D01*
X68925000Y-59419000D02*
X69973000Y-59419000D01*
X65948000Y-59379000D02*
X66965000Y-59379000D01*
X68925000Y-59379000D02*
X69942000Y-59379000D01*
X65980000Y-59339000D02*
X66965000Y-59339000D01*
X68925000Y-59339000D02*
X69910000Y-59339000D01*
X66013000Y-59299000D02*
X66965000Y-59299000D01*
X68925000Y-59299000D02*
X69877000Y-59299000D01*
X66048000Y-59259000D02*
X66965000Y-59259000D01*
X68925000Y-59259000D02*
X69842000Y-59259000D01*
X66084000Y-59219000D02*
X66965000Y-59219000D01*
X68925000Y-59219000D02*
X69806000Y-59219000D01*
X66122000Y-59179000D02*
X66965000Y-59179000D01*
X68925000Y-59179000D02*
X69768000Y-59179000D01*
X66162000Y-59139000D02*
X66965000Y-59139000D01*
X68925000Y-59139000D02*
X69728000Y-59139000D01*
X66203000Y-59099000D02*
X66965000Y-59099000D01*
X68925000Y-59099000D02*
X69687000Y-59099000D01*
X66246000Y-59059000D02*
X66965000Y-59059000D01*
X68925000Y-59059000D02*
X69644000Y-59059000D01*
X66291000Y-59019000D02*
X66965000Y-59019000D01*
X68925000Y-59019000D02*
X69599000Y-59019000D01*
X66339000Y-58979000D02*
X66965000Y-58979000D01*
X68925000Y-58979000D02*
X69551000Y-58979000D01*
X66389000Y-58939000D02*
X66965000Y-58939000D01*
X68925000Y-58939000D02*
X69501000Y-58939000D01*
X66441000Y-58899000D02*
X66965000Y-58899000D01*
X68925000Y-58899000D02*
X69449000Y-58899000D01*
X66497000Y-58859000D02*
X66965000Y-58859000D01*
X68925000Y-58859000D02*
X69393000Y-58859000D01*
X66555000Y-58819000D02*
X66965000Y-58819000D01*
X68925000Y-58819000D02*
X69335000Y-58819000D01*
X66618000Y-58779000D02*
X66965000Y-58779000D01*
X68925000Y-58779000D02*
X69272000Y-58779000D01*
X66684000Y-58739000D02*
X69206000Y-58739000D01*
X66756000Y-58699000D02*
X69134000Y-58699000D01*
X66833000Y-58659000D02*
X69057000Y-58659000D01*
X66917000Y-58619000D02*
X68973000Y-58619000D01*
X67011000Y-58579000D02*
X68879000Y-58579000D01*
X67116000Y-58539000D02*
X68774000Y-58539000D01*
X67238000Y-58499000D02*
X68652000Y-58499000D01*
X67386000Y-58459000D02*
X68504000Y-58459000D01*
X67591000Y-58419000D02*
X68299000Y-58419000D01*
X67945000Y-64430000D02*
X67945000Y-63230000D01*
X67295000Y-63830000D02*
X68595000Y-63830000D01*
X66765277Y-58674278D02*
G75*
G03*
X66765000Y-63285580I1179723J-2305722D01*
G01*
X69124723Y-58674278D02*
G75*
G02*
X69125000Y-63285580I-1179723J-2305722D01*
G01*
X69124723Y-58674278D02*
G75*
G03*
X66765000Y-58674420I-1179723J-2305722D01*
G01*
X85499000Y-46383000D02*
X85499000Y-47557000D01*
X87221000Y-46383000D02*
X87221000Y-47557000D01*
X13670000Y-58080000D02*
X14270000Y-58080000D01*
X13970000Y-58680000D02*
X13670000Y-58080000D01*
X14270000Y-58080000D02*
X13970000Y-58680000D01*
X18300000Y-69540000D02*
X18050000Y-71040000D01*
X19800000Y-69540000D02*
X18300000Y-69540000D01*
X20050000Y-71040000D02*
X19800000Y-69540000D01*
X18050000Y-71040000D02*
X20050000Y-71040000D01*
X13220000Y-69540000D02*
X12970000Y-71040000D01*
X14720000Y-69540000D02*
X13220000Y-69540000D01*
X14970000Y-71040000D02*
X14720000Y-69540000D01*
X12970000Y-71040000D02*
X14970000Y-71040000D01*
X23380000Y-69540000D02*
X23130000Y-71040000D01*
X24880000Y-69540000D02*
X23380000Y-69540000D01*
X25130000Y-71040000D02*
X24880000Y-69540000D01*
X23130000Y-71040000D02*
X25130000Y-71040000D01*
X8140000Y-69540000D02*
X7890000Y-71040000D01*
X9640000Y-69540000D02*
X8140000Y-69540000D01*
X9890000Y-71040000D02*
X9640000Y-69540000D01*
X7890000Y-71040000D02*
X9890000Y-71040000D01*
X26750000Y-69540000D02*
X6270000Y-69540000D01*
X26750000Y-67740000D02*
X26750000Y-69540000D01*
X6270000Y-67740000D02*
X26750000Y-67740000D01*
X6270000Y-69540000D02*
X6270000Y-67740000D01*
X26750000Y-58880000D02*
X6270000Y-58880000D01*
X26750000Y-71040000D02*
X26750000Y-58880000D01*
X6270000Y-71040000D02*
X26750000Y-71040000D01*
X6270000Y-58880000D02*
X6270000Y-71040000D01*
X52070000Y-30825000D02*
X52070000Y-31635000D01*
X52070000Y-41565000D02*
X52070000Y-40755000D01*
X50410000Y-31635000D02*
X50410000Y-40755000D01*
X53730000Y-31635000D02*
X50410000Y-31635000D01*
X53730000Y-40755000D02*
X53730000Y-31635000D01*
X50410000Y-40755000D02*
X53730000Y-40755000D01*
X33190000Y-36710000D02*
X22690000Y-36710000D01*
X33190000Y-47110000D02*
X33190000Y-36710000D01*
X22690000Y-47110000D02*
X33190000Y-47110000D01*
X22690000Y-36710000D02*
X22690000Y-47110000D01*
X30190000Y-36770000D02*
X28940000Y-36770000D01*
X30190000Y-47050000D02*
X30190000Y-36770000D01*
X25690000Y-47050000D02*
X30190000Y-47050000D01*
X25690000Y-36770000D02*
X25690000Y-47050000D01*
X26940000Y-36770000D02*
X25690000Y-36770000D01*
X28940000Y-36770000D02*
G75*
G02*
X26940000Y-36770000I-1000000J0D01*
G01*
D10*
X44862380Y-54038333D02*
X44386190Y-54371666D01*
X44862380Y-54609761D02*
X43862380Y-54609761D01*
X43862380Y-54228809D01*
X43910000Y-54133571D01*
X43957619Y-54085952D01*
X44052857Y-54038333D01*
X44195714Y-54038333D01*
X44290952Y-54085952D01*
X44338571Y-54133571D01*
X44386190Y-54228809D01*
X44386190Y-54609761D01*
X44338571Y-53609761D02*
X44338571Y-53276428D01*
X44862380Y-53133571D02*
X44862380Y-53609761D01*
X43862380Y-53609761D01*
X43862380Y-53133571D01*
X44338571Y-52371666D02*
X44338571Y-52705000D01*
X44862380Y-52705000D02*
X43862380Y-52705000D01*
X43862380Y-52228809D01*
X43862380Y-51705000D02*
X44100476Y-51705000D01*
X44005238Y-51943095D02*
X44100476Y-51705000D01*
X44005238Y-51466904D01*
X44290952Y-51847857D02*
X44100476Y-51705000D01*
X44290952Y-51562142D01*
X43862380Y-50943095D02*
X44100476Y-50943095D01*
X44005238Y-51181190D02*
X44100476Y-50943095D01*
X44005238Y-50705000D01*
X44290952Y-51085952D02*
X44100476Y-50943095D01*
X44290952Y-50800238D01*
X44862380Y-23558333D02*
X44386190Y-23891666D01*
X44862380Y-24129761D02*
X43862380Y-24129761D01*
X43862380Y-23748809D01*
X43910000Y-23653571D01*
X43957619Y-23605952D01*
X44052857Y-23558333D01*
X44195714Y-23558333D01*
X44290952Y-23605952D01*
X44338571Y-23653571D01*
X44386190Y-23748809D01*
X44386190Y-24129761D01*
X44338571Y-23129761D02*
X44338571Y-22796428D01*
X44862380Y-22653571D02*
X44862380Y-23129761D01*
X43862380Y-23129761D01*
X43862380Y-22653571D01*
X44338571Y-21891666D02*
X44338571Y-22225000D01*
X44862380Y-22225000D02*
X43862380Y-22225000D01*
X43862380Y-21748809D01*
X43862380Y-21225000D02*
X44100476Y-21225000D01*
X44005238Y-21463095D02*
X44100476Y-21225000D01*
X44005238Y-20986904D01*
X44290952Y-21367857D02*
X44100476Y-21225000D01*
X44290952Y-21082142D01*
X43862380Y-20463095D02*
X44100476Y-20463095D01*
X44005238Y-20701190D02*
X44100476Y-20463095D01*
X44005238Y-20225000D01*
X44290952Y-20605952D02*
X44100476Y-20463095D01*
X44290952Y-20320238D01*
X59543333Y-32312142D02*
X59495714Y-32359761D01*
X59352857Y-32407380D01*
X59257619Y-32407380D01*
X59114761Y-32359761D01*
X59019523Y-32264523D01*
X58971904Y-32169285D01*
X58924285Y-31978809D01*
X58924285Y-31835952D01*
X58971904Y-31645476D01*
X59019523Y-31550238D01*
X59114761Y-31455000D01*
X59257619Y-31407380D01*
X59352857Y-31407380D01*
X59495714Y-31455000D01*
X59543333Y-31502619D01*
X60495714Y-32407380D02*
X59924285Y-32407380D01*
X60210000Y-32407380D02*
X60210000Y-31407380D01*
X60114761Y-31550238D01*
X60019523Y-31645476D01*
X59924285Y-31693095D01*
X59624933Y-23064742D02*
X59577314Y-23112361D01*
X59434457Y-23159980D01*
X59339219Y-23159980D01*
X59196361Y-23112361D01*
X59101123Y-23017123D01*
X59053504Y-22921885D01*
X59005885Y-22731409D01*
X59005885Y-22588552D01*
X59053504Y-22398076D01*
X59101123Y-22302838D01*
X59196361Y-22207600D01*
X59339219Y-22159980D01*
X59434457Y-22159980D01*
X59577314Y-22207600D01*
X59624933Y-22255219D01*
X60005885Y-22255219D02*
X60053504Y-22207600D01*
X60148742Y-22159980D01*
X60386838Y-22159980D01*
X60482076Y-22207600D01*
X60529695Y-22255219D01*
X60577314Y-22350457D01*
X60577314Y-22445695D01*
X60529695Y-22588552D01*
X59958266Y-23159980D01*
X60577314Y-23159980D01*
X64234761Y-11493333D02*
X64282380Y-11350476D01*
X64282380Y-11112380D01*
X64234761Y-11017142D01*
X64187142Y-10969523D01*
X64091904Y-10921904D01*
X63996666Y-10921904D01*
X63901428Y-10969523D01*
X63853809Y-11017142D01*
X63806190Y-11112380D01*
X63758571Y-11302857D01*
X63710952Y-11398095D01*
X63663333Y-11445714D01*
X63568095Y-11493333D01*
X63472857Y-11493333D01*
X63377619Y-11445714D01*
X63330000Y-11398095D01*
X63282380Y-11302857D01*
X63282380Y-11064761D01*
X63330000Y-10921904D01*
X63282380Y-10588571D02*
X64282380Y-10350476D01*
X63568095Y-10160000D01*
X64282380Y-9969523D01*
X63282380Y-9731428D01*
X64282380Y-8826666D02*
X64282380Y-9398095D01*
X64282380Y-9112380D02*
X63282380Y-9112380D01*
X63425238Y-9207619D01*
X63520476Y-9302857D01*
X63568095Y-9398095D01*
X69064190Y-27603390D02*
X69540380Y-27603390D01*
X68540380Y-27936723D02*
X69064190Y-27603390D01*
X68540380Y-27270057D01*
X69540380Y-26412914D02*
X69540380Y-26984342D01*
X69540380Y-26698628D02*
X68540380Y-26698628D01*
X68683238Y-26793866D01*
X68778476Y-26889104D01*
X68826095Y-26984342D01*
X85717142Y-34869285D02*
X85764761Y-34916904D01*
X85812380Y-35059761D01*
X85812380Y-35155000D01*
X85764761Y-35297857D01*
X85669523Y-35393095D01*
X85574285Y-35440714D01*
X85383809Y-35488333D01*
X85240952Y-35488333D01*
X85050476Y-35440714D01*
X84955238Y-35393095D01*
X84860000Y-35297857D01*
X84812380Y-35155000D01*
X84812380Y-35059761D01*
X84860000Y-34916904D01*
X84907619Y-34869285D01*
X84812380Y-34250238D02*
X84812380Y-34059761D01*
X84860000Y-33964523D01*
X84955238Y-33869285D01*
X85145714Y-33821666D01*
X85479047Y-33821666D01*
X85669523Y-33869285D01*
X85764761Y-33964523D01*
X85812380Y-34059761D01*
X85812380Y-34250238D01*
X85764761Y-34345476D01*
X85669523Y-34440714D01*
X85479047Y-34488333D01*
X85145714Y-34488333D01*
X84955238Y-34440714D01*
X84860000Y-34345476D01*
X84812380Y-34250238D01*
X85812380Y-33393095D02*
X84812380Y-33393095D01*
X85812380Y-32821666D01*
X84812380Y-32821666D01*
X85812380Y-31821666D02*
X85812380Y-32393095D01*
X85812380Y-32107380D02*
X84812380Y-32107380D01*
X84955238Y-32202619D01*
X85050476Y-32297857D01*
X85098095Y-32393095D01*
X39422342Y-34170857D02*
X39469961Y-34218476D01*
X39517580Y-34361333D01*
X39517580Y-34456571D01*
X39469961Y-34599428D01*
X39374723Y-34694666D01*
X39279485Y-34742285D01*
X39089009Y-34789904D01*
X38946152Y-34789904D01*
X38755676Y-34742285D01*
X38660438Y-34694666D01*
X38565200Y-34599428D01*
X38517580Y-34456571D01*
X38517580Y-34361333D01*
X38565200Y-34218476D01*
X38612819Y-34170857D01*
X39517580Y-33218476D02*
X39517580Y-33789904D01*
X39517580Y-33504190D02*
X38517580Y-33504190D01*
X38660438Y-33599428D01*
X38755676Y-33694666D01*
X38803295Y-33789904D01*
X39517580Y-32266095D02*
X39517580Y-32837523D01*
X39517580Y-32551809D02*
X38517580Y-32551809D01*
X38660438Y-32647047D01*
X38755676Y-32742285D01*
X38803295Y-32837523D01*
X45618495Y-29119580D02*
X45618495Y-29929104D01*
X45666114Y-30024342D01*
X45713733Y-30071961D01*
X45808971Y-30119580D01*
X45999447Y-30119580D01*
X46094685Y-30071961D01*
X46142304Y-30024342D01*
X46189923Y-29929104D01*
X46189923Y-29119580D01*
X47094685Y-29119580D02*
X46904209Y-29119580D01*
X46808971Y-29167200D01*
X46761352Y-29214819D01*
X46666114Y-29357676D01*
X46618495Y-29548152D01*
X46618495Y-29929104D01*
X46666114Y-30024342D01*
X46713733Y-30071961D01*
X46808971Y-30119580D01*
X46999447Y-30119580D01*
X47094685Y-30071961D01*
X47142304Y-30024342D01*
X47189923Y-29929104D01*
X47189923Y-29691009D01*
X47142304Y-29595771D01*
X47094685Y-29548152D01*
X46999447Y-29500533D01*
X46808971Y-29500533D01*
X46713733Y-29548152D01*
X46666114Y-29595771D01*
X46618495Y-29691009D01*
X92647380Y-49696666D02*
X92171190Y-50030000D01*
X92647380Y-50268095D02*
X91647380Y-50268095D01*
X91647380Y-49887142D01*
X91695000Y-49791904D01*
X91742619Y-49744285D01*
X91837857Y-49696666D01*
X91980714Y-49696666D01*
X92075952Y-49744285D01*
X92123571Y-49791904D01*
X92171190Y-49887142D01*
X92171190Y-50268095D01*
X92647380Y-48744285D02*
X92647380Y-49315714D01*
X92647380Y-49030000D02*
X91647380Y-49030000D01*
X91790238Y-49125238D01*
X91885476Y-49220476D01*
X91933095Y-49315714D01*
X20247142Y-42056666D02*
X20294761Y-42104285D01*
X20342380Y-42247142D01*
X20342380Y-42342380D01*
X20294761Y-42485238D01*
X20199523Y-42580476D01*
X20104285Y-42628095D01*
X19913809Y-42675714D01*
X19770952Y-42675714D01*
X19580476Y-42628095D01*
X19485238Y-42580476D01*
X19390000Y-42485238D01*
X19342380Y-42342380D01*
X19342380Y-42247142D01*
X19390000Y-42104285D01*
X19437619Y-42056666D01*
X19675714Y-41199523D02*
X20342380Y-41199523D01*
X19294761Y-41437619D02*
X20009047Y-41675714D01*
X20009047Y-41056666D01*
X64669942Y-48426666D02*
X64717561Y-48474285D01*
X64765180Y-48617142D01*
X64765180Y-48712380D01*
X64717561Y-48855238D01*
X64622323Y-48950476D01*
X64527085Y-48998095D01*
X64336609Y-49045714D01*
X64193752Y-49045714D01*
X64003276Y-48998095D01*
X63908038Y-48950476D01*
X63812800Y-48855238D01*
X63765180Y-48712380D01*
X63765180Y-48617142D01*
X63812800Y-48474285D01*
X63860419Y-48426666D01*
X63765180Y-47521904D02*
X63765180Y-47998095D01*
X64241371Y-48045714D01*
X64193752Y-47998095D01*
X64146133Y-47902857D01*
X64146133Y-47664761D01*
X64193752Y-47569523D01*
X64241371Y-47521904D01*
X64336609Y-47474285D01*
X64574704Y-47474285D01*
X64669942Y-47521904D01*
X64717561Y-47569523D01*
X64765180Y-47664761D01*
X64765180Y-47902857D01*
X64717561Y-47998095D01*
X64669942Y-48045714D01*
X74857142Y-40191666D02*
X74904761Y-40239285D01*
X74952380Y-40382142D01*
X74952380Y-40477380D01*
X74904761Y-40620238D01*
X74809523Y-40715476D01*
X74714285Y-40763095D01*
X74523809Y-40810714D01*
X74380952Y-40810714D01*
X74190476Y-40763095D01*
X74095238Y-40715476D01*
X74000000Y-40620238D01*
X73952380Y-40477380D01*
X73952380Y-40382142D01*
X74000000Y-40239285D01*
X74047619Y-40191666D01*
X73952380Y-39334523D02*
X73952380Y-39525000D01*
X74000000Y-39620238D01*
X74047619Y-39667857D01*
X74190476Y-39763095D01*
X74380952Y-39810714D01*
X74761904Y-39810714D01*
X74857142Y-39763095D01*
X74904761Y-39715476D01*
X74952380Y-39620238D01*
X74952380Y-39429761D01*
X74904761Y-39334523D01*
X74857142Y-39286904D01*
X74761904Y-39239285D01*
X74523809Y-39239285D01*
X74428571Y-39286904D01*
X74380952Y-39334523D01*
X74333333Y-39429761D01*
X74333333Y-39620238D01*
X74380952Y-39715476D01*
X74428571Y-39763095D01*
X74523809Y-39810714D01*
X64619142Y-54725866D02*
X64666761Y-54773485D01*
X64714380Y-54916342D01*
X64714380Y-55011580D01*
X64666761Y-55154438D01*
X64571523Y-55249676D01*
X64476285Y-55297295D01*
X64285809Y-55344914D01*
X64142952Y-55344914D01*
X63952476Y-55297295D01*
X63857238Y-55249676D01*
X63762000Y-55154438D01*
X63714380Y-55011580D01*
X63714380Y-54916342D01*
X63762000Y-54773485D01*
X63809619Y-54725866D01*
X63714380Y-54392533D02*
X63714380Y-53725866D01*
X64714380Y-54154438D01*
X64492142Y-42096666D02*
X64539761Y-42144285D01*
X64587380Y-42287142D01*
X64587380Y-42382380D01*
X64539761Y-42525238D01*
X64444523Y-42620476D01*
X64349285Y-42668095D01*
X64158809Y-42715714D01*
X64015952Y-42715714D01*
X63825476Y-42668095D01*
X63730238Y-42620476D01*
X63635000Y-42525238D01*
X63587380Y-42382380D01*
X63587380Y-42287142D01*
X63635000Y-42144285D01*
X63682619Y-42096666D01*
X64015952Y-41525238D02*
X63968333Y-41620476D01*
X63920714Y-41668095D01*
X63825476Y-41715714D01*
X63777857Y-41715714D01*
X63682619Y-41668095D01*
X63635000Y-41620476D01*
X63587380Y-41525238D01*
X63587380Y-41334761D01*
X63635000Y-41239523D01*
X63682619Y-41191904D01*
X63777857Y-41144285D01*
X63825476Y-41144285D01*
X63920714Y-41191904D01*
X63968333Y-41239523D01*
X64015952Y-41334761D01*
X64015952Y-41525238D01*
X64063571Y-41620476D01*
X64111190Y-41668095D01*
X64206428Y-41715714D01*
X64396904Y-41715714D01*
X64492142Y-41668095D01*
X64539761Y-41620476D01*
X64587380Y-41525238D01*
X64587380Y-41334761D01*
X64539761Y-41239523D01*
X64492142Y-41191904D01*
X64396904Y-41144285D01*
X64206428Y-41144285D01*
X64111190Y-41191904D01*
X64063571Y-41239523D01*
X64015952Y-41334761D01*
X39522142Y-39397857D02*
X39569761Y-39445476D01*
X39617380Y-39588333D01*
X39617380Y-39683571D01*
X39569761Y-39826428D01*
X39474523Y-39921666D01*
X39379285Y-39969285D01*
X39188809Y-40016904D01*
X39045952Y-40016904D01*
X38855476Y-39969285D01*
X38760238Y-39921666D01*
X38665000Y-39826428D01*
X38617380Y-39683571D01*
X38617380Y-39588333D01*
X38665000Y-39445476D01*
X38712619Y-39397857D01*
X39617380Y-38445476D02*
X39617380Y-39016904D01*
X39617380Y-38731190D02*
X38617380Y-38731190D01*
X38760238Y-38826428D01*
X38855476Y-38921666D01*
X38903095Y-39016904D01*
X38617380Y-37826428D02*
X38617380Y-37731190D01*
X38665000Y-37635952D01*
X38712619Y-37588333D01*
X38807857Y-37540714D01*
X38998333Y-37493095D01*
X39236428Y-37493095D01*
X39426904Y-37540714D01*
X39522142Y-37588333D01*
X39569761Y-37635952D01*
X39617380Y-37731190D01*
X39617380Y-37826428D01*
X39569761Y-37921666D01*
X39522142Y-37969285D01*
X39426904Y-38016904D01*
X39236428Y-38064523D01*
X38998333Y-38064523D01*
X38807857Y-38016904D01*
X38712619Y-37969285D01*
X38665000Y-37921666D01*
X38617380Y-37826428D01*
X15873504Y-53690780D02*
X15873504Y-52690780D01*
X16111600Y-52690780D01*
X16254457Y-52738400D01*
X16349695Y-52833638D01*
X16397314Y-52928876D01*
X16444933Y-53119352D01*
X16444933Y-53262209D01*
X16397314Y-53452685D01*
X16349695Y-53547923D01*
X16254457Y-53643161D01*
X16111600Y-53690780D01*
X15873504Y-53690780D01*
X17397314Y-53690780D02*
X16825885Y-53690780D01*
X17111600Y-53690780D02*
X17111600Y-52690780D01*
X17016361Y-52833638D01*
X16921123Y-52928876D01*
X16825885Y-52976495D01*
X56027580Y-40006495D02*
X55027580Y-40006495D01*
X55027580Y-39768400D01*
X55075200Y-39625542D01*
X55170438Y-39530304D01*
X55265676Y-39482685D01*
X55456152Y-39435066D01*
X55599009Y-39435066D01*
X55789485Y-39482685D01*
X55884723Y-39530304D01*
X55979961Y-39625542D01*
X56027580Y-39768400D01*
X56027580Y-40006495D01*
X55122819Y-39054114D02*
X55075200Y-39006495D01*
X55027580Y-38911257D01*
X55027580Y-38673161D01*
X55075200Y-38577923D01*
X55122819Y-38530304D01*
X55218057Y-38482685D01*
X55313295Y-38482685D01*
X55456152Y-38530304D01*
X56027580Y-39101733D01*
X56027580Y-38482685D01*
X932380Y-30813333D02*
X1646666Y-30813333D01*
X1789523Y-30860952D01*
X1884761Y-30956190D01*
X1932380Y-31099047D01*
X1932380Y-31194285D01*
X1932380Y-29813333D02*
X1932380Y-30384761D01*
X1932380Y-30099047D02*
X932380Y-30099047D01*
X1075238Y-30194285D01*
X1170476Y-30289523D01*
X1218095Y-30384761D01*
X85602380Y-70818333D02*
X86316666Y-70818333D01*
X86459523Y-70865952D01*
X86554761Y-70961190D01*
X86602380Y-71104047D01*
X86602380Y-71199285D01*
X85602380Y-70437380D02*
X85602380Y-69818333D01*
X85983333Y-70151666D01*
X85983333Y-70008809D01*
X86030952Y-69913571D01*
X86078571Y-69865952D01*
X86173809Y-69818333D01*
X86411904Y-69818333D01*
X86507142Y-69865952D01*
X86554761Y-69913571D01*
X86602380Y-70008809D01*
X86602380Y-70294523D01*
X86554761Y-70389761D01*
X86507142Y-70437380D01*
X72902380Y-70818333D02*
X73616666Y-70818333D01*
X73759523Y-70865952D01*
X73854761Y-70961190D01*
X73902380Y-71104047D01*
X73902380Y-71199285D01*
X73235714Y-69913571D02*
X73902380Y-69913571D01*
X72854761Y-70151666D02*
X73569047Y-70389761D01*
X73569047Y-69770714D01*
X15073333Y-46832780D02*
X14740000Y-46356590D01*
X14501904Y-46832780D02*
X14501904Y-45832780D01*
X14882857Y-45832780D01*
X14978095Y-45880400D01*
X15025714Y-45928019D01*
X15073333Y-46023257D01*
X15073333Y-46166114D01*
X15025714Y-46261352D01*
X14978095Y-46308971D01*
X14882857Y-46356590D01*
X14501904Y-46356590D01*
X15454285Y-45928019D02*
X15501904Y-45880400D01*
X15597142Y-45832780D01*
X15835238Y-45832780D01*
X15930476Y-45880400D01*
X15978095Y-45928019D01*
X16025714Y-46023257D01*
X16025714Y-46118495D01*
X15978095Y-46261352D01*
X15406666Y-46832780D01*
X16025714Y-46832780D01*
X53122533Y-49779180D02*
X52789200Y-49302990D01*
X52551104Y-49779180D02*
X52551104Y-48779180D01*
X52932057Y-48779180D01*
X53027295Y-48826800D01*
X53074914Y-48874419D01*
X53122533Y-48969657D01*
X53122533Y-49112514D01*
X53074914Y-49207752D01*
X53027295Y-49255371D01*
X52932057Y-49302990D01*
X52551104Y-49302990D01*
X53979676Y-49112514D02*
X53979676Y-49779180D01*
X53741580Y-48731561D02*
X53503485Y-49445847D01*
X54122533Y-49445847D01*
X932380Y-41401904D02*
X1741904Y-41401904D01*
X1837142Y-41354285D01*
X1884761Y-41306666D01*
X1932380Y-41211428D01*
X1932380Y-41020952D01*
X1884761Y-40925714D01*
X1837142Y-40878095D01*
X1741904Y-40830476D01*
X932380Y-40830476D01*
X1932380Y-39830476D02*
X1932380Y-40401904D01*
X1932380Y-40116190D02*
X932380Y-40116190D01*
X1075238Y-40211428D01*
X1170476Y-40306666D01*
X1218095Y-40401904D01*
X24841295Y-21956780D02*
X24841295Y-22766304D01*
X24888914Y-22861542D01*
X24936533Y-22909161D01*
X25031771Y-22956780D01*
X25222247Y-22956780D01*
X25317485Y-22909161D01*
X25365104Y-22861542D01*
X25412723Y-22766304D01*
X25412723Y-21956780D01*
X26317485Y-22290114D02*
X26317485Y-22956780D01*
X26079390Y-21909161D02*
X25841295Y-22623447D01*
X26460342Y-22623447D01*
X77978095Y-42842380D02*
X77978095Y-43651904D01*
X78025714Y-43747142D01*
X78073333Y-43794761D01*
X78168571Y-43842380D01*
X78359047Y-43842380D01*
X78454285Y-43794761D01*
X78501904Y-43747142D01*
X78549523Y-43651904D01*
X78549523Y-42842380D01*
X79501904Y-42842380D02*
X79025714Y-42842380D01*
X78978095Y-43318571D01*
X79025714Y-43270952D01*
X79120952Y-43223333D01*
X79359047Y-43223333D01*
X79454285Y-43270952D01*
X79501904Y-43318571D01*
X79549523Y-43413809D01*
X79549523Y-43651904D01*
X79501904Y-43747142D01*
X79454285Y-43794761D01*
X79359047Y-43842380D01*
X79120952Y-43842380D01*
X79025714Y-43794761D01*
X78978095Y-43747142D01*
X64492142Y-61146666D02*
X64539761Y-61194285D01*
X64587380Y-61337142D01*
X64587380Y-61432380D01*
X64539761Y-61575238D01*
X64444523Y-61670476D01*
X64349285Y-61718095D01*
X64158809Y-61765714D01*
X64015952Y-61765714D01*
X63825476Y-61718095D01*
X63730238Y-61670476D01*
X63635000Y-61575238D01*
X63587380Y-61432380D01*
X63587380Y-61337142D01*
X63635000Y-61194285D01*
X63682619Y-61146666D01*
X64587380Y-60670476D02*
X64587380Y-60480000D01*
X64539761Y-60384761D01*
X64492142Y-60337142D01*
X64349285Y-60241904D01*
X64158809Y-60194285D01*
X63777857Y-60194285D01*
X63682619Y-60241904D01*
X63635000Y-60289523D01*
X63587380Y-60384761D01*
X63587380Y-60575238D01*
X63635000Y-60670476D01*
X63682619Y-60718095D01*
X63777857Y-60765714D01*
X64015952Y-60765714D01*
X64111190Y-60718095D01*
X64158809Y-60670476D01*
X64206428Y-60575238D01*
X64206428Y-60384761D01*
X64158809Y-60289523D01*
X64111190Y-60241904D01*
X64015952Y-60194285D01*
X86666342Y-43295866D02*
X86713961Y-43343485D01*
X86761580Y-43486342D01*
X86761580Y-43581580D01*
X86713961Y-43724438D01*
X86618723Y-43819676D01*
X86523485Y-43867295D01*
X86333009Y-43914914D01*
X86190152Y-43914914D01*
X85999676Y-43867295D01*
X85904438Y-43819676D01*
X85809200Y-43724438D01*
X85761580Y-43581580D01*
X85761580Y-43486342D01*
X85809200Y-43343485D01*
X85856819Y-43295866D01*
X85761580Y-42962533D02*
X85761580Y-42343485D01*
X86142533Y-42676819D01*
X86142533Y-42533961D01*
X86190152Y-42438723D01*
X86237771Y-42391104D01*
X86333009Y-42343485D01*
X86571104Y-42343485D01*
X86666342Y-42391104D01*
X86713961Y-42438723D01*
X86761580Y-42533961D01*
X86761580Y-42819676D01*
X86713961Y-42914914D01*
X86666342Y-42962533D01*
X4289466Y-62291980D02*
X4289466Y-63006266D01*
X4241847Y-63149123D01*
X4146609Y-63244361D01*
X4003752Y-63291980D01*
X3908514Y-63291980D01*
X4718038Y-62387219D02*
X4765657Y-62339600D01*
X4860895Y-62291980D01*
X5098990Y-62291980D01*
X5194228Y-62339600D01*
X5241847Y-62387219D01*
X5289466Y-62482457D01*
X5289466Y-62577695D01*
X5241847Y-62720552D01*
X4670419Y-63291980D01*
X5289466Y-63291980D01*
X55468780Y-32627866D02*
X54992590Y-32961200D01*
X55468780Y-33199295D02*
X54468780Y-33199295D01*
X54468780Y-32818342D01*
X54516400Y-32723104D01*
X54564019Y-32675485D01*
X54659257Y-32627866D01*
X54802114Y-32627866D01*
X54897352Y-32675485D01*
X54944971Y-32723104D01*
X54992590Y-32818342D01*
X54992590Y-33199295D01*
X54468780Y-32294533D02*
X54468780Y-31675485D01*
X54849733Y-32008819D01*
X54849733Y-31865961D01*
X54897352Y-31770723D01*
X54944971Y-31723104D01*
X55040209Y-31675485D01*
X55278304Y-31675485D01*
X55373542Y-31723104D01*
X55421161Y-31770723D01*
X55468780Y-31865961D01*
X55468780Y-32151676D01*
X55421161Y-32246914D01*
X55373542Y-32294533D01*
X27178095Y-35222380D02*
X27178095Y-36031904D01*
X27225714Y-36127142D01*
X27273333Y-36174761D01*
X27368571Y-36222380D01*
X27559047Y-36222380D01*
X27654285Y-36174761D01*
X27701904Y-36127142D01*
X27749523Y-36031904D01*
X27749523Y-35222380D01*
X28130476Y-35222380D02*
X28749523Y-35222380D01*
X28416190Y-35603333D01*
X28559047Y-35603333D01*
X28654285Y-35650952D01*
X28701904Y-35698571D01*
X28749523Y-35793809D01*
X28749523Y-36031904D01*
X28701904Y-36127142D01*
X28654285Y-36174761D01*
X28559047Y-36222380D01*
X28273333Y-36222380D01*
X28178095Y-36174761D01*
X28130476Y-36127142D01*
M02*
