G04 #@! TF.GenerationSoftware,KiCad,Pcbnew,(5.1.8)-1*
G04 #@! TF.CreationDate,2021-02-06T21:19:27+01:00*
G04 #@! TF.ProjectId,DMX2PMX,444d5832-504d-4582-9e6b-696361645f70,rev?*
G04 #@! TF.SameCoordinates,PX21e9a40PY3c8eee0*
G04 #@! TF.FileFunction,Soldermask,Bot*
G04 #@! TF.FilePolarity,Negative*
%FSLAX46Y46*%
G04 Gerber Fmt 4.6, Leading zero omitted, Abs format (unit mm)*
G04 Created by KiCad (PCBNEW (5.1.8)-1) date 2021-02-06 21:19:27*
%MOMM*%
%LPD*%
G01*
G04 APERTURE LIST*
%ADD10C,6.100000*%
%ADD11C,2.000000*%
%ADD12O,2.000000X2.000000*%
%ADD13C,1.900000*%
%ADD14C,2.400000*%
%ADD15O,2.940000X2.432000*%
%ADD16O,2.600000X2.600000*%
%ADD17C,2.200000*%
%ADD18O,2.100000X2.100000*%
%ADD19O,2.000000X2.800000*%
%ADD20O,2.800000X2.000000*%
%ADD21C,2.800000*%
%ADD22O,2.480000X4.000000*%
G04 APERTURE END LIST*
D10*
X48260000Y-52705000D03*
X48260000Y-22225000D03*
G36*
G01*
X72865000Y-33955000D02*
X72865000Y-33355000D01*
G75*
G02*
X73065000Y-33155000I200000J0D01*
G01*
X75015000Y-33155000D01*
G75*
G02*
X75215000Y-33355000I0J-200000D01*
G01*
X75215000Y-33955000D01*
G75*
G02*
X75015000Y-34155000I-200000J0D01*
G01*
X73065000Y-34155000D01*
G75*
G02*
X72865000Y-33955000I0J200000D01*
G01*
G37*
G36*
G01*
X72865000Y-32685000D02*
X72865000Y-32085000D01*
G75*
G02*
X73065000Y-31885000I200000J0D01*
G01*
X75015000Y-31885000D01*
G75*
G02*
X75215000Y-32085000I0J-200000D01*
G01*
X75215000Y-32685000D01*
G75*
G02*
X75015000Y-32885000I-200000J0D01*
G01*
X73065000Y-32885000D01*
G75*
G02*
X72865000Y-32685000I0J200000D01*
G01*
G37*
G36*
G01*
X72865000Y-31415000D02*
X72865000Y-30815000D01*
G75*
G02*
X73065000Y-30615000I200000J0D01*
G01*
X75015000Y-30615000D01*
G75*
G02*
X75215000Y-30815000I0J-200000D01*
G01*
X75215000Y-31415000D01*
G75*
G02*
X75015000Y-31615000I-200000J0D01*
G01*
X73065000Y-31615000D01*
G75*
G02*
X72865000Y-31415000I0J200000D01*
G01*
G37*
G36*
G01*
X72865000Y-30145000D02*
X72865000Y-29545000D01*
G75*
G02*
X73065000Y-29345000I200000J0D01*
G01*
X75015000Y-29345000D01*
G75*
G02*
X75215000Y-29545000I0J-200000D01*
G01*
X75215000Y-30145000D01*
G75*
G02*
X75015000Y-30345000I-200000J0D01*
G01*
X73065000Y-30345000D01*
G75*
G02*
X72865000Y-30145000I0J200000D01*
G01*
G37*
G36*
G01*
X72865000Y-28875000D02*
X72865000Y-28275000D01*
G75*
G02*
X73065000Y-28075000I200000J0D01*
G01*
X75015000Y-28075000D01*
G75*
G02*
X75215000Y-28275000I0J-200000D01*
G01*
X75215000Y-28875000D01*
G75*
G02*
X75015000Y-29075000I-200000J0D01*
G01*
X73065000Y-29075000D01*
G75*
G02*
X72865000Y-28875000I0J200000D01*
G01*
G37*
G36*
G01*
X72865000Y-27605000D02*
X72865000Y-27005000D01*
G75*
G02*
X73065000Y-26805000I200000J0D01*
G01*
X75015000Y-26805000D01*
G75*
G02*
X75215000Y-27005000I0J-200000D01*
G01*
X75215000Y-27605000D01*
G75*
G02*
X75015000Y-27805000I-200000J0D01*
G01*
X73065000Y-27805000D01*
G75*
G02*
X72865000Y-27605000I0J200000D01*
G01*
G37*
G36*
G01*
X72865000Y-26335000D02*
X72865000Y-25735000D01*
G75*
G02*
X73065000Y-25535000I200000J0D01*
G01*
X75015000Y-25535000D01*
G75*
G02*
X75215000Y-25735000I0J-200000D01*
G01*
X75215000Y-26335000D01*
G75*
G02*
X75015000Y-26535000I-200000J0D01*
G01*
X73065000Y-26535000D01*
G75*
G02*
X72865000Y-26335000I0J200000D01*
G01*
G37*
G36*
G01*
X72865000Y-25065000D02*
X72865000Y-24465000D01*
G75*
G02*
X73065000Y-24265000I200000J0D01*
G01*
X75015000Y-24265000D01*
G75*
G02*
X75215000Y-24465000I0J-200000D01*
G01*
X75215000Y-25065000D01*
G75*
G02*
X75015000Y-25265000I-200000J0D01*
G01*
X73065000Y-25265000D01*
G75*
G02*
X72865000Y-25065000I0J200000D01*
G01*
G37*
G36*
G01*
X72865000Y-23795000D02*
X72865000Y-23195000D01*
G75*
G02*
X73065000Y-22995000I200000J0D01*
G01*
X75015000Y-22995000D01*
G75*
G02*
X75215000Y-23195000I0J-200000D01*
G01*
X75215000Y-23795000D01*
G75*
G02*
X75015000Y-23995000I-200000J0D01*
G01*
X73065000Y-23995000D01*
G75*
G02*
X72865000Y-23795000I0J200000D01*
G01*
G37*
G36*
G01*
X72865000Y-22525000D02*
X72865000Y-21925000D01*
G75*
G02*
X73065000Y-21725000I200000J0D01*
G01*
X75015000Y-21725000D01*
G75*
G02*
X75215000Y-21925000I0J-200000D01*
G01*
X75215000Y-22525000D01*
G75*
G02*
X75015000Y-22725000I-200000J0D01*
G01*
X73065000Y-22725000D01*
G75*
G02*
X72865000Y-22525000I0J200000D01*
G01*
G37*
G36*
G01*
X82265000Y-22525000D02*
X82265000Y-21925000D01*
G75*
G02*
X82465000Y-21725000I200000J0D01*
G01*
X84415000Y-21725000D01*
G75*
G02*
X84615000Y-21925000I0J-200000D01*
G01*
X84615000Y-22525000D01*
G75*
G02*
X84415000Y-22725000I-200000J0D01*
G01*
X82465000Y-22725000D01*
G75*
G02*
X82265000Y-22525000I0J200000D01*
G01*
G37*
G36*
G01*
X82265000Y-23795000D02*
X82265000Y-23195000D01*
G75*
G02*
X82465000Y-22995000I200000J0D01*
G01*
X84415000Y-22995000D01*
G75*
G02*
X84615000Y-23195000I0J-200000D01*
G01*
X84615000Y-23795000D01*
G75*
G02*
X84415000Y-23995000I-200000J0D01*
G01*
X82465000Y-23995000D01*
G75*
G02*
X82265000Y-23795000I0J200000D01*
G01*
G37*
G36*
G01*
X82265000Y-25065000D02*
X82265000Y-24465000D01*
G75*
G02*
X82465000Y-24265000I200000J0D01*
G01*
X84415000Y-24265000D01*
G75*
G02*
X84615000Y-24465000I0J-200000D01*
G01*
X84615000Y-25065000D01*
G75*
G02*
X84415000Y-25265000I-200000J0D01*
G01*
X82465000Y-25265000D01*
G75*
G02*
X82265000Y-25065000I0J200000D01*
G01*
G37*
G36*
G01*
X82265000Y-26335000D02*
X82265000Y-25735000D01*
G75*
G02*
X82465000Y-25535000I200000J0D01*
G01*
X84415000Y-25535000D01*
G75*
G02*
X84615000Y-25735000I0J-200000D01*
G01*
X84615000Y-26335000D01*
G75*
G02*
X84415000Y-26535000I-200000J0D01*
G01*
X82465000Y-26535000D01*
G75*
G02*
X82265000Y-26335000I0J200000D01*
G01*
G37*
G36*
G01*
X82265000Y-27605000D02*
X82265000Y-27005000D01*
G75*
G02*
X82465000Y-26805000I200000J0D01*
G01*
X84415000Y-26805000D01*
G75*
G02*
X84615000Y-27005000I0J-200000D01*
G01*
X84615000Y-27605000D01*
G75*
G02*
X84415000Y-27805000I-200000J0D01*
G01*
X82465000Y-27805000D01*
G75*
G02*
X82265000Y-27605000I0J200000D01*
G01*
G37*
G36*
G01*
X82265000Y-28875000D02*
X82265000Y-28275000D01*
G75*
G02*
X82465000Y-28075000I200000J0D01*
G01*
X84415000Y-28075000D01*
G75*
G02*
X84615000Y-28275000I0J-200000D01*
G01*
X84615000Y-28875000D01*
G75*
G02*
X84415000Y-29075000I-200000J0D01*
G01*
X82465000Y-29075000D01*
G75*
G02*
X82265000Y-28875000I0J200000D01*
G01*
G37*
G36*
G01*
X82265000Y-30145000D02*
X82265000Y-29545000D01*
G75*
G02*
X82465000Y-29345000I200000J0D01*
G01*
X84415000Y-29345000D01*
G75*
G02*
X84615000Y-29545000I0J-200000D01*
G01*
X84615000Y-30145000D01*
G75*
G02*
X84415000Y-30345000I-200000J0D01*
G01*
X82465000Y-30345000D01*
G75*
G02*
X82265000Y-30145000I0J200000D01*
G01*
G37*
G36*
G01*
X82265000Y-31415000D02*
X82265000Y-30815000D01*
G75*
G02*
X82465000Y-30615000I200000J0D01*
G01*
X84415000Y-30615000D01*
G75*
G02*
X84615000Y-30815000I0J-200000D01*
G01*
X84615000Y-31415000D01*
G75*
G02*
X84415000Y-31615000I-200000J0D01*
G01*
X82465000Y-31615000D01*
G75*
G02*
X82265000Y-31415000I0J200000D01*
G01*
G37*
G36*
G01*
X82265000Y-32685000D02*
X82265000Y-32085000D01*
G75*
G02*
X82465000Y-31885000I200000J0D01*
G01*
X84415000Y-31885000D01*
G75*
G02*
X84615000Y-32085000I0J-200000D01*
G01*
X84615000Y-32685000D01*
G75*
G02*
X84415000Y-32885000I-200000J0D01*
G01*
X82465000Y-32885000D01*
G75*
G02*
X82265000Y-32685000I0J200000D01*
G01*
G37*
G36*
G01*
X82265000Y-33955000D02*
X82265000Y-33355000D01*
G75*
G02*
X82465000Y-33155000I200000J0D01*
G01*
X84415000Y-33155000D01*
G75*
G02*
X84615000Y-33355000I0J-200000D01*
G01*
X84615000Y-33955000D01*
G75*
G02*
X84415000Y-34155000I-200000J0D01*
G01*
X82465000Y-34155000D01*
G75*
G02*
X82265000Y-33955000I0J200000D01*
G01*
G37*
D11*
X60960000Y-29845000D03*
X58460000Y-29845000D03*
X60960000Y-25019000D03*
X58460000Y-25019000D03*
G36*
G01*
X68110000Y-14970000D02*
X66510000Y-14970000D01*
G75*
G02*
X66310000Y-14770000I0J200000D01*
G01*
X66310000Y-13170000D01*
G75*
G02*
X66510000Y-12970000I200000J0D01*
G01*
X68110000Y-12970000D01*
G75*
G02*
X68310000Y-13170000I0J-200000D01*
G01*
X68310000Y-14770000D01*
G75*
G02*
X68110000Y-14970000I-200000J0D01*
G01*
G37*
D12*
X87630000Y-6350000D03*
X69850000Y-13970000D03*
X85090000Y-6350000D03*
X72390000Y-13970000D03*
X82550000Y-6350000D03*
X74930000Y-13970000D03*
X80010000Y-6350000D03*
X77470000Y-13970000D03*
X77470000Y-6350000D03*
X80010000Y-13970000D03*
X74930000Y-6350000D03*
X82550000Y-13970000D03*
X72390000Y-6350000D03*
X85090000Y-13970000D03*
X69850000Y-6350000D03*
X87630000Y-13970000D03*
X67310000Y-6350000D03*
D13*
X65405000Y-29845000D03*
X65405000Y-24965000D03*
G36*
G01*
X86430000Y-32115000D02*
X86430000Y-30115000D01*
G75*
G02*
X86630000Y-29915000I200000J0D01*
G01*
X88630000Y-29915000D01*
G75*
G02*
X88830000Y-30115000I0J-200000D01*
G01*
X88830000Y-32115000D01*
G75*
G02*
X88630000Y-32315000I-200000J0D01*
G01*
X86630000Y-32315000D01*
G75*
G02*
X86430000Y-32115000I0J200000D01*
G01*
G37*
D14*
X87630000Y-33655000D03*
X87630000Y-36195000D03*
X90170000Y-31115000D03*
X90170000Y-33655000D03*
X90170000Y-36195000D03*
D11*
X41275000Y-32385000D03*
X41275000Y-34885000D03*
D15*
X46355000Y-36195000D03*
X46355000Y-33655000D03*
X46355000Y-38735000D03*
D11*
X89535000Y-43180000D03*
D12*
X89535000Y-55880000D03*
D11*
X17780000Y-40640000D03*
X17780000Y-43140000D03*
G36*
G01*
X67145000Y-45990000D02*
X68745000Y-45990000D01*
G75*
G02*
X68945000Y-46190000I0J-200000D01*
G01*
X68945000Y-47790000D01*
G75*
G02*
X68745000Y-47990000I-200000J0D01*
G01*
X67145000Y-47990000D01*
G75*
G02*
X66945000Y-47790000I0J200000D01*
G01*
X66945000Y-46190000D01*
G75*
G02*
X67145000Y-45990000I200000J0D01*
G01*
G37*
X67945000Y-49490000D03*
X72390000Y-38775000D03*
X72390000Y-41275000D03*
G36*
G01*
X67145000Y-52340000D02*
X68745000Y-52340000D01*
G75*
G02*
X68945000Y-52540000I0J-200000D01*
G01*
X68945000Y-54140000D01*
G75*
G02*
X68745000Y-54340000I-200000J0D01*
G01*
X67145000Y-54340000D01*
G75*
G02*
X66945000Y-54140000I0J200000D01*
G01*
X66945000Y-52540000D01*
G75*
G02*
X67145000Y-52340000I200000J0D01*
G01*
G37*
X67945000Y-55840000D03*
G36*
G01*
X68745000Y-44180000D02*
X67145000Y-44180000D01*
G75*
G02*
X66945000Y-43980000I0J200000D01*
G01*
X66945000Y-42380000D01*
G75*
G02*
X67145000Y-42180000I200000J0D01*
G01*
X68745000Y-42180000D01*
G75*
G02*
X68945000Y-42380000I0J-200000D01*
G01*
X68945000Y-43980000D01*
G75*
G02*
X68745000Y-44180000I-200000J0D01*
G01*
G37*
X67945000Y-40680000D03*
X41275000Y-40005000D03*
X41275000Y-37505000D03*
G36*
G01*
X24160000Y-54780000D02*
X24160000Y-56980000D01*
G75*
G02*
X23960000Y-57180000I-200000J0D01*
G01*
X21760000Y-57180000D01*
G75*
G02*
X21560000Y-56980000I0J200000D01*
G01*
X21560000Y-54780000D01*
G75*
G02*
X21760000Y-54580000I200000J0D01*
G01*
X23960000Y-54580000D01*
G75*
G02*
X24160000Y-54780000I0J-200000D01*
G01*
G37*
D16*
X10160000Y-55880000D03*
G36*
G01*
X58790000Y-37000000D02*
X60590000Y-37000000D01*
G75*
G02*
X60790000Y-37200000I0J-200000D01*
G01*
X60790000Y-39000000D01*
G75*
G02*
X60590000Y-39200000I-200000J0D01*
G01*
X58790000Y-39200000D01*
G75*
G02*
X58590000Y-39000000I0J200000D01*
G01*
X58590000Y-37200000D01*
G75*
G02*
X58790000Y-37000000I200000J0D01*
G01*
G37*
D17*
X59690000Y-40640000D03*
G36*
G01*
X4660000Y-31530000D02*
X2960000Y-31530000D01*
G75*
G02*
X2760000Y-31330000I0J200000D01*
G01*
X2760000Y-29630000D01*
G75*
G02*
X2960000Y-29430000I200000J0D01*
G01*
X4660000Y-29430000D01*
G75*
G02*
X4860000Y-29630000I0J-200000D01*
G01*
X4860000Y-31330000D01*
G75*
G02*
X4660000Y-31530000I-200000J0D01*
G01*
G37*
D18*
X6350000Y-30480000D03*
X8890000Y-30480000D03*
G36*
G01*
X82970000Y-69435000D02*
X84670000Y-69435000D01*
G75*
G02*
X84870000Y-69635000I0J-200000D01*
G01*
X84870000Y-71335000D01*
G75*
G02*
X84670000Y-71535000I-200000J0D01*
G01*
X82970000Y-71535000D01*
G75*
G02*
X82770000Y-71335000I0J200000D01*
G01*
X82770000Y-69635000D01*
G75*
G02*
X82970000Y-69435000I200000J0D01*
G01*
G37*
X81280000Y-70485000D03*
G36*
G01*
X70270000Y-69435000D02*
X71970000Y-69435000D01*
G75*
G02*
X72170000Y-69635000I0J-200000D01*
G01*
X72170000Y-71335000D01*
G75*
G02*
X71970000Y-71535000I-200000J0D01*
G01*
X70270000Y-71535000D01*
G75*
G02*
X70070000Y-71335000I0J200000D01*
G01*
X70070000Y-69635000D01*
G75*
G02*
X70270000Y-69435000I200000J0D01*
G01*
G37*
X68580000Y-70485000D03*
D11*
X16510000Y-49530000D03*
D12*
X3810000Y-49530000D03*
D11*
X46990000Y-46355000D03*
D12*
X59690000Y-46355000D03*
G36*
G01*
X4610000Y-45850000D02*
X3010000Y-45850000D01*
G75*
G02*
X2810000Y-45650000I0J200000D01*
G01*
X2810000Y-43250000D01*
G75*
G02*
X3010000Y-43050000I200000J0D01*
G01*
X4610000Y-43050000D01*
G75*
G02*
X4810000Y-43250000I0J-200000D01*
G01*
X4810000Y-45650000D01*
G75*
G02*
X4610000Y-45850000I-200000J0D01*
G01*
G37*
D19*
X11430000Y-36830000D03*
X6350000Y-44450000D03*
X8890000Y-36830000D03*
X8890000Y-44450000D03*
X6350000Y-36830000D03*
X11430000Y-44450000D03*
X3810000Y-36830000D03*
D14*
X33020000Y-29845000D03*
X30480000Y-29845000D03*
X25400000Y-29845000D03*
X20320000Y-29845000D03*
G36*
G01*
X73530000Y-46520000D02*
X73530000Y-44920000D01*
G75*
G02*
X73730000Y-44720000I200000J0D01*
G01*
X76130000Y-44720000D01*
G75*
G02*
X76330000Y-44920000I0J-200000D01*
G01*
X76330000Y-46520000D01*
G75*
G02*
X76130000Y-46720000I-200000J0D01*
G01*
X73730000Y-46720000D01*
G75*
G02*
X73530000Y-46520000I0J200000D01*
G01*
G37*
D20*
X82550000Y-63500000D03*
X74930000Y-48260000D03*
X82550000Y-60960000D03*
X74930000Y-50800000D03*
X82550000Y-58420000D03*
X74930000Y-53340000D03*
X82550000Y-55880000D03*
X74930000Y-55880000D03*
X82550000Y-53340000D03*
X74930000Y-58420000D03*
X82550000Y-50800000D03*
X74930000Y-60960000D03*
X82550000Y-48260000D03*
X74930000Y-63500000D03*
X82550000Y-45720000D03*
G36*
G01*
X68745000Y-63230000D02*
X67145000Y-63230000D01*
G75*
G02*
X66945000Y-63030000I0J200000D01*
G01*
X66945000Y-61430000D01*
G75*
G02*
X67145000Y-61230000I200000J0D01*
G01*
X68745000Y-61230000D01*
G75*
G02*
X68945000Y-61430000I0J-200000D01*
G01*
X68945000Y-63030000D01*
G75*
G02*
X68745000Y-63230000I-200000J0D01*
G01*
G37*
D11*
X67945000Y-59730000D03*
X86360000Y-48220000D03*
X86360000Y-45720000D03*
D21*
X24130000Y-63460000D03*
X8890000Y-63460000D03*
D22*
X19050000Y-60960000D03*
G36*
G01*
X12730000Y-62760000D02*
X12730000Y-59160000D01*
G75*
G02*
X12930000Y-58960000I200000J0D01*
G01*
X15010000Y-58960000D01*
G75*
G02*
X15210000Y-59160000I0J-200000D01*
G01*
X15210000Y-62760000D01*
G75*
G02*
X15010000Y-62960000I-200000J0D01*
G01*
X12930000Y-62960000D01*
G75*
G02*
X12730000Y-62760000I0J200000D01*
G01*
G37*
D12*
X52070000Y-29845000D03*
D11*
X52070000Y-42545000D03*
D20*
X31750000Y-38100000D03*
X24130000Y-45720000D03*
X31750000Y-40640000D03*
X24130000Y-43180000D03*
X31750000Y-43180000D03*
X24130000Y-40640000D03*
X31750000Y-45720000D03*
G36*
G01*
X22730000Y-38900000D02*
X22730000Y-37300000D01*
G75*
G02*
X22930000Y-37100000I200000J0D01*
G01*
X25330000Y-37100000D01*
G75*
G02*
X25530000Y-37300000I0J-200000D01*
G01*
X25530000Y-38900000D01*
G75*
G02*
X25330000Y-39100000I-200000J0D01*
G01*
X22930000Y-39100000D01*
G75*
G02*
X22730000Y-38900000I0J200000D01*
G01*
G37*
M02*
