M48
; DRILL file {KiCad (5.1.8)-1} date 02/06/21 21:13:41
; FORMAT={-:-/ absolute / metric / decimal}
; #@! TF.CreationDate,2021-02-06T21:13:41+01:00
; #@! TF.GenerationSoftware,Kicad,Pcbnew,(5.1.8)-1
; #@! TF.FileFunction,NonPlated,1,2,NPTH
FMAT,2
METRIC
T1C0.800
T2C0.900
T3C0.950
T4C1.000
T5C1.100
T6C1.143
T7C1.400
T8C3.200
%
G90
G05
T1
X38.1Y-29.845
X38.1Y-34.925
X74.93Y-36.195
X74.93Y-38.735
X83.185Y-36.195
X83.185Y-38.735
X65.405Y-24.965
X65.405Y-29.845
X86.36Y-45.72
X86.36Y-48.22
X3.81Y-49.53
X16.51Y-49.53
X67.31Y-6.35
X67.31Y-13.97
X69.85Y-6.35
X69.85Y-13.97
X72.39Y-6.35
X72.39Y-13.97
X74.93Y-6.35
X74.93Y-13.97
X77.47Y-6.35
X77.47Y-13.97
X80.01Y-6.35
X80.01Y-13.97
X82.55Y-6.35
X82.55Y-13.97
X85.09Y-6.35
X85.09Y-13.97
X87.63Y-6.35
X87.63Y-13.97
X3.81Y-36.83
X3.81Y-44.45
X6.35Y-36.83
X6.35Y-44.45
X8.89Y-36.83
X8.89Y-44.45
X11.43Y-36.83
X11.43Y-44.45
X89.535Y-43.18
X89.535Y-55.88
X41.275Y-37.505
X41.275Y-40.005
X58.46Y-29.845
X60.96Y-29.845
X46.99Y-46.355
X59.69Y-46.355
X41.275Y-32.385
X41.275Y-34.885
X24.13Y-38.1
X24.13Y-40.64
X24.13Y-43.18
X24.13Y-45.72
X31.75Y-38.1
X31.75Y-40.64
X31.75Y-43.18
X31.75Y-45.72
X67.945Y-46.99
X67.945Y-49.49
X17.78Y-40.64
X17.78Y-43.14
X67.945Y-59.73
X67.945Y-62.23
X74.93Y-45.72
X74.93Y-48.26
X74.93Y-50.8
X74.93Y-53.34
X74.93Y-55.88
X74.93Y-58.42
X74.93Y-60.96
X74.93Y-63.5
X82.55Y-45.72
X82.55Y-48.26
X82.55Y-50.8
X82.55Y-53.34
X82.55Y-55.88
X82.55Y-58.42
X82.55Y-60.96
X82.55Y-63.5
X58.46Y-25.019
X60.96Y-25.019
X72.39Y-38.775
X72.39Y-41.275
X67.945Y-53.34
X67.945Y-55.84
X52.07Y-29.845
X52.07Y-42.545
X67.945Y-40.68
X67.945Y-43.18
T2
X59.69Y-38.1
X59.69Y-40.64
T3
X87.63Y-31.115
X87.63Y-33.655
X87.63Y-36.195
X90.17Y-31.115
X90.17Y-33.655
X90.17Y-36.195
T4
X3.81Y-30.48
X6.35Y-30.48
X8.89Y-30.48
X68.58Y-70.485
X71.12Y-70.485
X20.32Y-29.845
X25.4Y-29.845
X30.48Y-29.845
X33.02Y-29.845
X81.28Y-70.485
X83.82Y-70.485
T5
X10.16Y-55.88
X22.86Y-55.88
T6
X46.355Y-33.655
X46.355Y-36.195
X46.355Y-38.735
T7
X13.97Y-60.96
X19.05Y-60.96
T8
X48.26Y-52.705
X48.26Y-22.225
T0
M30
