G04 #@! TF.GenerationSoftware,KiCad,Pcbnew,(5.1.8)-1*
G04 #@! TF.CreationDate,2021-03-27T20:02:36+01:00*
G04 #@! TF.ProjectId,DMX2PMX,444d5832-504d-4582-9e6b-696361645f70,0.2*
G04 #@! TF.SameCoordinates,Original*
G04 #@! TF.FileFunction,Soldermask,Bot*
G04 #@! TF.FilePolarity,Negative*
%FSLAX46Y46*%
G04 Gerber Fmt 4.6, Leading zero omitted, Abs format (unit mm)*
G04 Created by KiCad (PCBNEW (5.1.8)-1) date 2021-03-27 20:02:36*
%MOMM*%
%LPD*%
G01*
G04 APERTURE LIST*
%ADD10C,1.702000*%
%ADD11O,1.702000X1.702000*%
%ADD12O,2.502000X1.702000*%
%ADD13C,2.102000*%
%ADD14C,1.626000*%
%ADD15O,1.802000X1.802000*%
%ADD16C,1.602000*%
%ADD17O,2.102000X2.007000*%
%ADD18O,1.702000X2.502000*%
%ADD19O,2.502000X2.502000*%
%ADD20C,1.902000*%
G04 APERTURE END LIST*
D10*
X63540000Y-86995000D03*
X66040000Y-86995000D03*
D11*
X112649000Y-86423500D03*
X102171500Y-86423500D03*
X106172000Y-98044000D03*
X113792000Y-98044000D03*
X94107000Y-100965000D03*
X94107000Y-92519500D03*
X93980000Y-65405000D03*
X93980000Y-75501500D03*
X86360000Y-69850000D03*
D10*
X73660000Y-69850000D03*
D11*
X86360000Y-66040000D03*
D10*
X73660000Y-66040000D03*
D12*
X72390000Y-91440000D03*
X80010000Y-73660000D03*
X72390000Y-88900000D03*
X80010000Y-76200000D03*
X72390000Y-86360000D03*
X80010000Y-78740000D03*
X72390000Y-83820000D03*
X80010000Y-81280000D03*
X72390000Y-81280000D03*
X80010000Y-83820000D03*
X72390000Y-78740000D03*
X80010000Y-86360000D03*
X72390000Y-76200000D03*
X80010000Y-88900000D03*
X72390000Y-73660000D03*
G36*
G01*
X81261000Y-90640000D02*
X81261000Y-92240000D01*
G75*
G02*
X81210000Y-92291000I-51000J0D01*
G01*
X78810000Y-92291000D01*
G75*
G02*
X78759000Y-92240000I0J51000D01*
G01*
X78759000Y-90640000D01*
G75*
G02*
X78810000Y-90589000I51000J0D01*
G01*
X81210000Y-90589000D01*
G75*
G02*
X81261000Y-90640000I0J-51000D01*
G01*
G37*
D13*
X70485000Y-112395000D03*
X70485000Y-107315000D03*
X70485000Y-102235000D03*
X70485000Y-99695000D03*
G36*
G01*
X117932000Y-88963500D02*
X117932000Y-87439500D01*
G75*
G02*
X117983000Y-87388500I51000J0D01*
G01*
X119507000Y-87388500D01*
G75*
G02*
X119558000Y-87439500I0J-51000D01*
G01*
X119558000Y-88963500D01*
G75*
G02*
X119507000Y-89014500I-51000J0D01*
G01*
X117983000Y-89014500D01*
G75*
G02*
X117932000Y-88963500I0J51000D01*
G01*
G37*
D14*
X118745000Y-85661500D03*
X118745000Y-83121500D03*
X118745000Y-80581500D03*
X118745000Y-78041500D03*
X118745000Y-75501500D03*
X118745000Y-72961500D03*
X118745000Y-70421500D03*
X118745000Y-67881500D03*
X121285000Y-67881500D03*
X121285000Y-70421500D03*
X121285000Y-72961500D03*
X121285000Y-75501500D03*
X121285000Y-78041500D03*
X121285000Y-80581500D03*
X121285000Y-83121500D03*
X121285000Y-85661500D03*
X121285000Y-88201500D03*
D15*
X110490000Y-57785000D03*
G36*
G01*
X108800000Y-58686000D02*
X107100000Y-58686000D01*
G75*
G02*
X107049000Y-58635000I0J51000D01*
G01*
X107049000Y-56935000D01*
G75*
G02*
X107100000Y-56884000I51000J0D01*
G01*
X108800000Y-56884000D01*
G75*
G02*
X108851000Y-56935000I0J-51000D01*
G01*
X108851000Y-58635000D01*
G75*
G02*
X108800000Y-58686000I-51000J0D01*
G01*
G37*
X78740000Y-57785000D03*
G36*
G01*
X77050000Y-58686000D02*
X75350000Y-58686000D01*
G75*
G02*
X75299000Y-58635000I0J51000D01*
G01*
X75299000Y-56935000D01*
G75*
G02*
X75350000Y-56884000I51000J0D01*
G01*
X77050000Y-56884000D01*
G75*
G02*
X77101000Y-56935000I0J-51000D01*
G01*
X77101000Y-58635000D01*
G75*
G02*
X77050000Y-58686000I-51000J0D01*
G01*
G37*
X93980000Y-57785000D03*
G36*
G01*
X92290000Y-58686000D02*
X90590000Y-58686000D01*
G75*
G02*
X90539000Y-58635000I0J51000D01*
G01*
X90539000Y-56935000D01*
G75*
G02*
X90590000Y-56884000I51000J0D01*
G01*
X92290000Y-56884000D01*
G75*
G02*
X92341000Y-56935000I0J-51000D01*
G01*
X92341000Y-58635000D01*
G75*
G02*
X92290000Y-58686000I-51000J0D01*
G01*
G37*
D10*
X85090000Y-76414000D03*
G36*
G01*
X84290000Y-73063000D02*
X85890000Y-73063000D01*
G75*
G02*
X85941000Y-73114000I0J-51000D01*
G01*
X85941000Y-74714000D01*
G75*
G02*
X85890000Y-74765000I-51000J0D01*
G01*
X84290000Y-74765000D01*
G75*
G02*
X84239000Y-74714000I0J51000D01*
G01*
X84239000Y-73114000D01*
G75*
G02*
X84290000Y-73063000I51000J0D01*
G01*
G37*
X85090000Y-97155000D03*
G36*
G01*
X84290000Y-93804000D02*
X85890000Y-93804000D01*
G75*
G02*
X85941000Y-93855000I0J-51000D01*
G01*
X85941000Y-95455000D01*
G75*
G02*
X85890000Y-95506000I-51000J0D01*
G01*
X84290000Y-95506000D01*
G75*
G02*
X84239000Y-95455000I0J51000D01*
G01*
X84239000Y-93855000D01*
G75*
G02*
X84290000Y-93804000I51000J0D01*
G01*
G37*
X85090000Y-80812000D03*
G36*
G01*
X85890000Y-84163000D02*
X84290000Y-84163000D01*
G75*
G02*
X84239000Y-84112000I0J51000D01*
G01*
X84239000Y-82512000D01*
G75*
G02*
X84290000Y-82461000I51000J0D01*
G01*
X85890000Y-82461000D01*
G75*
G02*
X85941000Y-82512000I0J-51000D01*
G01*
X85941000Y-84112000D01*
G75*
G02*
X85890000Y-84163000I-51000J0D01*
G01*
G37*
X85090000Y-87733500D03*
G36*
G01*
X85890000Y-91084500D02*
X84290000Y-91084500D01*
G75*
G02*
X84239000Y-91033500I0J51000D01*
G01*
X84239000Y-89433500D01*
G75*
G02*
X84290000Y-89382500I51000J0D01*
G01*
X85890000Y-89382500D01*
G75*
G02*
X85941000Y-89433500I0J-51000D01*
G01*
X85941000Y-91033500D01*
G75*
G02*
X85890000Y-91084500I-51000J0D01*
G01*
G37*
D16*
X95821500Y-86731500D03*
X95821500Y-81851500D03*
D17*
X66040000Y-82296000D03*
X66040000Y-79756000D03*
G36*
G01*
X65040000Y-76212500D02*
X67040000Y-76212500D01*
G75*
G02*
X67091000Y-76263500I0J-51000D01*
G01*
X67091000Y-78168500D01*
G75*
G02*
X67040000Y-78219500I-51000J0D01*
G01*
X65040000Y-78219500D01*
G75*
G02*
X64989000Y-78168500I0J51000D01*
G01*
X64989000Y-76263500D01*
G75*
G02*
X65040000Y-76212500I51000J0D01*
G01*
G37*
D10*
X69659500Y-88940000D03*
X69659500Y-91440000D03*
X63540000Y-92075000D03*
G36*
G01*
X66891000Y-91275000D02*
X66891000Y-92875000D01*
G75*
G02*
X66840000Y-92926000I-51000J0D01*
G01*
X65240000Y-92926000D01*
G75*
G02*
X65189000Y-92875000I0J51000D01*
G01*
X65189000Y-91275000D01*
G75*
G02*
X65240000Y-91224000I51000J0D01*
G01*
X66840000Y-91224000D01*
G75*
G02*
X66891000Y-91275000I0J-51000D01*
G01*
G37*
X63540000Y-73215500D03*
X66040000Y-73215500D03*
X63540000Y-68580000D03*
G36*
G01*
X66891000Y-67780000D02*
X66891000Y-69380000D01*
G75*
G02*
X66840000Y-69431000I-51000J0D01*
G01*
X65240000Y-69431000D01*
G75*
G02*
X65189000Y-69380000I0J51000D01*
G01*
X65189000Y-67780000D01*
G75*
G02*
X65240000Y-67729000I51000J0D01*
G01*
X66840000Y-67729000D01*
G75*
G02*
X66891000Y-67780000I0J-51000D01*
G01*
G37*
D18*
X108712000Y-100965000D03*
X116332000Y-108585000D03*
X111252000Y-100965000D03*
X113792000Y-108585000D03*
X113792000Y-100965000D03*
X111252000Y-108585000D03*
X116332000Y-100965000D03*
G36*
G01*
X109512000Y-109836000D02*
X107912000Y-109836000D01*
G75*
G02*
X107861000Y-109785000I0J51000D01*
G01*
X107861000Y-107385000D01*
G75*
G02*
X107912000Y-107334000I51000J0D01*
G01*
X109512000Y-107334000D01*
G75*
G02*
X109563000Y-107385000I0J-51000D01*
G01*
X109563000Y-109785000D01*
G75*
G02*
X109512000Y-109836000I-51000J0D01*
G01*
G37*
X90805000Y-120015000D03*
X83185000Y-112395000D03*
X88265000Y-120015000D03*
X85725000Y-112395000D03*
X85725000Y-120015000D03*
X88265000Y-112395000D03*
X83185000Y-120015000D03*
G36*
G01*
X90005000Y-111144000D02*
X91605000Y-111144000D01*
G75*
G02*
X91656000Y-111195000I0J-51000D01*
G01*
X91656000Y-113595000D01*
G75*
G02*
X91605000Y-113646000I-51000J0D01*
G01*
X90005000Y-113646000D01*
G75*
G02*
X89954000Y-113595000I0J51000D01*
G01*
X89954000Y-111195000D01*
G75*
G02*
X90005000Y-111144000I51000J0D01*
G01*
G37*
D11*
X101092000Y-112395000D03*
D10*
X113792000Y-112395000D03*
D11*
X98171000Y-77152500D03*
D10*
X98171000Y-64452500D03*
X96012000Y-95758000D03*
D11*
X108712000Y-95758000D03*
D15*
X99060000Y-126365000D03*
X99060000Y-123825000D03*
G36*
G01*
X98159000Y-122135000D02*
X98159000Y-120435000D01*
G75*
G02*
X98210000Y-120384000I51000J0D01*
G01*
X99910000Y-120384000D01*
G75*
G02*
X99961000Y-120435000I0J-51000D01*
G01*
X99961000Y-122135000D01*
G75*
G02*
X99910000Y-122186000I-51000J0D01*
G01*
X98210000Y-122186000D01*
G75*
G02*
X98159000Y-122135000I0J51000D01*
G01*
G37*
X95250000Y-126365000D03*
X95250000Y-123825000D03*
G36*
G01*
X94349000Y-122135000D02*
X94349000Y-120435000D01*
G75*
G02*
X94400000Y-120384000I51000J0D01*
G01*
X96100000Y-120384000D01*
G75*
G02*
X96151000Y-120435000I0J-51000D01*
G01*
X96151000Y-122135000D01*
G75*
G02*
X96100000Y-122186000I-51000J0D01*
G01*
X94400000Y-122186000D01*
G75*
G02*
X94349000Y-122135000I0J51000D01*
G01*
G37*
X103632000Y-92011500D03*
X103632000Y-89471500D03*
X106172000Y-92011500D03*
X106172000Y-89471500D03*
X108712000Y-92011500D03*
G36*
G01*
X107862000Y-88570500D02*
X109562000Y-88570500D01*
G75*
G02*
X109613000Y-88621500I0J-51000D01*
G01*
X109613000Y-90321500D01*
G75*
G02*
X109562000Y-90372500I-51000J0D01*
G01*
X107862000Y-90372500D01*
G75*
G02*
X107811000Y-90321500I0J51000D01*
G01*
X107811000Y-88621500D01*
G75*
G02*
X107862000Y-88570500I51000J0D01*
G01*
G37*
D19*
X78740000Y-61849000D03*
G36*
G01*
X64789000Y-63049000D02*
X64789000Y-60649000D01*
G75*
G02*
X64840000Y-60598000I51000J0D01*
G01*
X67240000Y-60598000D01*
G75*
G02*
X67291000Y-60649000I0J-51000D01*
G01*
X67291000Y-63049000D01*
G75*
G02*
X67240000Y-63100000I-51000J0D01*
G01*
X64840000Y-63100000D01*
G75*
G02*
X64789000Y-63049000I0J51000D01*
G01*
G37*
D20*
X121285000Y-98425000D03*
G36*
G01*
X120385000Y-94934000D02*
X122185000Y-94934000D01*
G75*
G02*
X122236000Y-94985000I0J-51000D01*
G01*
X122236000Y-96785000D01*
G75*
G02*
X122185000Y-96836000I-51000J0D01*
G01*
X120385000Y-96836000D01*
G75*
G02*
X120334000Y-96785000I0J51000D01*
G01*
X120334000Y-94985000D01*
G75*
G02*
X120385000Y-94934000I51000J0D01*
G01*
G37*
D10*
X91884500Y-79351500D03*
X91884500Y-81851500D03*
X80010000Y-117435000D03*
X80010000Y-114935000D03*
X91884500Y-86741000D03*
X91884500Y-89241000D03*
X99695000Y-89050500D03*
X99695000Y-86550500D03*
G36*
G01*
X111771000Y-72661500D02*
X111771000Y-73261500D01*
G75*
G02*
X111720000Y-73312500I-51000J0D01*
G01*
X109770000Y-73312500D01*
G75*
G02*
X109719000Y-73261500I0J51000D01*
G01*
X109719000Y-72661500D01*
G75*
G02*
X109770000Y-72610500I51000J0D01*
G01*
X111720000Y-72610500D01*
G75*
G02*
X111771000Y-72661500I0J-51000D01*
G01*
G37*
G36*
G01*
X111771000Y-73931500D02*
X111771000Y-74531500D01*
G75*
G02*
X111720000Y-74582500I-51000J0D01*
G01*
X109770000Y-74582500D01*
G75*
G02*
X109719000Y-74531500I0J51000D01*
G01*
X109719000Y-73931500D01*
G75*
G02*
X109770000Y-73880500I51000J0D01*
G01*
X111720000Y-73880500D01*
G75*
G02*
X111771000Y-73931500I0J-51000D01*
G01*
G37*
G36*
G01*
X111771000Y-75201500D02*
X111771000Y-75801500D01*
G75*
G02*
X111720000Y-75852500I-51000J0D01*
G01*
X109770000Y-75852500D01*
G75*
G02*
X109719000Y-75801500I0J51000D01*
G01*
X109719000Y-75201500D01*
G75*
G02*
X109770000Y-75150500I51000J0D01*
G01*
X111720000Y-75150500D01*
G75*
G02*
X111771000Y-75201500I0J-51000D01*
G01*
G37*
G36*
G01*
X111771000Y-76471500D02*
X111771000Y-77071500D01*
G75*
G02*
X111720000Y-77122500I-51000J0D01*
G01*
X109770000Y-77122500D01*
G75*
G02*
X109719000Y-77071500I0J51000D01*
G01*
X109719000Y-76471500D01*
G75*
G02*
X109770000Y-76420500I51000J0D01*
G01*
X111720000Y-76420500D01*
G75*
G02*
X111771000Y-76471500I0J-51000D01*
G01*
G37*
G36*
G01*
X111771000Y-77741500D02*
X111771000Y-78341500D01*
G75*
G02*
X111720000Y-78392500I-51000J0D01*
G01*
X109770000Y-78392500D01*
G75*
G02*
X109719000Y-78341500I0J51000D01*
G01*
X109719000Y-77741500D01*
G75*
G02*
X109770000Y-77690500I51000J0D01*
G01*
X111720000Y-77690500D01*
G75*
G02*
X111771000Y-77741500I0J-51000D01*
G01*
G37*
G36*
G01*
X111771000Y-79011500D02*
X111771000Y-79611500D01*
G75*
G02*
X111720000Y-79662500I-51000J0D01*
G01*
X109770000Y-79662500D01*
G75*
G02*
X109719000Y-79611500I0J51000D01*
G01*
X109719000Y-79011500D01*
G75*
G02*
X109770000Y-78960500I51000J0D01*
G01*
X111720000Y-78960500D01*
G75*
G02*
X111771000Y-79011500I0J-51000D01*
G01*
G37*
G36*
G01*
X111771000Y-80281500D02*
X111771000Y-80881500D01*
G75*
G02*
X111720000Y-80932500I-51000J0D01*
G01*
X109770000Y-80932500D01*
G75*
G02*
X109719000Y-80881500I0J51000D01*
G01*
X109719000Y-80281500D01*
G75*
G02*
X109770000Y-80230500I51000J0D01*
G01*
X111720000Y-80230500D01*
G75*
G02*
X111771000Y-80281500I0J-51000D01*
G01*
G37*
G36*
G01*
X111771000Y-81551500D02*
X111771000Y-82151500D01*
G75*
G02*
X111720000Y-82202500I-51000J0D01*
G01*
X109770000Y-82202500D01*
G75*
G02*
X109719000Y-82151500I0J51000D01*
G01*
X109719000Y-81551500D01*
G75*
G02*
X109770000Y-81500500I51000J0D01*
G01*
X111720000Y-81500500D01*
G75*
G02*
X111771000Y-81551500I0J-51000D01*
G01*
G37*
G36*
G01*
X111771000Y-82821500D02*
X111771000Y-83421500D01*
G75*
G02*
X111720000Y-83472500I-51000J0D01*
G01*
X109770000Y-83472500D01*
G75*
G02*
X109719000Y-83421500I0J51000D01*
G01*
X109719000Y-82821500D01*
G75*
G02*
X109770000Y-82770500I51000J0D01*
G01*
X111720000Y-82770500D01*
G75*
G02*
X111771000Y-82821500I0J-51000D01*
G01*
G37*
G36*
G01*
X111771000Y-84091500D02*
X111771000Y-84691500D01*
G75*
G02*
X111720000Y-84742500I-51000J0D01*
G01*
X109770000Y-84742500D01*
G75*
G02*
X109719000Y-84691500I0J51000D01*
G01*
X109719000Y-84091500D01*
G75*
G02*
X109770000Y-84040500I51000J0D01*
G01*
X111720000Y-84040500D01*
G75*
G02*
X111771000Y-84091500I0J-51000D01*
G01*
G37*
G36*
G01*
X102371000Y-84091500D02*
X102371000Y-84691500D01*
G75*
G02*
X102320000Y-84742500I-51000J0D01*
G01*
X100370000Y-84742500D01*
G75*
G02*
X100319000Y-84691500I0J51000D01*
G01*
X100319000Y-84091500D01*
G75*
G02*
X100370000Y-84040500I51000J0D01*
G01*
X102320000Y-84040500D01*
G75*
G02*
X102371000Y-84091500I0J-51000D01*
G01*
G37*
G36*
G01*
X102371000Y-82821500D02*
X102371000Y-83421500D01*
G75*
G02*
X102320000Y-83472500I-51000J0D01*
G01*
X100370000Y-83472500D01*
G75*
G02*
X100319000Y-83421500I0J51000D01*
G01*
X100319000Y-82821500D01*
G75*
G02*
X100370000Y-82770500I51000J0D01*
G01*
X102320000Y-82770500D01*
G75*
G02*
X102371000Y-82821500I0J-51000D01*
G01*
G37*
G36*
G01*
X102371000Y-81551500D02*
X102371000Y-82151500D01*
G75*
G02*
X102320000Y-82202500I-51000J0D01*
G01*
X100370000Y-82202500D01*
G75*
G02*
X100319000Y-82151500I0J51000D01*
G01*
X100319000Y-81551500D01*
G75*
G02*
X100370000Y-81500500I51000J0D01*
G01*
X102320000Y-81500500D01*
G75*
G02*
X102371000Y-81551500I0J-51000D01*
G01*
G37*
G36*
G01*
X102371000Y-80281500D02*
X102371000Y-80881500D01*
G75*
G02*
X102320000Y-80932500I-51000J0D01*
G01*
X100370000Y-80932500D01*
G75*
G02*
X100319000Y-80881500I0J51000D01*
G01*
X100319000Y-80281500D01*
G75*
G02*
X100370000Y-80230500I51000J0D01*
G01*
X102320000Y-80230500D01*
G75*
G02*
X102371000Y-80281500I0J-51000D01*
G01*
G37*
G36*
G01*
X102371000Y-79011500D02*
X102371000Y-79611500D01*
G75*
G02*
X102320000Y-79662500I-51000J0D01*
G01*
X100370000Y-79662500D01*
G75*
G02*
X100319000Y-79611500I0J51000D01*
G01*
X100319000Y-79011500D01*
G75*
G02*
X100370000Y-78960500I51000J0D01*
G01*
X102320000Y-78960500D01*
G75*
G02*
X102371000Y-79011500I0J-51000D01*
G01*
G37*
G36*
G01*
X102371000Y-77741500D02*
X102371000Y-78341500D01*
G75*
G02*
X102320000Y-78392500I-51000J0D01*
G01*
X100370000Y-78392500D01*
G75*
G02*
X100319000Y-78341500I0J51000D01*
G01*
X100319000Y-77741500D01*
G75*
G02*
X100370000Y-77690500I51000J0D01*
G01*
X102320000Y-77690500D01*
G75*
G02*
X102371000Y-77741500I0J-51000D01*
G01*
G37*
G36*
G01*
X102371000Y-76471500D02*
X102371000Y-77071500D01*
G75*
G02*
X102320000Y-77122500I-51000J0D01*
G01*
X100370000Y-77122500D01*
G75*
G02*
X100319000Y-77071500I0J51000D01*
G01*
X100319000Y-76471500D01*
G75*
G02*
X100370000Y-76420500I51000J0D01*
G01*
X102320000Y-76420500D01*
G75*
G02*
X102371000Y-76471500I0J-51000D01*
G01*
G37*
G36*
G01*
X102371000Y-75201500D02*
X102371000Y-75801500D01*
G75*
G02*
X102320000Y-75852500I-51000J0D01*
G01*
X100370000Y-75852500D01*
G75*
G02*
X100319000Y-75801500I0J51000D01*
G01*
X100319000Y-75201500D01*
G75*
G02*
X100370000Y-75150500I51000J0D01*
G01*
X102320000Y-75150500D01*
G75*
G02*
X102371000Y-75201500I0J-51000D01*
G01*
G37*
G36*
G01*
X102371000Y-73931500D02*
X102371000Y-74531500D01*
G75*
G02*
X102320000Y-74582500I-51000J0D01*
G01*
X100370000Y-74582500D01*
G75*
G02*
X100319000Y-74531500I0J51000D01*
G01*
X100319000Y-73931500D01*
G75*
G02*
X100370000Y-73880500I51000J0D01*
G01*
X102320000Y-73880500D01*
G75*
G02*
X102371000Y-73931500I0J-51000D01*
G01*
G37*
G36*
G01*
X102371000Y-72661500D02*
X102371000Y-73261500D01*
G75*
G02*
X102320000Y-73312500I-51000J0D01*
G01*
X100370000Y-73312500D01*
G75*
G02*
X100319000Y-73261500I0J51000D01*
G01*
X100319000Y-72661500D01*
G75*
G02*
X100370000Y-72610500I51000J0D01*
G01*
X102320000Y-72610500D01*
G75*
G02*
X102371000Y-72661500I0J-51000D01*
G01*
G37*
M02*
