M48
; DRILL file {KiCad (5.1.8)-1} date 03/27/21 20:02:39
; FORMAT={-:-/ absolute / metric / decimal}
; #@! TF.CreationDate,2021-03-27T20:02:39+01:00
; #@! TF.GenerationSoftware,Kicad,Pcbnew,(5.1.8)-1
; #@! TF.FileFunction,Plated,1,2,PTH
FMAT,2
METRIC
T1C0.762
T2C0.800
T3C0.900
T4C1.000
T5C1.100
T6C1.200
%
G90
G05
T1
X118.745Y-67.882
X118.745Y-70.421
X118.745Y-72.962
X118.745Y-75.501
X118.745Y-78.041
X118.745Y-80.581
X118.745Y-83.121
X118.745Y-85.661
X118.745Y-88.201
X121.285Y-67.882
X121.285Y-70.421
X121.285Y-72.962
X121.285Y-75.501
X121.285Y-78.041
X121.285Y-80.581
X121.285Y-83.121
X121.285Y-85.661
X121.285Y-88.201
T2
X113.792Y-98.044
X85.09Y-87.733
X85.09Y-90.233
X72.39Y-73.66
X72.39Y-76.2
X72.39Y-78.74
X72.39Y-81.28
X72.39Y-83.82
X72.39Y-86.36
X72.39Y-88.9
X72.39Y-91.44
X80.01Y-73.66
X80.01Y-76.2
X80.01Y-78.74
X80.01Y-81.28
X80.01Y-83.82
X80.01Y-86.36
X80.01Y-88.9
X80.01Y-91.44
X63.54Y-86.995
X66.04Y-86.995
X112.649Y-86.423
X83.185Y-112.395
X83.185Y-120.015
X85.725Y-112.395
X85.725Y-120.015
X88.265Y-112.395
X88.265Y-120.015
X90.805Y-112.395
X90.805Y-120.015
X85.09Y-73.914
X85.09Y-76.414
X73.66Y-66.04
X86.36Y-66.04
X63.54Y-92.075
X66.04Y-92.075
X98.171Y-64.453
X98.171Y-77.153
X93.98Y-65.405
X102.171Y-86.423
X108.712Y-100.965
X108.712Y-108.585
X111.252Y-100.965
X111.252Y-108.585
X113.792Y-100.965
X113.792Y-108.585
X116.332Y-100.965
X116.332Y-108.585
X99.695Y-86.55
X99.695Y-89.05
X85.09Y-94.655
X85.09Y-97.155
X91.885Y-79.352
X91.885Y-81.852
X94.107Y-92.519
X94.107Y-100.965
X91.885Y-86.741
X91.885Y-89.241
X63.54Y-68.58
X66.04Y-68.58
X85.09Y-80.812
X85.09Y-83.312
X73.66Y-69.85
X86.36Y-69.85
X95.822Y-81.852
X95.822Y-86.731
X96.012Y-95.758
X108.712Y-95.758
X93.98Y-75.501
X106.172Y-98.044
X101.092Y-112.395
X113.792Y-112.395
X69.659Y-88.94
X69.659Y-91.44
X80.01Y-114.935
X80.01Y-117.435
X63.54Y-73.215
X66.04Y-73.215
T3
X121.285Y-95.885
X121.285Y-98.425
T4
X107.95Y-57.785
X110.49Y-57.785
X76.2Y-57.785
X78.74Y-57.785
X103.632Y-89.471
X103.632Y-92.011
X106.172Y-89.471
X106.172Y-92.011
X108.712Y-89.471
X108.712Y-92.011
X70.485Y-99.695
X70.485Y-102.235
X70.485Y-107.315
X70.485Y-112.395
X95.25Y-121.285
X95.25Y-123.825
X95.25Y-126.365
X91.44Y-57.785
X93.98Y-57.785
X99.06Y-121.285
X99.06Y-123.825
X99.06Y-126.365
T5
X66.04Y-77.216
X66.04Y-79.756
X66.04Y-82.296
T6
X66.04Y-61.849
X78.74Y-61.849
T0
M30
