G04 #@! TF.GenerationSoftware,KiCad,Pcbnew,(5.1.8)-1*
G04 #@! TF.CreationDate,2021-03-27T20:02:36+01:00*
G04 #@! TF.ProjectId,DMX2PMX,444d5832-504d-4582-9e6b-696361645f70,0.2*
G04 #@! TF.SameCoordinates,Original*
G04 #@! TF.FileFunction,Copper,L2,Bot*
G04 #@! TF.FilePolarity,Positive*
%FSLAX46Y46*%
G04 Gerber Fmt 4.6, Leading zero omitted, Abs format (unit mm)*
G04 Created by KiCad (PCBNEW (5.1.8)-1) date 2021-03-27 20:02:36*
%MOMM*%
%LPD*%
G01*
G04 APERTURE LIST*
G04 #@! TA.AperFunction,ComponentPad*
%ADD10C,1.600000*%
G04 #@! TD*
G04 #@! TA.AperFunction,ComponentPad*
%ADD11O,1.600000X1.600000*%
G04 #@! TD*
G04 #@! TA.AperFunction,ComponentPad*
%ADD12O,2.400000X1.600000*%
G04 #@! TD*
G04 #@! TA.AperFunction,ComponentPad*
%ADD13R,2.400000X1.600000*%
G04 #@! TD*
G04 #@! TA.AperFunction,ComponentPad*
%ADD14C,2.000000*%
G04 #@! TD*
G04 #@! TA.AperFunction,ComponentPad*
%ADD15R,1.524000X1.524000*%
G04 #@! TD*
G04 #@! TA.AperFunction,ComponentPad*
%ADD16C,1.524000*%
G04 #@! TD*
G04 #@! TA.AperFunction,ComponentPad*
%ADD17O,1.700000X1.700000*%
G04 #@! TD*
G04 #@! TA.AperFunction,ComponentPad*
%ADD18R,1.700000X1.700000*%
G04 #@! TD*
G04 #@! TA.AperFunction,ComponentPad*
%ADD19R,1.600000X1.600000*%
G04 #@! TD*
G04 #@! TA.AperFunction,ComponentPad*
%ADD20C,1.500000*%
G04 #@! TD*
G04 #@! TA.AperFunction,ComponentPad*
%ADD21O,2.000000X1.905000*%
G04 #@! TD*
G04 #@! TA.AperFunction,ComponentPad*
%ADD22R,2.000000X1.905000*%
G04 #@! TD*
G04 #@! TA.AperFunction,ComponentPad*
%ADD23O,1.600000X2.400000*%
G04 #@! TD*
G04 #@! TA.AperFunction,ComponentPad*
%ADD24R,1.600000X2.400000*%
G04 #@! TD*
G04 #@! TA.AperFunction,ComponentPad*
%ADD25O,2.400000X2.400000*%
G04 #@! TD*
G04 #@! TA.AperFunction,ComponentPad*
%ADD26R,2.400000X2.400000*%
G04 #@! TD*
G04 #@! TA.AperFunction,ComponentPad*
%ADD27C,1.800000*%
G04 #@! TD*
G04 #@! TA.AperFunction,ComponentPad*
%ADD28R,1.800000X1.800000*%
G04 #@! TD*
G04 #@! TA.AperFunction,SMDPad,CuDef*
%ADD29R,1.950000X0.600000*%
G04 #@! TD*
G04 #@! TA.AperFunction,Conductor*
%ADD30C,1.000000*%
G04 #@! TD*
G04 #@! TA.AperFunction,Conductor*
%ADD31C,0.520000*%
G04 #@! TD*
G04 #@! TA.AperFunction,Conductor*
%ADD32C,0.254000*%
G04 #@! TD*
G04 #@! TA.AperFunction,Conductor*
%ADD33C,0.100000*%
G04 #@! TD*
G04 APERTURE END LIST*
D10*
X63540000Y-86995000D03*
X66040000Y-86995000D03*
D11*
X112649000Y-86423500D03*
X102171500Y-86423500D03*
X106172000Y-98044000D03*
X113792000Y-98044000D03*
X94107000Y-100965000D03*
X94107000Y-92519500D03*
X93980000Y-65405000D03*
X93980000Y-75501500D03*
X86360000Y-69850000D03*
D10*
X73660000Y-69850000D03*
D11*
X86360000Y-66040000D03*
D10*
X73660000Y-66040000D03*
D12*
X72390000Y-91440000D03*
X80010000Y-73660000D03*
X72390000Y-88900000D03*
X80010000Y-76200000D03*
X72390000Y-86360000D03*
X80010000Y-78740000D03*
X72390000Y-83820000D03*
X80010000Y-81280000D03*
X72390000Y-81280000D03*
X80010000Y-83820000D03*
X72390000Y-78740000D03*
X80010000Y-86360000D03*
X72390000Y-76200000D03*
X80010000Y-88900000D03*
X72390000Y-73660000D03*
D13*
X80010000Y-91440000D03*
D14*
X70485000Y-112395000D03*
X70485000Y-107315000D03*
X70485000Y-102235000D03*
X70485000Y-99695000D03*
D15*
X118745000Y-88201500D03*
D16*
X118745000Y-85661500D03*
X118745000Y-83121500D03*
X118745000Y-80581500D03*
X118745000Y-78041500D03*
X118745000Y-75501500D03*
X118745000Y-72961500D03*
X118745000Y-70421500D03*
X118745000Y-67881500D03*
X121285000Y-67881500D03*
X121285000Y-70421500D03*
X121285000Y-72961500D03*
X121285000Y-75501500D03*
X121285000Y-78041500D03*
X121285000Y-80581500D03*
X121285000Y-83121500D03*
X121285000Y-85661500D03*
X121285000Y-88201500D03*
D17*
X110490000Y-57785000D03*
D18*
X107950000Y-57785000D03*
D17*
X78740000Y-57785000D03*
D18*
X76200000Y-57785000D03*
D17*
X93980000Y-57785000D03*
D18*
X91440000Y-57785000D03*
D10*
X85090000Y-76414000D03*
D19*
X85090000Y-73914000D03*
D10*
X85090000Y-97155000D03*
D19*
X85090000Y-94655000D03*
D10*
X85090000Y-80812000D03*
D19*
X85090000Y-83312000D03*
D10*
X85090000Y-87733500D03*
D19*
X85090000Y-90233500D03*
D20*
X95821500Y-86731500D03*
X95821500Y-81851500D03*
D21*
X66040000Y-82296000D03*
X66040000Y-79756000D03*
D22*
X66040000Y-77216000D03*
D10*
X69659500Y-88940000D03*
X69659500Y-91440000D03*
X63540000Y-92075000D03*
D19*
X66040000Y-92075000D03*
D10*
X63540000Y-73215500D03*
X66040000Y-73215500D03*
X63540000Y-68580000D03*
D19*
X66040000Y-68580000D03*
D23*
X108712000Y-100965000D03*
X116332000Y-108585000D03*
X111252000Y-100965000D03*
X113792000Y-108585000D03*
X113792000Y-100965000D03*
X111252000Y-108585000D03*
X116332000Y-100965000D03*
D24*
X108712000Y-108585000D03*
D23*
X90805000Y-120015000D03*
X83185000Y-112395000D03*
X88265000Y-120015000D03*
X85725000Y-112395000D03*
X85725000Y-120015000D03*
X88265000Y-112395000D03*
X83185000Y-120015000D03*
D24*
X90805000Y-112395000D03*
D11*
X101092000Y-112395000D03*
D10*
X113792000Y-112395000D03*
D11*
X98171000Y-77152500D03*
D10*
X98171000Y-64452500D03*
X96012000Y-95758000D03*
D11*
X108712000Y-95758000D03*
D17*
X99060000Y-126365000D03*
X99060000Y-123825000D03*
D18*
X99060000Y-121285000D03*
D17*
X95250000Y-126365000D03*
X95250000Y-123825000D03*
D18*
X95250000Y-121285000D03*
D17*
X103632000Y-92011500D03*
X103632000Y-89471500D03*
X106172000Y-92011500D03*
X106172000Y-89471500D03*
X108712000Y-92011500D03*
D18*
X108712000Y-89471500D03*
D25*
X78740000Y-61849000D03*
D26*
X66040000Y-61849000D03*
D27*
X121285000Y-98425000D03*
D28*
X121285000Y-95885000D03*
D10*
X91884500Y-79351500D03*
X91884500Y-81851500D03*
X80010000Y-117435000D03*
X80010000Y-114935000D03*
X91884500Y-86741000D03*
X91884500Y-89241000D03*
X99695000Y-89050500D03*
X99695000Y-86550500D03*
D29*
X110745000Y-72961500D03*
X110745000Y-74231500D03*
X110745000Y-75501500D03*
X110745000Y-76771500D03*
X110745000Y-78041500D03*
X110745000Y-79311500D03*
X110745000Y-80581500D03*
X110745000Y-81851500D03*
X110745000Y-83121500D03*
X110745000Y-84391500D03*
X101345000Y-84391500D03*
X101345000Y-83121500D03*
X101345000Y-81851500D03*
X101345000Y-80581500D03*
X101345000Y-79311500D03*
X101345000Y-78041500D03*
X101345000Y-76771500D03*
X101345000Y-75501500D03*
X101345000Y-74231500D03*
X101345000Y-72961500D03*
D30*
X66040000Y-81915000D02*
X66040000Y-97790000D01*
X66040000Y-97790000D02*
X67945000Y-99695000D01*
X67945000Y-99695000D02*
X70485000Y-99695000D01*
X66040000Y-92075000D02*
X67945000Y-92075000D01*
X68580000Y-91440000D02*
X69850000Y-91440000D01*
X67945000Y-92075000D02*
X68580000Y-91440000D01*
X69850000Y-91440000D02*
X72390000Y-91440000D01*
X94107000Y-92265500D02*
X99822000Y-86550500D01*
X99695000Y-86041500D02*
X101345000Y-84391500D01*
X99695000Y-86550500D02*
X99695000Y-86041500D01*
X94107000Y-100965000D02*
X108712000Y-100965000D01*
X108712000Y-100965000D02*
X108712000Y-95758000D01*
X108712000Y-95758000D02*
X108712000Y-92011500D01*
X92837000Y-99695000D02*
X94107000Y-100965000D01*
X70485000Y-99695000D02*
X92837000Y-99695000D01*
D31*
X72350000Y-88940000D02*
X72390000Y-88900000D01*
X69659500Y-88940000D02*
X72350000Y-88940000D01*
D30*
X90805000Y-120015000D02*
X90805000Y-114935000D01*
X73025000Y-114935000D02*
X70485000Y-112395000D01*
X109347000Y-114935000D02*
X73025000Y-114935000D01*
X111252000Y-113030000D02*
X109347000Y-114935000D01*
X111252000Y-108585000D02*
X111252000Y-113030000D01*
D31*
X101345000Y-81851500D02*
X91884500Y-81851500D01*
D30*
X66040000Y-68580000D02*
X66040000Y-61849000D01*
X66040000Y-68580000D02*
X66040000Y-73215500D01*
X66040000Y-77216000D02*
X66040000Y-73215500D01*
D31*
X122705000Y-95885000D02*
X121285000Y-95885000D01*
X123265000Y-95325000D02*
X122705000Y-95885000D01*
X98171000Y-64452500D02*
X121983500Y-64452500D01*
X121983500Y-64452500D02*
X124206000Y-66675000D01*
X124206000Y-94384000D02*
X122705000Y-95885000D01*
X124206000Y-66675000D02*
X124206000Y-94384000D01*
X103632000Y-74231500D02*
X105664000Y-76263500D01*
X101345000Y-74231500D02*
X103632000Y-74231500D01*
X105664000Y-76263500D02*
X105664000Y-84836000D01*
X108712000Y-89471500D02*
X108712000Y-87884000D01*
X108712000Y-87884000D02*
X105664000Y-84836000D01*
X90678000Y-69850000D02*
X86360000Y-69850000D01*
X95059500Y-74231500D02*
X90678000Y-69850000D01*
X101345000Y-74231500D02*
X95059500Y-74231500D01*
X102997000Y-78041500D02*
X102107000Y-78041500D01*
X104648000Y-79692500D02*
X102997000Y-78041500D01*
X104648000Y-79692500D02*
X104648000Y-86106000D01*
X106172000Y-87630000D02*
X104648000Y-86106000D01*
X106172000Y-89471500D02*
X106172000Y-87630000D01*
X101345000Y-76771500D02*
X101345000Y-78041500D01*
X106172000Y-92646500D02*
X106172000Y-95059500D01*
X106172000Y-98044000D02*
X106172000Y-92011500D01*
X104267000Y-72961500D02*
X102107000Y-72961500D01*
X106680000Y-75374500D02*
X104267000Y-72961500D01*
X106680000Y-84264500D02*
X106680000Y-75374500D01*
X113792000Y-91376500D02*
X106680000Y-84264500D01*
X113792000Y-98044000D02*
X113792000Y-91376500D01*
X113792000Y-98044000D02*
X113792000Y-100965000D01*
X103632000Y-81343500D02*
X102870000Y-80581500D01*
X102870000Y-80581500D02*
X102107000Y-80581500D01*
X103632000Y-89471500D02*
X103632000Y-81343500D01*
X103632000Y-89471500D02*
X102552500Y-90551000D01*
X101028500Y-93980000D02*
X99250500Y-95758000D01*
X99250500Y-95758000D02*
X96012000Y-95758000D01*
X101028500Y-92075000D02*
X101028500Y-93980000D01*
X103632000Y-89471500D02*
X101028500Y-92075000D01*
D30*
X85725000Y-123825000D02*
X85725000Y-120015000D01*
X99060000Y-126365000D02*
X88265000Y-126365000D01*
X88265000Y-126365000D02*
X85725000Y-123825000D01*
D31*
X101345000Y-79311500D02*
X98996500Y-79311500D01*
X98171000Y-78486000D02*
X98171000Y-77152500D01*
X98996500Y-79311500D02*
X98171000Y-78486000D01*
X91894000Y-86731500D02*
X91884500Y-86741000D01*
X95821500Y-86731500D02*
X95821500Y-84201000D01*
X95821500Y-86731500D02*
X91894000Y-86731500D01*
X96901000Y-83121500D02*
X95821500Y-84201000D01*
X101345000Y-83121500D02*
X96901000Y-83121500D01*
D30*
X101092000Y-112395000D02*
X90805000Y-112395000D01*
X113792000Y-108585000D02*
X113792000Y-112395000D01*
X82804000Y-57785000D02*
X91440000Y-57785000D01*
X78740000Y-61849000D02*
X82804000Y-57785000D01*
D31*
X96267000Y-75501500D02*
X94742000Y-75501500D01*
X101345000Y-75501500D02*
X93980000Y-75501500D01*
X93980000Y-65405000D02*
X96456500Y-67881500D01*
X96456500Y-67881500D02*
X118745000Y-67881500D01*
X110745000Y-74231500D02*
X112839500Y-74231500D01*
X116649500Y-70421500D02*
X118745000Y-70421500D01*
X112839500Y-74231500D02*
X116649500Y-70421500D01*
X118745000Y-72961500D02*
X116903500Y-72961500D01*
X114363500Y-75501500D02*
X110745000Y-75501500D01*
X116903500Y-72961500D02*
X114363500Y-75501500D01*
X110745000Y-76771500D02*
X115062000Y-76771500D01*
X116332000Y-75501500D02*
X118745000Y-75501500D01*
X115062000Y-76771500D02*
X116332000Y-75501500D01*
X118745000Y-78041500D02*
X110745000Y-78041500D01*
X110745000Y-79311500D02*
X115570000Y-79311500D01*
X116840000Y-80581500D02*
X118745000Y-80581500D01*
X115570000Y-79311500D02*
X116840000Y-80581500D01*
X110745000Y-80581500D02*
X114681000Y-80581500D01*
X117221000Y-83121500D02*
X118745000Y-83121500D01*
X114681000Y-80581500D02*
X117221000Y-83121500D01*
X110745000Y-81851500D02*
X113220500Y-81851500D01*
X117030500Y-85661500D02*
X118745000Y-85661500D01*
X113220500Y-81851500D02*
X117030500Y-85661500D01*
X110745000Y-83121500D02*
X112268000Y-83121500D01*
X117348000Y-88201500D02*
X118745000Y-88201500D01*
X112268000Y-83121500D02*
X117348000Y-88201500D01*
X73911753Y-57785000D02*
X76200000Y-57785000D01*
X69850000Y-61846752D02*
X70610876Y-61085876D01*
X70610876Y-61085876D02*
X73911753Y-57785000D01*
X72390000Y-86360000D02*
X70485000Y-86360000D01*
X69850000Y-85725000D02*
X69850000Y-83185000D01*
X70485000Y-86360000D02*
X69850000Y-85725000D01*
X69850000Y-84455000D02*
X69850000Y-83185000D01*
X69850000Y-83185000D02*
X69850000Y-61846752D01*
D30*
X88265000Y-122555000D02*
X88265000Y-120015000D01*
X89535000Y-123825000D02*
X88265000Y-122555000D01*
X89535000Y-123825000D02*
X99060000Y-123825000D01*
D31*
X73660000Y-69850000D02*
X74422000Y-70612000D01*
X74422000Y-70612000D02*
X74676000Y-70866000D01*
X73660000Y-76200000D02*
X72390000Y-76200000D01*
X75184000Y-74676000D02*
X73660000Y-76200000D01*
X75184000Y-71374000D02*
X75184000Y-74676000D01*
X74422000Y-70612000D02*
X75184000Y-71374000D01*
X74110000Y-78740000D02*
X72390000Y-78740000D01*
X76200000Y-76650000D02*
X74110000Y-78740000D01*
X76200000Y-68580000D02*
X76200000Y-76650000D01*
X73660000Y-66040000D02*
X76200000Y-68580000D01*
X81915000Y-86360000D02*
X80010000Y-86360000D01*
X83288500Y-87733500D02*
X81915000Y-86360000D01*
X85090000Y-87733500D02*
X83288500Y-87733500D01*
X82500000Y-91440000D02*
X80010000Y-91440000D01*
X83706500Y-90233500D02*
X82500000Y-91440000D01*
X85090000Y-90233500D02*
X83706500Y-90233500D01*
X78290000Y-88900000D02*
X77470000Y-89720000D01*
X80010000Y-88900000D02*
X78290000Y-88900000D01*
X85090000Y-94655000D02*
X78780000Y-94655000D01*
X77470000Y-93345000D02*
X77470000Y-92075000D01*
X77470000Y-89720000D02*
X77470000Y-92075000D01*
X78780000Y-94655000D02*
X77470000Y-93345000D01*
X77470000Y-92075000D02*
X77470000Y-92710000D01*
X106743500Y-60896500D02*
X85153500Y-60896500D01*
X107950000Y-59690000D02*
X106743500Y-60896500D01*
X107950000Y-57785000D02*
X107950000Y-59690000D01*
X80010000Y-76200000D02*
X81788000Y-76200000D01*
X82835750Y-75152250D02*
X82835750Y-63214250D01*
X81788000Y-76200000D02*
X82835750Y-75152250D01*
X85153500Y-60896500D02*
X82835750Y-63214250D01*
X110745000Y-70359000D02*
X110745000Y-72961500D01*
X109474000Y-69088000D02*
X110745000Y-70359000D01*
X95377000Y-69088000D02*
X109474000Y-69088000D01*
X92329000Y-66040000D02*
X95377000Y-69088000D01*
X92329000Y-66040000D02*
X86360000Y-66040000D01*
X85090000Y-80812000D02*
X83526000Y-80812000D01*
X83058000Y-81280000D02*
X80010000Y-81280000D01*
X83526000Y-80812000D02*
X83058000Y-81280000D01*
X85090000Y-83312000D02*
X83439000Y-83312000D01*
X82931000Y-83820000D02*
X80010000Y-83820000D01*
X83439000Y-83312000D02*
X82931000Y-83820000D01*
X82764000Y-78740000D02*
X80010000Y-78740000D01*
X85090000Y-76414000D02*
X82764000Y-78740000D01*
D32*
X69085186Y-106454956D02*
X68944296Y-106744571D01*
X68862616Y-107056108D01*
X68843282Y-107377595D01*
X68887039Y-107696675D01*
X68992205Y-108001088D01*
X69085186Y-108175044D01*
X69349587Y-108270808D01*
X70305395Y-107315000D01*
X70291253Y-107300858D01*
X70470858Y-107121253D01*
X70485000Y-107135395D01*
X70499143Y-107121253D01*
X70678748Y-107300858D01*
X70664605Y-107315000D01*
X71620413Y-108270808D01*
X71884814Y-108175044D01*
X72025704Y-107885429D01*
X72107384Y-107573892D01*
X72126718Y-107252405D01*
X72082961Y-106933325D01*
X71977795Y-106628912D01*
X71884814Y-106454956D01*
X71629546Y-106362500D01*
X125810000Y-106362500D01*
X125810000Y-131445000D01*
X60706000Y-131445000D01*
X60706000Y-120142000D01*
X81750000Y-120142000D01*
X81750000Y-120542000D01*
X81802350Y-120819514D01*
X81907834Y-121081483D01*
X82062399Y-121317839D01*
X82260105Y-121519500D01*
X82493354Y-121678715D01*
X82753182Y-121789367D01*
X82835961Y-121806904D01*
X83058000Y-121684915D01*
X83058000Y-120142000D01*
X81750000Y-120142000D01*
X60706000Y-120142000D01*
X60706000Y-119488000D01*
X81750000Y-119488000D01*
X81750000Y-119888000D01*
X83058000Y-119888000D01*
X83058000Y-118345085D01*
X82835961Y-118223096D01*
X82753182Y-118240633D01*
X82493354Y-118351285D01*
X82260105Y-118510500D01*
X82062399Y-118712161D01*
X81907834Y-118948517D01*
X81802350Y-119210486D01*
X81750000Y-119488000D01*
X60706000Y-119488000D01*
X60706000Y-118427702D01*
X79196903Y-118427702D01*
X79268486Y-118671671D01*
X79523996Y-118792571D01*
X79798184Y-118861300D01*
X80080512Y-118875217D01*
X80360130Y-118833787D01*
X80626292Y-118738603D01*
X80751514Y-118671671D01*
X80823097Y-118427702D01*
X80010000Y-117614605D01*
X79196903Y-118427702D01*
X60706000Y-118427702D01*
X60706000Y-117505512D01*
X78569783Y-117505512D01*
X78611213Y-117785130D01*
X78706397Y-118051292D01*
X78773329Y-118176514D01*
X79017298Y-118248097D01*
X79830395Y-117435000D01*
X80189605Y-117435000D01*
X81002702Y-118248097D01*
X81246671Y-118176514D01*
X81367571Y-117921004D01*
X81436300Y-117646816D01*
X81450217Y-117364488D01*
X81408787Y-117084870D01*
X81313603Y-116818708D01*
X81246671Y-116693486D01*
X81002702Y-116621903D01*
X80189605Y-117435000D01*
X79830395Y-117435000D01*
X79017298Y-116621903D01*
X78773329Y-116693486D01*
X78652429Y-116948996D01*
X78583700Y-117223184D01*
X78569783Y-117505512D01*
X60706000Y-117505512D01*
X60706000Y-112233967D01*
X68850000Y-112233967D01*
X68850000Y-112556033D01*
X68912832Y-112871912D01*
X69036082Y-113169463D01*
X69215013Y-113437252D01*
X69442748Y-113664987D01*
X69710537Y-113843918D01*
X70008088Y-113967168D01*
X70323967Y-114030000D01*
X70514869Y-114030000D01*
X72183009Y-115698141D01*
X72218551Y-115741449D01*
X72391377Y-115883284D01*
X72588553Y-115988676D01*
X72802501Y-116053577D01*
X72969248Y-116070000D01*
X72969257Y-116070000D01*
X73024999Y-116075490D01*
X73080741Y-116070000D01*
X79125716Y-116070000D01*
X79295869Y-116183692D01*
X79268486Y-116198329D01*
X79196903Y-116442298D01*
X80010000Y-117255395D01*
X80823097Y-116442298D01*
X80751514Y-116198329D01*
X80722659Y-116184676D01*
X80894284Y-116070000D01*
X89670001Y-116070000D01*
X89670000Y-118735998D01*
X89606068Y-118813899D01*
X89535000Y-118946858D01*
X89463932Y-118813899D01*
X89284608Y-118595392D01*
X89066101Y-118416068D01*
X88816808Y-118282818D01*
X88546309Y-118200764D01*
X88265000Y-118173057D01*
X87983692Y-118200764D01*
X87713193Y-118282818D01*
X87463900Y-118416068D01*
X87245393Y-118595392D01*
X87066068Y-118813899D01*
X86995000Y-118946858D01*
X86923932Y-118813899D01*
X86744608Y-118595392D01*
X86526101Y-118416068D01*
X86276808Y-118282818D01*
X86006309Y-118200764D01*
X85725000Y-118173057D01*
X85443692Y-118200764D01*
X85173193Y-118282818D01*
X84923900Y-118416068D01*
X84705393Y-118595392D01*
X84526068Y-118813899D01*
X84457735Y-118941741D01*
X84307601Y-118712161D01*
X84109895Y-118510500D01*
X83876646Y-118351285D01*
X83616818Y-118240633D01*
X83534039Y-118223096D01*
X83312000Y-118345085D01*
X83312000Y-119888000D01*
X83332000Y-119888000D01*
X83332000Y-120142000D01*
X83312000Y-120142000D01*
X83312000Y-121684915D01*
X83534039Y-121806904D01*
X83616818Y-121789367D01*
X83876646Y-121678715D01*
X84109895Y-121519500D01*
X84307601Y-121317839D01*
X84457735Y-121088258D01*
X84526068Y-121216100D01*
X84590001Y-121294002D01*
X84590000Y-123769248D01*
X84584509Y-123825000D01*
X84590000Y-123880751D01*
X84606423Y-124047498D01*
X84671324Y-124261446D01*
X84776716Y-124458623D01*
X84918551Y-124631449D01*
X84961865Y-124666996D01*
X87423009Y-127128141D01*
X87458551Y-127171449D01*
X87631377Y-127313284D01*
X87828553Y-127418676D01*
X88042501Y-127483577D01*
X88209248Y-127500000D01*
X88209257Y-127500000D01*
X88264999Y-127505490D01*
X88320741Y-127500000D01*
X94284893Y-127500000D01*
X94303368Y-127518475D01*
X94546589Y-127680990D01*
X94816842Y-127792932D01*
X95103740Y-127850000D01*
X95396260Y-127850000D01*
X95683158Y-127792932D01*
X95953411Y-127680990D01*
X96196632Y-127518475D01*
X96215107Y-127500000D01*
X98094893Y-127500000D01*
X98113368Y-127518475D01*
X98356589Y-127680990D01*
X98626842Y-127792932D01*
X98913740Y-127850000D01*
X99206260Y-127850000D01*
X99493158Y-127792932D01*
X99763411Y-127680990D01*
X100006632Y-127518475D01*
X100213475Y-127311632D01*
X100375990Y-127068411D01*
X100487932Y-126798158D01*
X100545000Y-126511260D01*
X100545000Y-126218740D01*
X100487932Y-125931842D01*
X100375990Y-125661589D01*
X100213475Y-125418368D01*
X100006632Y-125211525D01*
X99832240Y-125095000D01*
X100006632Y-124978475D01*
X100213475Y-124771632D01*
X100375990Y-124528411D01*
X100487932Y-124258158D01*
X100545000Y-123971260D01*
X100545000Y-123678740D01*
X100487932Y-123391842D01*
X100375990Y-123121589D01*
X100213475Y-122878368D01*
X100081620Y-122746513D01*
X100154180Y-122724502D01*
X100264494Y-122665537D01*
X100361185Y-122586185D01*
X100440537Y-122489494D01*
X100499502Y-122379180D01*
X100535812Y-122259482D01*
X100548072Y-122135000D01*
X100545000Y-121570750D01*
X100386250Y-121412000D01*
X99187000Y-121412000D01*
X99187000Y-121432000D01*
X98933000Y-121432000D01*
X98933000Y-121412000D01*
X97733750Y-121412000D01*
X97575000Y-121570750D01*
X97571928Y-122135000D01*
X97584188Y-122259482D01*
X97620498Y-122379180D01*
X97679463Y-122489494D01*
X97758815Y-122586185D01*
X97855506Y-122665537D01*
X97901272Y-122690000D01*
X96408728Y-122690000D01*
X96454494Y-122665537D01*
X96551185Y-122586185D01*
X96630537Y-122489494D01*
X96689502Y-122379180D01*
X96725812Y-122259482D01*
X96738072Y-122135000D01*
X96735000Y-121570750D01*
X96576250Y-121412000D01*
X95377000Y-121412000D01*
X95377000Y-121432000D01*
X95123000Y-121432000D01*
X95123000Y-121412000D01*
X93923750Y-121412000D01*
X93765000Y-121570750D01*
X93761928Y-122135000D01*
X93774188Y-122259482D01*
X93810498Y-122379180D01*
X93869463Y-122489494D01*
X93948815Y-122586185D01*
X94045506Y-122665537D01*
X94091272Y-122690000D01*
X90005132Y-122690000D01*
X89400000Y-122084869D01*
X89400000Y-121294002D01*
X89463932Y-121216101D01*
X89535000Y-121083142D01*
X89606068Y-121216100D01*
X89785392Y-121434607D01*
X90003899Y-121613932D01*
X90253192Y-121747182D01*
X90523691Y-121829236D01*
X90805000Y-121856943D01*
X91086308Y-121829236D01*
X91356807Y-121747182D01*
X91606100Y-121613932D01*
X91824607Y-121434608D01*
X92003932Y-121216101D01*
X92137182Y-120966808D01*
X92219236Y-120696309D01*
X92240000Y-120485492D01*
X92240000Y-120435000D01*
X93761928Y-120435000D01*
X93765000Y-120999250D01*
X93923750Y-121158000D01*
X95123000Y-121158000D01*
X95123000Y-119958750D01*
X95377000Y-119958750D01*
X95377000Y-121158000D01*
X96576250Y-121158000D01*
X96735000Y-120999250D01*
X96738072Y-120435000D01*
X97571928Y-120435000D01*
X97575000Y-120999250D01*
X97733750Y-121158000D01*
X98933000Y-121158000D01*
X98933000Y-119958750D01*
X99187000Y-119958750D01*
X99187000Y-121158000D01*
X100386250Y-121158000D01*
X100545000Y-120999250D01*
X100548072Y-120435000D01*
X100535812Y-120310518D01*
X100499502Y-120190820D01*
X100440537Y-120080506D01*
X100361185Y-119983815D01*
X100264494Y-119904463D01*
X100154180Y-119845498D01*
X100034482Y-119809188D01*
X99910000Y-119796928D01*
X99345750Y-119800000D01*
X99187000Y-119958750D01*
X98933000Y-119958750D01*
X98774250Y-119800000D01*
X98210000Y-119796928D01*
X98085518Y-119809188D01*
X97965820Y-119845498D01*
X97855506Y-119904463D01*
X97758815Y-119983815D01*
X97679463Y-120080506D01*
X97620498Y-120190820D01*
X97584188Y-120310518D01*
X97571928Y-120435000D01*
X96738072Y-120435000D01*
X96725812Y-120310518D01*
X96689502Y-120190820D01*
X96630537Y-120080506D01*
X96551185Y-119983815D01*
X96454494Y-119904463D01*
X96344180Y-119845498D01*
X96224482Y-119809188D01*
X96100000Y-119796928D01*
X95535750Y-119800000D01*
X95377000Y-119958750D01*
X95123000Y-119958750D01*
X94964250Y-119800000D01*
X94400000Y-119796928D01*
X94275518Y-119809188D01*
X94155820Y-119845498D01*
X94045506Y-119904463D01*
X93948815Y-119983815D01*
X93869463Y-120080506D01*
X93810498Y-120190820D01*
X93774188Y-120310518D01*
X93761928Y-120435000D01*
X92240000Y-120435000D01*
X92240000Y-119544509D01*
X92219236Y-119333691D01*
X92137182Y-119063192D01*
X92003932Y-118813899D01*
X91940000Y-118735998D01*
X91940000Y-116070000D01*
X109291249Y-116070000D01*
X109347000Y-116075491D01*
X109402751Y-116070000D01*
X109402752Y-116070000D01*
X109569499Y-116053577D01*
X109783447Y-115988676D01*
X109980623Y-115883284D01*
X110153449Y-115741449D01*
X110188996Y-115698135D01*
X112015141Y-113871991D01*
X112058449Y-113836449D01*
X112200284Y-113663623D01*
X112305676Y-113466447D01*
X112370577Y-113252499D01*
X112387000Y-113085752D01*
X112392491Y-113030000D01*
X112387000Y-112974248D01*
X112387000Y-112687153D01*
X112412147Y-112813574D01*
X112520320Y-113074727D01*
X112677363Y-113309759D01*
X112877241Y-113509637D01*
X113112273Y-113666680D01*
X113373426Y-113774853D01*
X113650665Y-113830000D01*
X113933335Y-113830000D01*
X114210574Y-113774853D01*
X114471727Y-113666680D01*
X114706759Y-113509637D01*
X114906637Y-113309759D01*
X115063680Y-113074727D01*
X115171853Y-112813574D01*
X115227000Y-112536335D01*
X115227000Y-112253665D01*
X115171853Y-111976426D01*
X115063680Y-111715273D01*
X114927000Y-111510716D01*
X114927000Y-109864002D01*
X114990932Y-109786101D01*
X115062000Y-109653142D01*
X115133068Y-109786101D01*
X115312393Y-110004608D01*
X115530900Y-110183932D01*
X115780193Y-110317182D01*
X116050692Y-110399236D01*
X116332000Y-110426943D01*
X116613309Y-110399236D01*
X116883808Y-110317182D01*
X117133101Y-110183932D01*
X117351608Y-110004608D01*
X117530932Y-109786101D01*
X117664182Y-109536808D01*
X117746236Y-109266309D01*
X117767000Y-109055491D01*
X117767000Y-108114508D01*
X117746236Y-107903691D01*
X117664182Y-107633192D01*
X117530932Y-107383899D01*
X117351607Y-107165392D01*
X117133100Y-106986068D01*
X116883807Y-106852818D01*
X116613308Y-106770764D01*
X116332000Y-106743057D01*
X116050691Y-106770764D01*
X115780192Y-106852818D01*
X115530899Y-106986068D01*
X115312392Y-107165393D01*
X115133068Y-107383900D01*
X115062000Y-107516858D01*
X114990932Y-107383899D01*
X114811607Y-107165392D01*
X114593100Y-106986068D01*
X114343807Y-106852818D01*
X114073308Y-106770764D01*
X113792000Y-106743057D01*
X113510691Y-106770764D01*
X113240192Y-106852818D01*
X112990899Y-106986068D01*
X112772392Y-107165393D01*
X112593068Y-107383900D01*
X112522000Y-107516858D01*
X112450932Y-107383899D01*
X112271607Y-107165392D01*
X112053100Y-106986068D01*
X111803807Y-106852818D01*
X111533308Y-106770764D01*
X111252000Y-106743057D01*
X110970691Y-106770764D01*
X110700192Y-106852818D01*
X110450899Y-106986068D01*
X110232392Y-107165393D01*
X110139581Y-107278483D01*
X110137812Y-107260518D01*
X110101502Y-107140820D01*
X110042537Y-107030506D01*
X109963185Y-106933815D01*
X109866494Y-106854463D01*
X109756180Y-106795498D01*
X109636482Y-106759188D01*
X109512000Y-106746928D01*
X107912000Y-106746928D01*
X107787518Y-106759188D01*
X107667820Y-106795498D01*
X107557506Y-106854463D01*
X107460815Y-106933815D01*
X107381463Y-107030506D01*
X107322498Y-107140820D01*
X107286188Y-107260518D01*
X107273928Y-107385000D01*
X107273928Y-109785000D01*
X107286188Y-109909482D01*
X107322498Y-110029180D01*
X107381463Y-110139494D01*
X107460815Y-110236185D01*
X107557506Y-110315537D01*
X107667820Y-110374502D01*
X107787518Y-110410812D01*
X107912000Y-110423072D01*
X109512000Y-110423072D01*
X109636482Y-110410812D01*
X109756180Y-110374502D01*
X109866494Y-110315537D01*
X109963185Y-110236185D01*
X110042537Y-110139494D01*
X110101502Y-110029180D01*
X110117000Y-109978089D01*
X110117001Y-112559867D01*
X108876869Y-113800000D01*
X101384153Y-113800000D01*
X101510574Y-113774853D01*
X101771727Y-113666680D01*
X102006759Y-113509637D01*
X102206637Y-113309759D01*
X102363680Y-113074727D01*
X102471853Y-112813574D01*
X102527000Y-112536335D01*
X102527000Y-112253665D01*
X102471853Y-111976426D01*
X102363680Y-111715273D01*
X102206637Y-111480241D01*
X102006759Y-111280363D01*
X101771727Y-111123320D01*
X101510574Y-111015147D01*
X101233335Y-110960000D01*
X100950665Y-110960000D01*
X100673426Y-111015147D01*
X100412273Y-111123320D01*
X100207716Y-111260000D01*
X92243072Y-111260000D01*
X92243072Y-111195000D01*
X92230812Y-111070518D01*
X92194502Y-110950820D01*
X92135537Y-110840506D01*
X92056185Y-110743815D01*
X91959494Y-110664463D01*
X91849180Y-110605498D01*
X91729482Y-110569188D01*
X91605000Y-110556928D01*
X90005000Y-110556928D01*
X89880518Y-110569188D01*
X89760820Y-110605498D01*
X89650506Y-110664463D01*
X89553815Y-110743815D01*
X89474463Y-110840506D01*
X89415498Y-110950820D01*
X89379188Y-111070518D01*
X89378019Y-111082387D01*
X89189895Y-110890500D01*
X88956646Y-110731285D01*
X88696818Y-110620633D01*
X88614039Y-110603096D01*
X88392000Y-110725085D01*
X88392000Y-112268000D01*
X88412000Y-112268000D01*
X88412000Y-112522000D01*
X88392000Y-112522000D01*
X88392000Y-112542000D01*
X88138000Y-112542000D01*
X88138000Y-112522000D01*
X85852000Y-112522000D01*
X85852000Y-112542000D01*
X85598000Y-112542000D01*
X85598000Y-112522000D01*
X83312000Y-112522000D01*
X83312000Y-112542000D01*
X83058000Y-112542000D01*
X83058000Y-112522000D01*
X81750000Y-112522000D01*
X81750000Y-112922000D01*
X81802350Y-113199514D01*
X81907834Y-113461483D01*
X82062399Y-113697839D01*
X82162556Y-113800000D01*
X80894284Y-113800000D01*
X80689727Y-113663320D01*
X80428574Y-113555147D01*
X80151335Y-113500000D01*
X79868665Y-113500000D01*
X79591426Y-113555147D01*
X79330273Y-113663320D01*
X79125716Y-113800000D01*
X73495132Y-113800000D01*
X72120000Y-112424869D01*
X72120000Y-112233967D01*
X72057168Y-111918088D01*
X72036421Y-111868000D01*
X81750000Y-111868000D01*
X81750000Y-112268000D01*
X83058000Y-112268000D01*
X83058000Y-110725085D01*
X83312000Y-110725085D01*
X83312000Y-112268000D01*
X85598000Y-112268000D01*
X85598000Y-110725085D01*
X85852000Y-110725085D01*
X85852000Y-112268000D01*
X88138000Y-112268000D01*
X88138000Y-110725085D01*
X87915961Y-110603096D01*
X87833182Y-110620633D01*
X87573354Y-110731285D01*
X87340105Y-110890500D01*
X87142399Y-111092161D01*
X86995000Y-111317559D01*
X86847601Y-111092161D01*
X86649895Y-110890500D01*
X86416646Y-110731285D01*
X86156818Y-110620633D01*
X86074039Y-110603096D01*
X85852000Y-110725085D01*
X85598000Y-110725085D01*
X85375961Y-110603096D01*
X85293182Y-110620633D01*
X85033354Y-110731285D01*
X84800105Y-110890500D01*
X84602399Y-111092161D01*
X84455000Y-111317559D01*
X84307601Y-111092161D01*
X84109895Y-110890500D01*
X83876646Y-110731285D01*
X83616818Y-110620633D01*
X83534039Y-110603096D01*
X83312000Y-110725085D01*
X83058000Y-110725085D01*
X82835961Y-110603096D01*
X82753182Y-110620633D01*
X82493354Y-110731285D01*
X82260105Y-110890500D01*
X82062399Y-111092161D01*
X81907834Y-111328517D01*
X81802350Y-111590486D01*
X81750000Y-111868000D01*
X72036421Y-111868000D01*
X71933918Y-111620537D01*
X71754987Y-111352748D01*
X71527252Y-111125013D01*
X71259463Y-110946082D01*
X70961912Y-110822832D01*
X70646033Y-110760000D01*
X70323967Y-110760000D01*
X70008088Y-110822832D01*
X69710537Y-110946082D01*
X69442748Y-111125013D01*
X69215013Y-111352748D01*
X69036082Y-111620537D01*
X68912832Y-111918088D01*
X68850000Y-112233967D01*
X60706000Y-112233967D01*
X60706000Y-108450413D01*
X69529192Y-108450413D01*
X69624956Y-108714814D01*
X69914571Y-108855704D01*
X70226108Y-108937384D01*
X70547595Y-108956718D01*
X70866675Y-108912961D01*
X71171088Y-108807795D01*
X71345044Y-108714814D01*
X71440808Y-108450413D01*
X70485000Y-107494605D01*
X69529192Y-108450413D01*
X60706000Y-108450413D01*
X60706000Y-106362500D01*
X69340454Y-106362500D01*
X69085186Y-106454956D01*
G04 #@! TA.AperFunction,Conductor*
D33*
G36*
X69085186Y-106454956D02*
G01*
X68944296Y-106744571D01*
X68862616Y-107056108D01*
X68843282Y-107377595D01*
X68887039Y-107696675D01*
X68992205Y-108001088D01*
X69085186Y-108175044D01*
X69349587Y-108270808D01*
X70305395Y-107315000D01*
X70291253Y-107300858D01*
X70470858Y-107121253D01*
X70485000Y-107135395D01*
X70499143Y-107121253D01*
X70678748Y-107300858D01*
X70664605Y-107315000D01*
X71620413Y-108270808D01*
X71884814Y-108175044D01*
X72025704Y-107885429D01*
X72107384Y-107573892D01*
X72126718Y-107252405D01*
X72082961Y-106933325D01*
X71977795Y-106628912D01*
X71884814Y-106454956D01*
X71629546Y-106362500D01*
X125810000Y-106362500D01*
X125810000Y-131445000D01*
X60706000Y-131445000D01*
X60706000Y-120142000D01*
X81750000Y-120142000D01*
X81750000Y-120542000D01*
X81802350Y-120819514D01*
X81907834Y-121081483D01*
X82062399Y-121317839D01*
X82260105Y-121519500D01*
X82493354Y-121678715D01*
X82753182Y-121789367D01*
X82835961Y-121806904D01*
X83058000Y-121684915D01*
X83058000Y-120142000D01*
X81750000Y-120142000D01*
X60706000Y-120142000D01*
X60706000Y-119488000D01*
X81750000Y-119488000D01*
X81750000Y-119888000D01*
X83058000Y-119888000D01*
X83058000Y-118345085D01*
X82835961Y-118223096D01*
X82753182Y-118240633D01*
X82493354Y-118351285D01*
X82260105Y-118510500D01*
X82062399Y-118712161D01*
X81907834Y-118948517D01*
X81802350Y-119210486D01*
X81750000Y-119488000D01*
X60706000Y-119488000D01*
X60706000Y-118427702D01*
X79196903Y-118427702D01*
X79268486Y-118671671D01*
X79523996Y-118792571D01*
X79798184Y-118861300D01*
X80080512Y-118875217D01*
X80360130Y-118833787D01*
X80626292Y-118738603D01*
X80751514Y-118671671D01*
X80823097Y-118427702D01*
X80010000Y-117614605D01*
X79196903Y-118427702D01*
X60706000Y-118427702D01*
X60706000Y-117505512D01*
X78569783Y-117505512D01*
X78611213Y-117785130D01*
X78706397Y-118051292D01*
X78773329Y-118176514D01*
X79017298Y-118248097D01*
X79830395Y-117435000D01*
X80189605Y-117435000D01*
X81002702Y-118248097D01*
X81246671Y-118176514D01*
X81367571Y-117921004D01*
X81436300Y-117646816D01*
X81450217Y-117364488D01*
X81408787Y-117084870D01*
X81313603Y-116818708D01*
X81246671Y-116693486D01*
X81002702Y-116621903D01*
X80189605Y-117435000D01*
X79830395Y-117435000D01*
X79017298Y-116621903D01*
X78773329Y-116693486D01*
X78652429Y-116948996D01*
X78583700Y-117223184D01*
X78569783Y-117505512D01*
X60706000Y-117505512D01*
X60706000Y-112233967D01*
X68850000Y-112233967D01*
X68850000Y-112556033D01*
X68912832Y-112871912D01*
X69036082Y-113169463D01*
X69215013Y-113437252D01*
X69442748Y-113664987D01*
X69710537Y-113843918D01*
X70008088Y-113967168D01*
X70323967Y-114030000D01*
X70514869Y-114030000D01*
X72183009Y-115698141D01*
X72218551Y-115741449D01*
X72391377Y-115883284D01*
X72588553Y-115988676D01*
X72802501Y-116053577D01*
X72969248Y-116070000D01*
X72969257Y-116070000D01*
X73024999Y-116075490D01*
X73080741Y-116070000D01*
X79125716Y-116070000D01*
X79295869Y-116183692D01*
X79268486Y-116198329D01*
X79196903Y-116442298D01*
X80010000Y-117255395D01*
X80823097Y-116442298D01*
X80751514Y-116198329D01*
X80722659Y-116184676D01*
X80894284Y-116070000D01*
X89670001Y-116070000D01*
X89670000Y-118735998D01*
X89606068Y-118813899D01*
X89535000Y-118946858D01*
X89463932Y-118813899D01*
X89284608Y-118595392D01*
X89066101Y-118416068D01*
X88816808Y-118282818D01*
X88546309Y-118200764D01*
X88265000Y-118173057D01*
X87983692Y-118200764D01*
X87713193Y-118282818D01*
X87463900Y-118416068D01*
X87245393Y-118595392D01*
X87066068Y-118813899D01*
X86995000Y-118946858D01*
X86923932Y-118813899D01*
X86744608Y-118595392D01*
X86526101Y-118416068D01*
X86276808Y-118282818D01*
X86006309Y-118200764D01*
X85725000Y-118173057D01*
X85443692Y-118200764D01*
X85173193Y-118282818D01*
X84923900Y-118416068D01*
X84705393Y-118595392D01*
X84526068Y-118813899D01*
X84457735Y-118941741D01*
X84307601Y-118712161D01*
X84109895Y-118510500D01*
X83876646Y-118351285D01*
X83616818Y-118240633D01*
X83534039Y-118223096D01*
X83312000Y-118345085D01*
X83312000Y-119888000D01*
X83332000Y-119888000D01*
X83332000Y-120142000D01*
X83312000Y-120142000D01*
X83312000Y-121684915D01*
X83534039Y-121806904D01*
X83616818Y-121789367D01*
X83876646Y-121678715D01*
X84109895Y-121519500D01*
X84307601Y-121317839D01*
X84457735Y-121088258D01*
X84526068Y-121216100D01*
X84590001Y-121294002D01*
X84590000Y-123769248D01*
X84584509Y-123825000D01*
X84590000Y-123880751D01*
X84606423Y-124047498D01*
X84671324Y-124261446D01*
X84776716Y-124458623D01*
X84918551Y-124631449D01*
X84961865Y-124666996D01*
X87423009Y-127128141D01*
X87458551Y-127171449D01*
X87631377Y-127313284D01*
X87828553Y-127418676D01*
X88042501Y-127483577D01*
X88209248Y-127500000D01*
X88209257Y-127500000D01*
X88264999Y-127505490D01*
X88320741Y-127500000D01*
X94284893Y-127500000D01*
X94303368Y-127518475D01*
X94546589Y-127680990D01*
X94816842Y-127792932D01*
X95103740Y-127850000D01*
X95396260Y-127850000D01*
X95683158Y-127792932D01*
X95953411Y-127680990D01*
X96196632Y-127518475D01*
X96215107Y-127500000D01*
X98094893Y-127500000D01*
X98113368Y-127518475D01*
X98356589Y-127680990D01*
X98626842Y-127792932D01*
X98913740Y-127850000D01*
X99206260Y-127850000D01*
X99493158Y-127792932D01*
X99763411Y-127680990D01*
X100006632Y-127518475D01*
X100213475Y-127311632D01*
X100375990Y-127068411D01*
X100487932Y-126798158D01*
X100545000Y-126511260D01*
X100545000Y-126218740D01*
X100487932Y-125931842D01*
X100375990Y-125661589D01*
X100213475Y-125418368D01*
X100006632Y-125211525D01*
X99832240Y-125095000D01*
X100006632Y-124978475D01*
X100213475Y-124771632D01*
X100375990Y-124528411D01*
X100487932Y-124258158D01*
X100545000Y-123971260D01*
X100545000Y-123678740D01*
X100487932Y-123391842D01*
X100375990Y-123121589D01*
X100213475Y-122878368D01*
X100081620Y-122746513D01*
X100154180Y-122724502D01*
X100264494Y-122665537D01*
X100361185Y-122586185D01*
X100440537Y-122489494D01*
X100499502Y-122379180D01*
X100535812Y-122259482D01*
X100548072Y-122135000D01*
X100545000Y-121570750D01*
X100386250Y-121412000D01*
X99187000Y-121412000D01*
X99187000Y-121432000D01*
X98933000Y-121432000D01*
X98933000Y-121412000D01*
X97733750Y-121412000D01*
X97575000Y-121570750D01*
X97571928Y-122135000D01*
X97584188Y-122259482D01*
X97620498Y-122379180D01*
X97679463Y-122489494D01*
X97758815Y-122586185D01*
X97855506Y-122665537D01*
X97901272Y-122690000D01*
X96408728Y-122690000D01*
X96454494Y-122665537D01*
X96551185Y-122586185D01*
X96630537Y-122489494D01*
X96689502Y-122379180D01*
X96725812Y-122259482D01*
X96738072Y-122135000D01*
X96735000Y-121570750D01*
X96576250Y-121412000D01*
X95377000Y-121412000D01*
X95377000Y-121432000D01*
X95123000Y-121432000D01*
X95123000Y-121412000D01*
X93923750Y-121412000D01*
X93765000Y-121570750D01*
X93761928Y-122135000D01*
X93774188Y-122259482D01*
X93810498Y-122379180D01*
X93869463Y-122489494D01*
X93948815Y-122586185D01*
X94045506Y-122665537D01*
X94091272Y-122690000D01*
X90005132Y-122690000D01*
X89400000Y-122084869D01*
X89400000Y-121294002D01*
X89463932Y-121216101D01*
X89535000Y-121083142D01*
X89606068Y-121216100D01*
X89785392Y-121434607D01*
X90003899Y-121613932D01*
X90253192Y-121747182D01*
X90523691Y-121829236D01*
X90805000Y-121856943D01*
X91086308Y-121829236D01*
X91356807Y-121747182D01*
X91606100Y-121613932D01*
X91824607Y-121434608D01*
X92003932Y-121216101D01*
X92137182Y-120966808D01*
X92219236Y-120696309D01*
X92240000Y-120485492D01*
X92240000Y-120435000D01*
X93761928Y-120435000D01*
X93765000Y-120999250D01*
X93923750Y-121158000D01*
X95123000Y-121158000D01*
X95123000Y-119958750D01*
X95377000Y-119958750D01*
X95377000Y-121158000D01*
X96576250Y-121158000D01*
X96735000Y-120999250D01*
X96738072Y-120435000D01*
X97571928Y-120435000D01*
X97575000Y-120999250D01*
X97733750Y-121158000D01*
X98933000Y-121158000D01*
X98933000Y-119958750D01*
X99187000Y-119958750D01*
X99187000Y-121158000D01*
X100386250Y-121158000D01*
X100545000Y-120999250D01*
X100548072Y-120435000D01*
X100535812Y-120310518D01*
X100499502Y-120190820D01*
X100440537Y-120080506D01*
X100361185Y-119983815D01*
X100264494Y-119904463D01*
X100154180Y-119845498D01*
X100034482Y-119809188D01*
X99910000Y-119796928D01*
X99345750Y-119800000D01*
X99187000Y-119958750D01*
X98933000Y-119958750D01*
X98774250Y-119800000D01*
X98210000Y-119796928D01*
X98085518Y-119809188D01*
X97965820Y-119845498D01*
X97855506Y-119904463D01*
X97758815Y-119983815D01*
X97679463Y-120080506D01*
X97620498Y-120190820D01*
X97584188Y-120310518D01*
X97571928Y-120435000D01*
X96738072Y-120435000D01*
X96725812Y-120310518D01*
X96689502Y-120190820D01*
X96630537Y-120080506D01*
X96551185Y-119983815D01*
X96454494Y-119904463D01*
X96344180Y-119845498D01*
X96224482Y-119809188D01*
X96100000Y-119796928D01*
X95535750Y-119800000D01*
X95377000Y-119958750D01*
X95123000Y-119958750D01*
X94964250Y-119800000D01*
X94400000Y-119796928D01*
X94275518Y-119809188D01*
X94155820Y-119845498D01*
X94045506Y-119904463D01*
X93948815Y-119983815D01*
X93869463Y-120080506D01*
X93810498Y-120190820D01*
X93774188Y-120310518D01*
X93761928Y-120435000D01*
X92240000Y-120435000D01*
X92240000Y-119544509D01*
X92219236Y-119333691D01*
X92137182Y-119063192D01*
X92003932Y-118813899D01*
X91940000Y-118735998D01*
X91940000Y-116070000D01*
X109291249Y-116070000D01*
X109347000Y-116075491D01*
X109402751Y-116070000D01*
X109402752Y-116070000D01*
X109569499Y-116053577D01*
X109783447Y-115988676D01*
X109980623Y-115883284D01*
X110153449Y-115741449D01*
X110188996Y-115698135D01*
X112015141Y-113871991D01*
X112058449Y-113836449D01*
X112200284Y-113663623D01*
X112305676Y-113466447D01*
X112370577Y-113252499D01*
X112387000Y-113085752D01*
X112392491Y-113030000D01*
X112387000Y-112974248D01*
X112387000Y-112687153D01*
X112412147Y-112813574D01*
X112520320Y-113074727D01*
X112677363Y-113309759D01*
X112877241Y-113509637D01*
X113112273Y-113666680D01*
X113373426Y-113774853D01*
X113650665Y-113830000D01*
X113933335Y-113830000D01*
X114210574Y-113774853D01*
X114471727Y-113666680D01*
X114706759Y-113509637D01*
X114906637Y-113309759D01*
X115063680Y-113074727D01*
X115171853Y-112813574D01*
X115227000Y-112536335D01*
X115227000Y-112253665D01*
X115171853Y-111976426D01*
X115063680Y-111715273D01*
X114927000Y-111510716D01*
X114927000Y-109864002D01*
X114990932Y-109786101D01*
X115062000Y-109653142D01*
X115133068Y-109786101D01*
X115312393Y-110004608D01*
X115530900Y-110183932D01*
X115780193Y-110317182D01*
X116050692Y-110399236D01*
X116332000Y-110426943D01*
X116613309Y-110399236D01*
X116883808Y-110317182D01*
X117133101Y-110183932D01*
X117351608Y-110004608D01*
X117530932Y-109786101D01*
X117664182Y-109536808D01*
X117746236Y-109266309D01*
X117767000Y-109055491D01*
X117767000Y-108114508D01*
X117746236Y-107903691D01*
X117664182Y-107633192D01*
X117530932Y-107383899D01*
X117351607Y-107165392D01*
X117133100Y-106986068D01*
X116883807Y-106852818D01*
X116613308Y-106770764D01*
X116332000Y-106743057D01*
X116050691Y-106770764D01*
X115780192Y-106852818D01*
X115530899Y-106986068D01*
X115312392Y-107165393D01*
X115133068Y-107383900D01*
X115062000Y-107516858D01*
X114990932Y-107383899D01*
X114811607Y-107165392D01*
X114593100Y-106986068D01*
X114343807Y-106852818D01*
X114073308Y-106770764D01*
X113792000Y-106743057D01*
X113510691Y-106770764D01*
X113240192Y-106852818D01*
X112990899Y-106986068D01*
X112772392Y-107165393D01*
X112593068Y-107383900D01*
X112522000Y-107516858D01*
X112450932Y-107383899D01*
X112271607Y-107165392D01*
X112053100Y-106986068D01*
X111803807Y-106852818D01*
X111533308Y-106770764D01*
X111252000Y-106743057D01*
X110970691Y-106770764D01*
X110700192Y-106852818D01*
X110450899Y-106986068D01*
X110232392Y-107165393D01*
X110139581Y-107278483D01*
X110137812Y-107260518D01*
X110101502Y-107140820D01*
X110042537Y-107030506D01*
X109963185Y-106933815D01*
X109866494Y-106854463D01*
X109756180Y-106795498D01*
X109636482Y-106759188D01*
X109512000Y-106746928D01*
X107912000Y-106746928D01*
X107787518Y-106759188D01*
X107667820Y-106795498D01*
X107557506Y-106854463D01*
X107460815Y-106933815D01*
X107381463Y-107030506D01*
X107322498Y-107140820D01*
X107286188Y-107260518D01*
X107273928Y-107385000D01*
X107273928Y-109785000D01*
X107286188Y-109909482D01*
X107322498Y-110029180D01*
X107381463Y-110139494D01*
X107460815Y-110236185D01*
X107557506Y-110315537D01*
X107667820Y-110374502D01*
X107787518Y-110410812D01*
X107912000Y-110423072D01*
X109512000Y-110423072D01*
X109636482Y-110410812D01*
X109756180Y-110374502D01*
X109866494Y-110315537D01*
X109963185Y-110236185D01*
X110042537Y-110139494D01*
X110101502Y-110029180D01*
X110117000Y-109978089D01*
X110117001Y-112559867D01*
X108876869Y-113800000D01*
X101384153Y-113800000D01*
X101510574Y-113774853D01*
X101771727Y-113666680D01*
X102006759Y-113509637D01*
X102206637Y-113309759D01*
X102363680Y-113074727D01*
X102471853Y-112813574D01*
X102527000Y-112536335D01*
X102527000Y-112253665D01*
X102471853Y-111976426D01*
X102363680Y-111715273D01*
X102206637Y-111480241D01*
X102006759Y-111280363D01*
X101771727Y-111123320D01*
X101510574Y-111015147D01*
X101233335Y-110960000D01*
X100950665Y-110960000D01*
X100673426Y-111015147D01*
X100412273Y-111123320D01*
X100207716Y-111260000D01*
X92243072Y-111260000D01*
X92243072Y-111195000D01*
X92230812Y-111070518D01*
X92194502Y-110950820D01*
X92135537Y-110840506D01*
X92056185Y-110743815D01*
X91959494Y-110664463D01*
X91849180Y-110605498D01*
X91729482Y-110569188D01*
X91605000Y-110556928D01*
X90005000Y-110556928D01*
X89880518Y-110569188D01*
X89760820Y-110605498D01*
X89650506Y-110664463D01*
X89553815Y-110743815D01*
X89474463Y-110840506D01*
X89415498Y-110950820D01*
X89379188Y-111070518D01*
X89378019Y-111082387D01*
X89189895Y-110890500D01*
X88956646Y-110731285D01*
X88696818Y-110620633D01*
X88614039Y-110603096D01*
X88392000Y-110725085D01*
X88392000Y-112268000D01*
X88412000Y-112268000D01*
X88412000Y-112522000D01*
X88392000Y-112522000D01*
X88392000Y-112542000D01*
X88138000Y-112542000D01*
X88138000Y-112522000D01*
X85852000Y-112522000D01*
X85852000Y-112542000D01*
X85598000Y-112542000D01*
X85598000Y-112522000D01*
X83312000Y-112522000D01*
X83312000Y-112542000D01*
X83058000Y-112542000D01*
X83058000Y-112522000D01*
X81750000Y-112522000D01*
X81750000Y-112922000D01*
X81802350Y-113199514D01*
X81907834Y-113461483D01*
X82062399Y-113697839D01*
X82162556Y-113800000D01*
X80894284Y-113800000D01*
X80689727Y-113663320D01*
X80428574Y-113555147D01*
X80151335Y-113500000D01*
X79868665Y-113500000D01*
X79591426Y-113555147D01*
X79330273Y-113663320D01*
X79125716Y-113800000D01*
X73495132Y-113800000D01*
X72120000Y-112424869D01*
X72120000Y-112233967D01*
X72057168Y-111918088D01*
X72036421Y-111868000D01*
X81750000Y-111868000D01*
X81750000Y-112268000D01*
X83058000Y-112268000D01*
X83058000Y-110725085D01*
X83312000Y-110725085D01*
X83312000Y-112268000D01*
X85598000Y-112268000D01*
X85598000Y-110725085D01*
X85852000Y-110725085D01*
X85852000Y-112268000D01*
X88138000Y-112268000D01*
X88138000Y-110725085D01*
X87915961Y-110603096D01*
X87833182Y-110620633D01*
X87573354Y-110731285D01*
X87340105Y-110890500D01*
X87142399Y-111092161D01*
X86995000Y-111317559D01*
X86847601Y-111092161D01*
X86649895Y-110890500D01*
X86416646Y-110731285D01*
X86156818Y-110620633D01*
X86074039Y-110603096D01*
X85852000Y-110725085D01*
X85598000Y-110725085D01*
X85375961Y-110603096D01*
X85293182Y-110620633D01*
X85033354Y-110731285D01*
X84800105Y-110890500D01*
X84602399Y-111092161D01*
X84455000Y-111317559D01*
X84307601Y-111092161D01*
X84109895Y-110890500D01*
X83876646Y-110731285D01*
X83616818Y-110620633D01*
X83534039Y-110603096D01*
X83312000Y-110725085D01*
X83058000Y-110725085D01*
X82835961Y-110603096D01*
X82753182Y-110620633D01*
X82493354Y-110731285D01*
X82260105Y-110890500D01*
X82062399Y-111092161D01*
X81907834Y-111328517D01*
X81802350Y-111590486D01*
X81750000Y-111868000D01*
X72036421Y-111868000D01*
X71933918Y-111620537D01*
X71754987Y-111352748D01*
X71527252Y-111125013D01*
X71259463Y-110946082D01*
X70961912Y-110822832D01*
X70646033Y-110760000D01*
X70323967Y-110760000D01*
X70008088Y-110822832D01*
X69710537Y-110946082D01*
X69442748Y-111125013D01*
X69215013Y-111352748D01*
X69036082Y-111620537D01*
X68912832Y-111918088D01*
X68850000Y-112233967D01*
X60706000Y-112233967D01*
X60706000Y-108450413D01*
X69529192Y-108450413D01*
X69624956Y-108714814D01*
X69914571Y-108855704D01*
X70226108Y-108937384D01*
X70547595Y-108956718D01*
X70866675Y-108912961D01*
X71171088Y-108807795D01*
X71345044Y-108714814D01*
X71440808Y-108450413D01*
X70485000Y-107494605D01*
X69529192Y-108450413D01*
X60706000Y-108450413D01*
X60706000Y-106362500D01*
X69340454Y-106362500D01*
X69085186Y-106454956D01*
G37*
G04 #@! TD.AperFunction*
D32*
X125810001Y-51530000D02*
X123187581Y-51530000D01*
X123153862Y-51533321D01*
X123131161Y-51533321D01*
X123121996Y-51534284D01*
X122782586Y-51572355D01*
X122724089Y-51584789D01*
X122665395Y-51596411D01*
X122656592Y-51599136D01*
X122331039Y-51702407D01*
X122276092Y-51725958D01*
X122220751Y-51748767D01*
X122212645Y-51753150D01*
X121913351Y-51917688D01*
X121863979Y-51951494D01*
X121814168Y-51984588D01*
X121807068Y-51990462D01*
X121545433Y-52210000D01*
X121503589Y-52252730D01*
X121461135Y-52294888D01*
X121455310Y-52302030D01*
X121241300Y-52568205D01*
X121208547Y-52618257D01*
X121175094Y-52667852D01*
X121170771Y-52675984D01*
X121170768Y-52675988D01*
X121170768Y-52675989D01*
X121012534Y-52978663D01*
X120990138Y-53034095D01*
X120966944Y-53089271D01*
X120964281Y-53098093D01*
X120867850Y-53425738D01*
X120856652Y-53484439D01*
X120844612Y-53543095D01*
X120843713Y-53552266D01*
X120812759Y-53892401D01*
X120813177Y-53952217D01*
X120812759Y-54012033D01*
X120813658Y-54021205D01*
X120849358Y-54360874D01*
X120861390Y-54419486D01*
X120872595Y-54478231D01*
X120875259Y-54487053D01*
X120976255Y-54813319D01*
X120999435Y-54868462D01*
X121021844Y-54923927D01*
X121026171Y-54932064D01*
X121188616Y-55232500D01*
X121222061Y-55282084D01*
X121254821Y-55332147D01*
X121260646Y-55339288D01*
X121478351Y-55602449D01*
X121520823Y-55644626D01*
X121562651Y-55687339D01*
X121569751Y-55693213D01*
X121834426Y-55909076D01*
X121884250Y-55942179D01*
X121933606Y-55975974D01*
X121941713Y-55980357D01*
X122243274Y-56140701D01*
X122298580Y-56163496D01*
X122353563Y-56187062D01*
X122362366Y-56189787D01*
X122689329Y-56288503D01*
X122748000Y-56300120D01*
X122806521Y-56312559D01*
X122815686Y-56313522D01*
X123155596Y-56346850D01*
X123155598Y-56346850D01*
X123187581Y-56350000D01*
X125810001Y-56350000D01*
X125810000Y-103187500D01*
X71629546Y-103187500D01*
X71884814Y-103095044D01*
X72025704Y-102805429D01*
X72107384Y-102493892D01*
X72126718Y-102172405D01*
X72082961Y-101853325D01*
X71977795Y-101548912D01*
X71884814Y-101374956D01*
X71620413Y-101279192D01*
X70664605Y-102235000D01*
X70678748Y-102249143D01*
X70499143Y-102428748D01*
X70485000Y-102414605D01*
X70470858Y-102428748D01*
X70291253Y-102249143D01*
X70305395Y-102235000D01*
X69349587Y-101279192D01*
X69085186Y-101374956D01*
X68944296Y-101664571D01*
X68862616Y-101976108D01*
X68843282Y-102297595D01*
X68887039Y-102616675D01*
X68992205Y-102921088D01*
X69085186Y-103095044D01*
X69340454Y-103187500D01*
X60706000Y-103187500D01*
X60706000Y-93067702D01*
X62726903Y-93067702D01*
X62798486Y-93311671D01*
X63053996Y-93432571D01*
X63328184Y-93501300D01*
X63610512Y-93515217D01*
X63890130Y-93473787D01*
X64156292Y-93378603D01*
X64281514Y-93311671D01*
X64353097Y-93067702D01*
X63540000Y-92254605D01*
X62726903Y-93067702D01*
X60706000Y-93067702D01*
X60706000Y-92145512D01*
X62099783Y-92145512D01*
X62141213Y-92425130D01*
X62236397Y-92691292D01*
X62303329Y-92816514D01*
X62547298Y-92888097D01*
X63360395Y-92075000D01*
X62547298Y-91261903D01*
X62303329Y-91333486D01*
X62182429Y-91588996D01*
X62113700Y-91863184D01*
X62099783Y-92145512D01*
X60706000Y-92145512D01*
X60706000Y-91082298D01*
X62726903Y-91082298D01*
X63540000Y-91895395D01*
X64353097Y-91082298D01*
X64281514Y-90838329D01*
X64026004Y-90717429D01*
X63751816Y-90648700D01*
X63469488Y-90634783D01*
X63189870Y-90676213D01*
X62923708Y-90771397D01*
X62798486Y-90838329D01*
X62726903Y-91082298D01*
X60706000Y-91082298D01*
X60706000Y-87987702D01*
X62726903Y-87987702D01*
X62798486Y-88231671D01*
X63053996Y-88352571D01*
X63328184Y-88421300D01*
X63610512Y-88435217D01*
X63890130Y-88393787D01*
X64156292Y-88298603D01*
X64281514Y-88231671D01*
X64353097Y-87987702D01*
X63540000Y-87174605D01*
X62726903Y-87987702D01*
X60706000Y-87987702D01*
X60706000Y-87065512D01*
X62099783Y-87065512D01*
X62141213Y-87345130D01*
X62236397Y-87611292D01*
X62303329Y-87736514D01*
X62547298Y-87808097D01*
X63360395Y-86995000D01*
X63719605Y-86995000D01*
X64532702Y-87808097D01*
X64776671Y-87736514D01*
X64790324Y-87707659D01*
X64905000Y-87879284D01*
X64905001Y-90734043D01*
X64885506Y-90744463D01*
X64788815Y-90823815D01*
X64709463Y-90920506D01*
X64650498Y-91030820D01*
X64614188Y-91150518D01*
X64601928Y-91275000D01*
X64601928Y-91282215D01*
X64532702Y-91261903D01*
X63719605Y-92075000D01*
X64532702Y-92888097D01*
X64601928Y-92867785D01*
X64601928Y-92875000D01*
X64614188Y-92999482D01*
X64650498Y-93119180D01*
X64709463Y-93229494D01*
X64788815Y-93326185D01*
X64885506Y-93405537D01*
X64905001Y-93415957D01*
X64905001Y-97734239D01*
X64899509Y-97790000D01*
X64921423Y-98012498D01*
X64986324Y-98226446D01*
X64996820Y-98246082D01*
X65091717Y-98423623D01*
X65233552Y-98596449D01*
X65276860Y-98631991D01*
X67103009Y-100458141D01*
X67138551Y-100501449D01*
X67311377Y-100643284D01*
X67508553Y-100748676D01*
X67722501Y-100813577D01*
X67945000Y-100835491D01*
X68000752Y-100830000D01*
X69307761Y-100830000D01*
X69442748Y-100964987D01*
X69551600Y-101037720D01*
X69529192Y-101099587D01*
X70485000Y-102055395D01*
X71440808Y-101099587D01*
X71418400Y-101037720D01*
X71527252Y-100964987D01*
X71662239Y-100830000D01*
X92366869Y-100830000D01*
X92679150Y-101142282D01*
X92727147Y-101383574D01*
X92835320Y-101644727D01*
X92992363Y-101879759D01*
X93192241Y-102079637D01*
X93427273Y-102236680D01*
X93688426Y-102344853D01*
X93965665Y-102400000D01*
X94248335Y-102400000D01*
X94525574Y-102344853D01*
X94786727Y-102236680D01*
X94991284Y-102100000D01*
X107477736Y-102100000D01*
X107513068Y-102166101D01*
X107692393Y-102384608D01*
X107910900Y-102563932D01*
X108160193Y-102697182D01*
X108430692Y-102779236D01*
X108712000Y-102806943D01*
X108993309Y-102779236D01*
X109263808Y-102697182D01*
X109513101Y-102563932D01*
X109731608Y-102384608D01*
X109910932Y-102166101D01*
X109982000Y-102033142D01*
X110053068Y-102166101D01*
X110232393Y-102384608D01*
X110450900Y-102563932D01*
X110700193Y-102697182D01*
X110970692Y-102779236D01*
X111252000Y-102806943D01*
X111533309Y-102779236D01*
X111803808Y-102697182D01*
X112053101Y-102563932D01*
X112271608Y-102384608D01*
X112450932Y-102166101D01*
X112522000Y-102033142D01*
X112593068Y-102166101D01*
X112772393Y-102384608D01*
X112990900Y-102563932D01*
X113240193Y-102697182D01*
X113510692Y-102779236D01*
X113792000Y-102806943D01*
X114073309Y-102779236D01*
X114343808Y-102697182D01*
X114593101Y-102563932D01*
X114811608Y-102384608D01*
X114990932Y-102166101D01*
X115059265Y-102038259D01*
X115209399Y-102267839D01*
X115407105Y-102469500D01*
X115640354Y-102628715D01*
X115900182Y-102739367D01*
X115982961Y-102756904D01*
X116205000Y-102634915D01*
X116205000Y-101092000D01*
X116459000Y-101092000D01*
X116459000Y-102634915D01*
X116681039Y-102756904D01*
X116763818Y-102739367D01*
X117023646Y-102628715D01*
X117256895Y-102469500D01*
X117454601Y-102267839D01*
X117609166Y-102031483D01*
X117714650Y-101769514D01*
X117767000Y-101492000D01*
X117767000Y-101092000D01*
X116459000Y-101092000D01*
X116205000Y-101092000D01*
X116185000Y-101092000D01*
X116185000Y-100838000D01*
X116205000Y-100838000D01*
X116205000Y-99295085D01*
X116459000Y-99295085D01*
X116459000Y-100838000D01*
X117767000Y-100838000D01*
X117767000Y-100438000D01*
X117714650Y-100160486D01*
X117609166Y-99898517D01*
X117454601Y-99662161D01*
X117284915Y-99489080D01*
X120400525Y-99489080D01*
X120484208Y-99743261D01*
X120756775Y-99874158D01*
X121049642Y-99949365D01*
X121351553Y-99965991D01*
X121650907Y-99923397D01*
X121936199Y-99823222D01*
X122085792Y-99743261D01*
X122169475Y-99489080D01*
X121285000Y-98604605D01*
X120400525Y-99489080D01*
X117284915Y-99489080D01*
X117256895Y-99460500D01*
X117023646Y-99301285D01*
X116763818Y-99190633D01*
X116681039Y-99173096D01*
X116459000Y-99295085D01*
X116205000Y-99295085D01*
X115982961Y-99173096D01*
X115900182Y-99190633D01*
X115640354Y-99301285D01*
X115407105Y-99460500D01*
X115209399Y-99662161D01*
X115059265Y-99891741D01*
X114990932Y-99763899D01*
X114811607Y-99545392D01*
X114687000Y-99443130D01*
X114687000Y-99171840D01*
X114706759Y-99158637D01*
X114906637Y-98958759D01*
X115063680Y-98723727D01*
X115171853Y-98462574D01*
X115227000Y-98185335D01*
X115227000Y-97902665D01*
X115171853Y-97625426D01*
X115063680Y-97364273D01*
X114906637Y-97129241D01*
X114706759Y-96929363D01*
X114687000Y-96916160D01*
X114687000Y-91420456D01*
X114691329Y-91376500D01*
X114687000Y-91332543D01*
X114687000Y-91332536D01*
X114674050Y-91201049D01*
X114622873Y-91032341D01*
X114539766Y-90876859D01*
X114505638Y-90835274D01*
X114455947Y-90774726D01*
X114455946Y-90774725D01*
X114427922Y-90740578D01*
X114393775Y-90712554D01*
X110453760Y-86772539D01*
X111257096Y-86772539D01*
X111297754Y-86906587D01*
X111417963Y-87160920D01*
X111585481Y-87386914D01*
X111793869Y-87575885D01*
X112035119Y-87720570D01*
X112299960Y-87815409D01*
X112522000Y-87694124D01*
X112522000Y-86550500D01*
X112776000Y-86550500D01*
X112776000Y-87694124D01*
X112998040Y-87815409D01*
X113262881Y-87720570D01*
X113504131Y-87575885D01*
X113712519Y-87386914D01*
X113880037Y-87160920D01*
X114000246Y-86906587D01*
X114040904Y-86772539D01*
X113918915Y-86550500D01*
X112776000Y-86550500D01*
X112522000Y-86550500D01*
X111379085Y-86550500D01*
X111257096Y-86772539D01*
X110453760Y-86772539D01*
X108372721Y-84691500D01*
X109131928Y-84691500D01*
X109144188Y-84815982D01*
X109180498Y-84935680D01*
X109239463Y-85045994D01*
X109318815Y-85142685D01*
X109415506Y-85222037D01*
X109525820Y-85281002D01*
X109645518Y-85317312D01*
X109770000Y-85329572D01*
X110459250Y-85326500D01*
X110618000Y-85167750D01*
X110618000Y-84518500D01*
X109293750Y-84518500D01*
X109135000Y-84677250D01*
X109131928Y-84691500D01*
X108372721Y-84691500D01*
X107575000Y-83893780D01*
X107575000Y-75418453D01*
X107579329Y-75374499D01*
X107575000Y-75330545D01*
X107575000Y-75330536D01*
X107562050Y-75199049D01*
X107510873Y-75030341D01*
X107427766Y-74874859D01*
X107315922Y-74738578D01*
X107281775Y-74710554D01*
X104930950Y-72359730D01*
X104902922Y-72325578D01*
X104766641Y-72213734D01*
X104611159Y-72130627D01*
X104442451Y-72079450D01*
X104310964Y-72066500D01*
X104310954Y-72066500D01*
X104267000Y-72062171D01*
X104223046Y-72066500D01*
X102546056Y-72066500D01*
X102444482Y-72035688D01*
X102320000Y-72023428D01*
X100370000Y-72023428D01*
X100245518Y-72035688D01*
X100125820Y-72071998D01*
X100015506Y-72130963D01*
X99918815Y-72210315D01*
X99839463Y-72307006D01*
X99780498Y-72417320D01*
X99744188Y-72537018D01*
X99731928Y-72661500D01*
X99731928Y-73261500D01*
X99739315Y-73336500D01*
X95430222Y-73336500D01*
X91341950Y-69248230D01*
X91313922Y-69214078D01*
X91177641Y-69102234D01*
X91022159Y-69019127D01*
X90853451Y-68967950D01*
X90721964Y-68955000D01*
X90721954Y-68955000D01*
X90678000Y-68950671D01*
X90634046Y-68955000D01*
X87487840Y-68955000D01*
X87474637Y-68935241D01*
X87274759Y-68735363D01*
X87039727Y-68578320D01*
X86778574Y-68470147D01*
X86501335Y-68415000D01*
X86218665Y-68415000D01*
X85941426Y-68470147D01*
X85680273Y-68578320D01*
X85445241Y-68735363D01*
X85245363Y-68935241D01*
X85088320Y-69170273D01*
X84980147Y-69431426D01*
X84925000Y-69708665D01*
X84925000Y-69991335D01*
X84980147Y-70268574D01*
X85088320Y-70529727D01*
X85245363Y-70764759D01*
X85445241Y-70964637D01*
X85680273Y-71121680D01*
X85941426Y-71229853D01*
X86218665Y-71285000D01*
X86501335Y-71285000D01*
X86778574Y-71229853D01*
X87039727Y-71121680D01*
X87274759Y-70964637D01*
X87474637Y-70764759D01*
X87487840Y-70745000D01*
X90307280Y-70745000D01*
X93663601Y-74101323D01*
X93561426Y-74121647D01*
X93300273Y-74229820D01*
X93065241Y-74386863D01*
X92865363Y-74586741D01*
X92708320Y-74821773D01*
X92600147Y-75082926D01*
X92545000Y-75360165D01*
X92545000Y-75642835D01*
X92600147Y-75920074D01*
X92708320Y-76181227D01*
X92865363Y-76416259D01*
X93065241Y-76616137D01*
X93300273Y-76773180D01*
X93561426Y-76881353D01*
X93838665Y-76936500D01*
X94121335Y-76936500D01*
X94398574Y-76881353D01*
X94659727Y-76773180D01*
X94894759Y-76616137D01*
X95094637Y-76416259D01*
X95107840Y-76396500D01*
X96950284Y-76396500D01*
X96899320Y-76472773D01*
X96791147Y-76733926D01*
X96736000Y-77011165D01*
X96736000Y-77293835D01*
X96791147Y-77571074D01*
X96899320Y-77832227D01*
X97056363Y-78067259D01*
X97256241Y-78267137D01*
X97276000Y-78280340D01*
X97276000Y-78442045D01*
X97271671Y-78486000D01*
X97276000Y-78529954D01*
X97276000Y-78529963D01*
X97288950Y-78661450D01*
X97340127Y-78830158D01*
X97423234Y-78985640D01*
X97535078Y-79121922D01*
X97569230Y-79149950D01*
X98332552Y-79913273D01*
X98360578Y-79947422D01*
X98496859Y-80059266D01*
X98652341Y-80142373D01*
X98821049Y-80193550D01*
X98952536Y-80206500D01*
X98952545Y-80206500D01*
X98996499Y-80210829D01*
X99040453Y-80206500D01*
X99739315Y-80206500D01*
X99731928Y-80281500D01*
X99731928Y-80881500D01*
X99739315Y-80956500D01*
X96885185Y-80956500D01*
X96704386Y-80775701D01*
X96477543Y-80624129D01*
X96225489Y-80519725D01*
X95957911Y-80466500D01*
X95685089Y-80466500D01*
X95417511Y-80519725D01*
X95165457Y-80624129D01*
X94938614Y-80775701D01*
X94757815Y-80956500D01*
X93012340Y-80956500D01*
X92999137Y-80936741D01*
X92799259Y-80736863D01*
X92598631Y-80602808D01*
X92626014Y-80588171D01*
X92697597Y-80344202D01*
X91884500Y-79531105D01*
X91071403Y-80344202D01*
X91142986Y-80588171D01*
X91171841Y-80601824D01*
X90969741Y-80736863D01*
X90769863Y-80936741D01*
X90612820Y-81171773D01*
X90504647Y-81432926D01*
X90449500Y-81710165D01*
X90449500Y-81992835D01*
X90504647Y-82270074D01*
X90612820Y-82531227D01*
X90769863Y-82766259D01*
X90969741Y-82966137D01*
X91204773Y-83123180D01*
X91465926Y-83231353D01*
X91743165Y-83286500D01*
X92025835Y-83286500D01*
X92303074Y-83231353D01*
X92564227Y-83123180D01*
X92799259Y-82966137D01*
X92999137Y-82766259D01*
X93012340Y-82746500D01*
X94757815Y-82746500D01*
X94938614Y-82927299D01*
X95165457Y-83078871D01*
X95417511Y-83183275D01*
X95547623Y-83209156D01*
X95219725Y-83537055D01*
X95185579Y-83565078D01*
X95157555Y-83599225D01*
X95157553Y-83599227D01*
X95073734Y-83701360D01*
X94990627Y-83856842D01*
X94961649Y-83952372D01*
X94939451Y-84025549D01*
X94931552Y-84105750D01*
X94922171Y-84201000D01*
X94926501Y-84244964D01*
X94926500Y-85667815D01*
X94757815Y-85836500D01*
X93005992Y-85836500D01*
X92999137Y-85826241D01*
X92799259Y-85626363D01*
X92564227Y-85469320D01*
X92303074Y-85361147D01*
X92025835Y-85306000D01*
X91743165Y-85306000D01*
X91465926Y-85361147D01*
X91204773Y-85469320D01*
X90969741Y-85626363D01*
X90769863Y-85826241D01*
X90612820Y-86061273D01*
X90504647Y-86322426D01*
X90449500Y-86599665D01*
X90449500Y-86882335D01*
X90504647Y-87159574D01*
X90612820Y-87420727D01*
X90769863Y-87655759D01*
X90969741Y-87855637D01*
X91170369Y-87989692D01*
X91142986Y-88004329D01*
X91071403Y-88248298D01*
X91884500Y-89061395D01*
X92697597Y-88248298D01*
X92626014Y-88004329D01*
X92597159Y-87990676D01*
X92799259Y-87855637D01*
X92999137Y-87655759D01*
X93018687Y-87626500D01*
X94757815Y-87626500D01*
X94938614Y-87807299D01*
X95165457Y-87958871D01*
X95417511Y-88063275D01*
X95685089Y-88116500D01*
X95957911Y-88116500D01*
X96225489Y-88063275D01*
X96477543Y-87958871D01*
X96704386Y-87807299D01*
X96897299Y-87614386D01*
X97048871Y-87387543D01*
X97153275Y-87135489D01*
X97206500Y-86867911D01*
X97206500Y-86595089D01*
X97153275Y-86327511D01*
X97048871Y-86075457D01*
X96897299Y-85848614D01*
X96716500Y-85667815D01*
X96716500Y-84571721D01*
X97271721Y-84016500D01*
X99739315Y-84016500D01*
X99731928Y-84091500D01*
X99731928Y-84399440D01*
X98931860Y-85199509D01*
X98888552Y-85235051D01*
X98746717Y-85407877D01*
X98676086Y-85540018D01*
X98580363Y-85635741D01*
X98423320Y-85870773D01*
X98315147Y-86131926D01*
X98260000Y-86409165D01*
X98260000Y-86507367D01*
X93584798Y-91182571D01*
X93427273Y-91247820D01*
X93192241Y-91404863D01*
X92992363Y-91604741D01*
X92835320Y-91839773D01*
X92727147Y-92100926D01*
X92672000Y-92378165D01*
X92672000Y-92660835D01*
X92727147Y-92938074D01*
X92835320Y-93199227D01*
X92992363Y-93434259D01*
X93192241Y-93634137D01*
X93427273Y-93791180D01*
X93688426Y-93899353D01*
X93965665Y-93954500D01*
X94248335Y-93954500D01*
X94525574Y-93899353D01*
X94786727Y-93791180D01*
X95021759Y-93634137D01*
X95221637Y-93434259D01*
X95378680Y-93199227D01*
X95486853Y-92938074D01*
X95542000Y-92660835D01*
X95542000Y-92435631D01*
X97934429Y-90043202D01*
X98881903Y-90043202D01*
X98953486Y-90287171D01*
X99208996Y-90408071D01*
X99483184Y-90476800D01*
X99765512Y-90490717D01*
X100045130Y-90449287D01*
X100311292Y-90354103D01*
X100436514Y-90287171D01*
X100508097Y-90043202D01*
X99695000Y-89230105D01*
X98881903Y-90043202D01*
X97934429Y-90043202D01*
X98370177Y-89607455D01*
X98391397Y-89666792D01*
X98458329Y-89792014D01*
X98702298Y-89863597D01*
X99515395Y-89050500D01*
X99874605Y-89050500D01*
X100687702Y-89863597D01*
X100931671Y-89792014D01*
X101052571Y-89536504D01*
X101121300Y-89262316D01*
X101135217Y-88979988D01*
X101093787Y-88700370D01*
X100998603Y-88434208D01*
X100931671Y-88308986D01*
X100687702Y-88237403D01*
X99874605Y-89050500D01*
X99515395Y-89050500D01*
X99501253Y-89036358D01*
X99680858Y-88856753D01*
X99695000Y-88870895D01*
X100508097Y-88057798D01*
X100436514Y-87813829D01*
X100407659Y-87800176D01*
X100609759Y-87665137D01*
X100809637Y-87465259D01*
X100966680Y-87230227D01*
X100975698Y-87208455D01*
X101107981Y-87386914D01*
X101316369Y-87575885D01*
X101557619Y-87720570D01*
X101822460Y-87815409D01*
X102044500Y-87694124D01*
X102044500Y-86550500D01*
X102024500Y-86550500D01*
X102024500Y-86296500D01*
X102044500Y-86296500D01*
X102044500Y-86276500D01*
X102298500Y-86276500D01*
X102298500Y-86296500D01*
X102318500Y-86296500D01*
X102318500Y-86550500D01*
X102298500Y-86550500D01*
X102298500Y-87694124D01*
X102520540Y-87815409D01*
X102737000Y-87737895D01*
X102737000Y-88283526D01*
X102685368Y-88318025D01*
X102478525Y-88524868D01*
X102316010Y-88768089D01*
X102204068Y-89038342D01*
X102147000Y-89325240D01*
X102147000Y-89617760D01*
X102159115Y-89678665D01*
X100426730Y-91411050D01*
X100392578Y-91439078D01*
X100280734Y-91575360D01*
X100197627Y-91730842D01*
X100146450Y-91899550D01*
X100133500Y-92031037D01*
X100133500Y-92031046D01*
X100129171Y-92075000D01*
X100133500Y-92118954D01*
X100133501Y-93609278D01*
X98879780Y-94863000D01*
X97139840Y-94863000D01*
X97126637Y-94843241D01*
X96926759Y-94643363D01*
X96691727Y-94486320D01*
X96430574Y-94378147D01*
X96153335Y-94323000D01*
X95870665Y-94323000D01*
X95593426Y-94378147D01*
X95332273Y-94486320D01*
X95097241Y-94643363D01*
X94897363Y-94843241D01*
X94740320Y-95078273D01*
X94632147Y-95339426D01*
X94577000Y-95616665D01*
X94577000Y-95899335D01*
X94632147Y-96176574D01*
X94740320Y-96437727D01*
X94897363Y-96672759D01*
X95097241Y-96872637D01*
X95332273Y-97029680D01*
X95593426Y-97137853D01*
X95870665Y-97193000D01*
X96153335Y-97193000D01*
X96430574Y-97137853D01*
X96691727Y-97029680D01*
X96926759Y-96872637D01*
X97126637Y-96672759D01*
X97139840Y-96653000D01*
X99206546Y-96653000D01*
X99250500Y-96657329D01*
X99294454Y-96653000D01*
X99294464Y-96653000D01*
X99425951Y-96640050D01*
X99594659Y-96588873D01*
X99750141Y-96505766D01*
X99886422Y-96393922D01*
X99914450Y-96359770D01*
X101630280Y-94643942D01*
X101664422Y-94615922D01*
X101692441Y-94581781D01*
X101692448Y-94581774D01*
X101776266Y-94479641D01*
X101859373Y-94324159D01*
X101910550Y-94155451D01*
X101910559Y-94155359D01*
X101923500Y-94023964D01*
X101923500Y-94023957D01*
X101927829Y-93980000D01*
X101923500Y-93936043D01*
X101923500Y-92445720D01*
X102230718Y-92138502D01*
X102311185Y-92138502D01*
X102190519Y-92368391D01*
X102287843Y-92642752D01*
X102436822Y-92892855D01*
X102631731Y-93109088D01*
X102865080Y-93283141D01*
X103127901Y-93408325D01*
X103275110Y-93452976D01*
X103505000Y-93331655D01*
X103505000Y-92138500D01*
X103485000Y-92138500D01*
X103485000Y-91884500D01*
X103505000Y-91884500D01*
X103505000Y-91864500D01*
X103759000Y-91864500D01*
X103759000Y-91884500D01*
X103779000Y-91884500D01*
X103779000Y-92138500D01*
X103759000Y-92138500D01*
X103759000Y-93331655D01*
X103988890Y-93452976D01*
X104136099Y-93408325D01*
X104398920Y-93283141D01*
X104632269Y-93109088D01*
X104827178Y-92892855D01*
X104896805Y-92775966D01*
X105018525Y-92958132D01*
X105225368Y-93164975D01*
X105277000Y-93199475D01*
X105277001Y-93855000D01*
X105277000Y-96916160D01*
X105257241Y-96929363D01*
X105057363Y-97129241D01*
X104900320Y-97364273D01*
X104792147Y-97625426D01*
X104737000Y-97902665D01*
X104737000Y-98185335D01*
X104792147Y-98462574D01*
X104900320Y-98723727D01*
X105057363Y-98958759D01*
X105257241Y-99158637D01*
X105492273Y-99315680D01*
X105753426Y-99423853D01*
X106030665Y-99479000D01*
X106313335Y-99479000D01*
X106590574Y-99423853D01*
X106851727Y-99315680D01*
X107086759Y-99158637D01*
X107286637Y-98958759D01*
X107443680Y-98723727D01*
X107551853Y-98462574D01*
X107577001Y-98336151D01*
X107577000Y-99685998D01*
X107513068Y-99763900D01*
X107477737Y-99830000D01*
X94991284Y-99830000D01*
X94786727Y-99693320D01*
X94525574Y-99585147D01*
X94284282Y-99537150D01*
X93678996Y-98931865D01*
X93643449Y-98888551D01*
X93470623Y-98746716D01*
X93273447Y-98641324D01*
X93059499Y-98576423D01*
X92892752Y-98560000D01*
X92892751Y-98560000D01*
X92837000Y-98554509D01*
X92781249Y-98560000D01*
X85398197Y-98560000D01*
X85440130Y-98553787D01*
X85706292Y-98458603D01*
X85831514Y-98391671D01*
X85903097Y-98147702D01*
X85090000Y-97334605D01*
X84276903Y-98147702D01*
X84348486Y-98391671D01*
X84603996Y-98512571D01*
X84793210Y-98560000D01*
X71662239Y-98560000D01*
X71527252Y-98425013D01*
X71259463Y-98246082D01*
X70961912Y-98122832D01*
X70646033Y-98060000D01*
X70323967Y-98060000D01*
X70008088Y-98122832D01*
X69710537Y-98246082D01*
X69442748Y-98425013D01*
X69307761Y-98560000D01*
X68415132Y-98560000D01*
X67175000Y-97319869D01*
X67175000Y-97225512D01*
X83649783Y-97225512D01*
X83691213Y-97505130D01*
X83786397Y-97771292D01*
X83853329Y-97896514D01*
X84097298Y-97968097D01*
X84910395Y-97155000D01*
X85269605Y-97155000D01*
X86082702Y-97968097D01*
X86326671Y-97896514D01*
X86447571Y-97641004D01*
X86516300Y-97366816D01*
X86530217Y-97084488D01*
X86488787Y-96804870D01*
X86393603Y-96538708D01*
X86326671Y-96413486D01*
X86082702Y-96341903D01*
X85269605Y-97155000D01*
X84910395Y-97155000D01*
X84097298Y-96341903D01*
X83853329Y-96413486D01*
X83732429Y-96668996D01*
X83663700Y-96943184D01*
X83649783Y-97225512D01*
X67175000Y-97225512D01*
X67175000Y-93415957D01*
X67194494Y-93405537D01*
X67291185Y-93326185D01*
X67370537Y-93229494D01*
X67380957Y-93210000D01*
X67889249Y-93210000D01*
X67945000Y-93215491D01*
X68000751Y-93210000D01*
X68000752Y-93210000D01*
X68167499Y-93193577D01*
X68381447Y-93128676D01*
X68578623Y-93023284D01*
X68751449Y-92881449D01*
X68786995Y-92838136D01*
X68940016Y-92685115D01*
X68979773Y-92711680D01*
X69240926Y-92819853D01*
X69518165Y-92875000D01*
X69800835Y-92875000D01*
X70078074Y-92819853D01*
X70339227Y-92711680D01*
X70543784Y-92575000D01*
X71110998Y-92575000D01*
X71188899Y-92638932D01*
X71438192Y-92772182D01*
X71708691Y-92854236D01*
X71919508Y-92875000D01*
X72860492Y-92875000D01*
X73071309Y-92854236D01*
X73341808Y-92772182D01*
X73591101Y-92638932D01*
X73809608Y-92459608D01*
X73988932Y-92241101D01*
X74122182Y-91991808D01*
X74204236Y-91721309D01*
X74231943Y-91440000D01*
X74204236Y-91158691D01*
X74122182Y-90888192D01*
X73988932Y-90638899D01*
X73809608Y-90420392D01*
X73591101Y-90241068D01*
X73463259Y-90172735D01*
X73692839Y-90022601D01*
X73894500Y-89824895D01*
X73966100Y-89720000D01*
X76570671Y-89720000D01*
X76575000Y-89763954D01*
X76575001Y-92031027D01*
X76575000Y-92031037D01*
X76575000Y-93301045D01*
X76570671Y-93345000D01*
X76575000Y-93388954D01*
X76575000Y-93388963D01*
X76587950Y-93520450D01*
X76639127Y-93689158D01*
X76722234Y-93844640D01*
X76834078Y-93980922D01*
X76868230Y-94008950D01*
X78116054Y-95256775D01*
X78144078Y-95290922D01*
X78178225Y-95318946D01*
X78178226Y-95318947D01*
X78185602Y-95325000D01*
X78280359Y-95402766D01*
X78435841Y-95485873D01*
X78604549Y-95537050D01*
X78736036Y-95550000D01*
X78736043Y-95550000D01*
X78780000Y-95554329D01*
X78823957Y-95550000D01*
X83661284Y-95550000D01*
X83664188Y-95579482D01*
X83700498Y-95699180D01*
X83759463Y-95809494D01*
X83838815Y-95906185D01*
X83935506Y-95985537D01*
X84045820Y-96044502D01*
X84165518Y-96080812D01*
X84290000Y-96093072D01*
X84297215Y-96093072D01*
X84276903Y-96162298D01*
X85090000Y-96975395D01*
X85903097Y-96162298D01*
X85882785Y-96093072D01*
X85890000Y-96093072D01*
X86014482Y-96080812D01*
X86134180Y-96044502D01*
X86244494Y-95985537D01*
X86341185Y-95906185D01*
X86420537Y-95809494D01*
X86479502Y-95699180D01*
X86515812Y-95579482D01*
X86528072Y-95455000D01*
X86528072Y-93855000D01*
X86515812Y-93730518D01*
X86479502Y-93610820D01*
X86420537Y-93500506D01*
X86341185Y-93403815D01*
X86244494Y-93324463D01*
X86134180Y-93265498D01*
X86014482Y-93229188D01*
X85890000Y-93216928D01*
X84290000Y-93216928D01*
X84165518Y-93229188D01*
X84045820Y-93265498D01*
X83935506Y-93324463D01*
X83838815Y-93403815D01*
X83759463Y-93500506D01*
X83700498Y-93610820D01*
X83664188Y-93730518D01*
X83661284Y-93760000D01*
X79150721Y-93760000D01*
X78365000Y-92974280D01*
X78365000Y-92696261D01*
X78455506Y-92770537D01*
X78565820Y-92829502D01*
X78685518Y-92865812D01*
X78810000Y-92878072D01*
X81210000Y-92878072D01*
X81334482Y-92865812D01*
X81454180Y-92829502D01*
X81564494Y-92770537D01*
X81661185Y-92691185D01*
X81740537Y-92594494D01*
X81799502Y-92484180D01*
X81835812Y-92364482D01*
X81838716Y-92335000D01*
X82456046Y-92335000D01*
X82500000Y-92339329D01*
X82543954Y-92335000D01*
X82543964Y-92335000D01*
X82675451Y-92322050D01*
X82844159Y-92270873D01*
X82999641Y-92187766D01*
X83135922Y-92075922D01*
X83163950Y-92041770D01*
X83785726Y-91419995D01*
X83838815Y-91484685D01*
X83935506Y-91564037D01*
X84045820Y-91623002D01*
X84165518Y-91659312D01*
X84290000Y-91671572D01*
X85890000Y-91671572D01*
X86014482Y-91659312D01*
X86134180Y-91623002D01*
X86244494Y-91564037D01*
X86341185Y-91484685D01*
X86420537Y-91387994D01*
X86479502Y-91277680D01*
X86515812Y-91157982D01*
X86528072Y-91033500D01*
X86528072Y-90233702D01*
X91071403Y-90233702D01*
X91142986Y-90477671D01*
X91398496Y-90598571D01*
X91672684Y-90667300D01*
X91955012Y-90681217D01*
X92234630Y-90639787D01*
X92500792Y-90544603D01*
X92626014Y-90477671D01*
X92697597Y-90233702D01*
X91884500Y-89420605D01*
X91071403Y-90233702D01*
X86528072Y-90233702D01*
X86528072Y-89433500D01*
X86516058Y-89311512D01*
X90444283Y-89311512D01*
X90485713Y-89591130D01*
X90580897Y-89857292D01*
X90647829Y-89982514D01*
X90891798Y-90054097D01*
X91704895Y-89241000D01*
X92064105Y-89241000D01*
X92877202Y-90054097D01*
X93121171Y-89982514D01*
X93242071Y-89727004D01*
X93310800Y-89452816D01*
X93324717Y-89170488D01*
X93283287Y-88890870D01*
X93188103Y-88624708D01*
X93121171Y-88499486D01*
X92877202Y-88427903D01*
X92064105Y-89241000D01*
X91704895Y-89241000D01*
X90891798Y-88427903D01*
X90647829Y-88499486D01*
X90526929Y-88754996D01*
X90458200Y-89029184D01*
X90444283Y-89311512D01*
X86516058Y-89311512D01*
X86515812Y-89309018D01*
X86479502Y-89189320D01*
X86420537Y-89079006D01*
X86341185Y-88982315D01*
X86244494Y-88902963D01*
X86134180Y-88843998D01*
X86038057Y-88814839D01*
X86204637Y-88648259D01*
X86361680Y-88413227D01*
X86469853Y-88152074D01*
X86525000Y-87874835D01*
X86525000Y-87592165D01*
X86469853Y-87314926D01*
X86361680Y-87053773D01*
X86204637Y-86818741D01*
X86004759Y-86618863D01*
X85769727Y-86461820D01*
X85508574Y-86353647D01*
X85231335Y-86298500D01*
X84948665Y-86298500D01*
X84671426Y-86353647D01*
X84410273Y-86461820D01*
X84175241Y-86618863D01*
X83975363Y-86818741D01*
X83962160Y-86838500D01*
X83659221Y-86838500D01*
X82578950Y-85758230D01*
X82550922Y-85724078D01*
X82414641Y-85612234D01*
X82259159Y-85529127D01*
X82090451Y-85477950D01*
X81958964Y-85465000D01*
X81958954Y-85465000D01*
X81915000Y-85460671D01*
X81871046Y-85465000D01*
X81531871Y-85465000D01*
X81429608Y-85340392D01*
X81211101Y-85161068D01*
X81078142Y-85090000D01*
X81211101Y-85018932D01*
X81429608Y-84839608D01*
X81531871Y-84715000D01*
X82887046Y-84715000D01*
X82931000Y-84719329D01*
X82974954Y-84715000D01*
X82974964Y-84715000D01*
X83106451Y-84702050D01*
X83275159Y-84650873D01*
X83430641Y-84567766D01*
X83566922Y-84455922D01*
X83594951Y-84421769D01*
X83691198Y-84325522D01*
X83700498Y-84356180D01*
X83759463Y-84466494D01*
X83838815Y-84563185D01*
X83935506Y-84642537D01*
X84045820Y-84701502D01*
X84165518Y-84737812D01*
X84290000Y-84750072D01*
X85890000Y-84750072D01*
X86014482Y-84737812D01*
X86134180Y-84701502D01*
X86244494Y-84642537D01*
X86341185Y-84563185D01*
X86420537Y-84466494D01*
X86479502Y-84356180D01*
X86515812Y-84236482D01*
X86528072Y-84112000D01*
X86528072Y-82512000D01*
X86515812Y-82387518D01*
X86479502Y-82267820D01*
X86420537Y-82157506D01*
X86341185Y-82060815D01*
X86244494Y-81981463D01*
X86134180Y-81922498D01*
X86038057Y-81893339D01*
X86204637Y-81726759D01*
X86361680Y-81491727D01*
X86469853Y-81230574D01*
X86525000Y-80953335D01*
X86525000Y-80670665D01*
X86469853Y-80393426D01*
X86361680Y-80132273D01*
X86204637Y-79897241D01*
X86004759Y-79697363D01*
X85769727Y-79540320D01*
X85508574Y-79432147D01*
X85457623Y-79422012D01*
X90444283Y-79422012D01*
X90485713Y-79701630D01*
X90580897Y-79967792D01*
X90647829Y-80093014D01*
X90891798Y-80164597D01*
X91704895Y-79351500D01*
X92064105Y-79351500D01*
X92877202Y-80164597D01*
X93121171Y-80093014D01*
X93242071Y-79837504D01*
X93310800Y-79563316D01*
X93324717Y-79280988D01*
X93283287Y-79001370D01*
X93188103Y-78735208D01*
X93121171Y-78609986D01*
X92877202Y-78538403D01*
X92064105Y-79351500D01*
X91704895Y-79351500D01*
X90891798Y-78538403D01*
X90647829Y-78609986D01*
X90526929Y-78865496D01*
X90458200Y-79139684D01*
X90444283Y-79422012D01*
X85457623Y-79422012D01*
X85231335Y-79377000D01*
X84948665Y-79377000D01*
X84671426Y-79432147D01*
X84410273Y-79540320D01*
X84175241Y-79697363D01*
X83975363Y-79897241D01*
X83962160Y-79917000D01*
X83569954Y-79917000D01*
X83526000Y-79912671D01*
X83482046Y-79917000D01*
X83482036Y-79917000D01*
X83350549Y-79929950D01*
X83181841Y-79981127D01*
X83026359Y-80064234D01*
X82890078Y-80176078D01*
X82862049Y-80210231D01*
X82687280Y-80385000D01*
X81531871Y-80385000D01*
X81429608Y-80260392D01*
X81211101Y-80081068D01*
X81078142Y-80010000D01*
X81211101Y-79938932D01*
X81429608Y-79759608D01*
X81531871Y-79635000D01*
X82720046Y-79635000D01*
X82764000Y-79639329D01*
X82807954Y-79635000D01*
X82807964Y-79635000D01*
X82939451Y-79622050D01*
X83108159Y-79570873D01*
X83263641Y-79487766D01*
X83399922Y-79375922D01*
X83427950Y-79341770D01*
X84410922Y-78358798D01*
X91071403Y-78358798D01*
X91884500Y-79171895D01*
X92697597Y-78358798D01*
X92626014Y-78114829D01*
X92370504Y-77993929D01*
X92096316Y-77925200D01*
X91813988Y-77911283D01*
X91534370Y-77952713D01*
X91268208Y-78047897D01*
X91142986Y-78114829D01*
X91071403Y-78358798D01*
X84410922Y-78358798D01*
X84925357Y-77844364D01*
X84948665Y-77849000D01*
X85231335Y-77849000D01*
X85508574Y-77793853D01*
X85769727Y-77685680D01*
X86004759Y-77528637D01*
X86204637Y-77328759D01*
X86361680Y-77093727D01*
X86469853Y-76832574D01*
X86525000Y-76555335D01*
X86525000Y-76272665D01*
X86469853Y-75995426D01*
X86361680Y-75734273D01*
X86204637Y-75499241D01*
X86038057Y-75332661D01*
X86134180Y-75303502D01*
X86244494Y-75244537D01*
X86341185Y-75165185D01*
X86420537Y-75068494D01*
X86479502Y-74958180D01*
X86515812Y-74838482D01*
X86528072Y-74714000D01*
X86525000Y-74199750D01*
X86366250Y-74041000D01*
X85217000Y-74041000D01*
X85217000Y-74061000D01*
X84963000Y-74061000D01*
X84963000Y-74041000D01*
X84943000Y-74041000D01*
X84943000Y-73787000D01*
X84963000Y-73787000D01*
X84963000Y-72637750D01*
X85217000Y-72637750D01*
X85217000Y-73787000D01*
X86366250Y-73787000D01*
X86525000Y-73628250D01*
X86528072Y-73114000D01*
X86515812Y-72989518D01*
X86479502Y-72869820D01*
X86420537Y-72759506D01*
X86341185Y-72662815D01*
X86244494Y-72583463D01*
X86134180Y-72524498D01*
X86014482Y-72488188D01*
X85890000Y-72475928D01*
X85375750Y-72479000D01*
X85217000Y-72637750D01*
X84963000Y-72637750D01*
X84804250Y-72479000D01*
X84290000Y-72475928D01*
X84165518Y-72488188D01*
X84045820Y-72524498D01*
X83935506Y-72583463D01*
X83838815Y-72662815D01*
X83759463Y-72759506D01*
X83730750Y-72813223D01*
X83730750Y-65898665D01*
X84925000Y-65898665D01*
X84925000Y-66181335D01*
X84980147Y-66458574D01*
X85088320Y-66719727D01*
X85245363Y-66954759D01*
X85445241Y-67154637D01*
X85680273Y-67311680D01*
X85941426Y-67419853D01*
X86218665Y-67475000D01*
X86501335Y-67475000D01*
X86778574Y-67419853D01*
X87039727Y-67311680D01*
X87274759Y-67154637D01*
X87474637Y-66954759D01*
X87487840Y-66935000D01*
X91958280Y-66935000D01*
X94713052Y-69689773D01*
X94741078Y-69723922D01*
X94775225Y-69751946D01*
X94775226Y-69751947D01*
X94782056Y-69757552D01*
X94877359Y-69835766D01*
X95032841Y-69918873D01*
X95201549Y-69970050D01*
X95333036Y-69983000D01*
X95333046Y-69983000D01*
X95377000Y-69987329D01*
X95420954Y-69983000D01*
X109103280Y-69983000D01*
X109850000Y-70729721D01*
X109850001Y-72023428D01*
X109770000Y-72023428D01*
X109645518Y-72035688D01*
X109525820Y-72071998D01*
X109415506Y-72130963D01*
X109318815Y-72210315D01*
X109239463Y-72307006D01*
X109180498Y-72417320D01*
X109144188Y-72537018D01*
X109131928Y-72661500D01*
X109131928Y-73261500D01*
X109144188Y-73385982D01*
X109180498Y-73505680D01*
X109229043Y-73596500D01*
X109180498Y-73687320D01*
X109144188Y-73807018D01*
X109131928Y-73931500D01*
X109131928Y-74531500D01*
X109144188Y-74655982D01*
X109180498Y-74775680D01*
X109229043Y-74866500D01*
X109180498Y-74957320D01*
X109144188Y-75077018D01*
X109131928Y-75201500D01*
X109131928Y-75801500D01*
X109144188Y-75925982D01*
X109180498Y-76045680D01*
X109229043Y-76136500D01*
X109180498Y-76227320D01*
X109144188Y-76347018D01*
X109131928Y-76471500D01*
X109131928Y-77071500D01*
X109144188Y-77195982D01*
X109180498Y-77315680D01*
X109229043Y-77406500D01*
X109180498Y-77497320D01*
X109144188Y-77617018D01*
X109131928Y-77741500D01*
X109131928Y-78341500D01*
X109144188Y-78465982D01*
X109180498Y-78585680D01*
X109229043Y-78676500D01*
X109180498Y-78767320D01*
X109144188Y-78887018D01*
X109131928Y-79011500D01*
X109131928Y-79611500D01*
X109144188Y-79735982D01*
X109180498Y-79855680D01*
X109229043Y-79946500D01*
X109180498Y-80037320D01*
X109144188Y-80157018D01*
X109131928Y-80281500D01*
X109131928Y-80881500D01*
X109144188Y-81005982D01*
X109180498Y-81125680D01*
X109229043Y-81216500D01*
X109180498Y-81307320D01*
X109144188Y-81427018D01*
X109131928Y-81551500D01*
X109131928Y-82151500D01*
X109144188Y-82275982D01*
X109180498Y-82395680D01*
X109229043Y-82486500D01*
X109180498Y-82577320D01*
X109144188Y-82697018D01*
X109131928Y-82821500D01*
X109131928Y-83421500D01*
X109144188Y-83545982D01*
X109180498Y-83665680D01*
X109229043Y-83756500D01*
X109180498Y-83847320D01*
X109144188Y-83967018D01*
X109131928Y-84091500D01*
X109135000Y-84105750D01*
X109293750Y-84264500D01*
X110618000Y-84264500D01*
X110618000Y-84244500D01*
X110872000Y-84244500D01*
X110872000Y-84264500D01*
X110892000Y-84264500D01*
X110892000Y-84518500D01*
X110872000Y-84518500D01*
X110872000Y-85167750D01*
X111030750Y-85326500D01*
X111720000Y-85329572D01*
X111730551Y-85328533D01*
X111585481Y-85460086D01*
X111417963Y-85686080D01*
X111297754Y-85940413D01*
X111257096Y-86074461D01*
X111379085Y-86296500D01*
X112522000Y-86296500D01*
X112522000Y-85152876D01*
X112299960Y-85031591D01*
X112246707Y-85050661D01*
X112250537Y-85045994D01*
X112309502Y-84935680D01*
X112345812Y-84815982D01*
X112358072Y-84691500D01*
X112355000Y-84677250D01*
X112196252Y-84518502D01*
X112355000Y-84518502D01*
X112355000Y-84474220D01*
X112942635Y-85061855D01*
X112776000Y-85152876D01*
X112776000Y-86296500D01*
X113918915Y-86296500D01*
X114010529Y-86129749D01*
X116684054Y-88803275D01*
X116712078Y-88837422D01*
X116746225Y-88865446D01*
X116746226Y-88865447D01*
X116775080Y-88889127D01*
X116848359Y-88949266D01*
X117003841Y-89032373D01*
X117172549Y-89083550D01*
X117304036Y-89096500D01*
X117304043Y-89096500D01*
X117348000Y-89100829D01*
X117360706Y-89099578D01*
X117393498Y-89207680D01*
X117452463Y-89317994D01*
X117531815Y-89414685D01*
X117628506Y-89494037D01*
X117738820Y-89553002D01*
X117858518Y-89589312D01*
X117983000Y-89601572D01*
X119507000Y-89601572D01*
X119631482Y-89589312D01*
X119751180Y-89553002D01*
X119861494Y-89494037D01*
X119958185Y-89414685D01*
X120037537Y-89317994D01*
X120096502Y-89207680D01*
X120108822Y-89167065D01*
X120499040Y-89167065D01*
X120566020Y-89407156D01*
X120815048Y-89524256D01*
X121082135Y-89590523D01*
X121357017Y-89603410D01*
X121629133Y-89562422D01*
X121888023Y-89469136D01*
X122003980Y-89407156D01*
X122070960Y-89167065D01*
X121285000Y-88381105D01*
X120499040Y-89167065D01*
X120108822Y-89167065D01*
X120132812Y-89087982D01*
X120145072Y-88963500D01*
X120145072Y-88938817D01*
X120319435Y-88987460D01*
X121105395Y-88201500D01*
X121464605Y-88201500D01*
X122250565Y-88987460D01*
X122490656Y-88920480D01*
X122607756Y-88671452D01*
X122674023Y-88404365D01*
X122686910Y-88129483D01*
X122645922Y-87857367D01*
X122552636Y-87598477D01*
X122490656Y-87482520D01*
X122250565Y-87415540D01*
X121464605Y-88201500D01*
X121105395Y-88201500D01*
X120319435Y-87415540D01*
X120145072Y-87464183D01*
X120145072Y-87439500D01*
X120132812Y-87315018D01*
X120096502Y-87195320D01*
X120037537Y-87085006D01*
X119958185Y-86988315D01*
X119861494Y-86908963D01*
X119751180Y-86849998D01*
X119631482Y-86813688D01*
X119547535Y-86805420D01*
X119635535Y-86746620D01*
X119755090Y-86627065D01*
X120499040Y-86627065D01*
X120566020Y-86867156D01*
X120696644Y-86928579D01*
X120681977Y-86933864D01*
X120566020Y-86995844D01*
X120499040Y-87235935D01*
X121285000Y-88021895D01*
X122070960Y-87235935D01*
X122003980Y-86995844D01*
X121873356Y-86934421D01*
X121888023Y-86929136D01*
X122003980Y-86867156D01*
X122070960Y-86627065D01*
X121285000Y-85841105D01*
X120499040Y-86627065D01*
X119755090Y-86627065D01*
X119830120Y-86552035D01*
X119983005Y-86323227D01*
X120012692Y-86251557D01*
X120017364Y-86264523D01*
X120079344Y-86380480D01*
X120319435Y-86447460D01*
X121105395Y-85661500D01*
X121464605Y-85661500D01*
X122250565Y-86447460D01*
X122490656Y-86380480D01*
X122607756Y-86131452D01*
X122674023Y-85864365D01*
X122686910Y-85589483D01*
X122645922Y-85317367D01*
X122552636Y-85058477D01*
X122490656Y-84942520D01*
X122250565Y-84875540D01*
X121464605Y-85661500D01*
X121105395Y-85661500D01*
X120319435Y-84875540D01*
X120079344Y-84942520D01*
X120015515Y-85078260D01*
X119983005Y-84999773D01*
X119830120Y-84770965D01*
X119635535Y-84576380D01*
X119406727Y-84423495D01*
X119329485Y-84391500D01*
X119406727Y-84359505D01*
X119635535Y-84206620D01*
X119755090Y-84087065D01*
X120499040Y-84087065D01*
X120566020Y-84327156D01*
X120696644Y-84388579D01*
X120681977Y-84393864D01*
X120566020Y-84455844D01*
X120499040Y-84695935D01*
X121285000Y-85481895D01*
X122070960Y-84695935D01*
X122003980Y-84455844D01*
X121873356Y-84394421D01*
X121888023Y-84389136D01*
X122003980Y-84327156D01*
X122070960Y-84087065D01*
X121285000Y-83301105D01*
X120499040Y-84087065D01*
X119755090Y-84087065D01*
X119830120Y-84012035D01*
X119983005Y-83783227D01*
X120012692Y-83711557D01*
X120017364Y-83724523D01*
X120079344Y-83840480D01*
X120319435Y-83907460D01*
X121105395Y-83121500D01*
X121464605Y-83121500D01*
X122250565Y-83907460D01*
X122490656Y-83840480D01*
X122607756Y-83591452D01*
X122674023Y-83324365D01*
X122686910Y-83049483D01*
X122645922Y-82777367D01*
X122552636Y-82518477D01*
X122490656Y-82402520D01*
X122250565Y-82335540D01*
X121464605Y-83121500D01*
X121105395Y-83121500D01*
X120319435Y-82335540D01*
X120079344Y-82402520D01*
X120015515Y-82538260D01*
X119983005Y-82459773D01*
X119830120Y-82230965D01*
X119635535Y-82036380D01*
X119406727Y-81883495D01*
X119329485Y-81851500D01*
X119406727Y-81819505D01*
X119635535Y-81666620D01*
X119755090Y-81547065D01*
X120499040Y-81547065D01*
X120566020Y-81787156D01*
X120696644Y-81848579D01*
X120681977Y-81853864D01*
X120566020Y-81915844D01*
X120499040Y-82155935D01*
X121285000Y-82941895D01*
X122070960Y-82155935D01*
X122003980Y-81915844D01*
X121873356Y-81854421D01*
X121888023Y-81849136D01*
X122003980Y-81787156D01*
X122070960Y-81547065D01*
X121285000Y-80761105D01*
X120499040Y-81547065D01*
X119755090Y-81547065D01*
X119830120Y-81472035D01*
X119983005Y-81243227D01*
X120012692Y-81171557D01*
X120017364Y-81184523D01*
X120079344Y-81300480D01*
X120319435Y-81367460D01*
X121105395Y-80581500D01*
X121464605Y-80581500D01*
X122250565Y-81367460D01*
X122490656Y-81300480D01*
X122607756Y-81051452D01*
X122674023Y-80784365D01*
X122686910Y-80509483D01*
X122645922Y-80237367D01*
X122552636Y-79978477D01*
X122490656Y-79862520D01*
X122250565Y-79795540D01*
X121464605Y-80581500D01*
X121105395Y-80581500D01*
X120319435Y-79795540D01*
X120079344Y-79862520D01*
X120015515Y-79998260D01*
X119983005Y-79919773D01*
X119830120Y-79690965D01*
X119635535Y-79496380D01*
X119406727Y-79343495D01*
X119329485Y-79311500D01*
X119406727Y-79279505D01*
X119635535Y-79126620D01*
X119755090Y-79007065D01*
X120499040Y-79007065D01*
X120566020Y-79247156D01*
X120696644Y-79308579D01*
X120681977Y-79313864D01*
X120566020Y-79375844D01*
X120499040Y-79615935D01*
X121285000Y-80401895D01*
X122070960Y-79615935D01*
X122003980Y-79375844D01*
X121873356Y-79314421D01*
X121888023Y-79309136D01*
X122003980Y-79247156D01*
X122070960Y-79007065D01*
X121285000Y-78221105D01*
X120499040Y-79007065D01*
X119755090Y-79007065D01*
X119830120Y-78932035D01*
X119983005Y-78703227D01*
X120012692Y-78631557D01*
X120017364Y-78644523D01*
X120079344Y-78760480D01*
X120319435Y-78827460D01*
X121105395Y-78041500D01*
X121464605Y-78041500D01*
X122250565Y-78827460D01*
X122490656Y-78760480D01*
X122607756Y-78511452D01*
X122674023Y-78244365D01*
X122686910Y-77969483D01*
X122645922Y-77697367D01*
X122552636Y-77438477D01*
X122490656Y-77322520D01*
X122250565Y-77255540D01*
X121464605Y-78041500D01*
X121105395Y-78041500D01*
X120319435Y-77255540D01*
X120079344Y-77322520D01*
X120015515Y-77458260D01*
X119983005Y-77379773D01*
X119830120Y-77150965D01*
X119635535Y-76956380D01*
X119406727Y-76803495D01*
X119329485Y-76771500D01*
X119406727Y-76739505D01*
X119635535Y-76586620D01*
X119755090Y-76467065D01*
X120499040Y-76467065D01*
X120566020Y-76707156D01*
X120696644Y-76768579D01*
X120681977Y-76773864D01*
X120566020Y-76835844D01*
X120499040Y-77075935D01*
X121285000Y-77861895D01*
X122070960Y-77075935D01*
X122003980Y-76835844D01*
X121873356Y-76774421D01*
X121888023Y-76769136D01*
X122003980Y-76707156D01*
X122070960Y-76467065D01*
X121285000Y-75681105D01*
X120499040Y-76467065D01*
X119755090Y-76467065D01*
X119830120Y-76392035D01*
X119983005Y-76163227D01*
X120012692Y-76091557D01*
X120017364Y-76104523D01*
X120079344Y-76220480D01*
X120319435Y-76287460D01*
X121105395Y-75501500D01*
X121464605Y-75501500D01*
X122250565Y-76287460D01*
X122490656Y-76220480D01*
X122607756Y-75971452D01*
X122674023Y-75704365D01*
X122686910Y-75429483D01*
X122645922Y-75157367D01*
X122552636Y-74898477D01*
X122490656Y-74782520D01*
X122250565Y-74715540D01*
X121464605Y-75501500D01*
X121105395Y-75501500D01*
X120319435Y-74715540D01*
X120079344Y-74782520D01*
X120015515Y-74918260D01*
X119983005Y-74839773D01*
X119830120Y-74610965D01*
X119635535Y-74416380D01*
X119406727Y-74263495D01*
X119329485Y-74231500D01*
X119406727Y-74199505D01*
X119635535Y-74046620D01*
X119755090Y-73927065D01*
X120499040Y-73927065D01*
X120566020Y-74167156D01*
X120696644Y-74228579D01*
X120681977Y-74233864D01*
X120566020Y-74295844D01*
X120499040Y-74535935D01*
X121285000Y-75321895D01*
X122070960Y-74535935D01*
X122003980Y-74295844D01*
X121873356Y-74234421D01*
X121888023Y-74229136D01*
X122003980Y-74167156D01*
X122070960Y-73927065D01*
X121285000Y-73141105D01*
X120499040Y-73927065D01*
X119755090Y-73927065D01*
X119830120Y-73852035D01*
X119983005Y-73623227D01*
X120012692Y-73551557D01*
X120017364Y-73564523D01*
X120079344Y-73680480D01*
X120319435Y-73747460D01*
X121105395Y-72961500D01*
X121464605Y-72961500D01*
X122250565Y-73747460D01*
X122490656Y-73680480D01*
X122607756Y-73431452D01*
X122674023Y-73164365D01*
X122686910Y-72889483D01*
X122645922Y-72617367D01*
X122552636Y-72358477D01*
X122490656Y-72242520D01*
X122250565Y-72175540D01*
X121464605Y-72961500D01*
X121105395Y-72961500D01*
X120319435Y-72175540D01*
X120079344Y-72242520D01*
X120015515Y-72378260D01*
X119983005Y-72299773D01*
X119830120Y-72070965D01*
X119635535Y-71876380D01*
X119406727Y-71723495D01*
X119329485Y-71691500D01*
X119406727Y-71659505D01*
X119635535Y-71506620D01*
X119755090Y-71387065D01*
X120499040Y-71387065D01*
X120566020Y-71627156D01*
X120696644Y-71688579D01*
X120681977Y-71693864D01*
X120566020Y-71755844D01*
X120499040Y-71995935D01*
X121285000Y-72781895D01*
X122070960Y-71995935D01*
X122003980Y-71755844D01*
X121873356Y-71694421D01*
X121888023Y-71689136D01*
X122003980Y-71627156D01*
X122070960Y-71387065D01*
X121285000Y-70601105D01*
X120499040Y-71387065D01*
X119755090Y-71387065D01*
X119830120Y-71312035D01*
X119983005Y-71083227D01*
X120012692Y-71011557D01*
X120017364Y-71024523D01*
X120079344Y-71140480D01*
X120319435Y-71207460D01*
X121105395Y-70421500D01*
X121464605Y-70421500D01*
X122250565Y-71207460D01*
X122490656Y-71140480D01*
X122607756Y-70891452D01*
X122674023Y-70624365D01*
X122686910Y-70349483D01*
X122645922Y-70077367D01*
X122552636Y-69818477D01*
X122490656Y-69702520D01*
X122250565Y-69635540D01*
X121464605Y-70421500D01*
X121105395Y-70421500D01*
X120319435Y-69635540D01*
X120079344Y-69702520D01*
X120015515Y-69838260D01*
X119983005Y-69759773D01*
X119830120Y-69530965D01*
X119635535Y-69336380D01*
X119406727Y-69183495D01*
X119329485Y-69151500D01*
X119406727Y-69119505D01*
X119635535Y-68966620D01*
X119755090Y-68847065D01*
X120499040Y-68847065D01*
X120566020Y-69087156D01*
X120696644Y-69148579D01*
X120681977Y-69153864D01*
X120566020Y-69215844D01*
X120499040Y-69455935D01*
X121285000Y-70241895D01*
X122070960Y-69455935D01*
X122003980Y-69215844D01*
X121873356Y-69154421D01*
X121888023Y-69149136D01*
X122003980Y-69087156D01*
X122070960Y-68847065D01*
X121285000Y-68061105D01*
X120499040Y-68847065D01*
X119755090Y-68847065D01*
X119830120Y-68772035D01*
X119983005Y-68543227D01*
X120012692Y-68471557D01*
X120017364Y-68484523D01*
X120079344Y-68600480D01*
X120319435Y-68667460D01*
X121105395Y-67881500D01*
X121464605Y-67881500D01*
X122250565Y-68667460D01*
X122490656Y-68600480D01*
X122607756Y-68351452D01*
X122674023Y-68084365D01*
X122686910Y-67809483D01*
X122645922Y-67537367D01*
X122552636Y-67278477D01*
X122490656Y-67162520D01*
X122250565Y-67095540D01*
X121464605Y-67881500D01*
X121105395Y-67881500D01*
X120319435Y-67095540D01*
X120079344Y-67162520D01*
X120015515Y-67298260D01*
X119983005Y-67219773D01*
X119830120Y-66990965D01*
X119755090Y-66915935D01*
X120499040Y-66915935D01*
X121285000Y-67701895D01*
X122070960Y-66915935D01*
X122003980Y-66675844D01*
X121754952Y-66558744D01*
X121487865Y-66492477D01*
X121212983Y-66479590D01*
X120940867Y-66520578D01*
X120681977Y-66613864D01*
X120566020Y-66675844D01*
X120499040Y-66915935D01*
X119755090Y-66915935D01*
X119635535Y-66796380D01*
X119406727Y-66643495D01*
X119152490Y-66538186D01*
X118882592Y-66484500D01*
X118607408Y-66484500D01*
X118337510Y-66538186D01*
X118083273Y-66643495D01*
X117854465Y-66796380D01*
X117664345Y-66986500D01*
X96827221Y-66986500D01*
X95410364Y-65569643D01*
X95415000Y-65546335D01*
X95415000Y-65263665D01*
X95359853Y-64986426D01*
X95251680Y-64725273D01*
X95094637Y-64490241D01*
X94915561Y-64311165D01*
X96736000Y-64311165D01*
X96736000Y-64593835D01*
X96791147Y-64871074D01*
X96899320Y-65132227D01*
X97056363Y-65367259D01*
X97256241Y-65567137D01*
X97491273Y-65724180D01*
X97752426Y-65832353D01*
X98029665Y-65887500D01*
X98312335Y-65887500D01*
X98589574Y-65832353D01*
X98850727Y-65724180D01*
X99085759Y-65567137D01*
X99285637Y-65367259D01*
X99298840Y-65347500D01*
X121612780Y-65347500D01*
X123311000Y-67045722D01*
X123311001Y-94013277D01*
X122705727Y-94618552D01*
X122636185Y-94533815D01*
X122539494Y-94454463D01*
X122429180Y-94395498D01*
X122309482Y-94359188D01*
X122185000Y-94346928D01*
X120385000Y-94346928D01*
X120260518Y-94359188D01*
X120140820Y-94395498D01*
X120030506Y-94454463D01*
X119933815Y-94533815D01*
X119854463Y-94630506D01*
X119795498Y-94740820D01*
X119759188Y-94860518D01*
X119746928Y-94985000D01*
X119746928Y-96785000D01*
X119759188Y-96909482D01*
X119795498Y-97029180D01*
X119854463Y-97139494D01*
X119933815Y-97236185D01*
X120030506Y-97315537D01*
X120140820Y-97374502D01*
X120151735Y-97377813D01*
X120104970Y-97424578D01*
X120220918Y-97540526D01*
X119966739Y-97624208D01*
X119835842Y-97896775D01*
X119760635Y-98189642D01*
X119744009Y-98491553D01*
X119786603Y-98790907D01*
X119886778Y-99076199D01*
X119966739Y-99225792D01*
X120220920Y-99309475D01*
X121105395Y-98425000D01*
X121091253Y-98410858D01*
X121270858Y-98231253D01*
X121285000Y-98245395D01*
X121299143Y-98231253D01*
X121478748Y-98410858D01*
X121464605Y-98425000D01*
X122349080Y-99309475D01*
X122603261Y-99225792D01*
X122734158Y-98953225D01*
X122809365Y-98660358D01*
X122825991Y-98358447D01*
X122783397Y-98059093D01*
X122683222Y-97773801D01*
X122603261Y-97624208D01*
X122349082Y-97540526D01*
X122465030Y-97424578D01*
X122418265Y-97377813D01*
X122429180Y-97374502D01*
X122539494Y-97315537D01*
X122636185Y-97236185D01*
X122715537Y-97139494D01*
X122774502Y-97029180D01*
X122810812Y-96909482D01*
X122823072Y-96785000D01*
X122823072Y-96772701D01*
X122880451Y-96767050D01*
X123049159Y-96715873D01*
X123204641Y-96632766D01*
X123340922Y-96520922D01*
X123368950Y-96486770D01*
X123598080Y-96257640D01*
X123928948Y-95926773D01*
X123928949Y-95926772D01*
X124807780Y-95047942D01*
X124841922Y-95019922D01*
X124869941Y-94985781D01*
X124869948Y-94985774D01*
X124953766Y-94883641D01*
X125036873Y-94728159D01*
X125088050Y-94559451D01*
X125090575Y-94533815D01*
X125101000Y-94427964D01*
X125101000Y-94427957D01*
X125105329Y-94384000D01*
X125101000Y-94340043D01*
X125101000Y-66718957D01*
X125105329Y-66675000D01*
X125101000Y-66631043D01*
X125101000Y-66631036D01*
X125088050Y-66499549D01*
X125036873Y-66330841D01*
X124953766Y-66175359D01*
X124869948Y-66073226D01*
X124869941Y-66073219D01*
X124841922Y-66039078D01*
X124807781Y-66011060D01*
X122647450Y-63850730D01*
X122619422Y-63816578D01*
X122483141Y-63704734D01*
X122327659Y-63621627D01*
X122158951Y-63570450D01*
X122027464Y-63557500D01*
X122027454Y-63557500D01*
X121983500Y-63553171D01*
X121939546Y-63557500D01*
X99298840Y-63557500D01*
X99285637Y-63537741D01*
X99085759Y-63337863D01*
X98850727Y-63180820D01*
X98589574Y-63072647D01*
X98312335Y-63017500D01*
X98029665Y-63017500D01*
X97752426Y-63072647D01*
X97491273Y-63180820D01*
X97256241Y-63337863D01*
X97056363Y-63537741D01*
X96899320Y-63772773D01*
X96791147Y-64033926D01*
X96736000Y-64311165D01*
X94915561Y-64311165D01*
X94894759Y-64290363D01*
X94659727Y-64133320D01*
X94398574Y-64025147D01*
X94121335Y-63970000D01*
X93838665Y-63970000D01*
X93561426Y-64025147D01*
X93300273Y-64133320D01*
X93065241Y-64290363D01*
X92865363Y-64490241D01*
X92708320Y-64725273D01*
X92600147Y-64986426D01*
X92562524Y-65175566D01*
X92504451Y-65157950D01*
X92372964Y-65145000D01*
X92372954Y-65145000D01*
X92329000Y-65140671D01*
X92285046Y-65145000D01*
X87487840Y-65145000D01*
X87474637Y-65125241D01*
X87274759Y-64925363D01*
X87039727Y-64768320D01*
X86778574Y-64660147D01*
X86501335Y-64605000D01*
X86218665Y-64605000D01*
X85941426Y-64660147D01*
X85680273Y-64768320D01*
X85445241Y-64925363D01*
X85245363Y-65125241D01*
X85088320Y-65360273D01*
X84980147Y-65621426D01*
X84925000Y-65898665D01*
X83730750Y-65898665D01*
X83730750Y-63584970D01*
X85524221Y-61791500D01*
X106699546Y-61791500D01*
X106743500Y-61795829D01*
X106787454Y-61791500D01*
X106787464Y-61791500D01*
X106918951Y-61778550D01*
X107087659Y-61727373D01*
X107243141Y-61644266D01*
X107379422Y-61532422D01*
X107407450Y-61498270D01*
X108551780Y-60353942D01*
X108585922Y-60325922D01*
X108613941Y-60291781D01*
X108613948Y-60291774D01*
X108697766Y-60189641D01*
X108780873Y-60034159D01*
X108832050Y-59865451D01*
X108845000Y-59733964D01*
X108845000Y-59733957D01*
X108849329Y-59690000D01*
X108845000Y-59646043D01*
X108845000Y-59268640D01*
X108924482Y-59260812D01*
X109044180Y-59224502D01*
X109154494Y-59165537D01*
X109251185Y-59086185D01*
X109330537Y-58989494D01*
X109389502Y-58879180D01*
X109413966Y-58798534D01*
X109489731Y-58882588D01*
X109723080Y-59056641D01*
X109985901Y-59181825D01*
X110133110Y-59226476D01*
X110363000Y-59105155D01*
X110363000Y-57912000D01*
X110617000Y-57912000D01*
X110617000Y-59105155D01*
X110846890Y-59226476D01*
X110994099Y-59181825D01*
X111256920Y-59056641D01*
X111490269Y-58882588D01*
X111685178Y-58666355D01*
X111834157Y-58416252D01*
X111931481Y-58141891D01*
X111810814Y-57912000D01*
X110617000Y-57912000D01*
X110363000Y-57912000D01*
X110343000Y-57912000D01*
X110343000Y-57658000D01*
X110363000Y-57658000D01*
X110363000Y-56464845D01*
X110617000Y-56464845D01*
X110617000Y-57658000D01*
X111810814Y-57658000D01*
X111931481Y-57428109D01*
X111834157Y-57153748D01*
X111685178Y-56903645D01*
X111490269Y-56687412D01*
X111256920Y-56513359D01*
X110994099Y-56388175D01*
X110846890Y-56343524D01*
X110617000Y-56464845D01*
X110363000Y-56464845D01*
X110133110Y-56343524D01*
X109985901Y-56388175D01*
X109723080Y-56513359D01*
X109489731Y-56687412D01*
X109413966Y-56771466D01*
X109389502Y-56690820D01*
X109330537Y-56580506D01*
X109251185Y-56483815D01*
X109154494Y-56404463D01*
X109044180Y-56345498D01*
X108924482Y-56309188D01*
X108800000Y-56296928D01*
X107100000Y-56296928D01*
X106975518Y-56309188D01*
X106855820Y-56345498D01*
X106745506Y-56404463D01*
X106648815Y-56483815D01*
X106569463Y-56580506D01*
X106510498Y-56690820D01*
X106474188Y-56810518D01*
X106461928Y-56935000D01*
X106461928Y-58635000D01*
X106474188Y-58759482D01*
X106510498Y-58879180D01*
X106569463Y-58989494D01*
X106648815Y-59086185D01*
X106745506Y-59165537D01*
X106855820Y-59224502D01*
X106975518Y-59260812D01*
X107055001Y-59268640D01*
X107055001Y-59319278D01*
X106372780Y-60001500D01*
X85197453Y-60001500D01*
X85153499Y-59997171D01*
X85109545Y-60001500D01*
X85109536Y-60001500D01*
X84978049Y-60014450D01*
X84809341Y-60065627D01*
X84653859Y-60148734D01*
X84653857Y-60148735D01*
X84653858Y-60148735D01*
X84563557Y-60222844D01*
X84517578Y-60260578D01*
X84489554Y-60294725D01*
X82233976Y-62550304D01*
X82199829Y-62578328D01*
X82171805Y-62612475D01*
X82171803Y-62612477D01*
X82087984Y-62714610D01*
X82004877Y-62870092D01*
X81953701Y-63038800D01*
X81936421Y-63214250D01*
X81940751Y-63258214D01*
X81940750Y-74781529D01*
X81480219Y-75242061D01*
X81429608Y-75180392D01*
X81211101Y-75001068D01*
X81083259Y-74932735D01*
X81312839Y-74782601D01*
X81514500Y-74584895D01*
X81673715Y-74351646D01*
X81784367Y-74091818D01*
X81801904Y-74009039D01*
X81679915Y-73787000D01*
X80137000Y-73787000D01*
X80137000Y-73807000D01*
X79883000Y-73807000D01*
X79883000Y-73787000D01*
X78340085Y-73787000D01*
X78218096Y-74009039D01*
X78235633Y-74091818D01*
X78346285Y-74351646D01*
X78505500Y-74584895D01*
X78707161Y-74782601D01*
X78936741Y-74932735D01*
X78808899Y-75001068D01*
X78590392Y-75180392D01*
X78411068Y-75398899D01*
X78277818Y-75648192D01*
X78195764Y-75918691D01*
X78168057Y-76200000D01*
X78195764Y-76481309D01*
X78277818Y-76751808D01*
X78411068Y-77001101D01*
X78590392Y-77219608D01*
X78808899Y-77398932D01*
X78941858Y-77470000D01*
X78808899Y-77541068D01*
X78590392Y-77720392D01*
X78411068Y-77938899D01*
X78277818Y-78188192D01*
X78195764Y-78458691D01*
X78168057Y-78740000D01*
X78195764Y-79021309D01*
X78277818Y-79291808D01*
X78411068Y-79541101D01*
X78590392Y-79759608D01*
X78808899Y-79938932D01*
X78941858Y-80010000D01*
X78808899Y-80081068D01*
X78590392Y-80260392D01*
X78411068Y-80478899D01*
X78277818Y-80728192D01*
X78195764Y-80998691D01*
X78168057Y-81280000D01*
X78195764Y-81561309D01*
X78277818Y-81831808D01*
X78411068Y-82081101D01*
X78590392Y-82299608D01*
X78808899Y-82478932D01*
X78941858Y-82550000D01*
X78808899Y-82621068D01*
X78590392Y-82800392D01*
X78411068Y-83018899D01*
X78277818Y-83268192D01*
X78195764Y-83538691D01*
X78168057Y-83820000D01*
X78195764Y-84101309D01*
X78277818Y-84371808D01*
X78411068Y-84621101D01*
X78590392Y-84839608D01*
X78808899Y-85018932D01*
X78941858Y-85090000D01*
X78808899Y-85161068D01*
X78590392Y-85340392D01*
X78411068Y-85558899D01*
X78277818Y-85808192D01*
X78195764Y-86078691D01*
X78168057Y-86360000D01*
X78195764Y-86641309D01*
X78277818Y-86911808D01*
X78411068Y-87161101D01*
X78590392Y-87379608D01*
X78808899Y-87558932D01*
X78941858Y-87630000D01*
X78808899Y-87701068D01*
X78590392Y-87880392D01*
X78488129Y-88005000D01*
X78333953Y-88005000D01*
X78289999Y-88000671D01*
X78246045Y-88005000D01*
X78246036Y-88005000D01*
X78114549Y-88017950D01*
X77945841Y-88069127D01*
X77790358Y-88152234D01*
X77691774Y-88233141D01*
X77654078Y-88264078D01*
X77626054Y-88298225D01*
X76868230Y-89056050D01*
X76834078Y-89084078D01*
X76722234Y-89220360D01*
X76639127Y-89375842D01*
X76587950Y-89544550D01*
X76575000Y-89676037D01*
X76575000Y-89676046D01*
X76570671Y-89720000D01*
X73966100Y-89720000D01*
X74053715Y-89591646D01*
X74164367Y-89331818D01*
X74181904Y-89249039D01*
X74059915Y-89027000D01*
X72517000Y-89027000D01*
X72517000Y-89047000D01*
X72263000Y-89047000D01*
X72263000Y-89027000D01*
X72243000Y-89027000D01*
X72243000Y-88773000D01*
X72263000Y-88773000D01*
X72263000Y-88753000D01*
X72517000Y-88753000D01*
X72517000Y-88773000D01*
X74059915Y-88773000D01*
X74181904Y-88550961D01*
X74164367Y-88468182D01*
X74053715Y-88208354D01*
X73894500Y-87975105D01*
X73692839Y-87777399D01*
X73463259Y-87627265D01*
X73591101Y-87558932D01*
X73809608Y-87379608D01*
X73988932Y-87161101D01*
X74122182Y-86911808D01*
X74204236Y-86641309D01*
X74231943Y-86360000D01*
X74204236Y-86078691D01*
X74122182Y-85808192D01*
X73988932Y-85558899D01*
X73809608Y-85340392D01*
X73591101Y-85161068D01*
X73463259Y-85092735D01*
X73692839Y-84942601D01*
X73894500Y-84744895D01*
X74053715Y-84511646D01*
X74164367Y-84251818D01*
X74181904Y-84169039D01*
X74059915Y-83947000D01*
X72517000Y-83947000D01*
X72517000Y-83967000D01*
X72263000Y-83967000D01*
X72263000Y-83947000D01*
X72243000Y-83947000D01*
X72243000Y-83693000D01*
X72263000Y-83693000D01*
X72263000Y-83673000D01*
X72517000Y-83673000D01*
X72517000Y-83693000D01*
X74059915Y-83693000D01*
X74181904Y-83470961D01*
X74164367Y-83388182D01*
X74053715Y-83128354D01*
X73894500Y-82895105D01*
X73692839Y-82697399D01*
X73463259Y-82547265D01*
X73591101Y-82478932D01*
X73809608Y-82299608D01*
X73988932Y-82081101D01*
X74122182Y-81831808D01*
X74204236Y-81561309D01*
X74231943Y-81280000D01*
X74204236Y-80998691D01*
X74122182Y-80728192D01*
X73988932Y-80478899D01*
X73809608Y-80260392D01*
X73591101Y-80081068D01*
X73458142Y-80010000D01*
X73591101Y-79938932D01*
X73809608Y-79759608D01*
X73911871Y-79635000D01*
X74066046Y-79635000D01*
X74110000Y-79639329D01*
X74153954Y-79635000D01*
X74153964Y-79635000D01*
X74285451Y-79622050D01*
X74454159Y-79570873D01*
X74609641Y-79487766D01*
X74745922Y-79375922D01*
X74773950Y-79341770D01*
X76801775Y-77313946D01*
X76835922Y-77285922D01*
X76947766Y-77149641D01*
X77030873Y-76994159D01*
X77082050Y-76825451D01*
X77095000Y-76693964D01*
X77095000Y-76693955D01*
X77099329Y-76650001D01*
X77095000Y-76606047D01*
X77095000Y-73310961D01*
X78218096Y-73310961D01*
X78340085Y-73533000D01*
X79883000Y-73533000D01*
X79883000Y-72225000D01*
X80137000Y-72225000D01*
X80137000Y-73533000D01*
X81679915Y-73533000D01*
X81801904Y-73310961D01*
X81784367Y-73228182D01*
X81673715Y-72968354D01*
X81514500Y-72735105D01*
X81312839Y-72537399D01*
X81076483Y-72382834D01*
X80814514Y-72277350D01*
X80537000Y-72225000D01*
X80137000Y-72225000D01*
X79883000Y-72225000D01*
X79483000Y-72225000D01*
X79205486Y-72277350D01*
X78943517Y-72382834D01*
X78707161Y-72537399D01*
X78505500Y-72735105D01*
X78346285Y-72968354D01*
X78235633Y-73228182D01*
X78218096Y-73310961D01*
X77095000Y-73310961D01*
X77095000Y-68623953D01*
X77099329Y-68579999D01*
X77095000Y-68536045D01*
X77095000Y-68536036D01*
X77082050Y-68404549D01*
X77030873Y-68235841D01*
X76947766Y-68080359D01*
X76835922Y-67944078D01*
X76801776Y-67916055D01*
X75090364Y-66204643D01*
X75095000Y-66181335D01*
X75095000Y-65898665D01*
X75039853Y-65621426D01*
X74931680Y-65360273D01*
X74774637Y-65125241D01*
X74574759Y-64925363D01*
X74339727Y-64768320D01*
X74078574Y-64660147D01*
X73801335Y-64605000D01*
X73518665Y-64605000D01*
X73241426Y-64660147D01*
X72980273Y-64768320D01*
X72745241Y-64925363D01*
X72545363Y-65125241D01*
X72388320Y-65360273D01*
X72280147Y-65621426D01*
X72225000Y-65898665D01*
X72225000Y-66181335D01*
X72280147Y-66458574D01*
X72388320Y-66719727D01*
X72545363Y-66954759D01*
X72745241Y-67154637D01*
X72980273Y-67311680D01*
X73241426Y-67419853D01*
X73518665Y-67475000D01*
X73801335Y-67475000D01*
X73824643Y-67470364D01*
X75305000Y-68950721D01*
X75305000Y-70229280D01*
X75090364Y-70014644D01*
X75095000Y-69991335D01*
X75095000Y-69708665D01*
X75039853Y-69431426D01*
X74931680Y-69170273D01*
X74774637Y-68935241D01*
X74574759Y-68735363D01*
X74339727Y-68578320D01*
X74078574Y-68470147D01*
X73801335Y-68415000D01*
X73518665Y-68415000D01*
X73241426Y-68470147D01*
X72980273Y-68578320D01*
X72745241Y-68735363D01*
X72545363Y-68935241D01*
X72388320Y-69170273D01*
X72280147Y-69431426D01*
X72225000Y-69708665D01*
X72225000Y-69991335D01*
X72280147Y-70268574D01*
X72388320Y-70529727D01*
X72545363Y-70764759D01*
X72745241Y-70964637D01*
X72980273Y-71121680D01*
X73241426Y-71229853D01*
X73518665Y-71285000D01*
X73801335Y-71285000D01*
X73824644Y-71280364D01*
X74289000Y-71744721D01*
X74289001Y-74305278D01*
X73592260Y-75002019D01*
X73591101Y-75001068D01*
X73458142Y-74930000D01*
X73591101Y-74858932D01*
X73809608Y-74679608D01*
X73988932Y-74461101D01*
X74122182Y-74211808D01*
X74204236Y-73941309D01*
X74231943Y-73660000D01*
X74204236Y-73378691D01*
X74122182Y-73108192D01*
X73988932Y-72858899D01*
X73809608Y-72640392D01*
X73591101Y-72461068D01*
X73341808Y-72327818D01*
X73071309Y-72245764D01*
X72860492Y-72225000D01*
X71919508Y-72225000D01*
X71708691Y-72245764D01*
X71438192Y-72327818D01*
X71188899Y-72461068D01*
X70970392Y-72640392D01*
X70791068Y-72858899D01*
X70745000Y-72945086D01*
X70745000Y-62217472D01*
X71274823Y-61687650D01*
X71274827Y-61687645D01*
X71294204Y-61668268D01*
X76905000Y-61668268D01*
X76905000Y-62029732D01*
X76975518Y-62384250D01*
X77113844Y-62718199D01*
X77314662Y-63018744D01*
X77570256Y-63274338D01*
X77870801Y-63475156D01*
X78204750Y-63613482D01*
X78559268Y-63684000D01*
X78920732Y-63684000D01*
X79275250Y-63613482D01*
X79609199Y-63475156D01*
X79909744Y-63274338D01*
X80165338Y-63018744D01*
X80366156Y-62718199D01*
X80504482Y-62384250D01*
X80575000Y-62029732D01*
X80575000Y-61668268D01*
X80566848Y-61627284D01*
X83274132Y-58920000D01*
X90022317Y-58920000D01*
X90059463Y-58989494D01*
X90138815Y-59086185D01*
X90235506Y-59165537D01*
X90345820Y-59224502D01*
X90465518Y-59260812D01*
X90590000Y-59273072D01*
X92290000Y-59273072D01*
X92414482Y-59260812D01*
X92534180Y-59224502D01*
X92644494Y-59165537D01*
X92741185Y-59086185D01*
X92820537Y-58989494D01*
X92879502Y-58879180D01*
X92903966Y-58798534D01*
X92979731Y-58882588D01*
X93213080Y-59056641D01*
X93475901Y-59181825D01*
X93623110Y-59226476D01*
X93853000Y-59105155D01*
X93853000Y-57912000D01*
X94107000Y-57912000D01*
X94107000Y-59105155D01*
X94336890Y-59226476D01*
X94484099Y-59181825D01*
X94746920Y-59056641D01*
X94980269Y-58882588D01*
X95175178Y-58666355D01*
X95324157Y-58416252D01*
X95421481Y-58141891D01*
X95300814Y-57912000D01*
X94107000Y-57912000D01*
X93853000Y-57912000D01*
X93833000Y-57912000D01*
X93833000Y-57658000D01*
X93853000Y-57658000D01*
X93853000Y-56464845D01*
X94107000Y-56464845D01*
X94107000Y-57658000D01*
X95300814Y-57658000D01*
X95421481Y-57428109D01*
X95324157Y-57153748D01*
X95175178Y-56903645D01*
X94980269Y-56687412D01*
X94746920Y-56513359D01*
X94484099Y-56388175D01*
X94336890Y-56343524D01*
X94107000Y-56464845D01*
X93853000Y-56464845D01*
X93623110Y-56343524D01*
X93475901Y-56388175D01*
X93213080Y-56513359D01*
X92979731Y-56687412D01*
X92903966Y-56771466D01*
X92879502Y-56690820D01*
X92820537Y-56580506D01*
X92741185Y-56483815D01*
X92644494Y-56404463D01*
X92534180Y-56345498D01*
X92414482Y-56309188D01*
X92290000Y-56296928D01*
X90590000Y-56296928D01*
X90465518Y-56309188D01*
X90345820Y-56345498D01*
X90235506Y-56404463D01*
X90138815Y-56483815D01*
X90059463Y-56580506D01*
X90022317Y-56650000D01*
X82859751Y-56650000D01*
X82804000Y-56644509D01*
X82748248Y-56650000D01*
X82581501Y-56666423D01*
X82367553Y-56731324D01*
X82170377Y-56836716D01*
X81997551Y-56978551D01*
X81962009Y-57021859D01*
X78961716Y-60022152D01*
X78920732Y-60014000D01*
X78559268Y-60014000D01*
X78204750Y-60084518D01*
X77870801Y-60222844D01*
X77570256Y-60423662D01*
X77314662Y-60679256D01*
X77113844Y-60979801D01*
X76975518Y-61313750D01*
X76905000Y-61668268D01*
X71294204Y-61668268D01*
X74282474Y-58680000D01*
X74716360Y-58680000D01*
X74724188Y-58759482D01*
X74760498Y-58879180D01*
X74819463Y-58989494D01*
X74898815Y-59086185D01*
X74995506Y-59165537D01*
X75105820Y-59224502D01*
X75225518Y-59260812D01*
X75350000Y-59273072D01*
X77050000Y-59273072D01*
X77174482Y-59260812D01*
X77294180Y-59224502D01*
X77404494Y-59165537D01*
X77501185Y-59086185D01*
X77580537Y-58989494D01*
X77639502Y-58879180D01*
X77663966Y-58798534D01*
X77739731Y-58882588D01*
X77973080Y-59056641D01*
X78235901Y-59181825D01*
X78383110Y-59226476D01*
X78613000Y-59105155D01*
X78613000Y-57912000D01*
X78867000Y-57912000D01*
X78867000Y-59105155D01*
X79096890Y-59226476D01*
X79244099Y-59181825D01*
X79506920Y-59056641D01*
X79740269Y-58882588D01*
X79935178Y-58666355D01*
X80084157Y-58416252D01*
X80181481Y-58141891D01*
X80060814Y-57912000D01*
X78867000Y-57912000D01*
X78613000Y-57912000D01*
X78593000Y-57912000D01*
X78593000Y-57658000D01*
X78613000Y-57658000D01*
X78613000Y-56464845D01*
X78867000Y-56464845D01*
X78867000Y-57658000D01*
X80060814Y-57658000D01*
X80181481Y-57428109D01*
X80084157Y-57153748D01*
X79935178Y-56903645D01*
X79740269Y-56687412D01*
X79506920Y-56513359D01*
X79244099Y-56388175D01*
X79096890Y-56343524D01*
X78867000Y-56464845D01*
X78613000Y-56464845D01*
X78383110Y-56343524D01*
X78235901Y-56388175D01*
X77973080Y-56513359D01*
X77739731Y-56687412D01*
X77663966Y-56771466D01*
X77639502Y-56690820D01*
X77580537Y-56580506D01*
X77501185Y-56483815D01*
X77404494Y-56404463D01*
X77294180Y-56345498D01*
X77174482Y-56309188D01*
X77050000Y-56296928D01*
X75350000Y-56296928D01*
X75225518Y-56309188D01*
X75105820Y-56345498D01*
X74995506Y-56404463D01*
X74898815Y-56483815D01*
X74819463Y-56580506D01*
X74760498Y-56690820D01*
X74724188Y-56810518D01*
X74716360Y-56890000D01*
X73955706Y-56890000D01*
X73911752Y-56885671D01*
X73867798Y-56890000D01*
X73867789Y-56890000D01*
X73736302Y-56902950D01*
X73567594Y-56954127D01*
X73412112Y-57037234D01*
X73275831Y-57149078D01*
X73247807Y-57183225D01*
X70009108Y-60421924D01*
X70009102Y-60421929D01*
X69248226Y-61182806D01*
X69214079Y-61210830D01*
X69186055Y-61244977D01*
X69186053Y-61244979D01*
X69102234Y-61347112D01*
X69019127Y-61502594D01*
X68967951Y-61671302D01*
X68950671Y-61846752D01*
X68955001Y-61890716D01*
X68955000Y-83228963D01*
X68955001Y-83228972D01*
X68955001Y-84444256D01*
X68955000Y-85681046D01*
X68950671Y-85725000D01*
X68955000Y-85768954D01*
X68955000Y-85768963D01*
X68967950Y-85900450D01*
X69019127Y-86069158D01*
X69102234Y-86224640D01*
X69214078Y-86360922D01*
X69248230Y-86388950D01*
X69821058Y-86961780D01*
X69849078Y-86995922D01*
X69883219Y-87023941D01*
X69883226Y-87023948D01*
X69957626Y-87085006D01*
X69985359Y-87107766D01*
X70140841Y-87190873D01*
X70309549Y-87242050D01*
X70441036Y-87255000D01*
X70441043Y-87255000D01*
X70485000Y-87259329D01*
X70528957Y-87255000D01*
X70868129Y-87255000D01*
X70970392Y-87379608D01*
X71188899Y-87558932D01*
X71316741Y-87627265D01*
X71087161Y-87777399D01*
X70885500Y-87975105D01*
X70760244Y-88158604D01*
X70652202Y-88126903D01*
X69839105Y-88940000D01*
X70652202Y-89753097D01*
X70805740Y-89708047D01*
X70885500Y-89824895D01*
X71087161Y-90022601D01*
X71316741Y-90172735D01*
X71188899Y-90241068D01*
X71110998Y-90305000D01*
X70543784Y-90305000D01*
X70373631Y-90191308D01*
X70401014Y-90176671D01*
X70472597Y-89932702D01*
X69659500Y-89119605D01*
X68846403Y-89932702D01*
X68917986Y-90176671D01*
X68946841Y-90190324D01*
X68775216Y-90305000D01*
X68635752Y-90305000D01*
X68580000Y-90299509D01*
X68524248Y-90305000D01*
X68357501Y-90321423D01*
X68143553Y-90386324D01*
X67946377Y-90491716D01*
X67773551Y-90633551D01*
X67738008Y-90676860D01*
X67474868Y-90940000D01*
X67380957Y-90940000D01*
X67370537Y-90920506D01*
X67291185Y-90823815D01*
X67194494Y-90744463D01*
X67175000Y-90734043D01*
X67175000Y-89010512D01*
X68219283Y-89010512D01*
X68260713Y-89290130D01*
X68355897Y-89556292D01*
X68422829Y-89681514D01*
X68666798Y-89753097D01*
X69479895Y-88940000D01*
X68666798Y-88126903D01*
X68422829Y-88198486D01*
X68301929Y-88453996D01*
X68233200Y-88728184D01*
X68219283Y-89010512D01*
X67175000Y-89010512D01*
X67175000Y-87947298D01*
X68846403Y-87947298D01*
X69659500Y-88760395D01*
X70472597Y-87947298D01*
X70401014Y-87703329D01*
X70145504Y-87582429D01*
X69871316Y-87513700D01*
X69588988Y-87499783D01*
X69309370Y-87541213D01*
X69043208Y-87636397D01*
X68917986Y-87703329D01*
X68846403Y-87947298D01*
X67175000Y-87947298D01*
X67175000Y-87879284D01*
X67311680Y-87674727D01*
X67419853Y-87413574D01*
X67475000Y-87136335D01*
X67475000Y-86853665D01*
X67419853Y-86576426D01*
X67311680Y-86315273D01*
X67175000Y-86110716D01*
X67175000Y-83457170D01*
X67215463Y-83423963D01*
X67413845Y-83182235D01*
X67561255Y-82906449D01*
X67652030Y-82607204D01*
X67682681Y-82296000D01*
X67652030Y-81984796D01*
X67561255Y-81685551D01*
X67413845Y-81409765D01*
X67215463Y-81168037D01*
X67036101Y-81020837D01*
X67221315Y-80865437D01*
X67415969Y-80622923D01*
X67559571Y-80347094D01*
X67630563Y-80128980D01*
X67510594Y-79883000D01*
X66167000Y-79883000D01*
X66167000Y-79903000D01*
X65913000Y-79903000D01*
X65913000Y-79883000D01*
X64569406Y-79883000D01*
X64449437Y-80128980D01*
X64520429Y-80347094D01*
X64664031Y-80622923D01*
X64858685Y-80865437D01*
X65043899Y-81020837D01*
X64864537Y-81168037D01*
X64666155Y-81409765D01*
X64518745Y-81685551D01*
X64427970Y-81984796D01*
X64397319Y-82296000D01*
X64427970Y-82607204D01*
X64518745Y-82906449D01*
X64666155Y-83182235D01*
X64864537Y-83423963D01*
X64905000Y-83457170D01*
X64905000Y-86110716D01*
X64791308Y-86280869D01*
X64776671Y-86253486D01*
X64532702Y-86181903D01*
X63719605Y-86995000D01*
X63360395Y-86995000D01*
X62547298Y-86181903D01*
X62303329Y-86253486D01*
X62182429Y-86508996D01*
X62113700Y-86783184D01*
X62099783Y-87065512D01*
X60706000Y-87065512D01*
X60706000Y-86002298D01*
X62726903Y-86002298D01*
X63540000Y-86815395D01*
X64353097Y-86002298D01*
X64281514Y-85758329D01*
X64026004Y-85637429D01*
X63751816Y-85568700D01*
X63469488Y-85554783D01*
X63189870Y-85596213D01*
X62923708Y-85691397D01*
X62798486Y-85758329D01*
X62726903Y-86002298D01*
X60706000Y-86002298D01*
X60706000Y-74208202D01*
X62726903Y-74208202D01*
X62798486Y-74452171D01*
X63053996Y-74573071D01*
X63328184Y-74641800D01*
X63610512Y-74655717D01*
X63890130Y-74614287D01*
X64156292Y-74519103D01*
X64281514Y-74452171D01*
X64353097Y-74208202D01*
X63540000Y-73395105D01*
X62726903Y-74208202D01*
X60706000Y-74208202D01*
X60706000Y-73286012D01*
X62099783Y-73286012D01*
X62141213Y-73565630D01*
X62236397Y-73831792D01*
X62303329Y-73957014D01*
X62547298Y-74028597D01*
X63360395Y-73215500D01*
X62547298Y-72402403D01*
X62303329Y-72473986D01*
X62182429Y-72729496D01*
X62113700Y-73003684D01*
X62099783Y-73286012D01*
X60706000Y-73286012D01*
X60706000Y-72222798D01*
X62726903Y-72222798D01*
X63540000Y-73035895D01*
X64353097Y-72222798D01*
X64281514Y-71978829D01*
X64026004Y-71857929D01*
X63751816Y-71789200D01*
X63469488Y-71775283D01*
X63189870Y-71816713D01*
X62923708Y-71911897D01*
X62798486Y-71978829D01*
X62726903Y-72222798D01*
X60706000Y-72222798D01*
X60706000Y-69572702D01*
X62726903Y-69572702D01*
X62798486Y-69816671D01*
X63053996Y-69937571D01*
X63328184Y-70006300D01*
X63610512Y-70020217D01*
X63890130Y-69978787D01*
X64156292Y-69883603D01*
X64281514Y-69816671D01*
X64353097Y-69572702D01*
X63540000Y-68759605D01*
X62726903Y-69572702D01*
X60706000Y-69572702D01*
X60706000Y-68650512D01*
X62099783Y-68650512D01*
X62141213Y-68930130D01*
X62236397Y-69196292D01*
X62303329Y-69321514D01*
X62547298Y-69393097D01*
X63360395Y-68580000D01*
X63719605Y-68580000D01*
X64532702Y-69393097D01*
X64601928Y-69372785D01*
X64601928Y-69380000D01*
X64614188Y-69504482D01*
X64650498Y-69624180D01*
X64709463Y-69734494D01*
X64788815Y-69831185D01*
X64885506Y-69910537D01*
X64905000Y-69920957D01*
X64905001Y-72331215D01*
X64791308Y-72501369D01*
X64776671Y-72473986D01*
X64532702Y-72402403D01*
X63719605Y-73215500D01*
X64532702Y-74028597D01*
X64776671Y-73957014D01*
X64790324Y-73928159D01*
X64905001Y-74099785D01*
X64905000Y-75640878D01*
X64795820Y-75673998D01*
X64685506Y-75732963D01*
X64588815Y-75812315D01*
X64509463Y-75909006D01*
X64450498Y-76019320D01*
X64414188Y-76139018D01*
X64401928Y-76263500D01*
X64401928Y-78168500D01*
X64414188Y-78292982D01*
X64450498Y-78412680D01*
X64509463Y-78522994D01*
X64588815Y-78619685D01*
X64685506Y-78699037D01*
X64777219Y-78748059D01*
X64664031Y-78889077D01*
X64520429Y-79164906D01*
X64449437Y-79383020D01*
X64569406Y-79629000D01*
X65913000Y-79629000D01*
X65913000Y-79609000D01*
X66167000Y-79609000D01*
X66167000Y-79629000D01*
X67510594Y-79629000D01*
X67630563Y-79383020D01*
X67559571Y-79164906D01*
X67415969Y-78889077D01*
X67302781Y-78748059D01*
X67394494Y-78699037D01*
X67491185Y-78619685D01*
X67570537Y-78522994D01*
X67629502Y-78412680D01*
X67665812Y-78292982D01*
X67678072Y-78168500D01*
X67678072Y-76263500D01*
X67665812Y-76139018D01*
X67629502Y-76019320D01*
X67570537Y-75909006D01*
X67491185Y-75812315D01*
X67394494Y-75732963D01*
X67284180Y-75673998D01*
X67175000Y-75640879D01*
X67175000Y-74099784D01*
X67311680Y-73895227D01*
X67419853Y-73634074D01*
X67475000Y-73356835D01*
X67475000Y-73074165D01*
X67419853Y-72796926D01*
X67311680Y-72535773D01*
X67175000Y-72331216D01*
X67175000Y-69920957D01*
X67194494Y-69910537D01*
X67291185Y-69831185D01*
X67370537Y-69734494D01*
X67429502Y-69624180D01*
X67465812Y-69504482D01*
X67478072Y-69380000D01*
X67478072Y-67780000D01*
X67465812Y-67655518D01*
X67429502Y-67535820D01*
X67370537Y-67425506D01*
X67291185Y-67328815D01*
X67194494Y-67249463D01*
X67175000Y-67239043D01*
X67175000Y-63687072D01*
X67240000Y-63687072D01*
X67364482Y-63674812D01*
X67484180Y-63638502D01*
X67594494Y-63579537D01*
X67691185Y-63500185D01*
X67770537Y-63403494D01*
X67829502Y-63293180D01*
X67865812Y-63173482D01*
X67878072Y-63049000D01*
X67878072Y-60649000D01*
X67865812Y-60524518D01*
X67829502Y-60404820D01*
X67770537Y-60294506D01*
X67691185Y-60197815D01*
X67594494Y-60118463D01*
X67484180Y-60059498D01*
X67364482Y-60023188D01*
X67240000Y-60010928D01*
X64840000Y-60010928D01*
X64715518Y-60023188D01*
X64595820Y-60059498D01*
X64485506Y-60118463D01*
X64388815Y-60197815D01*
X64309463Y-60294506D01*
X64250498Y-60404820D01*
X64214188Y-60524518D01*
X64201928Y-60649000D01*
X64201928Y-63049000D01*
X64214188Y-63173482D01*
X64250498Y-63293180D01*
X64309463Y-63403494D01*
X64388815Y-63500185D01*
X64485506Y-63579537D01*
X64595820Y-63638502D01*
X64715518Y-63674812D01*
X64840000Y-63687072D01*
X64905001Y-63687072D01*
X64905000Y-67239043D01*
X64885506Y-67249463D01*
X64788815Y-67328815D01*
X64709463Y-67425506D01*
X64650498Y-67535820D01*
X64614188Y-67655518D01*
X64601928Y-67780000D01*
X64601928Y-67787215D01*
X64532702Y-67766903D01*
X63719605Y-68580000D01*
X63360395Y-68580000D01*
X62547298Y-67766903D01*
X62303329Y-67838486D01*
X62182429Y-68093996D01*
X62113700Y-68368184D01*
X62099783Y-68650512D01*
X60706000Y-68650512D01*
X60706000Y-67587298D01*
X62726903Y-67587298D01*
X63540000Y-68400395D01*
X64353097Y-67587298D01*
X64281514Y-67343329D01*
X64026004Y-67222429D01*
X63751816Y-67153700D01*
X63469488Y-67139783D01*
X63189870Y-67181213D01*
X62923708Y-67276397D01*
X62798486Y-67343329D01*
X62726903Y-67587298D01*
X60706000Y-67587298D01*
X60706000Y-56350000D01*
X63152419Y-56350000D01*
X63186138Y-56346679D01*
X63208839Y-56346679D01*
X63218003Y-56345716D01*
X63557414Y-56307645D01*
X63615917Y-56295209D01*
X63674605Y-56283589D01*
X63683408Y-56280864D01*
X64008961Y-56177593D01*
X64063908Y-56154042D01*
X64119249Y-56131233D01*
X64127355Y-56126850D01*
X64426649Y-55962312D01*
X64476005Y-55928517D01*
X64525832Y-55895412D01*
X64532932Y-55889538D01*
X64794567Y-55670000D01*
X64836411Y-55627270D01*
X64878865Y-55585112D01*
X64884689Y-55577970D01*
X65098700Y-55311796D01*
X65131450Y-55261749D01*
X65164906Y-55212148D01*
X65169232Y-55204011D01*
X65327466Y-54901337D01*
X65349862Y-54845905D01*
X65373056Y-54790729D01*
X65375719Y-54781907D01*
X65472150Y-54454262D01*
X65483349Y-54395554D01*
X65495388Y-54336905D01*
X65496287Y-54327733D01*
X65527241Y-53987599D01*
X65526823Y-53927783D01*
X65527241Y-53867967D01*
X65526342Y-53858796D01*
X65490642Y-53519126D01*
X65478610Y-53460514D01*
X65467405Y-53401769D01*
X65464741Y-53392947D01*
X65363745Y-53066681D01*
X65340565Y-53011538D01*
X65318156Y-52956073D01*
X65313829Y-52947936D01*
X65151384Y-52647500D01*
X65117939Y-52597916D01*
X65085179Y-52547853D01*
X65079354Y-52540712D01*
X64861648Y-52277551D01*
X64819212Y-52235410D01*
X64777349Y-52192661D01*
X64770248Y-52186787D01*
X64505574Y-51970924D01*
X64455716Y-51937799D01*
X64406393Y-51904026D01*
X64398287Y-51899643D01*
X64096725Y-51739299D01*
X64041433Y-51716510D01*
X63986437Y-51692938D01*
X63977634Y-51690213D01*
X63650671Y-51591497D01*
X63592000Y-51579880D01*
X63533479Y-51567441D01*
X63524314Y-51566478D01*
X63184404Y-51533150D01*
X63184402Y-51533150D01*
X63152419Y-51530000D01*
X60706000Y-51530000D01*
X60706000Y-50300000D01*
X125810000Y-50300000D01*
X125810001Y-51530000D01*
G04 #@! TA.AperFunction,Conductor*
D33*
G36*
X125810001Y-51530000D02*
G01*
X123187581Y-51530000D01*
X123153862Y-51533321D01*
X123131161Y-51533321D01*
X123121996Y-51534284D01*
X122782586Y-51572355D01*
X122724089Y-51584789D01*
X122665395Y-51596411D01*
X122656592Y-51599136D01*
X122331039Y-51702407D01*
X122276092Y-51725958D01*
X122220751Y-51748767D01*
X122212645Y-51753150D01*
X121913351Y-51917688D01*
X121863979Y-51951494D01*
X121814168Y-51984588D01*
X121807068Y-51990462D01*
X121545433Y-52210000D01*
X121503589Y-52252730D01*
X121461135Y-52294888D01*
X121455310Y-52302030D01*
X121241300Y-52568205D01*
X121208547Y-52618257D01*
X121175094Y-52667852D01*
X121170771Y-52675984D01*
X121170768Y-52675988D01*
X121170768Y-52675989D01*
X121012534Y-52978663D01*
X120990138Y-53034095D01*
X120966944Y-53089271D01*
X120964281Y-53098093D01*
X120867850Y-53425738D01*
X120856652Y-53484439D01*
X120844612Y-53543095D01*
X120843713Y-53552266D01*
X120812759Y-53892401D01*
X120813177Y-53952217D01*
X120812759Y-54012033D01*
X120813658Y-54021205D01*
X120849358Y-54360874D01*
X120861390Y-54419486D01*
X120872595Y-54478231D01*
X120875259Y-54487053D01*
X120976255Y-54813319D01*
X120999435Y-54868462D01*
X121021844Y-54923927D01*
X121026171Y-54932064D01*
X121188616Y-55232500D01*
X121222061Y-55282084D01*
X121254821Y-55332147D01*
X121260646Y-55339288D01*
X121478351Y-55602449D01*
X121520823Y-55644626D01*
X121562651Y-55687339D01*
X121569751Y-55693213D01*
X121834426Y-55909076D01*
X121884250Y-55942179D01*
X121933606Y-55975974D01*
X121941713Y-55980357D01*
X122243274Y-56140701D01*
X122298580Y-56163496D01*
X122353563Y-56187062D01*
X122362366Y-56189787D01*
X122689329Y-56288503D01*
X122748000Y-56300120D01*
X122806521Y-56312559D01*
X122815686Y-56313522D01*
X123155596Y-56346850D01*
X123155598Y-56346850D01*
X123187581Y-56350000D01*
X125810001Y-56350000D01*
X125810000Y-103187500D01*
X71629546Y-103187500D01*
X71884814Y-103095044D01*
X72025704Y-102805429D01*
X72107384Y-102493892D01*
X72126718Y-102172405D01*
X72082961Y-101853325D01*
X71977795Y-101548912D01*
X71884814Y-101374956D01*
X71620413Y-101279192D01*
X70664605Y-102235000D01*
X70678748Y-102249143D01*
X70499143Y-102428748D01*
X70485000Y-102414605D01*
X70470858Y-102428748D01*
X70291253Y-102249143D01*
X70305395Y-102235000D01*
X69349587Y-101279192D01*
X69085186Y-101374956D01*
X68944296Y-101664571D01*
X68862616Y-101976108D01*
X68843282Y-102297595D01*
X68887039Y-102616675D01*
X68992205Y-102921088D01*
X69085186Y-103095044D01*
X69340454Y-103187500D01*
X60706000Y-103187500D01*
X60706000Y-93067702D01*
X62726903Y-93067702D01*
X62798486Y-93311671D01*
X63053996Y-93432571D01*
X63328184Y-93501300D01*
X63610512Y-93515217D01*
X63890130Y-93473787D01*
X64156292Y-93378603D01*
X64281514Y-93311671D01*
X64353097Y-93067702D01*
X63540000Y-92254605D01*
X62726903Y-93067702D01*
X60706000Y-93067702D01*
X60706000Y-92145512D01*
X62099783Y-92145512D01*
X62141213Y-92425130D01*
X62236397Y-92691292D01*
X62303329Y-92816514D01*
X62547298Y-92888097D01*
X63360395Y-92075000D01*
X62547298Y-91261903D01*
X62303329Y-91333486D01*
X62182429Y-91588996D01*
X62113700Y-91863184D01*
X62099783Y-92145512D01*
X60706000Y-92145512D01*
X60706000Y-91082298D01*
X62726903Y-91082298D01*
X63540000Y-91895395D01*
X64353097Y-91082298D01*
X64281514Y-90838329D01*
X64026004Y-90717429D01*
X63751816Y-90648700D01*
X63469488Y-90634783D01*
X63189870Y-90676213D01*
X62923708Y-90771397D01*
X62798486Y-90838329D01*
X62726903Y-91082298D01*
X60706000Y-91082298D01*
X60706000Y-87987702D01*
X62726903Y-87987702D01*
X62798486Y-88231671D01*
X63053996Y-88352571D01*
X63328184Y-88421300D01*
X63610512Y-88435217D01*
X63890130Y-88393787D01*
X64156292Y-88298603D01*
X64281514Y-88231671D01*
X64353097Y-87987702D01*
X63540000Y-87174605D01*
X62726903Y-87987702D01*
X60706000Y-87987702D01*
X60706000Y-87065512D01*
X62099783Y-87065512D01*
X62141213Y-87345130D01*
X62236397Y-87611292D01*
X62303329Y-87736514D01*
X62547298Y-87808097D01*
X63360395Y-86995000D01*
X63719605Y-86995000D01*
X64532702Y-87808097D01*
X64776671Y-87736514D01*
X64790324Y-87707659D01*
X64905000Y-87879284D01*
X64905001Y-90734043D01*
X64885506Y-90744463D01*
X64788815Y-90823815D01*
X64709463Y-90920506D01*
X64650498Y-91030820D01*
X64614188Y-91150518D01*
X64601928Y-91275000D01*
X64601928Y-91282215D01*
X64532702Y-91261903D01*
X63719605Y-92075000D01*
X64532702Y-92888097D01*
X64601928Y-92867785D01*
X64601928Y-92875000D01*
X64614188Y-92999482D01*
X64650498Y-93119180D01*
X64709463Y-93229494D01*
X64788815Y-93326185D01*
X64885506Y-93405537D01*
X64905001Y-93415957D01*
X64905001Y-97734239D01*
X64899509Y-97790000D01*
X64921423Y-98012498D01*
X64986324Y-98226446D01*
X64996820Y-98246082D01*
X65091717Y-98423623D01*
X65233552Y-98596449D01*
X65276860Y-98631991D01*
X67103009Y-100458141D01*
X67138551Y-100501449D01*
X67311377Y-100643284D01*
X67508553Y-100748676D01*
X67722501Y-100813577D01*
X67945000Y-100835491D01*
X68000752Y-100830000D01*
X69307761Y-100830000D01*
X69442748Y-100964987D01*
X69551600Y-101037720D01*
X69529192Y-101099587D01*
X70485000Y-102055395D01*
X71440808Y-101099587D01*
X71418400Y-101037720D01*
X71527252Y-100964987D01*
X71662239Y-100830000D01*
X92366869Y-100830000D01*
X92679150Y-101142282D01*
X92727147Y-101383574D01*
X92835320Y-101644727D01*
X92992363Y-101879759D01*
X93192241Y-102079637D01*
X93427273Y-102236680D01*
X93688426Y-102344853D01*
X93965665Y-102400000D01*
X94248335Y-102400000D01*
X94525574Y-102344853D01*
X94786727Y-102236680D01*
X94991284Y-102100000D01*
X107477736Y-102100000D01*
X107513068Y-102166101D01*
X107692393Y-102384608D01*
X107910900Y-102563932D01*
X108160193Y-102697182D01*
X108430692Y-102779236D01*
X108712000Y-102806943D01*
X108993309Y-102779236D01*
X109263808Y-102697182D01*
X109513101Y-102563932D01*
X109731608Y-102384608D01*
X109910932Y-102166101D01*
X109982000Y-102033142D01*
X110053068Y-102166101D01*
X110232393Y-102384608D01*
X110450900Y-102563932D01*
X110700193Y-102697182D01*
X110970692Y-102779236D01*
X111252000Y-102806943D01*
X111533309Y-102779236D01*
X111803808Y-102697182D01*
X112053101Y-102563932D01*
X112271608Y-102384608D01*
X112450932Y-102166101D01*
X112522000Y-102033142D01*
X112593068Y-102166101D01*
X112772393Y-102384608D01*
X112990900Y-102563932D01*
X113240193Y-102697182D01*
X113510692Y-102779236D01*
X113792000Y-102806943D01*
X114073309Y-102779236D01*
X114343808Y-102697182D01*
X114593101Y-102563932D01*
X114811608Y-102384608D01*
X114990932Y-102166101D01*
X115059265Y-102038259D01*
X115209399Y-102267839D01*
X115407105Y-102469500D01*
X115640354Y-102628715D01*
X115900182Y-102739367D01*
X115982961Y-102756904D01*
X116205000Y-102634915D01*
X116205000Y-101092000D01*
X116459000Y-101092000D01*
X116459000Y-102634915D01*
X116681039Y-102756904D01*
X116763818Y-102739367D01*
X117023646Y-102628715D01*
X117256895Y-102469500D01*
X117454601Y-102267839D01*
X117609166Y-102031483D01*
X117714650Y-101769514D01*
X117767000Y-101492000D01*
X117767000Y-101092000D01*
X116459000Y-101092000D01*
X116205000Y-101092000D01*
X116185000Y-101092000D01*
X116185000Y-100838000D01*
X116205000Y-100838000D01*
X116205000Y-99295085D01*
X116459000Y-99295085D01*
X116459000Y-100838000D01*
X117767000Y-100838000D01*
X117767000Y-100438000D01*
X117714650Y-100160486D01*
X117609166Y-99898517D01*
X117454601Y-99662161D01*
X117284915Y-99489080D01*
X120400525Y-99489080D01*
X120484208Y-99743261D01*
X120756775Y-99874158D01*
X121049642Y-99949365D01*
X121351553Y-99965991D01*
X121650907Y-99923397D01*
X121936199Y-99823222D01*
X122085792Y-99743261D01*
X122169475Y-99489080D01*
X121285000Y-98604605D01*
X120400525Y-99489080D01*
X117284915Y-99489080D01*
X117256895Y-99460500D01*
X117023646Y-99301285D01*
X116763818Y-99190633D01*
X116681039Y-99173096D01*
X116459000Y-99295085D01*
X116205000Y-99295085D01*
X115982961Y-99173096D01*
X115900182Y-99190633D01*
X115640354Y-99301285D01*
X115407105Y-99460500D01*
X115209399Y-99662161D01*
X115059265Y-99891741D01*
X114990932Y-99763899D01*
X114811607Y-99545392D01*
X114687000Y-99443130D01*
X114687000Y-99171840D01*
X114706759Y-99158637D01*
X114906637Y-98958759D01*
X115063680Y-98723727D01*
X115171853Y-98462574D01*
X115227000Y-98185335D01*
X115227000Y-97902665D01*
X115171853Y-97625426D01*
X115063680Y-97364273D01*
X114906637Y-97129241D01*
X114706759Y-96929363D01*
X114687000Y-96916160D01*
X114687000Y-91420456D01*
X114691329Y-91376500D01*
X114687000Y-91332543D01*
X114687000Y-91332536D01*
X114674050Y-91201049D01*
X114622873Y-91032341D01*
X114539766Y-90876859D01*
X114505638Y-90835274D01*
X114455947Y-90774726D01*
X114455946Y-90774725D01*
X114427922Y-90740578D01*
X114393775Y-90712554D01*
X110453760Y-86772539D01*
X111257096Y-86772539D01*
X111297754Y-86906587D01*
X111417963Y-87160920D01*
X111585481Y-87386914D01*
X111793869Y-87575885D01*
X112035119Y-87720570D01*
X112299960Y-87815409D01*
X112522000Y-87694124D01*
X112522000Y-86550500D01*
X112776000Y-86550500D01*
X112776000Y-87694124D01*
X112998040Y-87815409D01*
X113262881Y-87720570D01*
X113504131Y-87575885D01*
X113712519Y-87386914D01*
X113880037Y-87160920D01*
X114000246Y-86906587D01*
X114040904Y-86772539D01*
X113918915Y-86550500D01*
X112776000Y-86550500D01*
X112522000Y-86550500D01*
X111379085Y-86550500D01*
X111257096Y-86772539D01*
X110453760Y-86772539D01*
X108372721Y-84691500D01*
X109131928Y-84691500D01*
X109144188Y-84815982D01*
X109180498Y-84935680D01*
X109239463Y-85045994D01*
X109318815Y-85142685D01*
X109415506Y-85222037D01*
X109525820Y-85281002D01*
X109645518Y-85317312D01*
X109770000Y-85329572D01*
X110459250Y-85326500D01*
X110618000Y-85167750D01*
X110618000Y-84518500D01*
X109293750Y-84518500D01*
X109135000Y-84677250D01*
X109131928Y-84691500D01*
X108372721Y-84691500D01*
X107575000Y-83893780D01*
X107575000Y-75418453D01*
X107579329Y-75374499D01*
X107575000Y-75330545D01*
X107575000Y-75330536D01*
X107562050Y-75199049D01*
X107510873Y-75030341D01*
X107427766Y-74874859D01*
X107315922Y-74738578D01*
X107281775Y-74710554D01*
X104930950Y-72359730D01*
X104902922Y-72325578D01*
X104766641Y-72213734D01*
X104611159Y-72130627D01*
X104442451Y-72079450D01*
X104310964Y-72066500D01*
X104310954Y-72066500D01*
X104267000Y-72062171D01*
X104223046Y-72066500D01*
X102546056Y-72066500D01*
X102444482Y-72035688D01*
X102320000Y-72023428D01*
X100370000Y-72023428D01*
X100245518Y-72035688D01*
X100125820Y-72071998D01*
X100015506Y-72130963D01*
X99918815Y-72210315D01*
X99839463Y-72307006D01*
X99780498Y-72417320D01*
X99744188Y-72537018D01*
X99731928Y-72661500D01*
X99731928Y-73261500D01*
X99739315Y-73336500D01*
X95430222Y-73336500D01*
X91341950Y-69248230D01*
X91313922Y-69214078D01*
X91177641Y-69102234D01*
X91022159Y-69019127D01*
X90853451Y-68967950D01*
X90721964Y-68955000D01*
X90721954Y-68955000D01*
X90678000Y-68950671D01*
X90634046Y-68955000D01*
X87487840Y-68955000D01*
X87474637Y-68935241D01*
X87274759Y-68735363D01*
X87039727Y-68578320D01*
X86778574Y-68470147D01*
X86501335Y-68415000D01*
X86218665Y-68415000D01*
X85941426Y-68470147D01*
X85680273Y-68578320D01*
X85445241Y-68735363D01*
X85245363Y-68935241D01*
X85088320Y-69170273D01*
X84980147Y-69431426D01*
X84925000Y-69708665D01*
X84925000Y-69991335D01*
X84980147Y-70268574D01*
X85088320Y-70529727D01*
X85245363Y-70764759D01*
X85445241Y-70964637D01*
X85680273Y-71121680D01*
X85941426Y-71229853D01*
X86218665Y-71285000D01*
X86501335Y-71285000D01*
X86778574Y-71229853D01*
X87039727Y-71121680D01*
X87274759Y-70964637D01*
X87474637Y-70764759D01*
X87487840Y-70745000D01*
X90307280Y-70745000D01*
X93663601Y-74101323D01*
X93561426Y-74121647D01*
X93300273Y-74229820D01*
X93065241Y-74386863D01*
X92865363Y-74586741D01*
X92708320Y-74821773D01*
X92600147Y-75082926D01*
X92545000Y-75360165D01*
X92545000Y-75642835D01*
X92600147Y-75920074D01*
X92708320Y-76181227D01*
X92865363Y-76416259D01*
X93065241Y-76616137D01*
X93300273Y-76773180D01*
X93561426Y-76881353D01*
X93838665Y-76936500D01*
X94121335Y-76936500D01*
X94398574Y-76881353D01*
X94659727Y-76773180D01*
X94894759Y-76616137D01*
X95094637Y-76416259D01*
X95107840Y-76396500D01*
X96950284Y-76396500D01*
X96899320Y-76472773D01*
X96791147Y-76733926D01*
X96736000Y-77011165D01*
X96736000Y-77293835D01*
X96791147Y-77571074D01*
X96899320Y-77832227D01*
X97056363Y-78067259D01*
X97256241Y-78267137D01*
X97276000Y-78280340D01*
X97276000Y-78442045D01*
X97271671Y-78486000D01*
X97276000Y-78529954D01*
X97276000Y-78529963D01*
X97288950Y-78661450D01*
X97340127Y-78830158D01*
X97423234Y-78985640D01*
X97535078Y-79121922D01*
X97569230Y-79149950D01*
X98332552Y-79913273D01*
X98360578Y-79947422D01*
X98496859Y-80059266D01*
X98652341Y-80142373D01*
X98821049Y-80193550D01*
X98952536Y-80206500D01*
X98952545Y-80206500D01*
X98996499Y-80210829D01*
X99040453Y-80206500D01*
X99739315Y-80206500D01*
X99731928Y-80281500D01*
X99731928Y-80881500D01*
X99739315Y-80956500D01*
X96885185Y-80956500D01*
X96704386Y-80775701D01*
X96477543Y-80624129D01*
X96225489Y-80519725D01*
X95957911Y-80466500D01*
X95685089Y-80466500D01*
X95417511Y-80519725D01*
X95165457Y-80624129D01*
X94938614Y-80775701D01*
X94757815Y-80956500D01*
X93012340Y-80956500D01*
X92999137Y-80936741D01*
X92799259Y-80736863D01*
X92598631Y-80602808D01*
X92626014Y-80588171D01*
X92697597Y-80344202D01*
X91884500Y-79531105D01*
X91071403Y-80344202D01*
X91142986Y-80588171D01*
X91171841Y-80601824D01*
X90969741Y-80736863D01*
X90769863Y-80936741D01*
X90612820Y-81171773D01*
X90504647Y-81432926D01*
X90449500Y-81710165D01*
X90449500Y-81992835D01*
X90504647Y-82270074D01*
X90612820Y-82531227D01*
X90769863Y-82766259D01*
X90969741Y-82966137D01*
X91204773Y-83123180D01*
X91465926Y-83231353D01*
X91743165Y-83286500D01*
X92025835Y-83286500D01*
X92303074Y-83231353D01*
X92564227Y-83123180D01*
X92799259Y-82966137D01*
X92999137Y-82766259D01*
X93012340Y-82746500D01*
X94757815Y-82746500D01*
X94938614Y-82927299D01*
X95165457Y-83078871D01*
X95417511Y-83183275D01*
X95547623Y-83209156D01*
X95219725Y-83537055D01*
X95185579Y-83565078D01*
X95157555Y-83599225D01*
X95157553Y-83599227D01*
X95073734Y-83701360D01*
X94990627Y-83856842D01*
X94961649Y-83952372D01*
X94939451Y-84025549D01*
X94931552Y-84105750D01*
X94922171Y-84201000D01*
X94926501Y-84244964D01*
X94926500Y-85667815D01*
X94757815Y-85836500D01*
X93005992Y-85836500D01*
X92999137Y-85826241D01*
X92799259Y-85626363D01*
X92564227Y-85469320D01*
X92303074Y-85361147D01*
X92025835Y-85306000D01*
X91743165Y-85306000D01*
X91465926Y-85361147D01*
X91204773Y-85469320D01*
X90969741Y-85626363D01*
X90769863Y-85826241D01*
X90612820Y-86061273D01*
X90504647Y-86322426D01*
X90449500Y-86599665D01*
X90449500Y-86882335D01*
X90504647Y-87159574D01*
X90612820Y-87420727D01*
X90769863Y-87655759D01*
X90969741Y-87855637D01*
X91170369Y-87989692D01*
X91142986Y-88004329D01*
X91071403Y-88248298D01*
X91884500Y-89061395D01*
X92697597Y-88248298D01*
X92626014Y-88004329D01*
X92597159Y-87990676D01*
X92799259Y-87855637D01*
X92999137Y-87655759D01*
X93018687Y-87626500D01*
X94757815Y-87626500D01*
X94938614Y-87807299D01*
X95165457Y-87958871D01*
X95417511Y-88063275D01*
X95685089Y-88116500D01*
X95957911Y-88116500D01*
X96225489Y-88063275D01*
X96477543Y-87958871D01*
X96704386Y-87807299D01*
X96897299Y-87614386D01*
X97048871Y-87387543D01*
X97153275Y-87135489D01*
X97206500Y-86867911D01*
X97206500Y-86595089D01*
X97153275Y-86327511D01*
X97048871Y-86075457D01*
X96897299Y-85848614D01*
X96716500Y-85667815D01*
X96716500Y-84571721D01*
X97271721Y-84016500D01*
X99739315Y-84016500D01*
X99731928Y-84091500D01*
X99731928Y-84399440D01*
X98931860Y-85199509D01*
X98888552Y-85235051D01*
X98746717Y-85407877D01*
X98676086Y-85540018D01*
X98580363Y-85635741D01*
X98423320Y-85870773D01*
X98315147Y-86131926D01*
X98260000Y-86409165D01*
X98260000Y-86507367D01*
X93584798Y-91182571D01*
X93427273Y-91247820D01*
X93192241Y-91404863D01*
X92992363Y-91604741D01*
X92835320Y-91839773D01*
X92727147Y-92100926D01*
X92672000Y-92378165D01*
X92672000Y-92660835D01*
X92727147Y-92938074D01*
X92835320Y-93199227D01*
X92992363Y-93434259D01*
X93192241Y-93634137D01*
X93427273Y-93791180D01*
X93688426Y-93899353D01*
X93965665Y-93954500D01*
X94248335Y-93954500D01*
X94525574Y-93899353D01*
X94786727Y-93791180D01*
X95021759Y-93634137D01*
X95221637Y-93434259D01*
X95378680Y-93199227D01*
X95486853Y-92938074D01*
X95542000Y-92660835D01*
X95542000Y-92435631D01*
X97934429Y-90043202D01*
X98881903Y-90043202D01*
X98953486Y-90287171D01*
X99208996Y-90408071D01*
X99483184Y-90476800D01*
X99765512Y-90490717D01*
X100045130Y-90449287D01*
X100311292Y-90354103D01*
X100436514Y-90287171D01*
X100508097Y-90043202D01*
X99695000Y-89230105D01*
X98881903Y-90043202D01*
X97934429Y-90043202D01*
X98370177Y-89607455D01*
X98391397Y-89666792D01*
X98458329Y-89792014D01*
X98702298Y-89863597D01*
X99515395Y-89050500D01*
X99874605Y-89050500D01*
X100687702Y-89863597D01*
X100931671Y-89792014D01*
X101052571Y-89536504D01*
X101121300Y-89262316D01*
X101135217Y-88979988D01*
X101093787Y-88700370D01*
X100998603Y-88434208D01*
X100931671Y-88308986D01*
X100687702Y-88237403D01*
X99874605Y-89050500D01*
X99515395Y-89050500D01*
X99501253Y-89036358D01*
X99680858Y-88856753D01*
X99695000Y-88870895D01*
X100508097Y-88057798D01*
X100436514Y-87813829D01*
X100407659Y-87800176D01*
X100609759Y-87665137D01*
X100809637Y-87465259D01*
X100966680Y-87230227D01*
X100975698Y-87208455D01*
X101107981Y-87386914D01*
X101316369Y-87575885D01*
X101557619Y-87720570D01*
X101822460Y-87815409D01*
X102044500Y-87694124D01*
X102044500Y-86550500D01*
X102024500Y-86550500D01*
X102024500Y-86296500D01*
X102044500Y-86296500D01*
X102044500Y-86276500D01*
X102298500Y-86276500D01*
X102298500Y-86296500D01*
X102318500Y-86296500D01*
X102318500Y-86550500D01*
X102298500Y-86550500D01*
X102298500Y-87694124D01*
X102520540Y-87815409D01*
X102737000Y-87737895D01*
X102737000Y-88283526D01*
X102685368Y-88318025D01*
X102478525Y-88524868D01*
X102316010Y-88768089D01*
X102204068Y-89038342D01*
X102147000Y-89325240D01*
X102147000Y-89617760D01*
X102159115Y-89678665D01*
X100426730Y-91411050D01*
X100392578Y-91439078D01*
X100280734Y-91575360D01*
X100197627Y-91730842D01*
X100146450Y-91899550D01*
X100133500Y-92031037D01*
X100133500Y-92031046D01*
X100129171Y-92075000D01*
X100133500Y-92118954D01*
X100133501Y-93609278D01*
X98879780Y-94863000D01*
X97139840Y-94863000D01*
X97126637Y-94843241D01*
X96926759Y-94643363D01*
X96691727Y-94486320D01*
X96430574Y-94378147D01*
X96153335Y-94323000D01*
X95870665Y-94323000D01*
X95593426Y-94378147D01*
X95332273Y-94486320D01*
X95097241Y-94643363D01*
X94897363Y-94843241D01*
X94740320Y-95078273D01*
X94632147Y-95339426D01*
X94577000Y-95616665D01*
X94577000Y-95899335D01*
X94632147Y-96176574D01*
X94740320Y-96437727D01*
X94897363Y-96672759D01*
X95097241Y-96872637D01*
X95332273Y-97029680D01*
X95593426Y-97137853D01*
X95870665Y-97193000D01*
X96153335Y-97193000D01*
X96430574Y-97137853D01*
X96691727Y-97029680D01*
X96926759Y-96872637D01*
X97126637Y-96672759D01*
X97139840Y-96653000D01*
X99206546Y-96653000D01*
X99250500Y-96657329D01*
X99294454Y-96653000D01*
X99294464Y-96653000D01*
X99425951Y-96640050D01*
X99594659Y-96588873D01*
X99750141Y-96505766D01*
X99886422Y-96393922D01*
X99914450Y-96359770D01*
X101630280Y-94643942D01*
X101664422Y-94615922D01*
X101692441Y-94581781D01*
X101692448Y-94581774D01*
X101776266Y-94479641D01*
X101859373Y-94324159D01*
X101910550Y-94155451D01*
X101910559Y-94155359D01*
X101923500Y-94023964D01*
X101923500Y-94023957D01*
X101927829Y-93980000D01*
X101923500Y-93936043D01*
X101923500Y-92445720D01*
X102230718Y-92138502D01*
X102311185Y-92138502D01*
X102190519Y-92368391D01*
X102287843Y-92642752D01*
X102436822Y-92892855D01*
X102631731Y-93109088D01*
X102865080Y-93283141D01*
X103127901Y-93408325D01*
X103275110Y-93452976D01*
X103505000Y-93331655D01*
X103505000Y-92138500D01*
X103485000Y-92138500D01*
X103485000Y-91884500D01*
X103505000Y-91884500D01*
X103505000Y-91864500D01*
X103759000Y-91864500D01*
X103759000Y-91884500D01*
X103779000Y-91884500D01*
X103779000Y-92138500D01*
X103759000Y-92138500D01*
X103759000Y-93331655D01*
X103988890Y-93452976D01*
X104136099Y-93408325D01*
X104398920Y-93283141D01*
X104632269Y-93109088D01*
X104827178Y-92892855D01*
X104896805Y-92775966D01*
X105018525Y-92958132D01*
X105225368Y-93164975D01*
X105277000Y-93199475D01*
X105277001Y-93855000D01*
X105277000Y-96916160D01*
X105257241Y-96929363D01*
X105057363Y-97129241D01*
X104900320Y-97364273D01*
X104792147Y-97625426D01*
X104737000Y-97902665D01*
X104737000Y-98185335D01*
X104792147Y-98462574D01*
X104900320Y-98723727D01*
X105057363Y-98958759D01*
X105257241Y-99158637D01*
X105492273Y-99315680D01*
X105753426Y-99423853D01*
X106030665Y-99479000D01*
X106313335Y-99479000D01*
X106590574Y-99423853D01*
X106851727Y-99315680D01*
X107086759Y-99158637D01*
X107286637Y-98958759D01*
X107443680Y-98723727D01*
X107551853Y-98462574D01*
X107577001Y-98336151D01*
X107577000Y-99685998D01*
X107513068Y-99763900D01*
X107477737Y-99830000D01*
X94991284Y-99830000D01*
X94786727Y-99693320D01*
X94525574Y-99585147D01*
X94284282Y-99537150D01*
X93678996Y-98931865D01*
X93643449Y-98888551D01*
X93470623Y-98746716D01*
X93273447Y-98641324D01*
X93059499Y-98576423D01*
X92892752Y-98560000D01*
X92892751Y-98560000D01*
X92837000Y-98554509D01*
X92781249Y-98560000D01*
X85398197Y-98560000D01*
X85440130Y-98553787D01*
X85706292Y-98458603D01*
X85831514Y-98391671D01*
X85903097Y-98147702D01*
X85090000Y-97334605D01*
X84276903Y-98147702D01*
X84348486Y-98391671D01*
X84603996Y-98512571D01*
X84793210Y-98560000D01*
X71662239Y-98560000D01*
X71527252Y-98425013D01*
X71259463Y-98246082D01*
X70961912Y-98122832D01*
X70646033Y-98060000D01*
X70323967Y-98060000D01*
X70008088Y-98122832D01*
X69710537Y-98246082D01*
X69442748Y-98425013D01*
X69307761Y-98560000D01*
X68415132Y-98560000D01*
X67175000Y-97319869D01*
X67175000Y-97225512D01*
X83649783Y-97225512D01*
X83691213Y-97505130D01*
X83786397Y-97771292D01*
X83853329Y-97896514D01*
X84097298Y-97968097D01*
X84910395Y-97155000D01*
X85269605Y-97155000D01*
X86082702Y-97968097D01*
X86326671Y-97896514D01*
X86447571Y-97641004D01*
X86516300Y-97366816D01*
X86530217Y-97084488D01*
X86488787Y-96804870D01*
X86393603Y-96538708D01*
X86326671Y-96413486D01*
X86082702Y-96341903D01*
X85269605Y-97155000D01*
X84910395Y-97155000D01*
X84097298Y-96341903D01*
X83853329Y-96413486D01*
X83732429Y-96668996D01*
X83663700Y-96943184D01*
X83649783Y-97225512D01*
X67175000Y-97225512D01*
X67175000Y-93415957D01*
X67194494Y-93405537D01*
X67291185Y-93326185D01*
X67370537Y-93229494D01*
X67380957Y-93210000D01*
X67889249Y-93210000D01*
X67945000Y-93215491D01*
X68000751Y-93210000D01*
X68000752Y-93210000D01*
X68167499Y-93193577D01*
X68381447Y-93128676D01*
X68578623Y-93023284D01*
X68751449Y-92881449D01*
X68786995Y-92838136D01*
X68940016Y-92685115D01*
X68979773Y-92711680D01*
X69240926Y-92819853D01*
X69518165Y-92875000D01*
X69800835Y-92875000D01*
X70078074Y-92819853D01*
X70339227Y-92711680D01*
X70543784Y-92575000D01*
X71110998Y-92575000D01*
X71188899Y-92638932D01*
X71438192Y-92772182D01*
X71708691Y-92854236D01*
X71919508Y-92875000D01*
X72860492Y-92875000D01*
X73071309Y-92854236D01*
X73341808Y-92772182D01*
X73591101Y-92638932D01*
X73809608Y-92459608D01*
X73988932Y-92241101D01*
X74122182Y-91991808D01*
X74204236Y-91721309D01*
X74231943Y-91440000D01*
X74204236Y-91158691D01*
X74122182Y-90888192D01*
X73988932Y-90638899D01*
X73809608Y-90420392D01*
X73591101Y-90241068D01*
X73463259Y-90172735D01*
X73692839Y-90022601D01*
X73894500Y-89824895D01*
X73966100Y-89720000D01*
X76570671Y-89720000D01*
X76575000Y-89763954D01*
X76575001Y-92031027D01*
X76575000Y-92031037D01*
X76575000Y-93301045D01*
X76570671Y-93345000D01*
X76575000Y-93388954D01*
X76575000Y-93388963D01*
X76587950Y-93520450D01*
X76639127Y-93689158D01*
X76722234Y-93844640D01*
X76834078Y-93980922D01*
X76868230Y-94008950D01*
X78116054Y-95256775D01*
X78144078Y-95290922D01*
X78178225Y-95318946D01*
X78178226Y-95318947D01*
X78185602Y-95325000D01*
X78280359Y-95402766D01*
X78435841Y-95485873D01*
X78604549Y-95537050D01*
X78736036Y-95550000D01*
X78736043Y-95550000D01*
X78780000Y-95554329D01*
X78823957Y-95550000D01*
X83661284Y-95550000D01*
X83664188Y-95579482D01*
X83700498Y-95699180D01*
X83759463Y-95809494D01*
X83838815Y-95906185D01*
X83935506Y-95985537D01*
X84045820Y-96044502D01*
X84165518Y-96080812D01*
X84290000Y-96093072D01*
X84297215Y-96093072D01*
X84276903Y-96162298D01*
X85090000Y-96975395D01*
X85903097Y-96162298D01*
X85882785Y-96093072D01*
X85890000Y-96093072D01*
X86014482Y-96080812D01*
X86134180Y-96044502D01*
X86244494Y-95985537D01*
X86341185Y-95906185D01*
X86420537Y-95809494D01*
X86479502Y-95699180D01*
X86515812Y-95579482D01*
X86528072Y-95455000D01*
X86528072Y-93855000D01*
X86515812Y-93730518D01*
X86479502Y-93610820D01*
X86420537Y-93500506D01*
X86341185Y-93403815D01*
X86244494Y-93324463D01*
X86134180Y-93265498D01*
X86014482Y-93229188D01*
X85890000Y-93216928D01*
X84290000Y-93216928D01*
X84165518Y-93229188D01*
X84045820Y-93265498D01*
X83935506Y-93324463D01*
X83838815Y-93403815D01*
X83759463Y-93500506D01*
X83700498Y-93610820D01*
X83664188Y-93730518D01*
X83661284Y-93760000D01*
X79150721Y-93760000D01*
X78365000Y-92974280D01*
X78365000Y-92696261D01*
X78455506Y-92770537D01*
X78565820Y-92829502D01*
X78685518Y-92865812D01*
X78810000Y-92878072D01*
X81210000Y-92878072D01*
X81334482Y-92865812D01*
X81454180Y-92829502D01*
X81564494Y-92770537D01*
X81661185Y-92691185D01*
X81740537Y-92594494D01*
X81799502Y-92484180D01*
X81835812Y-92364482D01*
X81838716Y-92335000D01*
X82456046Y-92335000D01*
X82500000Y-92339329D01*
X82543954Y-92335000D01*
X82543964Y-92335000D01*
X82675451Y-92322050D01*
X82844159Y-92270873D01*
X82999641Y-92187766D01*
X83135922Y-92075922D01*
X83163950Y-92041770D01*
X83785726Y-91419995D01*
X83838815Y-91484685D01*
X83935506Y-91564037D01*
X84045820Y-91623002D01*
X84165518Y-91659312D01*
X84290000Y-91671572D01*
X85890000Y-91671572D01*
X86014482Y-91659312D01*
X86134180Y-91623002D01*
X86244494Y-91564037D01*
X86341185Y-91484685D01*
X86420537Y-91387994D01*
X86479502Y-91277680D01*
X86515812Y-91157982D01*
X86528072Y-91033500D01*
X86528072Y-90233702D01*
X91071403Y-90233702D01*
X91142986Y-90477671D01*
X91398496Y-90598571D01*
X91672684Y-90667300D01*
X91955012Y-90681217D01*
X92234630Y-90639787D01*
X92500792Y-90544603D01*
X92626014Y-90477671D01*
X92697597Y-90233702D01*
X91884500Y-89420605D01*
X91071403Y-90233702D01*
X86528072Y-90233702D01*
X86528072Y-89433500D01*
X86516058Y-89311512D01*
X90444283Y-89311512D01*
X90485713Y-89591130D01*
X90580897Y-89857292D01*
X90647829Y-89982514D01*
X90891798Y-90054097D01*
X91704895Y-89241000D01*
X92064105Y-89241000D01*
X92877202Y-90054097D01*
X93121171Y-89982514D01*
X93242071Y-89727004D01*
X93310800Y-89452816D01*
X93324717Y-89170488D01*
X93283287Y-88890870D01*
X93188103Y-88624708D01*
X93121171Y-88499486D01*
X92877202Y-88427903D01*
X92064105Y-89241000D01*
X91704895Y-89241000D01*
X90891798Y-88427903D01*
X90647829Y-88499486D01*
X90526929Y-88754996D01*
X90458200Y-89029184D01*
X90444283Y-89311512D01*
X86516058Y-89311512D01*
X86515812Y-89309018D01*
X86479502Y-89189320D01*
X86420537Y-89079006D01*
X86341185Y-88982315D01*
X86244494Y-88902963D01*
X86134180Y-88843998D01*
X86038057Y-88814839D01*
X86204637Y-88648259D01*
X86361680Y-88413227D01*
X86469853Y-88152074D01*
X86525000Y-87874835D01*
X86525000Y-87592165D01*
X86469853Y-87314926D01*
X86361680Y-87053773D01*
X86204637Y-86818741D01*
X86004759Y-86618863D01*
X85769727Y-86461820D01*
X85508574Y-86353647D01*
X85231335Y-86298500D01*
X84948665Y-86298500D01*
X84671426Y-86353647D01*
X84410273Y-86461820D01*
X84175241Y-86618863D01*
X83975363Y-86818741D01*
X83962160Y-86838500D01*
X83659221Y-86838500D01*
X82578950Y-85758230D01*
X82550922Y-85724078D01*
X82414641Y-85612234D01*
X82259159Y-85529127D01*
X82090451Y-85477950D01*
X81958964Y-85465000D01*
X81958954Y-85465000D01*
X81915000Y-85460671D01*
X81871046Y-85465000D01*
X81531871Y-85465000D01*
X81429608Y-85340392D01*
X81211101Y-85161068D01*
X81078142Y-85090000D01*
X81211101Y-85018932D01*
X81429608Y-84839608D01*
X81531871Y-84715000D01*
X82887046Y-84715000D01*
X82931000Y-84719329D01*
X82974954Y-84715000D01*
X82974964Y-84715000D01*
X83106451Y-84702050D01*
X83275159Y-84650873D01*
X83430641Y-84567766D01*
X83566922Y-84455922D01*
X83594951Y-84421769D01*
X83691198Y-84325522D01*
X83700498Y-84356180D01*
X83759463Y-84466494D01*
X83838815Y-84563185D01*
X83935506Y-84642537D01*
X84045820Y-84701502D01*
X84165518Y-84737812D01*
X84290000Y-84750072D01*
X85890000Y-84750072D01*
X86014482Y-84737812D01*
X86134180Y-84701502D01*
X86244494Y-84642537D01*
X86341185Y-84563185D01*
X86420537Y-84466494D01*
X86479502Y-84356180D01*
X86515812Y-84236482D01*
X86528072Y-84112000D01*
X86528072Y-82512000D01*
X86515812Y-82387518D01*
X86479502Y-82267820D01*
X86420537Y-82157506D01*
X86341185Y-82060815D01*
X86244494Y-81981463D01*
X86134180Y-81922498D01*
X86038057Y-81893339D01*
X86204637Y-81726759D01*
X86361680Y-81491727D01*
X86469853Y-81230574D01*
X86525000Y-80953335D01*
X86525000Y-80670665D01*
X86469853Y-80393426D01*
X86361680Y-80132273D01*
X86204637Y-79897241D01*
X86004759Y-79697363D01*
X85769727Y-79540320D01*
X85508574Y-79432147D01*
X85457623Y-79422012D01*
X90444283Y-79422012D01*
X90485713Y-79701630D01*
X90580897Y-79967792D01*
X90647829Y-80093014D01*
X90891798Y-80164597D01*
X91704895Y-79351500D01*
X92064105Y-79351500D01*
X92877202Y-80164597D01*
X93121171Y-80093014D01*
X93242071Y-79837504D01*
X93310800Y-79563316D01*
X93324717Y-79280988D01*
X93283287Y-79001370D01*
X93188103Y-78735208D01*
X93121171Y-78609986D01*
X92877202Y-78538403D01*
X92064105Y-79351500D01*
X91704895Y-79351500D01*
X90891798Y-78538403D01*
X90647829Y-78609986D01*
X90526929Y-78865496D01*
X90458200Y-79139684D01*
X90444283Y-79422012D01*
X85457623Y-79422012D01*
X85231335Y-79377000D01*
X84948665Y-79377000D01*
X84671426Y-79432147D01*
X84410273Y-79540320D01*
X84175241Y-79697363D01*
X83975363Y-79897241D01*
X83962160Y-79917000D01*
X83569954Y-79917000D01*
X83526000Y-79912671D01*
X83482046Y-79917000D01*
X83482036Y-79917000D01*
X83350549Y-79929950D01*
X83181841Y-79981127D01*
X83026359Y-80064234D01*
X82890078Y-80176078D01*
X82862049Y-80210231D01*
X82687280Y-80385000D01*
X81531871Y-80385000D01*
X81429608Y-80260392D01*
X81211101Y-80081068D01*
X81078142Y-80010000D01*
X81211101Y-79938932D01*
X81429608Y-79759608D01*
X81531871Y-79635000D01*
X82720046Y-79635000D01*
X82764000Y-79639329D01*
X82807954Y-79635000D01*
X82807964Y-79635000D01*
X82939451Y-79622050D01*
X83108159Y-79570873D01*
X83263641Y-79487766D01*
X83399922Y-79375922D01*
X83427950Y-79341770D01*
X84410922Y-78358798D01*
X91071403Y-78358798D01*
X91884500Y-79171895D01*
X92697597Y-78358798D01*
X92626014Y-78114829D01*
X92370504Y-77993929D01*
X92096316Y-77925200D01*
X91813988Y-77911283D01*
X91534370Y-77952713D01*
X91268208Y-78047897D01*
X91142986Y-78114829D01*
X91071403Y-78358798D01*
X84410922Y-78358798D01*
X84925357Y-77844364D01*
X84948665Y-77849000D01*
X85231335Y-77849000D01*
X85508574Y-77793853D01*
X85769727Y-77685680D01*
X86004759Y-77528637D01*
X86204637Y-77328759D01*
X86361680Y-77093727D01*
X86469853Y-76832574D01*
X86525000Y-76555335D01*
X86525000Y-76272665D01*
X86469853Y-75995426D01*
X86361680Y-75734273D01*
X86204637Y-75499241D01*
X86038057Y-75332661D01*
X86134180Y-75303502D01*
X86244494Y-75244537D01*
X86341185Y-75165185D01*
X86420537Y-75068494D01*
X86479502Y-74958180D01*
X86515812Y-74838482D01*
X86528072Y-74714000D01*
X86525000Y-74199750D01*
X86366250Y-74041000D01*
X85217000Y-74041000D01*
X85217000Y-74061000D01*
X84963000Y-74061000D01*
X84963000Y-74041000D01*
X84943000Y-74041000D01*
X84943000Y-73787000D01*
X84963000Y-73787000D01*
X84963000Y-72637750D01*
X85217000Y-72637750D01*
X85217000Y-73787000D01*
X86366250Y-73787000D01*
X86525000Y-73628250D01*
X86528072Y-73114000D01*
X86515812Y-72989518D01*
X86479502Y-72869820D01*
X86420537Y-72759506D01*
X86341185Y-72662815D01*
X86244494Y-72583463D01*
X86134180Y-72524498D01*
X86014482Y-72488188D01*
X85890000Y-72475928D01*
X85375750Y-72479000D01*
X85217000Y-72637750D01*
X84963000Y-72637750D01*
X84804250Y-72479000D01*
X84290000Y-72475928D01*
X84165518Y-72488188D01*
X84045820Y-72524498D01*
X83935506Y-72583463D01*
X83838815Y-72662815D01*
X83759463Y-72759506D01*
X83730750Y-72813223D01*
X83730750Y-65898665D01*
X84925000Y-65898665D01*
X84925000Y-66181335D01*
X84980147Y-66458574D01*
X85088320Y-66719727D01*
X85245363Y-66954759D01*
X85445241Y-67154637D01*
X85680273Y-67311680D01*
X85941426Y-67419853D01*
X86218665Y-67475000D01*
X86501335Y-67475000D01*
X86778574Y-67419853D01*
X87039727Y-67311680D01*
X87274759Y-67154637D01*
X87474637Y-66954759D01*
X87487840Y-66935000D01*
X91958280Y-66935000D01*
X94713052Y-69689773D01*
X94741078Y-69723922D01*
X94775225Y-69751946D01*
X94775226Y-69751947D01*
X94782056Y-69757552D01*
X94877359Y-69835766D01*
X95032841Y-69918873D01*
X95201549Y-69970050D01*
X95333036Y-69983000D01*
X95333046Y-69983000D01*
X95377000Y-69987329D01*
X95420954Y-69983000D01*
X109103280Y-69983000D01*
X109850000Y-70729721D01*
X109850001Y-72023428D01*
X109770000Y-72023428D01*
X109645518Y-72035688D01*
X109525820Y-72071998D01*
X109415506Y-72130963D01*
X109318815Y-72210315D01*
X109239463Y-72307006D01*
X109180498Y-72417320D01*
X109144188Y-72537018D01*
X109131928Y-72661500D01*
X109131928Y-73261500D01*
X109144188Y-73385982D01*
X109180498Y-73505680D01*
X109229043Y-73596500D01*
X109180498Y-73687320D01*
X109144188Y-73807018D01*
X109131928Y-73931500D01*
X109131928Y-74531500D01*
X109144188Y-74655982D01*
X109180498Y-74775680D01*
X109229043Y-74866500D01*
X109180498Y-74957320D01*
X109144188Y-75077018D01*
X109131928Y-75201500D01*
X109131928Y-75801500D01*
X109144188Y-75925982D01*
X109180498Y-76045680D01*
X109229043Y-76136500D01*
X109180498Y-76227320D01*
X109144188Y-76347018D01*
X109131928Y-76471500D01*
X109131928Y-77071500D01*
X109144188Y-77195982D01*
X109180498Y-77315680D01*
X109229043Y-77406500D01*
X109180498Y-77497320D01*
X109144188Y-77617018D01*
X109131928Y-77741500D01*
X109131928Y-78341500D01*
X109144188Y-78465982D01*
X109180498Y-78585680D01*
X109229043Y-78676500D01*
X109180498Y-78767320D01*
X109144188Y-78887018D01*
X109131928Y-79011500D01*
X109131928Y-79611500D01*
X109144188Y-79735982D01*
X109180498Y-79855680D01*
X109229043Y-79946500D01*
X109180498Y-80037320D01*
X109144188Y-80157018D01*
X109131928Y-80281500D01*
X109131928Y-80881500D01*
X109144188Y-81005982D01*
X109180498Y-81125680D01*
X109229043Y-81216500D01*
X109180498Y-81307320D01*
X109144188Y-81427018D01*
X109131928Y-81551500D01*
X109131928Y-82151500D01*
X109144188Y-82275982D01*
X109180498Y-82395680D01*
X109229043Y-82486500D01*
X109180498Y-82577320D01*
X109144188Y-82697018D01*
X109131928Y-82821500D01*
X109131928Y-83421500D01*
X109144188Y-83545982D01*
X109180498Y-83665680D01*
X109229043Y-83756500D01*
X109180498Y-83847320D01*
X109144188Y-83967018D01*
X109131928Y-84091500D01*
X109135000Y-84105750D01*
X109293750Y-84264500D01*
X110618000Y-84264500D01*
X110618000Y-84244500D01*
X110872000Y-84244500D01*
X110872000Y-84264500D01*
X110892000Y-84264500D01*
X110892000Y-84518500D01*
X110872000Y-84518500D01*
X110872000Y-85167750D01*
X111030750Y-85326500D01*
X111720000Y-85329572D01*
X111730551Y-85328533D01*
X111585481Y-85460086D01*
X111417963Y-85686080D01*
X111297754Y-85940413D01*
X111257096Y-86074461D01*
X111379085Y-86296500D01*
X112522000Y-86296500D01*
X112522000Y-85152876D01*
X112299960Y-85031591D01*
X112246707Y-85050661D01*
X112250537Y-85045994D01*
X112309502Y-84935680D01*
X112345812Y-84815982D01*
X112358072Y-84691500D01*
X112355000Y-84677250D01*
X112196252Y-84518502D01*
X112355000Y-84518502D01*
X112355000Y-84474220D01*
X112942635Y-85061855D01*
X112776000Y-85152876D01*
X112776000Y-86296500D01*
X113918915Y-86296500D01*
X114010529Y-86129749D01*
X116684054Y-88803275D01*
X116712078Y-88837422D01*
X116746225Y-88865446D01*
X116746226Y-88865447D01*
X116775080Y-88889127D01*
X116848359Y-88949266D01*
X117003841Y-89032373D01*
X117172549Y-89083550D01*
X117304036Y-89096500D01*
X117304043Y-89096500D01*
X117348000Y-89100829D01*
X117360706Y-89099578D01*
X117393498Y-89207680D01*
X117452463Y-89317994D01*
X117531815Y-89414685D01*
X117628506Y-89494037D01*
X117738820Y-89553002D01*
X117858518Y-89589312D01*
X117983000Y-89601572D01*
X119507000Y-89601572D01*
X119631482Y-89589312D01*
X119751180Y-89553002D01*
X119861494Y-89494037D01*
X119958185Y-89414685D01*
X120037537Y-89317994D01*
X120096502Y-89207680D01*
X120108822Y-89167065D01*
X120499040Y-89167065D01*
X120566020Y-89407156D01*
X120815048Y-89524256D01*
X121082135Y-89590523D01*
X121357017Y-89603410D01*
X121629133Y-89562422D01*
X121888023Y-89469136D01*
X122003980Y-89407156D01*
X122070960Y-89167065D01*
X121285000Y-88381105D01*
X120499040Y-89167065D01*
X120108822Y-89167065D01*
X120132812Y-89087982D01*
X120145072Y-88963500D01*
X120145072Y-88938817D01*
X120319435Y-88987460D01*
X121105395Y-88201500D01*
X121464605Y-88201500D01*
X122250565Y-88987460D01*
X122490656Y-88920480D01*
X122607756Y-88671452D01*
X122674023Y-88404365D01*
X122686910Y-88129483D01*
X122645922Y-87857367D01*
X122552636Y-87598477D01*
X122490656Y-87482520D01*
X122250565Y-87415540D01*
X121464605Y-88201500D01*
X121105395Y-88201500D01*
X120319435Y-87415540D01*
X120145072Y-87464183D01*
X120145072Y-87439500D01*
X120132812Y-87315018D01*
X120096502Y-87195320D01*
X120037537Y-87085006D01*
X119958185Y-86988315D01*
X119861494Y-86908963D01*
X119751180Y-86849998D01*
X119631482Y-86813688D01*
X119547535Y-86805420D01*
X119635535Y-86746620D01*
X119755090Y-86627065D01*
X120499040Y-86627065D01*
X120566020Y-86867156D01*
X120696644Y-86928579D01*
X120681977Y-86933864D01*
X120566020Y-86995844D01*
X120499040Y-87235935D01*
X121285000Y-88021895D01*
X122070960Y-87235935D01*
X122003980Y-86995844D01*
X121873356Y-86934421D01*
X121888023Y-86929136D01*
X122003980Y-86867156D01*
X122070960Y-86627065D01*
X121285000Y-85841105D01*
X120499040Y-86627065D01*
X119755090Y-86627065D01*
X119830120Y-86552035D01*
X119983005Y-86323227D01*
X120012692Y-86251557D01*
X120017364Y-86264523D01*
X120079344Y-86380480D01*
X120319435Y-86447460D01*
X121105395Y-85661500D01*
X121464605Y-85661500D01*
X122250565Y-86447460D01*
X122490656Y-86380480D01*
X122607756Y-86131452D01*
X122674023Y-85864365D01*
X122686910Y-85589483D01*
X122645922Y-85317367D01*
X122552636Y-85058477D01*
X122490656Y-84942520D01*
X122250565Y-84875540D01*
X121464605Y-85661500D01*
X121105395Y-85661500D01*
X120319435Y-84875540D01*
X120079344Y-84942520D01*
X120015515Y-85078260D01*
X119983005Y-84999773D01*
X119830120Y-84770965D01*
X119635535Y-84576380D01*
X119406727Y-84423495D01*
X119329485Y-84391500D01*
X119406727Y-84359505D01*
X119635535Y-84206620D01*
X119755090Y-84087065D01*
X120499040Y-84087065D01*
X120566020Y-84327156D01*
X120696644Y-84388579D01*
X120681977Y-84393864D01*
X120566020Y-84455844D01*
X120499040Y-84695935D01*
X121285000Y-85481895D01*
X122070960Y-84695935D01*
X122003980Y-84455844D01*
X121873356Y-84394421D01*
X121888023Y-84389136D01*
X122003980Y-84327156D01*
X122070960Y-84087065D01*
X121285000Y-83301105D01*
X120499040Y-84087065D01*
X119755090Y-84087065D01*
X119830120Y-84012035D01*
X119983005Y-83783227D01*
X120012692Y-83711557D01*
X120017364Y-83724523D01*
X120079344Y-83840480D01*
X120319435Y-83907460D01*
X121105395Y-83121500D01*
X121464605Y-83121500D01*
X122250565Y-83907460D01*
X122490656Y-83840480D01*
X122607756Y-83591452D01*
X122674023Y-83324365D01*
X122686910Y-83049483D01*
X122645922Y-82777367D01*
X122552636Y-82518477D01*
X122490656Y-82402520D01*
X122250565Y-82335540D01*
X121464605Y-83121500D01*
X121105395Y-83121500D01*
X120319435Y-82335540D01*
X120079344Y-82402520D01*
X120015515Y-82538260D01*
X119983005Y-82459773D01*
X119830120Y-82230965D01*
X119635535Y-82036380D01*
X119406727Y-81883495D01*
X119329485Y-81851500D01*
X119406727Y-81819505D01*
X119635535Y-81666620D01*
X119755090Y-81547065D01*
X120499040Y-81547065D01*
X120566020Y-81787156D01*
X120696644Y-81848579D01*
X120681977Y-81853864D01*
X120566020Y-81915844D01*
X120499040Y-82155935D01*
X121285000Y-82941895D01*
X122070960Y-82155935D01*
X122003980Y-81915844D01*
X121873356Y-81854421D01*
X121888023Y-81849136D01*
X122003980Y-81787156D01*
X122070960Y-81547065D01*
X121285000Y-80761105D01*
X120499040Y-81547065D01*
X119755090Y-81547065D01*
X119830120Y-81472035D01*
X119983005Y-81243227D01*
X120012692Y-81171557D01*
X120017364Y-81184523D01*
X120079344Y-81300480D01*
X120319435Y-81367460D01*
X121105395Y-80581500D01*
X121464605Y-80581500D01*
X122250565Y-81367460D01*
X122490656Y-81300480D01*
X122607756Y-81051452D01*
X122674023Y-80784365D01*
X122686910Y-80509483D01*
X122645922Y-80237367D01*
X122552636Y-79978477D01*
X122490656Y-79862520D01*
X122250565Y-79795540D01*
X121464605Y-80581500D01*
X121105395Y-80581500D01*
X120319435Y-79795540D01*
X120079344Y-79862520D01*
X120015515Y-79998260D01*
X119983005Y-79919773D01*
X119830120Y-79690965D01*
X119635535Y-79496380D01*
X119406727Y-79343495D01*
X119329485Y-79311500D01*
X119406727Y-79279505D01*
X119635535Y-79126620D01*
X119755090Y-79007065D01*
X120499040Y-79007065D01*
X120566020Y-79247156D01*
X120696644Y-79308579D01*
X120681977Y-79313864D01*
X120566020Y-79375844D01*
X120499040Y-79615935D01*
X121285000Y-80401895D01*
X122070960Y-79615935D01*
X122003980Y-79375844D01*
X121873356Y-79314421D01*
X121888023Y-79309136D01*
X122003980Y-79247156D01*
X122070960Y-79007065D01*
X121285000Y-78221105D01*
X120499040Y-79007065D01*
X119755090Y-79007065D01*
X119830120Y-78932035D01*
X119983005Y-78703227D01*
X120012692Y-78631557D01*
X120017364Y-78644523D01*
X120079344Y-78760480D01*
X120319435Y-78827460D01*
X121105395Y-78041500D01*
X121464605Y-78041500D01*
X122250565Y-78827460D01*
X122490656Y-78760480D01*
X122607756Y-78511452D01*
X122674023Y-78244365D01*
X122686910Y-77969483D01*
X122645922Y-77697367D01*
X122552636Y-77438477D01*
X122490656Y-77322520D01*
X122250565Y-77255540D01*
X121464605Y-78041500D01*
X121105395Y-78041500D01*
X120319435Y-77255540D01*
X120079344Y-77322520D01*
X120015515Y-77458260D01*
X119983005Y-77379773D01*
X119830120Y-77150965D01*
X119635535Y-76956380D01*
X119406727Y-76803495D01*
X119329485Y-76771500D01*
X119406727Y-76739505D01*
X119635535Y-76586620D01*
X119755090Y-76467065D01*
X120499040Y-76467065D01*
X120566020Y-76707156D01*
X120696644Y-76768579D01*
X120681977Y-76773864D01*
X120566020Y-76835844D01*
X120499040Y-77075935D01*
X121285000Y-77861895D01*
X122070960Y-77075935D01*
X122003980Y-76835844D01*
X121873356Y-76774421D01*
X121888023Y-76769136D01*
X122003980Y-76707156D01*
X122070960Y-76467065D01*
X121285000Y-75681105D01*
X120499040Y-76467065D01*
X119755090Y-76467065D01*
X119830120Y-76392035D01*
X119983005Y-76163227D01*
X120012692Y-76091557D01*
X120017364Y-76104523D01*
X120079344Y-76220480D01*
X120319435Y-76287460D01*
X121105395Y-75501500D01*
X121464605Y-75501500D01*
X122250565Y-76287460D01*
X122490656Y-76220480D01*
X122607756Y-75971452D01*
X122674023Y-75704365D01*
X122686910Y-75429483D01*
X122645922Y-75157367D01*
X122552636Y-74898477D01*
X122490656Y-74782520D01*
X122250565Y-74715540D01*
X121464605Y-75501500D01*
X121105395Y-75501500D01*
X120319435Y-74715540D01*
X120079344Y-74782520D01*
X120015515Y-74918260D01*
X119983005Y-74839773D01*
X119830120Y-74610965D01*
X119635535Y-74416380D01*
X119406727Y-74263495D01*
X119329485Y-74231500D01*
X119406727Y-74199505D01*
X119635535Y-74046620D01*
X119755090Y-73927065D01*
X120499040Y-73927065D01*
X120566020Y-74167156D01*
X120696644Y-74228579D01*
X120681977Y-74233864D01*
X120566020Y-74295844D01*
X120499040Y-74535935D01*
X121285000Y-75321895D01*
X122070960Y-74535935D01*
X122003980Y-74295844D01*
X121873356Y-74234421D01*
X121888023Y-74229136D01*
X122003980Y-74167156D01*
X122070960Y-73927065D01*
X121285000Y-73141105D01*
X120499040Y-73927065D01*
X119755090Y-73927065D01*
X119830120Y-73852035D01*
X119983005Y-73623227D01*
X120012692Y-73551557D01*
X120017364Y-73564523D01*
X120079344Y-73680480D01*
X120319435Y-73747460D01*
X121105395Y-72961500D01*
X121464605Y-72961500D01*
X122250565Y-73747460D01*
X122490656Y-73680480D01*
X122607756Y-73431452D01*
X122674023Y-73164365D01*
X122686910Y-72889483D01*
X122645922Y-72617367D01*
X122552636Y-72358477D01*
X122490656Y-72242520D01*
X122250565Y-72175540D01*
X121464605Y-72961500D01*
X121105395Y-72961500D01*
X120319435Y-72175540D01*
X120079344Y-72242520D01*
X120015515Y-72378260D01*
X119983005Y-72299773D01*
X119830120Y-72070965D01*
X119635535Y-71876380D01*
X119406727Y-71723495D01*
X119329485Y-71691500D01*
X119406727Y-71659505D01*
X119635535Y-71506620D01*
X119755090Y-71387065D01*
X120499040Y-71387065D01*
X120566020Y-71627156D01*
X120696644Y-71688579D01*
X120681977Y-71693864D01*
X120566020Y-71755844D01*
X120499040Y-71995935D01*
X121285000Y-72781895D01*
X122070960Y-71995935D01*
X122003980Y-71755844D01*
X121873356Y-71694421D01*
X121888023Y-71689136D01*
X122003980Y-71627156D01*
X122070960Y-71387065D01*
X121285000Y-70601105D01*
X120499040Y-71387065D01*
X119755090Y-71387065D01*
X119830120Y-71312035D01*
X119983005Y-71083227D01*
X120012692Y-71011557D01*
X120017364Y-71024523D01*
X120079344Y-71140480D01*
X120319435Y-71207460D01*
X121105395Y-70421500D01*
X121464605Y-70421500D01*
X122250565Y-71207460D01*
X122490656Y-71140480D01*
X122607756Y-70891452D01*
X122674023Y-70624365D01*
X122686910Y-70349483D01*
X122645922Y-70077367D01*
X122552636Y-69818477D01*
X122490656Y-69702520D01*
X122250565Y-69635540D01*
X121464605Y-70421500D01*
X121105395Y-70421500D01*
X120319435Y-69635540D01*
X120079344Y-69702520D01*
X120015515Y-69838260D01*
X119983005Y-69759773D01*
X119830120Y-69530965D01*
X119635535Y-69336380D01*
X119406727Y-69183495D01*
X119329485Y-69151500D01*
X119406727Y-69119505D01*
X119635535Y-68966620D01*
X119755090Y-68847065D01*
X120499040Y-68847065D01*
X120566020Y-69087156D01*
X120696644Y-69148579D01*
X120681977Y-69153864D01*
X120566020Y-69215844D01*
X120499040Y-69455935D01*
X121285000Y-70241895D01*
X122070960Y-69455935D01*
X122003980Y-69215844D01*
X121873356Y-69154421D01*
X121888023Y-69149136D01*
X122003980Y-69087156D01*
X122070960Y-68847065D01*
X121285000Y-68061105D01*
X120499040Y-68847065D01*
X119755090Y-68847065D01*
X119830120Y-68772035D01*
X119983005Y-68543227D01*
X120012692Y-68471557D01*
X120017364Y-68484523D01*
X120079344Y-68600480D01*
X120319435Y-68667460D01*
X121105395Y-67881500D01*
X121464605Y-67881500D01*
X122250565Y-68667460D01*
X122490656Y-68600480D01*
X122607756Y-68351452D01*
X122674023Y-68084365D01*
X122686910Y-67809483D01*
X122645922Y-67537367D01*
X122552636Y-67278477D01*
X122490656Y-67162520D01*
X122250565Y-67095540D01*
X121464605Y-67881500D01*
X121105395Y-67881500D01*
X120319435Y-67095540D01*
X120079344Y-67162520D01*
X120015515Y-67298260D01*
X119983005Y-67219773D01*
X119830120Y-66990965D01*
X119755090Y-66915935D01*
X120499040Y-66915935D01*
X121285000Y-67701895D01*
X122070960Y-66915935D01*
X122003980Y-66675844D01*
X121754952Y-66558744D01*
X121487865Y-66492477D01*
X121212983Y-66479590D01*
X120940867Y-66520578D01*
X120681977Y-66613864D01*
X120566020Y-66675844D01*
X120499040Y-66915935D01*
X119755090Y-66915935D01*
X119635535Y-66796380D01*
X119406727Y-66643495D01*
X119152490Y-66538186D01*
X118882592Y-66484500D01*
X118607408Y-66484500D01*
X118337510Y-66538186D01*
X118083273Y-66643495D01*
X117854465Y-66796380D01*
X117664345Y-66986500D01*
X96827221Y-66986500D01*
X95410364Y-65569643D01*
X95415000Y-65546335D01*
X95415000Y-65263665D01*
X95359853Y-64986426D01*
X95251680Y-64725273D01*
X95094637Y-64490241D01*
X94915561Y-64311165D01*
X96736000Y-64311165D01*
X96736000Y-64593835D01*
X96791147Y-64871074D01*
X96899320Y-65132227D01*
X97056363Y-65367259D01*
X97256241Y-65567137D01*
X97491273Y-65724180D01*
X97752426Y-65832353D01*
X98029665Y-65887500D01*
X98312335Y-65887500D01*
X98589574Y-65832353D01*
X98850727Y-65724180D01*
X99085759Y-65567137D01*
X99285637Y-65367259D01*
X99298840Y-65347500D01*
X121612780Y-65347500D01*
X123311000Y-67045722D01*
X123311001Y-94013277D01*
X122705727Y-94618552D01*
X122636185Y-94533815D01*
X122539494Y-94454463D01*
X122429180Y-94395498D01*
X122309482Y-94359188D01*
X122185000Y-94346928D01*
X120385000Y-94346928D01*
X120260518Y-94359188D01*
X120140820Y-94395498D01*
X120030506Y-94454463D01*
X119933815Y-94533815D01*
X119854463Y-94630506D01*
X119795498Y-94740820D01*
X119759188Y-94860518D01*
X119746928Y-94985000D01*
X119746928Y-96785000D01*
X119759188Y-96909482D01*
X119795498Y-97029180D01*
X119854463Y-97139494D01*
X119933815Y-97236185D01*
X120030506Y-97315537D01*
X120140820Y-97374502D01*
X120151735Y-97377813D01*
X120104970Y-97424578D01*
X120220918Y-97540526D01*
X119966739Y-97624208D01*
X119835842Y-97896775D01*
X119760635Y-98189642D01*
X119744009Y-98491553D01*
X119786603Y-98790907D01*
X119886778Y-99076199D01*
X119966739Y-99225792D01*
X120220920Y-99309475D01*
X121105395Y-98425000D01*
X121091253Y-98410858D01*
X121270858Y-98231253D01*
X121285000Y-98245395D01*
X121299143Y-98231253D01*
X121478748Y-98410858D01*
X121464605Y-98425000D01*
X122349080Y-99309475D01*
X122603261Y-99225792D01*
X122734158Y-98953225D01*
X122809365Y-98660358D01*
X122825991Y-98358447D01*
X122783397Y-98059093D01*
X122683222Y-97773801D01*
X122603261Y-97624208D01*
X122349082Y-97540526D01*
X122465030Y-97424578D01*
X122418265Y-97377813D01*
X122429180Y-97374502D01*
X122539494Y-97315537D01*
X122636185Y-97236185D01*
X122715537Y-97139494D01*
X122774502Y-97029180D01*
X122810812Y-96909482D01*
X122823072Y-96785000D01*
X122823072Y-96772701D01*
X122880451Y-96767050D01*
X123049159Y-96715873D01*
X123204641Y-96632766D01*
X123340922Y-96520922D01*
X123368950Y-96486770D01*
X123598080Y-96257640D01*
X123928948Y-95926773D01*
X123928949Y-95926772D01*
X124807780Y-95047942D01*
X124841922Y-95019922D01*
X124869941Y-94985781D01*
X124869948Y-94985774D01*
X124953766Y-94883641D01*
X125036873Y-94728159D01*
X125088050Y-94559451D01*
X125090575Y-94533815D01*
X125101000Y-94427964D01*
X125101000Y-94427957D01*
X125105329Y-94384000D01*
X125101000Y-94340043D01*
X125101000Y-66718957D01*
X125105329Y-66675000D01*
X125101000Y-66631043D01*
X125101000Y-66631036D01*
X125088050Y-66499549D01*
X125036873Y-66330841D01*
X124953766Y-66175359D01*
X124869948Y-66073226D01*
X124869941Y-66073219D01*
X124841922Y-66039078D01*
X124807781Y-66011060D01*
X122647450Y-63850730D01*
X122619422Y-63816578D01*
X122483141Y-63704734D01*
X122327659Y-63621627D01*
X122158951Y-63570450D01*
X122027464Y-63557500D01*
X122027454Y-63557500D01*
X121983500Y-63553171D01*
X121939546Y-63557500D01*
X99298840Y-63557500D01*
X99285637Y-63537741D01*
X99085759Y-63337863D01*
X98850727Y-63180820D01*
X98589574Y-63072647D01*
X98312335Y-63017500D01*
X98029665Y-63017500D01*
X97752426Y-63072647D01*
X97491273Y-63180820D01*
X97256241Y-63337863D01*
X97056363Y-63537741D01*
X96899320Y-63772773D01*
X96791147Y-64033926D01*
X96736000Y-64311165D01*
X94915561Y-64311165D01*
X94894759Y-64290363D01*
X94659727Y-64133320D01*
X94398574Y-64025147D01*
X94121335Y-63970000D01*
X93838665Y-63970000D01*
X93561426Y-64025147D01*
X93300273Y-64133320D01*
X93065241Y-64290363D01*
X92865363Y-64490241D01*
X92708320Y-64725273D01*
X92600147Y-64986426D01*
X92562524Y-65175566D01*
X92504451Y-65157950D01*
X92372964Y-65145000D01*
X92372954Y-65145000D01*
X92329000Y-65140671D01*
X92285046Y-65145000D01*
X87487840Y-65145000D01*
X87474637Y-65125241D01*
X87274759Y-64925363D01*
X87039727Y-64768320D01*
X86778574Y-64660147D01*
X86501335Y-64605000D01*
X86218665Y-64605000D01*
X85941426Y-64660147D01*
X85680273Y-64768320D01*
X85445241Y-64925363D01*
X85245363Y-65125241D01*
X85088320Y-65360273D01*
X84980147Y-65621426D01*
X84925000Y-65898665D01*
X83730750Y-65898665D01*
X83730750Y-63584970D01*
X85524221Y-61791500D01*
X106699546Y-61791500D01*
X106743500Y-61795829D01*
X106787454Y-61791500D01*
X106787464Y-61791500D01*
X106918951Y-61778550D01*
X107087659Y-61727373D01*
X107243141Y-61644266D01*
X107379422Y-61532422D01*
X107407450Y-61498270D01*
X108551780Y-60353942D01*
X108585922Y-60325922D01*
X108613941Y-60291781D01*
X108613948Y-60291774D01*
X108697766Y-60189641D01*
X108780873Y-60034159D01*
X108832050Y-59865451D01*
X108845000Y-59733964D01*
X108845000Y-59733957D01*
X108849329Y-59690000D01*
X108845000Y-59646043D01*
X108845000Y-59268640D01*
X108924482Y-59260812D01*
X109044180Y-59224502D01*
X109154494Y-59165537D01*
X109251185Y-59086185D01*
X109330537Y-58989494D01*
X109389502Y-58879180D01*
X109413966Y-58798534D01*
X109489731Y-58882588D01*
X109723080Y-59056641D01*
X109985901Y-59181825D01*
X110133110Y-59226476D01*
X110363000Y-59105155D01*
X110363000Y-57912000D01*
X110617000Y-57912000D01*
X110617000Y-59105155D01*
X110846890Y-59226476D01*
X110994099Y-59181825D01*
X111256920Y-59056641D01*
X111490269Y-58882588D01*
X111685178Y-58666355D01*
X111834157Y-58416252D01*
X111931481Y-58141891D01*
X111810814Y-57912000D01*
X110617000Y-57912000D01*
X110363000Y-57912000D01*
X110343000Y-57912000D01*
X110343000Y-57658000D01*
X110363000Y-57658000D01*
X110363000Y-56464845D01*
X110617000Y-56464845D01*
X110617000Y-57658000D01*
X111810814Y-57658000D01*
X111931481Y-57428109D01*
X111834157Y-57153748D01*
X111685178Y-56903645D01*
X111490269Y-56687412D01*
X111256920Y-56513359D01*
X110994099Y-56388175D01*
X110846890Y-56343524D01*
X110617000Y-56464845D01*
X110363000Y-56464845D01*
X110133110Y-56343524D01*
X109985901Y-56388175D01*
X109723080Y-56513359D01*
X109489731Y-56687412D01*
X109413966Y-56771466D01*
X109389502Y-56690820D01*
X109330537Y-56580506D01*
X109251185Y-56483815D01*
X109154494Y-56404463D01*
X109044180Y-56345498D01*
X108924482Y-56309188D01*
X108800000Y-56296928D01*
X107100000Y-56296928D01*
X106975518Y-56309188D01*
X106855820Y-56345498D01*
X106745506Y-56404463D01*
X106648815Y-56483815D01*
X106569463Y-56580506D01*
X106510498Y-56690820D01*
X106474188Y-56810518D01*
X106461928Y-56935000D01*
X106461928Y-58635000D01*
X106474188Y-58759482D01*
X106510498Y-58879180D01*
X106569463Y-58989494D01*
X106648815Y-59086185D01*
X106745506Y-59165537D01*
X106855820Y-59224502D01*
X106975518Y-59260812D01*
X107055001Y-59268640D01*
X107055001Y-59319278D01*
X106372780Y-60001500D01*
X85197453Y-60001500D01*
X85153499Y-59997171D01*
X85109545Y-60001500D01*
X85109536Y-60001500D01*
X84978049Y-60014450D01*
X84809341Y-60065627D01*
X84653859Y-60148734D01*
X84653857Y-60148735D01*
X84653858Y-60148735D01*
X84563557Y-60222844D01*
X84517578Y-60260578D01*
X84489554Y-60294725D01*
X82233976Y-62550304D01*
X82199829Y-62578328D01*
X82171805Y-62612475D01*
X82171803Y-62612477D01*
X82087984Y-62714610D01*
X82004877Y-62870092D01*
X81953701Y-63038800D01*
X81936421Y-63214250D01*
X81940751Y-63258214D01*
X81940750Y-74781529D01*
X81480219Y-75242061D01*
X81429608Y-75180392D01*
X81211101Y-75001068D01*
X81083259Y-74932735D01*
X81312839Y-74782601D01*
X81514500Y-74584895D01*
X81673715Y-74351646D01*
X81784367Y-74091818D01*
X81801904Y-74009039D01*
X81679915Y-73787000D01*
X80137000Y-73787000D01*
X80137000Y-73807000D01*
X79883000Y-73807000D01*
X79883000Y-73787000D01*
X78340085Y-73787000D01*
X78218096Y-74009039D01*
X78235633Y-74091818D01*
X78346285Y-74351646D01*
X78505500Y-74584895D01*
X78707161Y-74782601D01*
X78936741Y-74932735D01*
X78808899Y-75001068D01*
X78590392Y-75180392D01*
X78411068Y-75398899D01*
X78277818Y-75648192D01*
X78195764Y-75918691D01*
X78168057Y-76200000D01*
X78195764Y-76481309D01*
X78277818Y-76751808D01*
X78411068Y-77001101D01*
X78590392Y-77219608D01*
X78808899Y-77398932D01*
X78941858Y-77470000D01*
X78808899Y-77541068D01*
X78590392Y-77720392D01*
X78411068Y-77938899D01*
X78277818Y-78188192D01*
X78195764Y-78458691D01*
X78168057Y-78740000D01*
X78195764Y-79021309D01*
X78277818Y-79291808D01*
X78411068Y-79541101D01*
X78590392Y-79759608D01*
X78808899Y-79938932D01*
X78941858Y-80010000D01*
X78808899Y-80081068D01*
X78590392Y-80260392D01*
X78411068Y-80478899D01*
X78277818Y-80728192D01*
X78195764Y-80998691D01*
X78168057Y-81280000D01*
X78195764Y-81561309D01*
X78277818Y-81831808D01*
X78411068Y-82081101D01*
X78590392Y-82299608D01*
X78808899Y-82478932D01*
X78941858Y-82550000D01*
X78808899Y-82621068D01*
X78590392Y-82800392D01*
X78411068Y-83018899D01*
X78277818Y-83268192D01*
X78195764Y-83538691D01*
X78168057Y-83820000D01*
X78195764Y-84101309D01*
X78277818Y-84371808D01*
X78411068Y-84621101D01*
X78590392Y-84839608D01*
X78808899Y-85018932D01*
X78941858Y-85090000D01*
X78808899Y-85161068D01*
X78590392Y-85340392D01*
X78411068Y-85558899D01*
X78277818Y-85808192D01*
X78195764Y-86078691D01*
X78168057Y-86360000D01*
X78195764Y-86641309D01*
X78277818Y-86911808D01*
X78411068Y-87161101D01*
X78590392Y-87379608D01*
X78808899Y-87558932D01*
X78941858Y-87630000D01*
X78808899Y-87701068D01*
X78590392Y-87880392D01*
X78488129Y-88005000D01*
X78333953Y-88005000D01*
X78289999Y-88000671D01*
X78246045Y-88005000D01*
X78246036Y-88005000D01*
X78114549Y-88017950D01*
X77945841Y-88069127D01*
X77790358Y-88152234D01*
X77691774Y-88233141D01*
X77654078Y-88264078D01*
X77626054Y-88298225D01*
X76868230Y-89056050D01*
X76834078Y-89084078D01*
X76722234Y-89220360D01*
X76639127Y-89375842D01*
X76587950Y-89544550D01*
X76575000Y-89676037D01*
X76575000Y-89676046D01*
X76570671Y-89720000D01*
X73966100Y-89720000D01*
X74053715Y-89591646D01*
X74164367Y-89331818D01*
X74181904Y-89249039D01*
X74059915Y-89027000D01*
X72517000Y-89027000D01*
X72517000Y-89047000D01*
X72263000Y-89047000D01*
X72263000Y-89027000D01*
X72243000Y-89027000D01*
X72243000Y-88773000D01*
X72263000Y-88773000D01*
X72263000Y-88753000D01*
X72517000Y-88753000D01*
X72517000Y-88773000D01*
X74059915Y-88773000D01*
X74181904Y-88550961D01*
X74164367Y-88468182D01*
X74053715Y-88208354D01*
X73894500Y-87975105D01*
X73692839Y-87777399D01*
X73463259Y-87627265D01*
X73591101Y-87558932D01*
X73809608Y-87379608D01*
X73988932Y-87161101D01*
X74122182Y-86911808D01*
X74204236Y-86641309D01*
X74231943Y-86360000D01*
X74204236Y-86078691D01*
X74122182Y-85808192D01*
X73988932Y-85558899D01*
X73809608Y-85340392D01*
X73591101Y-85161068D01*
X73463259Y-85092735D01*
X73692839Y-84942601D01*
X73894500Y-84744895D01*
X74053715Y-84511646D01*
X74164367Y-84251818D01*
X74181904Y-84169039D01*
X74059915Y-83947000D01*
X72517000Y-83947000D01*
X72517000Y-83967000D01*
X72263000Y-83967000D01*
X72263000Y-83947000D01*
X72243000Y-83947000D01*
X72243000Y-83693000D01*
X72263000Y-83693000D01*
X72263000Y-83673000D01*
X72517000Y-83673000D01*
X72517000Y-83693000D01*
X74059915Y-83693000D01*
X74181904Y-83470961D01*
X74164367Y-83388182D01*
X74053715Y-83128354D01*
X73894500Y-82895105D01*
X73692839Y-82697399D01*
X73463259Y-82547265D01*
X73591101Y-82478932D01*
X73809608Y-82299608D01*
X73988932Y-82081101D01*
X74122182Y-81831808D01*
X74204236Y-81561309D01*
X74231943Y-81280000D01*
X74204236Y-80998691D01*
X74122182Y-80728192D01*
X73988932Y-80478899D01*
X73809608Y-80260392D01*
X73591101Y-80081068D01*
X73458142Y-80010000D01*
X73591101Y-79938932D01*
X73809608Y-79759608D01*
X73911871Y-79635000D01*
X74066046Y-79635000D01*
X74110000Y-79639329D01*
X74153954Y-79635000D01*
X74153964Y-79635000D01*
X74285451Y-79622050D01*
X74454159Y-79570873D01*
X74609641Y-79487766D01*
X74745922Y-79375922D01*
X74773950Y-79341770D01*
X76801775Y-77313946D01*
X76835922Y-77285922D01*
X76947766Y-77149641D01*
X77030873Y-76994159D01*
X77082050Y-76825451D01*
X77095000Y-76693964D01*
X77095000Y-76693955D01*
X77099329Y-76650001D01*
X77095000Y-76606047D01*
X77095000Y-73310961D01*
X78218096Y-73310961D01*
X78340085Y-73533000D01*
X79883000Y-73533000D01*
X79883000Y-72225000D01*
X80137000Y-72225000D01*
X80137000Y-73533000D01*
X81679915Y-73533000D01*
X81801904Y-73310961D01*
X81784367Y-73228182D01*
X81673715Y-72968354D01*
X81514500Y-72735105D01*
X81312839Y-72537399D01*
X81076483Y-72382834D01*
X80814514Y-72277350D01*
X80537000Y-72225000D01*
X80137000Y-72225000D01*
X79883000Y-72225000D01*
X79483000Y-72225000D01*
X79205486Y-72277350D01*
X78943517Y-72382834D01*
X78707161Y-72537399D01*
X78505500Y-72735105D01*
X78346285Y-72968354D01*
X78235633Y-73228182D01*
X78218096Y-73310961D01*
X77095000Y-73310961D01*
X77095000Y-68623953D01*
X77099329Y-68579999D01*
X77095000Y-68536045D01*
X77095000Y-68536036D01*
X77082050Y-68404549D01*
X77030873Y-68235841D01*
X76947766Y-68080359D01*
X76835922Y-67944078D01*
X76801776Y-67916055D01*
X75090364Y-66204643D01*
X75095000Y-66181335D01*
X75095000Y-65898665D01*
X75039853Y-65621426D01*
X74931680Y-65360273D01*
X74774637Y-65125241D01*
X74574759Y-64925363D01*
X74339727Y-64768320D01*
X74078574Y-64660147D01*
X73801335Y-64605000D01*
X73518665Y-64605000D01*
X73241426Y-64660147D01*
X72980273Y-64768320D01*
X72745241Y-64925363D01*
X72545363Y-65125241D01*
X72388320Y-65360273D01*
X72280147Y-65621426D01*
X72225000Y-65898665D01*
X72225000Y-66181335D01*
X72280147Y-66458574D01*
X72388320Y-66719727D01*
X72545363Y-66954759D01*
X72745241Y-67154637D01*
X72980273Y-67311680D01*
X73241426Y-67419853D01*
X73518665Y-67475000D01*
X73801335Y-67475000D01*
X73824643Y-67470364D01*
X75305000Y-68950721D01*
X75305000Y-70229280D01*
X75090364Y-70014644D01*
X75095000Y-69991335D01*
X75095000Y-69708665D01*
X75039853Y-69431426D01*
X74931680Y-69170273D01*
X74774637Y-68935241D01*
X74574759Y-68735363D01*
X74339727Y-68578320D01*
X74078574Y-68470147D01*
X73801335Y-68415000D01*
X73518665Y-68415000D01*
X73241426Y-68470147D01*
X72980273Y-68578320D01*
X72745241Y-68735363D01*
X72545363Y-68935241D01*
X72388320Y-69170273D01*
X72280147Y-69431426D01*
X72225000Y-69708665D01*
X72225000Y-69991335D01*
X72280147Y-70268574D01*
X72388320Y-70529727D01*
X72545363Y-70764759D01*
X72745241Y-70964637D01*
X72980273Y-71121680D01*
X73241426Y-71229853D01*
X73518665Y-71285000D01*
X73801335Y-71285000D01*
X73824644Y-71280364D01*
X74289000Y-71744721D01*
X74289001Y-74305278D01*
X73592260Y-75002019D01*
X73591101Y-75001068D01*
X73458142Y-74930000D01*
X73591101Y-74858932D01*
X73809608Y-74679608D01*
X73988932Y-74461101D01*
X74122182Y-74211808D01*
X74204236Y-73941309D01*
X74231943Y-73660000D01*
X74204236Y-73378691D01*
X74122182Y-73108192D01*
X73988932Y-72858899D01*
X73809608Y-72640392D01*
X73591101Y-72461068D01*
X73341808Y-72327818D01*
X73071309Y-72245764D01*
X72860492Y-72225000D01*
X71919508Y-72225000D01*
X71708691Y-72245764D01*
X71438192Y-72327818D01*
X71188899Y-72461068D01*
X70970392Y-72640392D01*
X70791068Y-72858899D01*
X70745000Y-72945086D01*
X70745000Y-62217472D01*
X71274823Y-61687650D01*
X71274827Y-61687645D01*
X71294204Y-61668268D01*
X76905000Y-61668268D01*
X76905000Y-62029732D01*
X76975518Y-62384250D01*
X77113844Y-62718199D01*
X77314662Y-63018744D01*
X77570256Y-63274338D01*
X77870801Y-63475156D01*
X78204750Y-63613482D01*
X78559268Y-63684000D01*
X78920732Y-63684000D01*
X79275250Y-63613482D01*
X79609199Y-63475156D01*
X79909744Y-63274338D01*
X80165338Y-63018744D01*
X80366156Y-62718199D01*
X80504482Y-62384250D01*
X80575000Y-62029732D01*
X80575000Y-61668268D01*
X80566848Y-61627284D01*
X83274132Y-58920000D01*
X90022317Y-58920000D01*
X90059463Y-58989494D01*
X90138815Y-59086185D01*
X90235506Y-59165537D01*
X90345820Y-59224502D01*
X90465518Y-59260812D01*
X90590000Y-59273072D01*
X92290000Y-59273072D01*
X92414482Y-59260812D01*
X92534180Y-59224502D01*
X92644494Y-59165537D01*
X92741185Y-59086185D01*
X92820537Y-58989494D01*
X92879502Y-58879180D01*
X92903966Y-58798534D01*
X92979731Y-58882588D01*
X93213080Y-59056641D01*
X93475901Y-59181825D01*
X93623110Y-59226476D01*
X93853000Y-59105155D01*
X93853000Y-57912000D01*
X94107000Y-57912000D01*
X94107000Y-59105155D01*
X94336890Y-59226476D01*
X94484099Y-59181825D01*
X94746920Y-59056641D01*
X94980269Y-58882588D01*
X95175178Y-58666355D01*
X95324157Y-58416252D01*
X95421481Y-58141891D01*
X95300814Y-57912000D01*
X94107000Y-57912000D01*
X93853000Y-57912000D01*
X93833000Y-57912000D01*
X93833000Y-57658000D01*
X93853000Y-57658000D01*
X93853000Y-56464845D01*
X94107000Y-56464845D01*
X94107000Y-57658000D01*
X95300814Y-57658000D01*
X95421481Y-57428109D01*
X95324157Y-57153748D01*
X95175178Y-56903645D01*
X94980269Y-56687412D01*
X94746920Y-56513359D01*
X94484099Y-56388175D01*
X94336890Y-56343524D01*
X94107000Y-56464845D01*
X93853000Y-56464845D01*
X93623110Y-56343524D01*
X93475901Y-56388175D01*
X93213080Y-56513359D01*
X92979731Y-56687412D01*
X92903966Y-56771466D01*
X92879502Y-56690820D01*
X92820537Y-56580506D01*
X92741185Y-56483815D01*
X92644494Y-56404463D01*
X92534180Y-56345498D01*
X92414482Y-56309188D01*
X92290000Y-56296928D01*
X90590000Y-56296928D01*
X90465518Y-56309188D01*
X90345820Y-56345498D01*
X90235506Y-56404463D01*
X90138815Y-56483815D01*
X90059463Y-56580506D01*
X90022317Y-56650000D01*
X82859751Y-56650000D01*
X82804000Y-56644509D01*
X82748248Y-56650000D01*
X82581501Y-56666423D01*
X82367553Y-56731324D01*
X82170377Y-56836716D01*
X81997551Y-56978551D01*
X81962009Y-57021859D01*
X78961716Y-60022152D01*
X78920732Y-60014000D01*
X78559268Y-60014000D01*
X78204750Y-60084518D01*
X77870801Y-60222844D01*
X77570256Y-60423662D01*
X77314662Y-60679256D01*
X77113844Y-60979801D01*
X76975518Y-61313750D01*
X76905000Y-61668268D01*
X71294204Y-61668268D01*
X74282474Y-58680000D01*
X74716360Y-58680000D01*
X74724188Y-58759482D01*
X74760498Y-58879180D01*
X74819463Y-58989494D01*
X74898815Y-59086185D01*
X74995506Y-59165537D01*
X75105820Y-59224502D01*
X75225518Y-59260812D01*
X75350000Y-59273072D01*
X77050000Y-59273072D01*
X77174482Y-59260812D01*
X77294180Y-59224502D01*
X77404494Y-59165537D01*
X77501185Y-59086185D01*
X77580537Y-58989494D01*
X77639502Y-58879180D01*
X77663966Y-58798534D01*
X77739731Y-58882588D01*
X77973080Y-59056641D01*
X78235901Y-59181825D01*
X78383110Y-59226476D01*
X78613000Y-59105155D01*
X78613000Y-57912000D01*
X78867000Y-57912000D01*
X78867000Y-59105155D01*
X79096890Y-59226476D01*
X79244099Y-59181825D01*
X79506920Y-59056641D01*
X79740269Y-58882588D01*
X79935178Y-58666355D01*
X80084157Y-58416252D01*
X80181481Y-58141891D01*
X80060814Y-57912000D01*
X78867000Y-57912000D01*
X78613000Y-57912000D01*
X78593000Y-57912000D01*
X78593000Y-57658000D01*
X78613000Y-57658000D01*
X78613000Y-56464845D01*
X78867000Y-56464845D01*
X78867000Y-57658000D01*
X80060814Y-57658000D01*
X80181481Y-57428109D01*
X80084157Y-57153748D01*
X79935178Y-56903645D01*
X79740269Y-56687412D01*
X79506920Y-56513359D01*
X79244099Y-56388175D01*
X79096890Y-56343524D01*
X78867000Y-56464845D01*
X78613000Y-56464845D01*
X78383110Y-56343524D01*
X78235901Y-56388175D01*
X77973080Y-56513359D01*
X77739731Y-56687412D01*
X77663966Y-56771466D01*
X77639502Y-56690820D01*
X77580537Y-56580506D01*
X77501185Y-56483815D01*
X77404494Y-56404463D01*
X77294180Y-56345498D01*
X77174482Y-56309188D01*
X77050000Y-56296928D01*
X75350000Y-56296928D01*
X75225518Y-56309188D01*
X75105820Y-56345498D01*
X74995506Y-56404463D01*
X74898815Y-56483815D01*
X74819463Y-56580506D01*
X74760498Y-56690820D01*
X74724188Y-56810518D01*
X74716360Y-56890000D01*
X73955706Y-56890000D01*
X73911752Y-56885671D01*
X73867798Y-56890000D01*
X73867789Y-56890000D01*
X73736302Y-56902950D01*
X73567594Y-56954127D01*
X73412112Y-57037234D01*
X73275831Y-57149078D01*
X73247807Y-57183225D01*
X70009108Y-60421924D01*
X70009102Y-60421929D01*
X69248226Y-61182806D01*
X69214079Y-61210830D01*
X69186055Y-61244977D01*
X69186053Y-61244979D01*
X69102234Y-61347112D01*
X69019127Y-61502594D01*
X68967951Y-61671302D01*
X68950671Y-61846752D01*
X68955001Y-61890716D01*
X68955000Y-83228963D01*
X68955001Y-83228972D01*
X68955001Y-84444256D01*
X68955000Y-85681046D01*
X68950671Y-85725000D01*
X68955000Y-85768954D01*
X68955000Y-85768963D01*
X68967950Y-85900450D01*
X69019127Y-86069158D01*
X69102234Y-86224640D01*
X69214078Y-86360922D01*
X69248230Y-86388950D01*
X69821058Y-86961780D01*
X69849078Y-86995922D01*
X69883219Y-87023941D01*
X69883226Y-87023948D01*
X69957626Y-87085006D01*
X69985359Y-87107766D01*
X70140841Y-87190873D01*
X70309549Y-87242050D01*
X70441036Y-87255000D01*
X70441043Y-87255000D01*
X70485000Y-87259329D01*
X70528957Y-87255000D01*
X70868129Y-87255000D01*
X70970392Y-87379608D01*
X71188899Y-87558932D01*
X71316741Y-87627265D01*
X71087161Y-87777399D01*
X70885500Y-87975105D01*
X70760244Y-88158604D01*
X70652202Y-88126903D01*
X69839105Y-88940000D01*
X70652202Y-89753097D01*
X70805740Y-89708047D01*
X70885500Y-89824895D01*
X71087161Y-90022601D01*
X71316741Y-90172735D01*
X71188899Y-90241068D01*
X71110998Y-90305000D01*
X70543784Y-90305000D01*
X70373631Y-90191308D01*
X70401014Y-90176671D01*
X70472597Y-89932702D01*
X69659500Y-89119605D01*
X68846403Y-89932702D01*
X68917986Y-90176671D01*
X68946841Y-90190324D01*
X68775216Y-90305000D01*
X68635752Y-90305000D01*
X68580000Y-90299509D01*
X68524248Y-90305000D01*
X68357501Y-90321423D01*
X68143553Y-90386324D01*
X67946377Y-90491716D01*
X67773551Y-90633551D01*
X67738008Y-90676860D01*
X67474868Y-90940000D01*
X67380957Y-90940000D01*
X67370537Y-90920506D01*
X67291185Y-90823815D01*
X67194494Y-90744463D01*
X67175000Y-90734043D01*
X67175000Y-89010512D01*
X68219283Y-89010512D01*
X68260713Y-89290130D01*
X68355897Y-89556292D01*
X68422829Y-89681514D01*
X68666798Y-89753097D01*
X69479895Y-88940000D01*
X68666798Y-88126903D01*
X68422829Y-88198486D01*
X68301929Y-88453996D01*
X68233200Y-88728184D01*
X68219283Y-89010512D01*
X67175000Y-89010512D01*
X67175000Y-87947298D01*
X68846403Y-87947298D01*
X69659500Y-88760395D01*
X70472597Y-87947298D01*
X70401014Y-87703329D01*
X70145504Y-87582429D01*
X69871316Y-87513700D01*
X69588988Y-87499783D01*
X69309370Y-87541213D01*
X69043208Y-87636397D01*
X68917986Y-87703329D01*
X68846403Y-87947298D01*
X67175000Y-87947298D01*
X67175000Y-87879284D01*
X67311680Y-87674727D01*
X67419853Y-87413574D01*
X67475000Y-87136335D01*
X67475000Y-86853665D01*
X67419853Y-86576426D01*
X67311680Y-86315273D01*
X67175000Y-86110716D01*
X67175000Y-83457170D01*
X67215463Y-83423963D01*
X67413845Y-83182235D01*
X67561255Y-82906449D01*
X67652030Y-82607204D01*
X67682681Y-82296000D01*
X67652030Y-81984796D01*
X67561255Y-81685551D01*
X67413845Y-81409765D01*
X67215463Y-81168037D01*
X67036101Y-81020837D01*
X67221315Y-80865437D01*
X67415969Y-80622923D01*
X67559571Y-80347094D01*
X67630563Y-80128980D01*
X67510594Y-79883000D01*
X66167000Y-79883000D01*
X66167000Y-79903000D01*
X65913000Y-79903000D01*
X65913000Y-79883000D01*
X64569406Y-79883000D01*
X64449437Y-80128980D01*
X64520429Y-80347094D01*
X64664031Y-80622923D01*
X64858685Y-80865437D01*
X65043899Y-81020837D01*
X64864537Y-81168037D01*
X64666155Y-81409765D01*
X64518745Y-81685551D01*
X64427970Y-81984796D01*
X64397319Y-82296000D01*
X64427970Y-82607204D01*
X64518745Y-82906449D01*
X64666155Y-83182235D01*
X64864537Y-83423963D01*
X64905000Y-83457170D01*
X64905000Y-86110716D01*
X64791308Y-86280869D01*
X64776671Y-86253486D01*
X64532702Y-86181903D01*
X63719605Y-86995000D01*
X63360395Y-86995000D01*
X62547298Y-86181903D01*
X62303329Y-86253486D01*
X62182429Y-86508996D01*
X62113700Y-86783184D01*
X62099783Y-87065512D01*
X60706000Y-87065512D01*
X60706000Y-86002298D01*
X62726903Y-86002298D01*
X63540000Y-86815395D01*
X64353097Y-86002298D01*
X64281514Y-85758329D01*
X64026004Y-85637429D01*
X63751816Y-85568700D01*
X63469488Y-85554783D01*
X63189870Y-85596213D01*
X62923708Y-85691397D01*
X62798486Y-85758329D01*
X62726903Y-86002298D01*
X60706000Y-86002298D01*
X60706000Y-74208202D01*
X62726903Y-74208202D01*
X62798486Y-74452171D01*
X63053996Y-74573071D01*
X63328184Y-74641800D01*
X63610512Y-74655717D01*
X63890130Y-74614287D01*
X64156292Y-74519103D01*
X64281514Y-74452171D01*
X64353097Y-74208202D01*
X63540000Y-73395105D01*
X62726903Y-74208202D01*
X60706000Y-74208202D01*
X60706000Y-73286012D01*
X62099783Y-73286012D01*
X62141213Y-73565630D01*
X62236397Y-73831792D01*
X62303329Y-73957014D01*
X62547298Y-74028597D01*
X63360395Y-73215500D01*
X62547298Y-72402403D01*
X62303329Y-72473986D01*
X62182429Y-72729496D01*
X62113700Y-73003684D01*
X62099783Y-73286012D01*
X60706000Y-73286012D01*
X60706000Y-72222798D01*
X62726903Y-72222798D01*
X63540000Y-73035895D01*
X64353097Y-72222798D01*
X64281514Y-71978829D01*
X64026004Y-71857929D01*
X63751816Y-71789200D01*
X63469488Y-71775283D01*
X63189870Y-71816713D01*
X62923708Y-71911897D01*
X62798486Y-71978829D01*
X62726903Y-72222798D01*
X60706000Y-72222798D01*
X60706000Y-69572702D01*
X62726903Y-69572702D01*
X62798486Y-69816671D01*
X63053996Y-69937571D01*
X63328184Y-70006300D01*
X63610512Y-70020217D01*
X63890130Y-69978787D01*
X64156292Y-69883603D01*
X64281514Y-69816671D01*
X64353097Y-69572702D01*
X63540000Y-68759605D01*
X62726903Y-69572702D01*
X60706000Y-69572702D01*
X60706000Y-68650512D01*
X62099783Y-68650512D01*
X62141213Y-68930130D01*
X62236397Y-69196292D01*
X62303329Y-69321514D01*
X62547298Y-69393097D01*
X63360395Y-68580000D01*
X63719605Y-68580000D01*
X64532702Y-69393097D01*
X64601928Y-69372785D01*
X64601928Y-69380000D01*
X64614188Y-69504482D01*
X64650498Y-69624180D01*
X64709463Y-69734494D01*
X64788815Y-69831185D01*
X64885506Y-69910537D01*
X64905000Y-69920957D01*
X64905001Y-72331215D01*
X64791308Y-72501369D01*
X64776671Y-72473986D01*
X64532702Y-72402403D01*
X63719605Y-73215500D01*
X64532702Y-74028597D01*
X64776671Y-73957014D01*
X64790324Y-73928159D01*
X64905001Y-74099785D01*
X64905000Y-75640878D01*
X64795820Y-75673998D01*
X64685506Y-75732963D01*
X64588815Y-75812315D01*
X64509463Y-75909006D01*
X64450498Y-76019320D01*
X64414188Y-76139018D01*
X64401928Y-76263500D01*
X64401928Y-78168500D01*
X64414188Y-78292982D01*
X64450498Y-78412680D01*
X64509463Y-78522994D01*
X64588815Y-78619685D01*
X64685506Y-78699037D01*
X64777219Y-78748059D01*
X64664031Y-78889077D01*
X64520429Y-79164906D01*
X64449437Y-79383020D01*
X64569406Y-79629000D01*
X65913000Y-79629000D01*
X65913000Y-79609000D01*
X66167000Y-79609000D01*
X66167000Y-79629000D01*
X67510594Y-79629000D01*
X67630563Y-79383020D01*
X67559571Y-79164906D01*
X67415969Y-78889077D01*
X67302781Y-78748059D01*
X67394494Y-78699037D01*
X67491185Y-78619685D01*
X67570537Y-78522994D01*
X67629502Y-78412680D01*
X67665812Y-78292982D01*
X67678072Y-78168500D01*
X67678072Y-76263500D01*
X67665812Y-76139018D01*
X67629502Y-76019320D01*
X67570537Y-75909006D01*
X67491185Y-75812315D01*
X67394494Y-75732963D01*
X67284180Y-75673998D01*
X67175000Y-75640879D01*
X67175000Y-74099784D01*
X67311680Y-73895227D01*
X67419853Y-73634074D01*
X67475000Y-73356835D01*
X67475000Y-73074165D01*
X67419853Y-72796926D01*
X67311680Y-72535773D01*
X67175000Y-72331216D01*
X67175000Y-69920957D01*
X67194494Y-69910537D01*
X67291185Y-69831185D01*
X67370537Y-69734494D01*
X67429502Y-69624180D01*
X67465812Y-69504482D01*
X67478072Y-69380000D01*
X67478072Y-67780000D01*
X67465812Y-67655518D01*
X67429502Y-67535820D01*
X67370537Y-67425506D01*
X67291185Y-67328815D01*
X67194494Y-67249463D01*
X67175000Y-67239043D01*
X67175000Y-63687072D01*
X67240000Y-63687072D01*
X67364482Y-63674812D01*
X67484180Y-63638502D01*
X67594494Y-63579537D01*
X67691185Y-63500185D01*
X67770537Y-63403494D01*
X67829502Y-63293180D01*
X67865812Y-63173482D01*
X67878072Y-63049000D01*
X67878072Y-60649000D01*
X67865812Y-60524518D01*
X67829502Y-60404820D01*
X67770537Y-60294506D01*
X67691185Y-60197815D01*
X67594494Y-60118463D01*
X67484180Y-60059498D01*
X67364482Y-60023188D01*
X67240000Y-60010928D01*
X64840000Y-60010928D01*
X64715518Y-60023188D01*
X64595820Y-60059498D01*
X64485506Y-60118463D01*
X64388815Y-60197815D01*
X64309463Y-60294506D01*
X64250498Y-60404820D01*
X64214188Y-60524518D01*
X64201928Y-60649000D01*
X64201928Y-63049000D01*
X64214188Y-63173482D01*
X64250498Y-63293180D01*
X64309463Y-63403494D01*
X64388815Y-63500185D01*
X64485506Y-63579537D01*
X64595820Y-63638502D01*
X64715518Y-63674812D01*
X64840000Y-63687072D01*
X64905001Y-63687072D01*
X64905000Y-67239043D01*
X64885506Y-67249463D01*
X64788815Y-67328815D01*
X64709463Y-67425506D01*
X64650498Y-67535820D01*
X64614188Y-67655518D01*
X64601928Y-67780000D01*
X64601928Y-67787215D01*
X64532702Y-67766903D01*
X63719605Y-68580000D01*
X63360395Y-68580000D01*
X62547298Y-67766903D01*
X62303329Y-67838486D01*
X62182429Y-68093996D01*
X62113700Y-68368184D01*
X62099783Y-68650512D01*
X60706000Y-68650512D01*
X60706000Y-67587298D01*
X62726903Y-67587298D01*
X63540000Y-68400395D01*
X64353097Y-67587298D01*
X64281514Y-67343329D01*
X64026004Y-67222429D01*
X63751816Y-67153700D01*
X63469488Y-67139783D01*
X63189870Y-67181213D01*
X62923708Y-67276397D01*
X62798486Y-67343329D01*
X62726903Y-67587298D01*
X60706000Y-67587298D01*
X60706000Y-56350000D01*
X63152419Y-56350000D01*
X63186138Y-56346679D01*
X63208839Y-56346679D01*
X63218003Y-56345716D01*
X63557414Y-56307645D01*
X63615917Y-56295209D01*
X63674605Y-56283589D01*
X63683408Y-56280864D01*
X64008961Y-56177593D01*
X64063908Y-56154042D01*
X64119249Y-56131233D01*
X64127355Y-56126850D01*
X64426649Y-55962312D01*
X64476005Y-55928517D01*
X64525832Y-55895412D01*
X64532932Y-55889538D01*
X64794567Y-55670000D01*
X64836411Y-55627270D01*
X64878865Y-55585112D01*
X64884689Y-55577970D01*
X65098700Y-55311796D01*
X65131450Y-55261749D01*
X65164906Y-55212148D01*
X65169232Y-55204011D01*
X65327466Y-54901337D01*
X65349862Y-54845905D01*
X65373056Y-54790729D01*
X65375719Y-54781907D01*
X65472150Y-54454262D01*
X65483349Y-54395554D01*
X65495388Y-54336905D01*
X65496287Y-54327733D01*
X65527241Y-53987599D01*
X65526823Y-53927783D01*
X65527241Y-53867967D01*
X65526342Y-53858796D01*
X65490642Y-53519126D01*
X65478610Y-53460514D01*
X65467405Y-53401769D01*
X65464741Y-53392947D01*
X65363745Y-53066681D01*
X65340565Y-53011538D01*
X65318156Y-52956073D01*
X65313829Y-52947936D01*
X65151384Y-52647500D01*
X65117939Y-52597916D01*
X65085179Y-52547853D01*
X65079354Y-52540712D01*
X64861648Y-52277551D01*
X64819212Y-52235410D01*
X64777349Y-52192661D01*
X64770248Y-52186787D01*
X64505574Y-51970924D01*
X64455716Y-51937799D01*
X64406393Y-51904026D01*
X64398287Y-51899643D01*
X64096725Y-51739299D01*
X64041433Y-51716510D01*
X63986437Y-51692938D01*
X63977634Y-51690213D01*
X63650671Y-51591497D01*
X63592000Y-51579880D01*
X63533479Y-51567441D01*
X63524314Y-51566478D01*
X63184404Y-51533150D01*
X63184402Y-51533150D01*
X63152419Y-51530000D01*
X60706000Y-51530000D01*
X60706000Y-50300000D01*
X125810000Y-50300000D01*
X125810001Y-51530000D01*
G37*
G04 #@! TD.AperFunction*
M02*
